<svg width="360" height="227" viewBox="0 0 360 227" fill="none" xmlns="http://www.w3.org/2000/svg">
<g filter="url(#filter0_d_1427_5136)">
<rect width="360" height="227" rx="7" fill="#F4F8F9"/>
<rect x="0.5" y="0.5" width="359" height="226" rx="6.5" stroke="#BBBBBB" stroke-opacity="0.28"/>
</g>
<path opacity="0.2" d="M164 98L198 84" stroke="black" stroke-dasharray="4 4"/>
<g filter="url(#filter1_d_1427_5136)">
<circle cx="132.784" cy="112" r="35" transform="rotate(-6.58651 132.784 112)" fill="white"/>
<circle cx="132.784" cy="112" r="34.5" transform="rotate(-6.58651 132.784 112)" stroke="#F1F1F1"/>
</g>
<path d="M119.738 103.899C119.663 103.244 119.85 102.586 120.26 102.07C120.669 101.553 121.267 101.221 121.922 101.145L138.381 99.2447C139.036 99.1691 139.694 99.3567 140.211 99.7663C140.727 100.176 141.06 100.774 141.135 101.429C141.202 102.006 141.652 102.449 142.126 102.784C142.278 102.891 142.419 103.016 142.544 103.156C142.887 103.54 143.103 104.02 143.161 104.53L144.872 119.344C144.948 119.999 144.76 120.657 144.35 121.173C143.941 121.69 143.343 122.022 142.688 122.098L126.229 123.998C125.137 124.124 124.041 123.812 123.18 123.129C122.319 122.447 121.765 121.45 121.639 120.359L119.738 103.899ZM121.384 103.709C121.409 103.927 121.52 104.127 121.692 104.263C121.865 104.4 122.084 104.462 122.302 104.437L138.762 102.537C139.216 102.484 139.542 102.073 139.489 101.619C139.464 101.4 139.353 101.201 139.181 101.065C139.009 100.928 138.79 100.865 138.571 100.891L122.112 102.791C121.894 102.816 121.695 102.927 121.558 103.099C121.421 103.272 121.359 103.491 121.384 103.709ZM139.902 112.412L138.256 112.602C138.038 112.628 137.838 112.738 137.702 112.911C137.565 113.083 137.503 113.302 137.528 113.52C137.553 113.739 137.664 113.938 137.836 114.074C138.008 114.211 138.228 114.273 138.446 114.248L140.092 114.058C140.31 114.033 140.509 113.922 140.646 113.75C140.782 113.578 140.845 113.358 140.82 113.14C140.795 112.922 140.684 112.723 140.512 112.586C140.339 112.45 140.12 112.387 139.902 112.412Z" fill="#31AAB7"/>
<g filter="url(#filter2_d_1427_5136)">
<circle cx="228.617" cy="67.8331" r="35" transform="rotate(12.6887 228.617 67.8331)" fill="white"/>
<circle cx="228.617" cy="67.8331" r="34.5" transform="rotate(12.6887 228.617 67.8331)" stroke="#F1F1F1"/>
</g>
<path d="M218.659 53.6033C219.166 52.8875 219.872 52.5141 220.906 52.4147C221.563 52.3517 222.924 52.8218 223.448 53.2933C223.872 53.6742 226.332 58.2922 230.24 66.0423C230.344 66.249 230.564 66.6685 230.727 66.9747L231.407 68.1658L230.54 72.013C230.014 71.0045 228.698 71.9194 228.28 71.0951C224.535 63.6985 221.825 58.5391 221.706 58.5801C221.495 58.653 218.202 73.3515 218.387 73.3933C218.505 73.4198 221.991 71.6016 224.485 70.2127C225.226 69.7997 225.65 69.8246 225.842 70.2921C225.95 70.5557 225.931 70.6747 225.74 70.9322C225.479 71.284 219.673 76.8015 218.471 77.8396C217.544 78.6406 216.704 78.9106 215.784 78.7034C214.658 78.45 213.839 77.6519 213.547 76.5255C213.413 76.0065 213.504 75.5535 215.877 65.0133C218.041 55.4052 218.386 53.9868 218.659 53.6033Z" fill="#272727"/>
<path d="M239.031 82.0348C238.504 82.7366 237.788 83.0907 236.753 83.1619C236.094 83.207 234.747 82.7002 234.235 82.2146C233.822 81.8223 231.488 77.1392 227.792 69.2857C227.693 69.0763 227.486 68.6509 227.33 68.3405L226.684 67.1313L227.654 63.3091C228.153 64.3315 229.105 63.6846 229.5 64.52C233.043 72.0156 236 77.0148 236.12 76.9771C236.333 76.9099 240.025 62.3063 239.84 62.2595C239.723 62.2298 236.19 63.9527 233.659 65.2733C232.907 65.666 232.483 65.6296 232.304 65.1571C232.203 64.8906 232.225 64.7722 232.424 64.52C232.694 64.1753 238.648 58.8176 239.877 57.8126C240.826 57.037 241.673 56.79 242.587 57.0221C243.705 57.306 244.503 58.126 244.764 59.26C244.884 59.7824 244.78 60.2328 242.122 70.7047C239.698 80.2504 239.314 81.6589 239.031 82.0348Z" fill="#272727"/>
<path d="M229.629 72.5184C229.204 72.4228 228.64 71.6757 228.411 71.3141C229.899 68.6723 230.802 70.612 231.068 71.9121C230.765 72.1541 230.054 72.6141 229.629 72.5184Z" fill="#272727"/>
<path d="M36.46 197.062C34.66 197.062 32.96 196.422 31.7 195.282C29.08 192.882 29.08 189.022 31.7 186.622C32.96 185.482 34.66 184.842 36.46 184.842C38.24 184.842 39.94 185.482 41.2 186.622L42.06 185.842C40.56 184.482 38.58 183.722 36.46 183.722C34.32 183.722 32.34 184.482 30.84 185.842C27.74 188.662 27.74 193.242 30.84 196.062C32.34 197.422 34.32 198.182 36.46 198.182C38.58 198.182 40.56 197.422 42.06 196.062L41.2 195.282C39.94 196.422 38.24 197.062 36.46 197.062ZM48.0239 187.842C45.0039 187.842 42.5639 190.122 42.5639 192.902C42.5639 195.702 45.0039 197.982 48.0239 197.982C51.0439 197.982 53.4839 195.702 53.4839 192.902C53.4839 190.122 51.0439 187.842 48.0239 187.842ZM48.0239 196.882C45.6839 196.882 43.7839 195.102 43.7839 192.902C43.7839 190.722 45.6839 188.942 48.0239 188.942C50.3639 188.942 52.2639 190.722 52.2639 192.902C52.2639 195.102 50.3639 196.882 48.0239 196.882ZM63.9147 197.902V192.222C63.9347 191.202 63.6747 190.102 62.9347 189.202C62.5547 188.762 62.0547 188.382 61.4947 188.142C60.9147 187.902 60.2947 187.822 59.6947 187.822C59.1147 187.842 58.4947 187.962 57.9547 188.222C57.4147 188.482 56.9547 188.862 56.6347 189.302C56.5147 189.462 56.4147 189.642 56.3347 189.802V187.902H55.1147V197.902H56.3347V192.442C56.3347 192.362 56.3347 192.302 56.3347 192.222C56.3747 191.762 56.4547 191.322 56.6147 190.902C56.7747 190.482 57.0147 190.102 57.3347 189.802C57.9347 189.162 58.8147 188.902 59.6947 188.942C60.5947 188.962 61.4147 189.282 61.9347 189.902C62.1947 190.202 62.3947 190.582 62.5147 190.962C62.6347 191.362 62.6947 191.782 62.6947 192.222V197.902H63.9147ZM74.6959 197.902V192.222C74.7159 191.202 74.4559 190.102 73.7159 189.202C73.3359 188.762 72.8359 188.382 72.2759 188.142C71.6959 187.902 71.0759 187.822 70.4759 187.822C69.8959 187.842 69.2759 187.962 68.7359 188.222C68.1959 188.482 67.7359 188.862 67.4159 189.302C67.2959 189.462 67.1959 189.642 67.1159 189.802V187.902H65.8959V197.902H67.1159V192.442C67.1159 192.362 67.1159 192.302 67.1159 192.222C67.1559 191.762 67.2359 191.322 67.3959 190.902C67.5559 190.482 67.7959 190.102 68.1159 189.802C68.7159 189.162 69.5959 188.902 70.4759 188.942C71.3759 188.962 72.1959 189.282 72.7159 189.902C72.9759 190.202 73.1759 190.582 73.2959 190.962C73.4159 191.362 73.4759 191.782 73.4759 192.222V197.902H74.6959ZM87.0372 193.462C87.0572 193.282 87.0772 193.102 87.0772 192.902C87.0772 190.122 84.6372 187.842 81.6172 187.842C78.5972 187.842 76.1572 190.122 76.1572 192.902C76.1572 195.702 78.7772 197.982 82.0372 197.982C83.9972 197.982 85.7972 197.142 86.8772 195.782L85.7572 195.302C84.8772 196.282 83.5172 196.882 82.0372 196.882C79.6772 196.882 77.7372 195.382 77.4172 193.462H87.0372ZM77.4172 192.362C77.7172 190.442 79.4772 188.942 81.6172 188.942C83.7572 188.942 85.5172 190.442 85.8172 192.362H77.4172ZM93.6684 196.882H93.6484C91.3084 196.862 89.4084 195.082 89.4284 192.902C89.4284 190.722 91.3284 188.942 93.6684 188.942C95.0284 188.942 96.2884 189.542 97.0884 190.582L98.0884 189.942C97.0684 188.622 95.4084 187.842 93.6884 187.842C93.6684 187.842 93.6684 187.842 93.6684 187.842C90.6484 187.842 88.2084 190.102 88.2084 192.902C88.1884 195.702 90.6284 197.982 93.6484 197.982H93.6684C95.3884 197.982 97.0284 197.222 98.0484 195.922L97.0684 195.282C96.2484 196.282 95.0084 196.882 93.6684 196.882ZM103.268 196.282C102.788 195.962 102.608 195.442 102.608 194.242V189.022H105.908V187.902H102.608V184.802L101.388 185.462V187.922H98.6678V189.022H101.388V194.242C101.388 195.562 101.588 196.562 102.548 197.182C103.128 197.542 103.868 197.662 104.688 197.662C105.088 197.662 105.488 197.642 105.908 197.602V196.482C104.948 196.582 103.828 196.642 103.268 196.282ZM121.525 183.962V194.222C121.525 195.182 121.665 195.982 121.665 195.982C121.665 195.982 121.205 195.122 120.785 194.522L113.245 183.962H112.265V197.942H113.485V187.682C113.485 186.722 113.345 185.922 113.345 185.922C113.345 185.922 113.805 186.782 114.245 187.382L121.765 197.942H122.765V183.962H121.525ZM135.358 193.462C135.378 193.282 135.398 193.102 135.398 192.902C135.398 190.122 132.958 187.842 129.938 187.842C126.918 187.842 124.478 190.122 124.478 192.902C124.478 195.702 127.098 197.982 130.358 197.982C132.318 197.982 134.118 197.142 135.198 195.782L134.078 195.302C133.198 196.282 131.838 196.882 130.358 196.882C127.998 196.882 126.058 195.382 125.738 193.462H135.358ZM125.738 192.362C126.038 190.442 127.798 188.942 129.938 188.942C132.078 188.942 133.838 190.442 134.138 192.362H125.738ZM146.449 187.902V190.242C146.249 189.962 146.049 189.682 145.789 189.422C145.309 188.942 144.729 188.542 144.089 188.282C143.429 188.002 142.709 187.842 141.989 187.842C141.269 187.842 140.529 187.962 139.869 188.222C139.189 188.482 138.589 188.862 138.089 189.342C137.069 190.282 136.509 191.602 136.529 192.902C136.509 194.222 137.069 195.522 138.089 196.482C138.589 196.962 139.189 197.342 139.849 197.602C140.529 197.862 141.249 197.982 141.989 197.982C142.709 197.982 143.429 197.822 144.089 197.542C144.729 197.282 145.309 196.862 145.789 196.402C146.049 196.142 146.249 195.862 146.449 195.562V197.902H147.669V187.902H146.449ZM146.089 194.482C145.849 194.962 145.509 195.422 145.089 195.782C144.249 196.502 143.109 196.882 141.989 196.882C140.869 196.862 139.769 196.422 138.989 195.682C138.189 194.962 137.749 193.942 137.729 192.902C137.729 191.882 138.189 190.862 138.989 190.122C139.769 189.402 140.849 188.962 141.989 188.942C143.109 188.922 144.249 189.302 145.089 190.042C145.509 190.402 145.849 190.842 146.089 191.342C146.329 191.842 146.449 192.362 146.449 192.902C146.449 193.442 146.329 193.982 146.089 194.482ZM154.382 187.822C153.802 187.842 153.182 187.962 152.642 188.222C152.102 188.482 151.642 188.862 151.322 189.302C151.202 189.462 151.102 189.642 151.022 189.802V187.902H149.802V197.902H151.022V192.442C151.022 192.362 151.022 192.302 151.022 192.222C151.062 191.762 151.142 191.322 151.302 190.902C151.462 190.482 151.702 190.102 152.022 189.802C152.622 189.162 153.502 188.902 154.382 188.942C154.882 188.942 155.362 189.062 155.762 189.262L156.042 188.102C155.502 187.902 154.942 187.822 154.382 187.822ZM178.147 183.962L173.367 196.162L170.907 189.842L173.207 183.962H171.907L170.247 188.422L168.607 183.962H167.307L169.607 189.842L167.127 196.162L162.347 183.962H161.067L166.527 197.942H167.727L170.247 191.242L172.767 197.942H173.967L179.447 183.962H178.147ZM188.558 187.902V190.242C188.358 189.962 188.158 189.682 187.898 189.422C187.418 188.942 186.838 188.542 186.198 188.282C185.538 188.002 184.818 187.842 184.098 187.842C183.378 187.842 182.638 187.962 181.978 188.222C181.298 188.482 180.698 188.862 180.198 189.342C179.178 190.282 178.618 191.602 178.638 192.902C178.618 194.222 179.178 195.522 180.198 196.482C180.698 196.962 181.298 197.342 181.958 197.602C182.638 197.862 183.358 197.982 184.098 197.982C184.818 197.982 185.538 197.822 186.198 197.542C186.838 197.282 187.418 196.862 187.898 196.402C188.158 196.142 188.358 195.862 188.558 195.562V197.902H189.778V187.902H188.558ZM188.198 194.482C187.958 194.962 187.618 195.422 187.198 195.782C186.358 196.502 185.218 196.882 184.098 196.882C182.978 196.862 181.878 196.422 181.098 195.682C180.298 194.962 179.858 193.942 179.838 192.902C179.838 191.882 180.298 190.862 181.098 190.122C181.878 189.402 182.958 188.962 184.098 188.942C185.218 188.922 186.358 189.302 187.198 190.042C187.618 190.402 187.958 190.842 188.198 191.342C188.438 191.842 188.558 192.362 188.558 192.902C188.558 193.442 188.438 193.982 188.198 194.482ZM193.132 197.922V183.922H191.912V197.922H193.132ZM196.471 197.922V183.922H195.251V197.922H196.471ZM208.951 193.462C208.971 193.282 208.991 193.102 208.991 192.902C208.991 190.122 206.551 187.842 203.531 187.842C200.511 187.842 198.071 190.122 198.071 192.902C198.071 195.702 200.691 197.982 203.951 197.982C205.911 197.982 207.711 197.142 208.791 195.782L207.671 195.302C206.791 196.282 205.431 196.882 203.951 196.882C201.591 196.882 199.651 195.382 199.331 193.462H208.951ZM199.331 192.362C199.631 190.442 201.391 188.942 203.531 188.942C205.671 188.942 207.431 190.442 207.731 192.362H199.331ZM213.678 196.282C213.198 195.962 213.018 195.442 213.018 194.242V189.022H216.318V187.902H213.018V184.802L211.798 185.462V187.922H209.078V189.022H211.798V194.242C211.798 195.562 211.998 196.562 212.958 197.182C213.538 197.542 214.278 197.662 215.098 197.662C215.498 197.662 215.898 197.642 216.318 197.602V196.482C215.358 196.582 214.238 196.642 213.678 196.282Z" fill="#1C1C1C"/>
<path opacity="0.2" d="M28.648 26.233V27.907L33.049 25.909V42.919H34.696V23.479L28.648 26.233Z" fill="#1C1C1C"/>
<defs>
<filter id="filter0_d_1427_5136" x="-71" y="-61" width="502" height="369" filterUnits="userSpaceOnUse" color-interpolation-filters="sRGB">
<feFlood flood-opacity="0" result="BackgroundImageFix"/>
<feColorMatrix in="SourceAlpha" type="matrix" values="0 0 0 0 0 0 0 0 0 0 0 0 0 0 0 0 0 0 127 0" result="hardAlpha"/>
<feOffset dy="10"/>
<feGaussianBlur stdDeviation="35.5"/>
<feComposite in2="hardAlpha" operator="out"/>
<feColorMatrix type="matrix" values="0 0 0 0 0 0 0 0 0 0 0 0 0 0 0 0 0 0 0.05 0"/>
<feBlend mode="normal" in2="BackgroundImageFix" result="effect1_dropShadow_1427_5136"/>
<feBlend mode="normal" in="SourceGraphic" in2="effect1_dropShadow_1427_5136" result="shape"/>
</filter>
<filter id="filter1_d_1427_5136" x="58.7812" y="47.9972" width="148.006" height="148.007" filterUnits="userSpaceOnUse" color-interpolation-filters="sRGB">
<feFlood flood-opacity="0" result="BackgroundImageFix"/>
<feColorMatrix in="SourceAlpha" type="matrix" values="0 0 0 0 0 0 0 0 0 0 0 0 0 0 0 0 0 0 127 0" result="hardAlpha"/>
<feOffset dy="10"/>
<feGaussianBlur stdDeviation="19.5"/>
<feComposite in2="hardAlpha" operator="out"/>
<feColorMatrix type="matrix" values="0 0 0 0 0 0 0 0 0 0 0 0 0 0 0 0 0 0 0.02 0"/>
<feBlend mode="normal" in2="BackgroundImageFix" result="effect1_dropShadow_1427_5136"/>
<feBlend mode="normal" in="SourceGraphic" in2="effect1_dropShadow_1427_5136" result="shape"/>
</filter>
<filter id="filter2_d_1427_5136" x="154.609" y="3.82556" width="148.016" height="148.015" filterUnits="userSpaceOnUse" color-interpolation-filters="sRGB">
<feFlood flood-opacity="0" result="BackgroundImageFix"/>
<feColorMatrix in="SourceAlpha" type="matrix" values="0 0 0 0 0 0 0 0 0 0 0 0 0 0 0 0 0 0 127 0" result="hardAlpha"/>
<feOffset dy="10"/>
<feGaussianBlur stdDeviation="19.5"/>
<feComposite in2="hardAlpha" operator="out"/>
<feColorMatrix type="matrix" values="0 0 0 0 0 0 0 0 0 0 0 0 0 0 0 0 0 0 0.02 0"/>
<feBlend mode="normal" in2="BackgroundImageFix" result="effect1_dropShadow_1427_5136"/>
<feBlend mode="normal" in="SourceGraphic" in2="effect1_dropShadow_1427_5136" result="shape"/>
</filter>
</defs>
</svg>
