<svg fill="none" xmlns="http://www.w3.org/2000/svg" viewBox="70.5 60.5 361 228">
    <g filter="url(#filter0_d_1427_5136)">
        <rect x="71" y="61" width="360" height="227" rx="7" fill="#F4F8F9"/>
        <rect x="71.5" y="61.5" width="359" height="226" rx="6.5" stroke="#BBBBBB" stroke-opacity="0.28"/>
    </g>
    <path opacity="0.2" d="M235 159L269 145" stroke="black" stroke-dasharray="4 4"/>
    <g filter="url(#filter1_d_1427_5136)">
        <circle cx="203.784" cy="173" r="35" transform="rotate(-6.58651 203.784 173)" fill="white"/>
        <circle cx="203.784" cy="173" r="34.5" transform="rotate(-6.58651 203.784 173)" stroke="#F1F1F1"/>
    </g>
    <path d="M190.738 164.899C190.663 164.244 190.85 163.586 191.26 163.07C191.669 162.553 192.267 162.221 192.922 162.145L209.381 160.245C210.036 160.169 210.694 160.357 211.211 160.766C211.727 161.176 212.06 161.774 212.135 162.429C212.202 163.006 212.652 163.449 213.126 163.784C213.278 163.891 213.419 164.016 213.544 164.156C213.887 164.54 214.103 165.02 214.161 165.53L215.872 180.344C215.948 180.999 215.76 181.657 215.35 182.173C214.941 182.69 214.343 183.022 213.688 183.098L197.229 184.998C196.137 185.124 195.041 184.812 194.18 184.129C193.319 183.447 192.765 182.45 192.639 181.359L190.738 164.899ZM192.384 164.709C192.409 164.927 192.52 165.127 192.692 165.263C192.865 165.4 193.084 165.462 193.302 165.437L209.762 163.537C210.216 163.484 210.542 163.073 210.489 162.619C210.464 162.4 210.353 162.201 210.181 162.065C210.009 161.928 209.79 161.865 209.571 161.891L193.112 163.791C192.894 163.816 192.695 163.927 192.558 164.099C192.421 164.272 192.359 164.491 192.384 164.709ZM210.902 173.412L209.256 173.602C209.038 173.628 208.838 173.738 208.702 173.911C208.565 174.083 208.503 174.302 208.528 174.52C208.553 174.739 208.664 174.938 208.836 175.074C209.008 175.211 209.228 175.273 209.446 175.248L211.092 175.058C211.31 175.033 211.509 174.922 211.646 174.75C211.782 174.578 211.845 174.358 211.82 174.14C211.795 173.922 211.684 173.723 211.512 173.586C211.339 173.45 211.12 173.387 210.902 173.412Z" fill="#31AAB7"/>
    <g filter="url(#filter2_d_1427_5136)">
        <circle cx="299.617" cy="128.833" r="35" transform="rotate(12.6887 299.617 128.833)" fill="white"/>
        <circle cx="299.617" cy="128.833" r="34.5" transform="rotate(12.6887 299.617 128.833)" stroke="#F1F1F1"/>
    </g>
    <path d="M289.659 114.603C290.166 113.888 290.872 113.514 291.906 113.415C292.563 113.352 293.924 113.822 294.448 114.293C294.872 114.674 297.332 119.292 301.24 127.042C301.344 127.249 301.564 127.669 301.727 127.975L302.407 129.166L301.54 133.013C301.014 132.005 299.698 132.919 299.28 132.095C295.535 124.699 292.825 119.539 292.706 119.58C292.495 119.653 289.202 134.352 289.387 134.393C289.505 134.42 292.991 132.602 295.485 131.213C296.226 130.8 296.65 130.825 296.842 131.292C296.95 131.556 296.931 131.675 296.74 131.932C296.479 132.284 290.673 137.802 289.471 138.84C288.544 139.641 287.704 139.911 286.784 139.703C285.658 139.45 284.839 138.652 284.547 137.525C284.413 137.007 284.504 136.554 286.877 126.013C289.041 116.405 289.386 114.987 289.659 114.603Z" fill="#272727"/>
    <path d="M310.031 143.035C309.504 143.737 308.788 144.091 307.753 144.162C307.094 144.207 305.747 143.7 305.235 143.215C304.822 142.822 302.488 138.139 298.792 130.286C298.693 130.076 298.486 129.651 298.33 129.34L297.684 128.131L298.654 124.309C299.153 125.332 300.105 124.685 300.5 125.52C304.043 133.016 307 138.015 307.12 137.977C307.333 137.91 311.025 123.306 310.84 123.259C310.723 123.23 307.19 124.953 304.659 126.273C303.907 126.666 303.483 126.63 303.304 126.157C303.203 125.891 303.225 125.772 303.424 125.52C303.694 125.175 309.648 119.818 310.877 118.813C311.826 118.037 312.673 117.79 313.587 118.022C314.705 118.306 315.503 119.126 315.764 120.26C315.884 120.782 315.78 121.233 313.122 131.705C310.698 141.25 310.314 142.659 310.031 143.035Z" fill="#272727"/>
    <path d="M300.629 133.518C300.204 133.423 299.64 132.676 299.411 132.314C300.899 129.672 301.802 131.612 302.068 132.912C301.765 133.154 301.054 133.614 300.629 133.518Z" fill="#272727"/>
    <path d="M107.46 258.062C105.66 258.062 103.96 257.422 102.7 256.282C100.08 253.882 100.08 250.022 102.7 247.622C103.96 246.482 105.66 245.842 107.46 245.842C109.24 245.842 110.94 246.482 112.2 247.622L113.06 246.842C111.56 245.482 109.58 244.722 107.46 244.722C105.32 244.722 103.34 245.482 101.84 246.842C98.74 249.662 98.74 254.242 101.84 257.062C103.34 258.422 105.32 259.182 107.46 259.182C109.58 259.182 111.56 258.422 113.06 257.062L112.2 256.282C110.94 257.422 109.24 258.062 107.46 258.062ZM119.024 248.842C116.004 248.842 113.564 251.122 113.564 253.902C113.564 256.702 116.004 258.982 119.024 258.982C122.044 258.982 124.484 256.702 124.484 253.902C124.484 251.122 122.044 248.842 119.024 248.842ZM119.024 257.882C116.684 257.882 114.784 256.102 114.784 253.902C114.784 251.722 116.684 249.942 119.024 249.942C121.364 249.942 123.264 251.722 123.264 253.902C123.264 256.102 121.364 257.882 119.024 257.882ZM134.915 258.902V253.222C134.935 252.202 134.675 251.102 133.935 250.202C133.555 249.762 133.055 249.382 132.495 249.142C131.915 248.902 131.295 248.822 130.695 248.822C130.115 248.842 129.495 248.962 128.955 249.222C128.415 249.482 127.955 249.862 127.635 250.302C127.515 250.462 127.415 250.642 127.335 250.802V248.902H126.115V258.902H127.335V253.442C127.335 253.362 127.335 253.302 127.335 253.222C127.375 252.762 127.455 252.322 127.615 251.902C127.775 251.482 128.015 251.102 128.335 250.802C128.935 250.162 129.815 249.902 130.695 249.942C131.595 249.962 132.415 250.282 132.935 250.902C133.195 251.202 133.395 251.582 133.515 251.962C133.635 252.362 133.695 252.782 133.695 253.222V258.902H134.915ZM145.696 258.902V253.222C145.716 252.202 145.456 251.102 144.716 250.202C144.336 249.762 143.836 249.382 143.276 249.142C142.696 248.902 142.076 248.822 141.476 248.822C140.896 248.842 140.276 248.962 139.736 249.222C139.196 249.482 138.736 249.862 138.416 250.302C138.296 250.462 138.196 250.642 138.116 250.802V248.902H136.896V258.902H138.116V253.442C138.116 253.362 138.116 253.302 138.116 253.222C138.156 252.762 138.236 252.322 138.396 251.902C138.556 251.482 138.796 251.102 139.116 250.802C139.716 250.162 140.596 249.902 141.476 249.942C142.376 249.962 143.196 250.282 143.716 250.902C143.976 251.202 144.176 251.582 144.296 251.962C144.416 252.362 144.476 252.782 144.476 253.222V258.902H145.696ZM158.037 254.462C158.057 254.282 158.077 254.102 158.077 253.902C158.077 251.122 155.637 248.842 152.617 248.842C149.597 248.842 147.157 251.122 147.157 253.902C147.157 256.702 149.777 258.982 153.037 258.982C154.997 258.982 156.797 258.142 157.877 256.782L156.757 256.302C155.877 257.282 154.517 257.882 153.037 257.882C150.677 257.882 148.737 256.382 148.417 254.462H158.037ZM148.417 253.362C148.717 251.442 150.477 249.942 152.617 249.942C154.757 249.942 156.517 251.442 156.817 253.362H148.417ZM164.668 257.882H164.648C162.308 257.862 160.408 256.082 160.428 253.902C160.428 251.722 162.328 249.942 164.668 249.942C166.028 249.942 167.288 250.542 168.088 251.582L169.088 250.942C168.068 249.622 166.408 248.842 164.688 248.842C164.668 248.842 164.668 248.842 164.668 248.842C161.648 248.842 159.208 251.102 159.208 253.902C159.188 256.702 161.628 258.982 164.648 258.982H164.668C166.388 258.982 168.028 258.222 169.048 256.922L168.068 256.282C167.248 257.282 166.008 257.882 164.668 257.882ZM174.268 257.282C173.788 256.962 173.608 256.442 173.608 255.242V250.022H176.908V248.902H173.608V245.802L172.388 246.462V248.922H169.668V250.022H172.388V255.242C172.388 256.562 172.588 257.562 173.548 258.182C174.128 258.542 174.868 258.662 175.688 258.662C176.088 258.662 176.488 258.642 176.908 258.602V257.482C175.948 257.582 174.828 257.642 174.268 257.282ZM192.525 244.962V255.222C192.525 256.182 192.665 256.982 192.665 256.982C192.665 256.982 192.205 256.122 191.785 255.522L184.245 244.962H183.265V258.942H184.485V248.682C184.485 247.722 184.345 246.922 184.345 246.922C184.345 246.922 184.805 247.782 185.245 248.382L192.765 258.942H193.765V244.962H192.525ZM206.358 254.462C206.378 254.282 206.398 254.102 206.398 253.902C206.398 251.122 203.958 248.842 200.938 248.842C197.918 248.842 195.478 251.122 195.478 253.902C195.478 256.702 198.098 258.982 201.358 258.982C203.318 258.982 205.118 258.142 206.198 256.782L205.078 256.302C204.198 257.282 202.838 257.882 201.358 257.882C198.998 257.882 197.058 256.382 196.738 254.462H206.358ZM196.738 253.362C197.038 251.442 198.798 249.942 200.938 249.942C203.078 249.942 204.838 251.442 205.138 253.362H196.738ZM217.449 248.902V251.242C217.249 250.962 217.049 250.682 216.789 250.422C216.309 249.942 215.729 249.542 215.089 249.282C214.429 249.002 213.709 248.842 212.989 248.842C212.269 248.842 211.529 248.962 210.869 249.222C210.189 249.482 209.589 249.862 209.089 250.342C208.069 251.282 207.509 252.602 207.529 253.902C207.509 255.222 208.069 256.522 209.089 257.482C209.589 257.962 210.189 258.342 210.849 258.602C211.529 258.862 212.249 258.982 212.989 258.982C213.709 258.982 214.429 258.822 215.089 258.542C215.729 258.282 216.309 257.862 216.789 257.402C217.049 257.142 217.249 256.862 217.449 256.562V258.902H218.669V248.902H217.449ZM217.089 255.482C216.849 255.962 216.509 256.422 216.089 256.782C215.249 257.502 214.109 257.882 212.989 257.882C211.869 257.862 210.769 257.422 209.989 256.682C209.189 255.962 208.749 254.942 208.729 253.902C208.729 252.882 209.189 251.862 209.989 251.122C210.769 250.402 211.849 249.962 212.989 249.942C214.109 249.922 215.249 250.302 216.089 251.042C216.509 251.402 216.849 251.842 217.089 252.342C217.329 252.842 217.449 253.362 217.449 253.902C217.449 254.442 217.329 254.982 217.089 255.482ZM225.382 248.822C224.802 248.842 224.182 248.962 223.642 249.222C223.102 249.482 222.642 249.862 222.322 250.302C222.202 250.462 222.102 250.642 222.022 250.802V248.902H220.802V258.902H222.022V253.442C222.022 253.362 222.022 253.302 222.022 253.222C222.062 252.762 222.142 252.322 222.302 251.902C222.462 251.482 222.702 251.102 223.022 250.802C223.622 250.162 224.502 249.902 225.382 249.942C225.882 249.942 226.362 250.062 226.762 250.262L227.042 249.102C226.502 248.902 225.942 248.822 225.382 248.822ZM244.05 244.962L239.27 257.162L236.81 250.842L239.11 244.962H237.81L236.15 249.422L234.51 244.962H233.21L235.51 250.842L233.03 257.162L228.25 244.962H226.97L232.43 258.942H233.63L236.15 252.242L238.67 258.942H239.87L245.35 244.962H244.05ZM254.46 248.902V251.242C254.26 250.962 254.06 250.682 253.8 250.422C253.32 249.942 252.74 249.542 252.1 249.282C251.44 249.002 250.72 248.842 250 248.842C249.28 248.842 248.54 248.962 247.88 249.222C247.2 249.482 246.6 249.862 246.1 250.342C245.08 251.282 244.52 252.602 244.54 253.902C244.52 255.222 245.08 256.522 246.1 257.482C246.6 257.962 247.2 258.342 247.86 258.602C248.54 258.862 249.26 258.982 250 258.982C250.72 258.982 251.44 258.822 252.1 258.542C252.74 258.282 253.32 257.862 253.8 257.402C254.06 257.142 254.26 256.862 254.46 256.562V258.902H255.68V248.902H254.46ZM254.1 255.482C253.86 255.962 253.52 256.422 253.1 256.782C252.26 257.502 251.12 257.882 250 257.882C248.88 257.862 247.78 257.422 247 256.682C246.2 255.962 245.76 254.942 245.74 253.902C245.74 252.882 246.2 251.862 247 251.122C247.78 250.402 248.86 249.962 250 249.942C251.12 249.922 252.26 250.302 253.1 251.042C253.52 251.402 253.86 251.842 254.1 252.342C254.34 252.842 254.46 253.362 254.46 253.902C254.46 254.442 254.34 254.982 254.1 255.482ZM259.034 258.922V244.922H257.814V258.922H259.034ZM262.374 258.922V244.922H261.154V258.922H262.374ZM274.854 254.462C274.874 254.282 274.894 254.102 274.894 253.902C274.894 251.122 272.454 248.842 269.434 248.842C266.414 248.842 263.974 251.122 263.974 253.902C263.974 256.702 266.594 258.982 269.854 258.982C271.814 258.982 273.614 258.142 274.694 256.782L273.574 256.302C272.694 257.282 271.334 257.882 269.854 257.882C267.494 257.882 265.554 256.382 265.234 254.462H274.854ZM265.234 253.362C265.534 251.442 267.294 249.942 269.434 249.942C271.574 249.942 273.334 251.442 273.634 253.362H265.234ZM279.58 257.282C279.1 256.962 278.92 256.442 278.92 255.242V250.022H282.22V248.902H278.92V245.802L277.7 246.462V248.922H274.98V250.022H277.7V255.242C277.7 256.562 277.9 257.562 278.86 258.182C279.44 258.542 280.18 258.662 281 258.662C281.4 258.662 281.8 258.642 282.22 258.602V257.482C281.26 257.582 280.14 257.642 279.58 257.282Z" fill="#1C1C1C"/>
    <path opacity="0.2" d="M99.648 87.233V88.907L104.049 86.909V103.919H105.696V84.479L99.648 87.233Z" fill="#1C1C1C"/>
    <defs>
        <filter id="filter0_d_1427_5136" x="0" y="0" width="502" height="369" filterUnits="userSpaceOnUse" color-interpolation-filters="sRGB">
            <feFlood flood-opacity="0" result="BackgroundImageFix"/>
            <feColorMatrix in="SourceAlpha" type="matrix" values="0 0 0 0 0 0 0 0 0 0 0 0 0 0 0 0 0 0 127 0" result="hardAlpha"/>
            <feOffset dy="10"/>
            <feGaussianBlur stdDeviation="35.5"/>
            <feComposite in2="hardAlpha" operator="out"/>
            <feColorMatrix type="matrix" values="0 0 0 0 0 0 0 0 0 0 0 0 0 0 0 0 0 0 0.05 0"/>
            <feBlend mode="normal" in2="BackgroundImageFix" result="effect1_dropShadow_1427_5136"/>
            <feBlend mode="normal" in="SourceGraphic" in2="effect1_dropShadow_1427_5136" result="shape"/>
        </filter>
        <filter id="filter1_d_1427_5136" x="129.781" y="108.997" width="148.006" height="148.007" filterUnits="userSpaceOnUse" color-interpolation-filters="sRGB">
            <feFlood flood-opacity="0" result="BackgroundImageFix"/>
            <feColorMatrix in="SourceAlpha" type="matrix" values="0 0 0 0 0 0 0 0 0 0 0 0 0 0 0 0 0 0 127 0" result="hardAlpha"/>
            <feOffset dy="10"/>
            <feGaussianBlur stdDeviation="19.5"/>
            <feComposite in2="hardAlpha" operator="out"/>
            <feColorMatrix type="matrix" values="0 0 0 0 0 0 0 0 0 0 0 0 0 0 0 0 0 0 0.02 0"/>
            <feBlend mode="normal" in2="BackgroundImageFix" result="effect1_dropShadow_1427_5136"/>
            <feBlend mode="normal" in="SourceGraphic" in2="effect1_dropShadow_1427_5136" result="shape"/>
        </filter>
        <filter id="filter2_d_1427_5136" x="225.609" y="64.8256" width="148.016" height="148.015" filterUnits="userSpaceOnUse" color-interpolation-filters="sRGB">
            <feFlood flood-opacity="0" result="BackgroundImageFix"/>
            <feColorMatrix in="SourceAlpha" type="matrix" values="0 0 0 0 0 0 0 0 0 0 0 0 0 0 0 0 0 0 127 0" result="hardAlpha"/>
            <feOffset dy="10"/>
            <feGaussianBlur stdDeviation="19.5"/>
            <feComposite in2="hardAlpha" operator="out"/>
            <feColorMatrix type="matrix" values="0 0 0 0 0 0 0 0 0 0 0 0 0 0 0 0 0 0 0.02 0"/>
            <feBlend mode="normal" in2="BackgroundImageFix" result="effect1_dropShadow_1427_5136"/>
            <feBlend mode="normal" in="SourceGraphic" in2="effect1_dropShadow_1427_5136" result="shape"/>
        </filter>
    </defs>
</svg>