<svg width="84" height="26" viewBox="0 0 84 26" fill="none" xmlns="http://www.w3.org/2000/svg">
    <path d="M12.4592 3.09535C11.6898 3.09535 11.2086 3.92778 11.5929 4.59436L21.4359 21.6714L26.8734 21.6714C27.6438 21.6714 28.1248 20.8372 27.7388 20.1706L18.1389 3.59431C17.9601 3.2855 17.6302 3.09535 17.2733 3.09535L12.4592 3.09535Z"
          fill="url(#paint0_linear_1363_282)"/>
    <path d="M3.58601 15.4794H25.0206L27.7372 20.1702C28.1233 20.8369 27.6422 21.6714 26.8718 21.6714H1.73473C0.964336 21.6714 0.483285 20.8369 0.869375 20.1702L3.58601 15.4794Z"
          fill="url(#paint1_linear_1363_282)"/>
    <path d="M17.8494 3.0953L7.12392 21.6713L1.73286 21.6713C0.963015 21.6713 0.481943 20.8382 0.866889 20.1716L10.4395 3.59533C10.6182 3.28592 10.9484 3.0953 11.3058 3.0953L17.8494 3.0953Z"
          fill="url(#paint2_linear_1363_282)"/>
    <path d="M48.2683 19H45.0823L44.2543 16.318H40.1863L39.3403 19H36.2263L40.4023 7.12H44.1103L48.2683 19ZM40.7623 14.212H43.6783L42.2203 9.406L40.7623 14.212ZM55.1039 7.12C56.0759 7.12 56.9039 7.276 57.5879 7.588C58.2719 7.9 58.7939 8.35 59.1539 8.938C59.5139 9.526 59.6939 10.24 59.6939 11.08C59.6939 11.92 59.5139 12.634 59.1539 13.222C58.7939 13.81 58.2719 14.26 57.5879 14.572C56.9039 14.884 56.0759 15.04 55.1039 15.04H52.7459V19H49.6499V7.12H55.1039ZM54.6179 12.718C55.2659 12.718 55.7519 12.586 56.0759 12.322C56.4119 12.046 56.5799 11.632 56.5799 11.08C56.5799 10.528 56.4119 10.12 56.0759 9.856C55.7519 9.58 55.2659 9.442 54.6179 9.442H52.7459V12.718H54.6179ZM71.2671 7.12L67.0731 14.662V19H63.9771V14.662L59.7831 7.12H62.9871L64.6611 10.378L65.5431 12.358L66.4431 10.378L68.1171 7.12H71.2671ZM76.6357 6.94C77.7397 6.94 78.7117 7.114 79.5517 7.462C80.4037 7.798 81.1417 8.296 81.7657 8.956L80.2717 10.954C79.7557 10.414 79.1977 10.012 78.5977 9.748C78.0097 9.472 77.3377 9.334 76.5817 9.334C76.1377 9.334 75.7777 9.382 75.5017 9.478C75.2257 9.574 75.0277 9.706 74.9077 9.874C74.7877 10.042 74.7277 10.234 74.7277 10.45C74.7277 10.702 74.8417 10.918 75.0697 11.098C75.3097 11.266 75.6937 11.41 76.2217 11.53L78.2197 11.98C79.4077 12.256 80.2777 12.658 80.8297 13.186C81.3817 13.714 81.6577 14.416 81.6577 15.292C81.6577 16.132 81.4417 16.846 81.0097 17.434C80.5777 18.01 79.9837 18.448 79.2277 18.748C78.4717 19.036 77.6077 19.18 76.6357 19.18C75.8437 19.18 75.0877 19.096 74.3677 18.928C73.6477 18.748 72.9997 18.496 72.4237 18.172C71.8477 17.848 71.3617 17.476 70.9657 17.056L72.4597 14.986C72.7597 15.334 73.1257 15.646 73.5577 15.922C74.0017 16.186 74.4817 16.396 74.9977 16.552C75.5257 16.708 76.0597 16.786 76.5997 16.786C77.0197 16.786 77.3677 16.744 77.6437 16.66C77.9317 16.576 78.1417 16.45 78.2737 16.282C78.4057 16.114 78.4717 15.916 78.4717 15.688C78.4717 15.436 78.3817 15.226 78.2017 15.058C78.0217 14.878 77.6797 14.728 77.1757 14.608L74.9797 14.122C74.3077 13.966 73.7077 13.762 73.1797 13.51C72.6637 13.246 72.2557 12.898 71.9557 12.466C71.6557 12.022 71.5057 11.47 71.5057 10.81C71.5057 10.066 71.7097 9.406 72.1177 8.83C72.5257 8.242 73.1137 7.78 73.8817 7.444C74.6497 7.108 75.5677 6.94 76.6357 6.94Z"
          fill="#151515"/>
    <defs>
        <linearGradient id="paint0_linear_1363_282" x1="15.8939" y1="6.19136" x2="24.6353" y2="21.3334"
                        gradientUnits="userSpaceOnUse">
            <stop stop-color="#08AEEA"/>
            <stop offset="1" stop-color="#2AF598"/>
        </linearGradient>
        <linearGradient id="paint1_linear_1363_282" x1="8.47602" y1="19.0642" x2="19.886" y2="19.1514"
                        gradientUnits="userSpaceOnUse">
            <stop stop-color="#08AEEA"/>
            <stop offset="1" stop-color="#2AF598"/>
        </linearGradient>
        <linearGradient id="paint2_linear_1363_282" x1="14.7779" y1="0.23722" x2="8.97698" y2="9.83543"
                        gradientUnits="userSpaceOnUse">
            <stop stop-color="#08AEEA"/>
            <stop offset="1" stop-color="#2AF598"/>
        </linearGradient>
    </defs>
</svg>
