<svg width="21" height="21" viewBox="0 0 21 21" fill="none" xmlns="http://www.w3.org/2000/svg">
<path d="M10.6173 12.5692C10.0844 12.5692 9.77344 13.0762 9.77344 13.7551C9.77344 14.4384 10.0939 14.9212 10.6225 14.9212C11.1554 14.9212 11.4612 14.4133 11.4612 13.7344C11.4612 13.1073 11.1606 12.5692 10.6173 12.5692V12.5692Z" fill="#31AAB7"/>
<path d="M12.1824 1.72754H5.27242C4.81426 1.72754 4.37486 1.90954 4.05089 2.23351C3.72693 2.55748 3.54492 2.99688 3.54492 3.45504V17.275C3.54492 17.7332 3.72693 18.1726 4.05089 18.4966C4.37486 18.8205 4.81426 19.0025 5.27242 19.0025H15.6374C16.0956 19.0025 16.535 18.8205 16.8589 18.4966C17.1829 18.1726 17.3649 17.7332 17.3649 17.275V6.91004L12.1824 1.72754ZM7.99755 15.0759C7.6296 15.3817 7.07075 15.5259 6.38752 15.5259C5.97724 15.5259 5.68789 15.5 5.49095 15.4741V12.0442C5.8442 11.9933 6.2008 11.9693 6.55768 11.9725C7.22104 11.9725 7.65119 12.0917 7.98719 12.3456C8.34996 12.6151 8.57799 13.0453 8.57799 13.6602C8.57799 14.3297 8.33441 14.7909 7.99755 15.0759V15.0759ZM10.5802 15.5475C9.54367 15.5475 8.93818 14.765 8.93818 13.7699C8.93818 12.7239 9.60586 11.9422 10.6372 11.9422C11.7091 11.9422 12.2947 12.7447 12.2947 13.7086C12.2938 14.8531 11.5994 15.5475 10.5802 15.5475V15.5475ZM14.6009 14.8894C14.8385 14.8894 15.1028 14.8367 15.2591 14.7753L15.3783 15.3912C15.2332 15.4638 14.9067 15.5415 14.4826 15.5415C13.2759 15.5415 12.654 14.7909 12.654 13.7959C12.654 12.6047 13.5031 11.9422 14.5603 11.9422C14.9697 11.9422 15.2798 12.0252 15.4198 12.0977L15.2591 12.7248C15.0488 12.6379 14.8233 12.5938 14.5957 12.5952C13.9687 12.5952 13.4815 12.9736 13.4815 13.7509C13.4815 14.4497 13.8961 14.8894 14.6009 14.8894V14.8894ZM12.1824 7.77379H11.3187V3.45504L15.6374 7.77379H12.1824Z" fill="#31AAB7"/>
<path d="M6.64189 12.5789C6.46654 12.5789 6.35253 12.5944 6.28516 12.61V14.8946C6.35253 14.9101 6.46136 14.9101 6.55897 14.9101C7.27415 14.9153 7.73971 14.5223 7.73971 13.6879C7.74489 12.9624 7.32079 12.5789 6.64189 12.5789V12.5789Z" fill="#31AAB7"/>
</svg>
