<svg width="21" height="22" viewBox="0 0 21 22" fill="none" xmlns="http://www.w3.org/2000/svg">
<path d="M10.6358 0.636353C4.91376 0.636353 0.273438 5.39384 0.273438 11.2626C0.273438 15.9566 3.24262 19.9389 7.36216 21.3452C7.88035 21.4431 8.06948 21.115 8.06948 20.8332C8.06948 20.5805 8.06041 19.9124 8.05523 19.026C5.17285 19.6676 4.56398 17.6011 4.56398 17.6011C4.09373 16.3734 3.41362 16.0466 3.41362 16.0466C2.47182 15.3877 3.48357 15.401 3.48357 15.401C4.52382 15.4764 5.07051 16.4964 5.07051 16.4964C5.99546 18.1197 7.49689 17.6514 8.08762 17.3789C8.18089 16.6922 8.44905 16.2239 8.74571 15.958C6.44498 15.6894 4.02507 14.7778 4.02507 10.707C4.02507 9.54673 4.42926 8.59814 5.09253 7.85461C4.98501 7.58605 4.63005 6.50516 5.19357 5.04325C5.19357 5.04325 6.06412 4.75748 8.04357 6.13207C8.87007 5.89658 9.75616 5.77883 10.6384 5.77487C11.518 5.78016 12.4054 5.89658 13.2332 6.1334C15.2113 4.75881 16.0806 5.04457 16.0806 5.04457C16.6454 6.50781 16.2904 7.58737 16.1842 7.85594C16.8488 8.59946 17.2491 9.54805 17.2491 10.7083C17.2491 14.7898 14.8266 15.6881 12.5181 15.9513C12.8899 16.2794 13.2215 16.9277 13.2215 17.9186C13.2215 19.3395 13.2086 20.4852 13.2086 20.8332C13.2086 21.1176 13.3951 21.4484 13.9211 21.3439C18.0341 19.9362 21.0007 15.9553 21.0007 11.2626C21.0007 5.39384 16.3604 0.636353 10.6358 0.636353Z" fill="#31AAB7"/>
</svg>
