<svg width="22" height="22" viewBox="0 0 22 22" fill="none" xmlns="http://www.w3.org/2000/svg">
<path d="M19.8 5.05429L21.4538 3.55539V3.22729H15.7245L11.6412 12.8557L6.9957 3.22729H0.988244V3.55539L2.9202 5.75875C3.10847 5.92157 3.20693 6.15966 3.18188 6.39939V15.0582C3.24147 15.3699 3.13438 15.6907 2.90293 15.9173L0.726562 18.416V18.74H6.89724V18.4119L4.72088 15.9173C4.48511 15.6898 4.3737 15.3748 4.4212 15.0582V7.56857L9.83793 18.7441H10.4675L15.1251 7.56857V16.4712C15.1251 16.706 15.1251 16.7543 14.9627 16.9081L13.2873 18.4438V18.7727H21.4158V18.4447L19.8008 16.9466C19.6592 16.8451 19.5858 16.6749 19.616 16.5097V5.4912C19.5858 5.32511 19.6583 5.15493 19.8 5.05429Z" fill="#31AAB7"/>
</svg>
