<svg width="22" height="22" viewBox="0 0 22 22" fill="none" xmlns="http://www.w3.org/2000/svg">
<path d="M0.684464 11.06L5.46044 12.8514L7.30904 18.826C7.42732 19.2087 7.89293 19.3501 8.20197 19.0962L10.8642 16.9151C11.1432 16.6866 11.5407 16.6752 11.8324 16.888L16.634 20.3914C16.9646 20.6329 17.433 20.4509 17.5159 20.0494L21.0334 3.04546C21.1239 2.60691 20.6951 2.24106 20.2796 2.40256L0.678868 10.0016C0.195162 10.189 0.199377 10.8773 0.684464 11.06ZM7.01112 11.8978L16.3452 6.12031C16.5129 6.01678 16.6855 6.24474 16.5414 6.37902L8.83816 13.5752C8.56739 13.8285 8.39273 14.1675 8.34326 14.5355L8.08085 16.4898C8.0461 16.7507 7.68137 16.7766 7.60972 16.5241L6.60051 12.9603C6.48492 12.5539 6.65337 12.1197 7.01112 11.8978Z" fill="#31AAB7"/>
</svg>
