<svg width="22" height="22" viewBox="0 0 22 22" fill="none" xmlns="http://www.w3.org/2000/svg">
<path d="M21.2273 4.35735C20.4565 4.69547 19.6352 4.91958 18.7789 5.0284C19.6598 4.50244 20.3321 3.67594 20.6482 2.67974C19.8269 3.16942 18.9201 3.51531 17.9537 3.70833C17.1738 2.87794 16.0623 2.36365 14.8497 2.36365C12.4972 2.36365 10.6032 4.27315 10.6032 6.61403C10.6032 6.95085 10.6318 7.27472 10.7017 7.58303C7.169 7.41074 4.04307 5.71758 1.94314 3.13833C1.57652 3.7744 1.36148 4.50244 1.36148 5.28619C1.36148 6.75783 2.11932 8.06235 3.24895 8.8176C2.56625 8.80465 1.8965 8.60644 1.32909 8.29424C1.32909 8.30719 1.32909 8.32403 1.32909 8.34087C1.32909 10.4058 2.80202 12.121 4.73355 12.5161C4.38766 12.6107 4.01068 12.656 3.61945 12.656C3.34741 12.656 3.07277 12.6405 2.81498 12.5835C3.36555 14.2663 4.92786 15.5034 6.78555 15.5436C5.33982 16.6745 3.50416 17.3559 1.51693 17.3559C1.16845 17.3559 0.834227 17.3404 0.5 17.2976C2.3823 18.5115 4.61307 19.2046 7.01873 19.2046C14.8381 19.2046 19.1131 12.7273 19.1131 7.11278C19.1131 6.92494 19.1066 6.74358 19.0975 6.56351C19.9409 5.96501 20.6495 5.21753 21.2273 4.35735Z" fill="#31AAB7"/>
</svg>
