<svg width="158" height="30" viewBox="0 0 158 30" fill="none" xmlns="http://www.w3.org/2000/svg">
    <path d="M41.628 22V8.02H40.408V22H41.628ZM57.8627 21.96V16.46V15.76C57.8627 15.52 57.8627 15.26 57.8227 15C57.7627 14.5 57.6027 13.98 57.3227 13.5C57.0427 13 56.6027 12.58 56.0627 12.28C55.7827 12.14 55.4827 12.04 55.1827 11.96C54.8827 11.9 54.5827 11.88 54.2827 11.88C53.9827 11.9 53.6827 11.94 53.3827 12.02C53.1027 12.1 52.8227 12.22 52.5627 12.38C52.0627 12.7 51.7027 13.14 51.4827 13.6C51.3827 13.82 51.3027 14.02 51.2627 14.24C51.1627 13.98 51.0627 13.74 50.9227 13.5C50.6427 13 50.2027 12.58 49.6627 12.28C49.3827 12.14 49.1027 12.04 48.7827 11.96C48.4827 11.9 48.1827 11.88 47.8827 11.88C47.5827 11.9 47.2827 11.94 47.0027 12.02C46.7027 12.1 46.4227 12.22 46.1827 12.38C45.6827 12.7 45.3027 13.14 45.0827 13.6C45.0827 13.62 45.0827 13.62 45.0827 13.62V11.98H43.8627V21.96H45.0827V16.28L45.1027 15.76C45.1027 15.54 45.1427 15.32 45.1827 15.1C45.2827 14.68 45.4627 14.28 45.7227 13.94C45.9827 13.6 46.3227 13.34 46.7027 13.18C47.0627 13.04 47.4627 12.98 47.8827 13C48.7227 13.02 49.4027 13.4 49.8027 14.04C50.0227 14.38 50.1427 14.76 50.2027 15.14C50.2427 15.36 50.2627 15.56 50.2627 15.76V16.46V21.96H51.4827V16.46V16.2V15.76C51.5027 15.54 51.5227 15.32 51.5827 15.1C51.6827 14.68 51.8627 14.26 52.1227 13.94C52.3827 13.6 52.7227 13.34 53.0827 13.18C53.4627 13.04 53.8627 12.98 54.2827 13C55.1027 13.02 55.8027 13.4 56.2027 14.04C56.4027 14.38 56.5427 14.76 56.6027 15.14C56.6427 15.34 56.6427 15.56 56.6427 15.76V16.46V21.96H57.8627ZM69.4388 13.48C68.9388 13 68.3188 12.62 67.6588 12.36C66.9788 12.1 66.2588 11.96 65.5388 11.96C64.7988 11.98 64.0788 12.12 63.4388 12.4C62.7788 12.68 62.1988 13.08 61.7188 13.56C61.4788 13.82 61.2588 14.1 61.0788 14.38V12.04H59.8588V26.04H61.0788V19.7C61.2588 20 61.4788 20.28 61.7388 20.52C62.1988 21 62.7788 21.4 63.4388 21.68C64.0788 21.96 64.7988 22.1 65.5388 22.12C66.2588 22.12 66.9788 22 67.6588 21.74C68.3188 21.48 68.9388 21.08 69.4388 20.62C70.4388 19.66 70.9988 18.36 70.9988 17.04C70.9988 15.74 70.4388 14.42 69.4388 13.48ZM68.5388 19.82C67.7588 20.56 66.6588 21 65.5388 21C64.4188 21.02 63.2788 20.64 62.4388 19.92C62.0188 19.54 61.6588 19.1 61.4188 18.62C61.1988 18.12 61.0788 17.58 61.0788 17.04C61.0788 16.5 61.1988 15.96 61.4388 15.48C61.6588 14.98 62.0188 14.54 62.4388 14.18C63.2788 13.44 64.4188 13.06 65.5388 13.08C66.6588 13.1 67.7588 13.52 68.5388 14.26C69.3188 15 69.7788 16.02 69.7788 17.04C69.7788 18.08 69.3188 19.1 68.5388 19.82ZM73.8523 21.98V7.98H72.6323V21.98H73.8523ZM86.3321 17.52C86.3521 17.34 86.3721 17.16 86.3721 16.96C86.3721 14.18 83.9321 11.9 80.9121 11.9C77.8921 11.9 75.4521 14.18 75.4521 16.96C75.4521 19.76 78.0721 22.04 81.3321 22.04C83.2921 22.04 85.0921 21.2 86.1721 19.84L85.0521 19.36C84.1721 20.34 82.8121 20.94 81.3321 20.94C78.9721 20.94 77.0321 19.44 76.7121 17.52H86.3321ZM76.7121 16.42C77.0121 14.5 78.7721 13 80.9121 13C83.0521 13 84.8121 14.5 85.1121 16.42H76.7121ZM102.003 21.96V16.46V15.76C102.003 15.52 102.003 15.26 101.963 15C101.903 14.5 101.743 13.98 101.463 13.5C101.183 13 100.743 12.58 100.203 12.28C99.9234 12.14 99.6234 12.04 99.3234 11.96C99.0234 11.9 98.7234 11.88 98.4234 11.88C98.1234 11.9 97.8234 11.94 97.5234 12.02C97.2434 12.1 96.9634 12.22 96.7034 12.38C96.2034 12.7 95.8434 13.14 95.6234 13.6C95.5234 13.82 95.4434 14.02 95.4034 14.24C95.3034 13.98 95.2034 13.74 95.0634 13.5C94.7834 13 94.3434 12.58 93.8034 12.28C93.5234 12.14 93.2434 12.04 92.9234 11.96C92.6234 11.9 92.3234 11.88 92.0234 11.88C91.7234 11.9 91.4234 11.94 91.1434 12.02C90.8434 12.1 90.5634 12.22 90.3234 12.38C89.8234 12.7 89.4434 13.14 89.2234 13.6C89.2234 13.62 89.2234 13.62 89.2234 13.62V11.98H88.0034V21.96H89.2234V16.28L89.2434 15.76C89.2434 15.54 89.2834 15.32 89.3234 15.1C89.4234 14.68 89.6034 14.28 89.8634 13.94C90.1234 13.6 90.4634 13.34 90.8434 13.18C91.2034 13.04 91.6034 12.98 92.0234 13C92.8634 13.02 93.5434 13.4 93.9434 14.04C94.1634 14.38 94.2834 14.76 94.3434 15.14C94.3834 15.36 94.4034 15.56 94.4034 15.76V16.46V21.96H95.6234V16.46V16.2V15.76C95.6434 15.54 95.6634 15.32 95.7234 15.1C95.8234 14.68 96.0034 14.26 96.2634 13.94C96.5234 13.6 96.8634 13.34 97.2234 13.18C97.6034 13.04 98.0034 12.98 98.4234 13C99.2434 13.02 99.9434 13.4 100.343 14.04C100.543 14.38 100.683 14.76 100.743 15.14C100.783 15.34 100.783 15.56 100.783 15.76V16.46V21.96H102.003ZM114.359 17.52C114.379 17.34 114.399 17.16 114.399 16.96C114.399 14.18 111.959 11.9 108.939 11.9C105.919 11.9 103.479 14.18 103.479 16.96C103.479 19.76 106.099 22.04 109.359 22.04C111.319 22.04 113.119 21.2 114.199 19.84L113.079 19.36C112.199 20.34 110.839 20.94 109.359 20.94C106.999 20.94 105.059 19.44 104.739 17.52H114.359ZM104.739 16.42C105.039 14.5 106.799 13 108.939 13C111.079 13 112.839 14.5 113.139 16.42H104.739ZM124.831 21.96V16.28C124.851 15.26 124.591 14.16 123.851 13.26C123.471 12.82 122.971 12.44 122.411 12.2C121.831 11.96 121.211 11.88 120.611 11.88C120.031 11.9 119.411 12.02 118.871 12.28C118.331 12.54 117.871 12.92 117.551 13.36C117.431 13.52 117.331 13.7 117.251 13.86V11.96H116.031V21.96H117.251V16.5C117.251 16.42 117.251 16.36 117.251 16.28C117.291 15.82 117.371 15.38 117.531 14.96C117.691 14.54 117.931 14.16 118.251 13.86C118.851 13.22 119.731 12.96 120.611 13C121.511 13.02 122.331 13.34 122.851 13.96C123.111 14.26 123.311 14.64 123.431 15.02C123.551 15.42 123.611 15.84 123.611 16.28V21.96H124.831ZM129.926 20.34C129.446 20.02 129.266 19.5 129.266 18.3V13.08H132.566V11.96H129.266V8.86L128.046 9.52V11.98H125.326V13.08H128.046V18.3C128.046 19.62 128.246 20.62 129.206 21.24C129.786 21.6 130.526 21.72 131.346 21.72C131.746 21.72 132.146 21.7 132.566 21.66V20.54C131.606 20.64 130.486 20.7 129.926 20.34ZM143.852 17.52C143.872 17.34 143.892 17.16 143.892 16.96C143.892 14.18 141.452 11.9 138.432 11.9C135.412 11.9 132.972 14.18 132.972 16.96C132.972 19.76 135.592 22.04 138.852 22.04C140.812 22.04 142.612 21.2 143.692 19.84L142.572 19.36C141.692 20.34 140.332 20.94 138.852 20.94C136.492 20.94 134.552 19.44 134.232 17.52H143.852ZM134.232 16.42C134.532 14.5 136.292 13 138.432 13C140.572 13 142.332 14.5 142.632 16.42H134.232ZM154.943 7.96V14.3C154.743 14.02 154.543 13.74 154.283 13.48C153.803 13 153.223 12.6 152.583 12.34C151.923 12.06 151.203 11.9 150.483 11.9C149.763 11.9 149.023 12.02 148.363 12.28C147.683 12.54 147.083 12.92 146.583 13.4C145.563 14.34 145.003 15.66 145.023 16.96C145.003 18.28 145.563 19.58 146.583 20.54C147.083 21.02 147.683 21.4 148.343 21.66C149.023 21.92 149.743 22.04 150.483 22.04C151.203 22.04 151.923 21.88 152.583 21.6C153.223 21.34 153.803 20.92 154.283 20.46C154.523 20.2 154.743 19.92 154.943 19.62V21.96H156.163V7.96H154.943ZM154.583 18.54C154.343 19.02 154.003 19.48 153.583 19.84C152.743 20.56 151.603 20.94 150.483 20.94C149.363 20.92 148.263 20.48 147.483 19.74C146.683 19.02 146.243 18 146.223 16.96C146.223 15.94 146.683 14.92 147.483 14.18C148.263 13.46 149.343 13.02 150.483 13C151.603 12.98 152.743 13.36 153.583 14.1C154.003 14.46 154.343 14.9 154.583 15.4C154.823 15.9 154.943 16.42 154.943 16.96C154.943 17.5 154.823 18.04 154.583 18.54Z"
          fill="#1C1C1C"/>
    <path d="M29.1911 15C29.1911 22.726 22.8863 29 15.0955 29C7.30479 29 1 22.726 1 15C1 7.27399 7.30479 1 15.0955 1C22.8863 1 29.1911 7.27399 29.1911 15Z"
          stroke="#08AEEA" stroke-width="2"/>
    <ellipse cx="15.0963" cy="15" rx="5.03185" ry="5" fill="#08AEEA"/>
</svg>
