<svg width="360" height="358" viewBox="0 0 360 358" fill="none" xmlns="http://www.w3.org/2000/svg">
<g filter="url(#filter0_d_1431_5130)">
<rect width="360" height="358" rx="7" fill="#F4F8F9"/>
<rect x="0.5" y="0.5" width="359" height="357" rx="6.5" stroke="#BBBBBB" stroke-opacity="0.28"/>
</g>
<path opacity="0.2" d="M47.224 39.814C48.763 38.113 49.681 35.953 49.681 33.55C49.681 28.177 44.983 23.803 39.178 23.803C33.4 23.803 28.702 28.177 28.702 33.55C28.702 38.95 33.4 43.324 39.178 43.324C41.824 43.324 44.254 42.406 46.09 40.894L48.412 43H50.734L47.224 39.814ZM46.063 38.761L43.309 36.25H40.987L44.929 39.841C43.363 41.056 41.365 41.812 39.178 41.812C34.318 41.812 30.349 38.113 30.349 33.577C30.349 29.014 34.318 25.315 39.178 25.315C44.065 25.315 48.034 29.014 48.034 33.577C48.034 35.521 47.305 37.33 46.063 38.761ZM51.772 26.233V27.907L56.173 25.909V42.919H57.82V23.479L51.772 26.233Z" fill="#1C1C1C"/>
<line x1="43" y1="306" x2="43" y2="288" stroke="#08AEEA" stroke-width="2"/>
<rect x="42" y="240" width="2" height="18" fill="#08AEEA"/>
<line x1="43" y1="210.014" x2="43" y2="192.014" stroke="#08AEEA" stroke-width="2"/>
<line x1="43" y1="162.014" x2="43" y2="144.014" stroke="#08AEEA" stroke-width="2"/>
<path d="M43 114V96" stroke="#08AEEA" stroke-width="2"/>
<path d="M73.42 309.18C73.2 309.1 72.98 309.04 72.8 308.98C72.7 308.94 72.56 308.88 72.42 308.84C70.82 308.28 69.26 307.62 69.38 306.16C69.52 304.38 71.6 303.9 72.68 303.9C74.54 303.9 75.8 304.6 76.4 305.98L77.54 305.56C76.74 303.74 75.06 302.78 72.68 302.78C71.22 302.78 68.38 303.48 68.16 306.08C67.96 308.5 70.68 309.44 72 309.88C72.12 309.92 72.24 309.96 72.34 310C72.54 310.08 72.76 310.14 73.02 310.22C74.98 310.86 76.76 311.6 76.8 313.42C76.82 314.1 76.58 314.7 76.04 315.16C75.3 315.82 74.1 316.18 72.82 316.12C71.16 316.04 69.16 315.22 68.56 313.14L67.38 313.42C68.02 315.62 70.12 317.1 72.76 317.22C72.86 317.22 72.98 317.24 73.1 317.24C74.6 317.24 75.98 316.78 76.9 315.96C77.66 315.28 78.06 314.38 78.02 313.4C77.94 310.64 75 309.7 73.42 309.18ZM82.7366 315.34C82.2566 315.02 82.0766 314.5 82.0766 313.3V308.08H85.3766V306.96H82.0766V303.86L80.8566 304.52V306.98H78.1366V308.08H80.8566V313.3C80.8566 314.62 81.0566 315.62 82.0166 316.24C82.5966 316.6 83.3366 316.72 84.1566 316.72C84.5566 316.72 84.9566 316.7 85.3766 316.66V315.54C84.4166 315.64 83.2966 315.7 82.7366 315.34ZM95.7222 306.96V309.3C95.5222 309.02 95.3222 308.74 95.0622 308.48C94.5822 308 94.0022 307.6 93.3622 307.34C92.7022 307.06 91.9822 306.9 91.2622 306.9C90.5422 306.9 89.8022 307.02 89.1422 307.28C88.4622 307.54 87.8622 307.92 87.3622 308.4C86.3422 309.34 85.7822 310.66 85.8022 311.96C85.7822 313.28 86.3422 314.58 87.3622 315.54C87.8622 316.02 88.4622 316.4 89.1222 316.66C89.8022 316.92 90.5222 317.04 91.2622 317.04C91.9822 317.04 92.7022 316.88 93.3622 316.6C94.0022 316.34 94.5822 315.92 95.0622 315.46C95.3222 315.2 95.5222 314.92 95.7222 314.62V316.96H96.9422V306.96H95.7222ZM95.3622 313.54C95.1222 314.02 94.7822 314.48 94.3622 314.84C93.5222 315.56 92.3822 315.94 91.2622 315.94C90.1422 315.92 89.0422 315.48 88.2622 314.74C87.4622 314.02 87.0222 313 87.0022 311.96C87.0022 310.94 87.4622 309.92 88.2622 309.18C89.0422 308.46 90.1222 308.02 91.2622 308C92.3822 307.98 93.5222 308.36 94.3622 309.1C94.7822 309.46 95.1222 309.9 95.3622 310.4C95.6022 310.9 95.7222 311.42 95.7222 311.96C95.7222 312.5 95.6022 313.04 95.3622 313.54ZM108.656 308.4C108.156 307.92 107.536 307.54 106.876 307.28C106.196 307.02 105.476 306.9 104.756 306.9C104.016 306.9 103.296 307.06 102.656 307.34C101.996 307.6 101.416 308 100.956 308.48C100.696 308.74 100.476 309.02 100.296 309.32V302.96H99.0756V316.96H100.296V314.62C100.476 314.92 100.696 315.2 100.936 315.46C101.416 315.94 101.996 316.34 102.656 316.6C103.296 316.88 104.016 317.04 104.756 317.04C105.476 317.04 106.196 316.92 106.876 316.66C107.536 316.4 108.156 316.02 108.656 315.54C109.656 314.58 110.216 313.28 110.216 311.96C110.216 310.66 109.656 309.34 108.656 308.4ZM107.756 314.74C106.976 315.48 105.876 315.92 104.756 315.94C103.636 315.94 102.496 315.56 101.656 314.84C101.236 314.48 100.876 314.02 100.656 313.54C100.416 313.04 100.296 312.5 100.296 311.96C100.296 311.42 100.416 310.88 100.636 310.4C100.876 309.9 101.236 309.46 101.656 309.1C102.496 308.36 103.636 307.98 104.756 308C105.876 308.02 106.976 308.44 107.756 309.18C108.536 309.92 108.996 310.94 108.996 311.96C108.996 313 108.536 314.02 107.756 314.74ZM113.069 316.98V302.98H111.849V316.98H113.069ZM125.549 312.52C125.569 312.34 125.589 312.16 125.589 311.96C125.589 309.18 123.149 306.9 120.129 306.9C117.109 306.9 114.669 309.18 114.669 311.96C114.669 314.76 117.289 317.04 120.549 317.04C122.509 317.04 124.309 316.2 125.389 314.84L124.269 314.36C123.389 315.34 122.029 315.94 120.549 315.94C118.189 315.94 116.249 314.44 115.929 312.52H125.549ZM115.929 311.42C116.229 309.5 117.989 308 120.129 308C122.269 308 124.029 309.5 124.329 311.42H115.929ZM132.485 303.06L126.125 317.06H127.445L133.805 303.06H132.485ZM144.412 303.02V313.28C144.412 314.24 144.552 315.04 144.552 315.04C144.552 315.04 144.092 314.18 143.672 313.58L136.132 303.02H135.152V317H136.372V306.74C136.372 305.78 136.232 304.98 136.232 304.98C136.232 304.98 136.692 305.84 137.132 306.44L144.652 317H145.652V303.02H144.412ZM152.844 306.9C149.824 306.9 147.384 309.18 147.384 311.96C147.384 314.76 149.824 317.04 152.844 317.04C155.864 317.04 158.304 314.76 158.304 311.96C158.304 309.18 155.864 306.9 152.844 306.9ZM152.844 315.94C150.504 315.94 148.604 314.16 148.604 311.96C148.604 309.78 150.504 308 152.844 308C155.184 308 157.084 309.78 157.084 311.96C157.084 314.16 155.184 315.94 152.844 315.94ZM168.735 316.96V311.28C168.755 310.26 168.495 309.16 167.755 308.26C167.375 307.82 166.875 307.44 166.315 307.2C165.735 306.96 165.115 306.88 164.515 306.88C163.935 306.9 163.315 307.02 162.775 307.28C162.235 307.54 161.775 307.92 161.455 308.36C161.335 308.52 161.235 308.7 161.155 308.86V306.96H159.935V316.96H161.155V311.5C161.155 311.42 161.155 311.36 161.155 311.28C161.195 310.82 161.275 310.38 161.435 309.96C161.595 309.54 161.835 309.16 162.155 308.86C162.755 308.22 163.635 307.96 164.515 308C165.415 308.02 166.235 308.34 166.755 308.96C167.015 309.26 167.215 309.64 167.335 310.02C167.455 310.42 167.515 310.84 167.515 311.28V316.96H168.735ZM178.216 311.46V310.34H169.976V311.46H178.216ZM183.483 311.24C183.323 311.18 183.163 311.14 183.043 311.1C182.963 311.08 182.883 311.04 182.783 311C181.723 310.66 180.703 310.24 180.783 309.38C180.883 308.02 182.883 308 182.903 308C184.123 308 184.943 308.44 185.323 309.3L186.463 308.88C185.883 307.6 184.623 306.9 182.903 306.9C181.383 306.9 179.703 307.64 179.563 309.3C179.423 311.06 181.403 311.72 182.363 312.04C182.443 312.08 182.523 312.1 182.603 312.14C182.743 312.18 182.903 312.24 183.083 312.28C184.383 312.7 185.563 313.16 185.603 314.28C185.603 314.68 185.463 315.04 185.143 315.3C184.663 315.74 183.863 315.96 183.003 315.92C181.903 315.88 180.583 315.36 180.183 314.04L179.023 314.34C179.483 315.9 181.023 316.96 182.943 317.04C183.023 317.04 183.103 317.04 183.183 317.04C184.303 317.04 185.323 316.7 186.003 316.1C186.563 315.6 186.843 314.96 186.823 314.26C186.763 312.26 184.623 311.6 183.483 311.24ZM192.17 315.34C191.69 315.02 191.51 314.5 191.51 313.3V308.08H194.81V306.96H191.51V303.86L190.29 304.52V306.98H187.57V308.08H190.29V313.3C190.29 314.62 190.49 315.62 191.45 316.24C192.03 316.6 192.77 316.72 193.59 316.72C193.99 316.72 194.39 316.7 194.81 316.66V315.54C193.85 315.64 192.73 315.7 192.17 315.34ZM205.156 306.96V309.3C204.956 309.02 204.756 308.74 204.496 308.48C204.016 308 203.436 307.6 202.796 307.34C202.136 307.06 201.416 306.9 200.696 306.9C199.976 306.9 199.236 307.02 198.576 307.28C197.896 307.54 197.296 307.92 196.796 308.4C195.776 309.34 195.216 310.66 195.236 311.96C195.216 313.28 195.776 314.58 196.796 315.54C197.296 316.02 197.896 316.4 198.556 316.66C199.236 316.92 199.956 317.04 200.696 317.04C201.416 317.04 202.136 316.88 202.796 316.6C203.436 316.34 204.016 315.92 204.496 315.46C204.756 315.2 204.956 314.92 205.156 314.62V316.96H206.376V306.96H205.156ZM204.796 313.54C204.556 314.02 204.216 314.48 203.796 314.84C202.956 315.56 201.816 315.94 200.696 315.94C199.576 315.92 198.476 315.48 197.696 314.74C196.896 314.02 196.456 313 196.436 311.96C196.436 310.94 196.896 309.92 197.696 309.18C198.476 308.46 199.556 308.02 200.696 308C201.816 307.98 202.956 308.36 203.796 309.1C204.216 309.46 204.556 309.9 204.796 310.4C205.036 310.9 205.156 311.42 205.156 311.96C205.156 312.5 205.036 313.04 204.796 313.54ZM218.089 308.4C217.589 307.92 216.969 307.54 216.309 307.28C215.629 307.02 214.909 306.9 214.189 306.9C213.449 306.9 212.729 307.06 212.089 307.34C211.429 307.6 210.849 308 210.389 308.48C210.129 308.74 209.909 309.02 209.729 309.32V302.96H208.509V316.96H209.729V314.62C209.909 314.92 210.129 315.2 210.369 315.46C210.849 315.94 211.429 316.34 212.089 316.6C212.729 316.88 213.449 317.04 214.189 317.04C214.909 317.04 215.629 316.92 216.309 316.66C216.969 316.4 217.589 316.02 218.089 315.54C219.089 314.58 219.649 313.28 219.649 311.96C219.649 310.66 219.089 309.34 218.089 308.4ZM217.189 314.74C216.409 315.48 215.309 315.92 214.189 315.94C213.069 315.94 211.929 315.56 211.089 314.84C210.669 314.48 210.309 314.02 210.089 313.54C209.849 313.04 209.729 312.5 209.729 311.96C209.729 311.42 209.849 310.88 210.069 310.4C210.309 309.9 210.669 309.46 211.089 309.1C211.929 308.36 213.069 307.98 214.189 308C215.309 308.02 216.409 308.44 217.189 309.18C217.969 309.92 218.429 310.94 218.429 311.96C218.429 313 217.969 314.02 217.189 314.74ZM222.503 316.98V302.98H221.283V316.98H222.503ZM234.983 312.52C235.003 312.34 235.023 312.16 235.023 311.96C235.023 309.18 232.583 306.9 229.563 306.9C226.543 306.9 224.103 309.18 224.103 311.96C224.103 314.76 226.723 317.04 229.983 317.04C231.943 317.04 233.743 316.2 234.823 314.84L233.703 314.36C232.823 315.34 231.463 315.94 229.983 315.94C227.623 315.94 225.683 314.44 225.363 312.52H234.983ZM225.363 311.42C225.663 309.5 227.423 308 229.563 308C231.703 308 233.463 309.5 233.763 311.42H225.363ZM78.56 325.02L73.44 337.76L68.32 325.02H67.02L72.64 339H74.24L79.86 325.02H78.56ZM88.9448 328.96V331.3C88.7448 331.02 88.5448 330.74 88.2848 330.48C87.8048 330 87.2248 329.6 86.5848 329.34C85.9248 329.06 85.2048 328.9 84.4848 328.9C83.7648 328.9 83.0248 329.02 82.3648 329.28C81.6848 329.54 81.0848 329.92 80.5848 330.4C79.5648 331.34 79.0048 332.66 79.0248 333.96C79.0048 335.28 79.5648 336.58 80.5848 337.54C81.0848 338.02 81.6848 338.4 82.3448 338.66C83.0248 338.92 83.7448 339.04 84.4848 339.04C85.2048 339.04 85.9248 338.88 86.5848 338.6C87.2248 338.34 87.8048 337.92 88.2848 337.46C88.5448 337.2 88.7448 336.92 88.9448 336.62V338.96H90.1648V328.96H88.9448ZM88.5848 335.54C88.3448 336.02 88.0048 336.48 87.5848 336.84C86.7448 337.56 85.6048 337.94 84.4848 337.94C83.3648 337.92 82.2648 337.48 81.4848 336.74C80.6848 336.02 80.2448 335 80.2248 333.96C80.2248 332.94 80.6848 331.92 81.4848 331.18C82.2648 330.46 83.3448 330.02 84.4848 330C85.6048 329.98 86.7448 330.36 87.5848 331.1C88.0048 331.46 88.3448 331.9 88.5848 332.4C88.8248 332.9 88.9448 333.42 88.9448 333.96C88.9448 334.5 88.8248 335.04 88.5848 335.54ZM99.6983 328.96V334.44C99.6983 334.52 99.6983 334.58 99.6983 334.66C99.6583 335.12 99.5783 335.56 99.4183 335.98C99.2583 336.4 99.0183 336.78 98.6983 337.08C98.0983 337.72 97.2183 337.98 96.3183 337.94C95.4383 337.92 94.6183 337.58 94.0983 336.98C93.8383 336.68 93.6383 336.3 93.5183 335.9C93.3783 335.52 93.3383 335.08 93.3183 334.66L93.3383 328.96H92.1183V334.66C92.0983 335.68 92.3583 336.78 93.0983 337.68C93.4783 338.12 93.9783 338.5 94.5383 338.74C95.0983 338.96 95.7383 339.06 96.3183 339.04C96.9183 339.04 97.5383 338.92 98.0783 338.66C98.6183 338.4 99.0783 338.02 99.3983 337.58C99.5183 337.4 99.6183 337.24 99.6983 337.08V338.96H100.918V328.96H99.6983ZM104.28 338.98V324.98H103.06V338.98H104.28ZM110.1 337.34C109.62 337.02 109.44 336.5 109.44 335.3V330.08H112.74V328.96H109.44V325.86L108.22 326.52V328.98H105.5V330.08H108.22V335.3C108.22 336.62 108.42 337.62 109.38 338.24C109.96 338.6 110.7 338.72 111.52 338.72C111.92 338.72 112.32 338.7 112.74 338.66V337.54C111.78 337.64 110.66 337.7 110.1 337.34ZM124.358 331.18C124.138 331.1 123.918 331.04 123.738 330.98C123.638 330.94 123.498 330.88 123.358 330.84C121.758 330.28 120.198 329.62 120.318 328.16C120.458 326.38 122.538 325.9 123.618 325.9C125.478 325.9 126.738 326.6 127.338 327.98L128.478 327.56C127.678 325.74 125.998 324.78 123.618 324.78C122.158 324.78 119.318 325.48 119.098 328.08C118.898 330.5 121.618 331.44 122.938 331.88C123.058 331.92 123.178 331.96 123.278 332C123.478 332.08 123.698 332.14 123.958 332.22C125.918 332.86 127.698 333.6 127.738 335.42C127.758 336.1 127.518 336.7 126.978 337.16C126.238 337.82 125.038 338.18 123.758 338.12C122.098 338.04 120.098 337.22 119.498 335.14L118.318 335.42C118.958 337.62 121.058 339.1 123.698 339.22C123.798 339.22 123.918 339.24 124.038 339.24C125.538 339.24 126.918 338.78 127.838 337.96C128.598 337.28 128.998 336.38 128.957 335.4C128.878 332.64 125.938 331.7 124.358 331.18ZM133.674 337.34C133.194 337.02 133.014 336.5 133.014 335.3V330.08H136.314V328.96H133.014V325.86L131.794 326.52V328.98H129.074V330.08H131.794V335.3C131.794 336.62 131.994 337.62 132.954 338.24C133.534 338.6 134.274 338.72 135.094 338.72C135.494 338.72 135.894 338.7 136.314 338.66V337.54C135.354 337.64 134.234 337.7 133.674 337.34ZM142.347 328.88C141.767 328.9 141.147 329.02 140.607 329.28C140.067 329.54 139.607 329.92 139.287 330.36C139.167 330.52 139.067 330.7 138.987 330.86V328.96H137.767V338.96H138.987V333.5C138.987 333.42 138.987 333.36 138.987 333.28C139.027 332.82 139.107 332.38 139.267 331.96C139.427 331.54 139.667 331.16 139.987 330.86C140.587 330.22 141.467 329.96 142.347 330C142.847 330 143.327 330.12 143.727 330.32L144.007 329.16C143.467 328.96 142.907 328.88 142.347 328.88ZM153.867 328.96V331.3C153.667 331.02 153.467 330.74 153.207 330.48C152.727 330 152.147 329.6 151.507 329.34C150.847 329.06 150.127 328.9 149.407 328.9C148.687 328.9 147.947 329.02 147.287 329.28C146.607 329.54 146.007 329.92 145.507 330.4C144.487 331.34 143.927 332.66 143.947 333.96C143.927 335.28 144.487 336.58 145.507 337.54C146.007 338.02 146.607 338.4 147.267 338.66C147.947 338.92 148.667 339.04 149.407 339.04C150.127 339.04 150.847 338.88 151.507 338.6C152.147 338.34 152.727 337.92 153.207 337.46C153.467 337.2 153.667 336.92 153.867 336.62V338.96H155.087V328.96H153.867ZM153.507 335.54C153.267 336.02 152.927 336.48 152.507 336.84C151.667 337.56 150.527 337.94 149.407 337.94C148.287 337.92 147.187 337.48 146.407 336.74C145.607 336.02 145.167 335 145.147 333.96C145.147 332.94 145.607 331.92 146.407 331.18C147.187 330.46 148.267 330.02 149.407 330C150.527 329.98 151.667 330.36 152.507 331.1C152.927 331.46 153.267 331.9 153.507 332.4C153.747 332.9 153.867 333.42 153.867 333.96C153.867 334.5 153.747 335.04 153.507 335.54ZM160.92 337.34C160.44 337.02 160.26 336.5 160.26 335.3V330.08H163.56V328.96H160.26V325.86L159.04 326.52V328.98H156.32V330.08H159.04V335.3C159.04 336.62 159.24 337.62 160.2 338.24C160.78 338.6 161.52 338.72 162.34 338.72C162.74 338.72 163.14 338.7 163.56 338.66V337.54C162.6 337.64 161.48 337.7 160.92 337.34ZM174.846 334.52C174.866 334.34 174.886 334.16 174.886 333.96C174.886 331.18 172.446 328.9 169.426 328.9C166.406 328.9 163.966 331.18 163.966 333.96C163.966 336.76 166.586 339.04 169.846 339.04C171.806 339.04 173.606 338.2 174.686 336.84L173.566 336.36C172.686 337.34 171.326 337.94 169.846 337.94C167.486 337.94 165.546 336.44 165.226 334.52H174.846ZM165.226 333.42C165.526 331.5 167.286 330 169.426 330C171.566 330 173.326 331.5 173.626 333.42H165.226ZM185.817 328.96V331.32C185.637 331.04 185.437 330.76 185.177 330.52C184.717 330.04 184.137 329.66 183.497 329.38C182.857 329.1 182.137 328.96 181.417 328.94C180.697 328.94 179.977 329.06 179.317 329.32C178.657 329.58 178.057 329.96 177.557 330.44C176.557 331.38 175.997 332.68 176.017 333.96C175.997 335.26 176.557 336.56 177.557 337.5C178.057 337.98 178.657 338.36 179.317 338.62C179.977 338.88 180.697 339 181.417 339C182.137 338.98 182.857 338.84 183.497 338.56C184.137 338.28 184.717 337.9 185.177 337.42C185.437 337.18 185.637 336.9 185.817 336.62V338.04C185.817 339.58 185.257 341.52 182.577 341.98C180.537 342.3 178.337 341.44 177.357 339.9L176.297 340.46C177.357 342.14 179.477 343.16 181.657 343.16C182.037 343.16 182.417 343.12 182.797 343.06C185.497 342.62 187.057 340.78 187.057 338.04V328.96H185.817ZM185.477 335.52C185.237 336 184.897 336.44 184.477 336.8C183.657 337.52 182.517 337.9 181.417 337.88C180.317 337.88 179.217 337.44 178.457 336.72C177.677 336 177.217 334.98 177.217 333.96C177.217 332.94 177.677 331.94 178.457 331.22C179.217 330.5 180.317 330.06 181.417 330.06C182.517 330.04 183.657 330.4 184.477 331.14C184.897 331.5 185.237 331.94 185.477 332.42C185.697 332.9 185.817 333.44 185.817 333.96C185.817 334.5 185.697 335.04 185.477 335.52ZM190.198 338.96V328.96H188.958V338.96H190.198ZM189.578 325.28C189.058 325.28 188.638 325.7 188.638 326.22C188.638 326.76 189.058 327.18 189.578 327.18C190.098 327.18 190.538 326.76 190.538 326.22C190.538 325.7 190.098 325.28 189.578 325.28ZM202.697 334.52C202.717 334.34 202.737 334.16 202.737 333.96C202.737 331.18 200.297 328.9 197.277 328.9C194.257 328.9 191.817 331.18 191.817 333.96C191.817 336.76 194.437 339.04 197.697 339.04C199.657 339.04 201.457 338.2 202.537 336.84L201.417 336.36C200.537 337.34 199.177 337.94 197.697 337.94C195.337 337.94 193.397 336.44 193.077 334.52H202.697ZM193.077 333.42C193.377 331.5 195.137 330 197.277 330C199.417 330 201.177 331.5 201.477 333.42H193.077ZM208.229 333.24C208.069 333.18 207.909 333.14 207.789 333.1C207.709 333.08 207.629 333.04 207.529 333C206.469 332.66 205.449 332.24 205.529 331.38C205.629 330.02 207.629 330 207.649 330C208.869 330 209.689 330.44 210.069 331.3L211.209 330.88C210.629 329.6 209.369 328.9 207.649 328.9C206.129 328.9 204.449 329.64 204.309 331.3C204.169 333.06 206.149 333.72 207.109 334.04C207.189 334.08 207.269 334.1 207.349 334.14C207.489 334.18 207.649 334.24 207.829 334.28C209.129 334.7 210.309 335.16 210.349 336.28C210.349 336.68 210.209 337.04 209.889 337.3C209.409 337.74 208.609 337.96 207.749 337.92C206.649 337.88 205.329 337.36 204.929 336.04L203.769 336.34C204.229 337.9 205.769 338.96 207.689 339.04C207.769 339.04 207.849 339.04 207.929 339.04C209.049 339.04 210.069 338.7 210.749 338.1C211.309 337.6 211.589 336.96 211.569 336.26C211.509 334.26 209.369 333.6 208.229 333.24Z" fill="#1C1C1C"/>
<circle cx="43" cy="321" r="14" stroke="#08AEEA" stroke-width="2"/>
<circle cx="43" cy="321" r="5" fill="#08AEEA"/>
<path d="M69.38 280V266.02H68.16V280H69.38ZM80.4147 279.96V274.28C80.4347 273.26 80.1747 272.16 79.4347 271.26C79.0547 270.82 78.5547 270.44 77.9947 270.2C77.4147 269.96 76.7947 269.88 76.1947 269.88C75.6147 269.9 74.9947 270.02 74.4547 270.28C73.9147 270.54 73.4547 270.92 73.1347 271.36C73.0147 271.52 72.9147 271.7 72.8347 271.86V269.96H71.6147V279.96H72.8347V274.5C72.8347 274.42 72.8347 274.36 72.8347 274.28C72.8747 273.82 72.9547 273.38 73.1147 272.96C73.2747 272.54 73.5147 272.16 73.8347 271.86C74.4347 271.22 75.3147 270.96 76.1947 271C77.0947 271.02 77.9147 271.34 78.4347 271.96C78.6947 272.26 78.8947 272.64 79.0147 273.02C79.1347 273.42 79.1947 273.84 79.1947 274.28V279.96H80.4147ZM85.51 278.34C85.03 278.02 84.85 277.5 84.85 276.3V271.08H88.15V269.96H84.85V266.86L83.63 267.52V269.98H80.91V271.08H83.63V276.3C83.63 277.62 83.83 278.62 84.79 279.24C85.37 279.6 86.11 279.72 86.93 279.72C87.33 279.72 87.73 279.7 88.15 279.66V278.54C87.19 278.64 86.07 278.7 85.51 278.34ZM99.4356 275.52C99.4556 275.34 99.4756 275.16 99.4756 274.96C99.4756 272.18 97.0356 269.9 94.0156 269.9C90.9956 269.9 88.5556 272.18 88.5556 274.96C88.5556 277.76 91.1756 280.04 94.4356 280.04C96.3956 280.04 98.1956 279.2 99.2756 277.84L98.1556 277.36C97.2756 278.34 95.9156 278.94 94.4356 278.94C92.0756 278.94 90.1356 277.44 89.8156 275.52H99.4356ZM89.8156 274.42C90.1156 272.5 91.8756 271 94.0156 271C96.1556 271 97.9156 272.5 98.2156 274.42H89.8156ZM110.407 269.96V272.32C110.227 272.04 110.027 271.76 109.767 271.52C109.307 271.04 108.727 270.66 108.087 270.38C107.447 270.1 106.727 269.96 106.007 269.94C105.287 269.94 104.567 270.06 103.907 270.32C103.247 270.58 102.647 270.96 102.147 271.44C101.147 272.38 100.587 273.68 100.607 274.96C100.587 276.26 101.147 277.56 102.147 278.5C102.647 278.98 103.247 279.36 103.907 279.62C104.567 279.88 105.287 280 106.007 280C106.727 279.98 107.447 279.84 108.087 279.56C108.727 279.28 109.307 278.9 109.767 278.42C110.027 278.18 110.227 277.9 110.407 277.62V279.04C110.407 280.58 109.847 282.52 107.167 282.98C105.127 283.3 102.927 282.44 101.947 280.9L100.887 281.46C101.947 283.14 104.067 284.16 106.247 284.16C106.627 284.16 107.007 284.12 107.387 284.06C110.087 283.62 111.647 281.78 111.647 279.04V269.96H110.407ZM110.067 276.52C109.827 277 109.487 277.44 109.067 277.8C108.247 278.52 107.107 278.9 106.007 278.88C104.907 278.88 103.807 278.44 103.047 277.72C102.267 277 101.807 275.98 101.807 274.96C101.807 273.94 102.267 272.94 103.047 272.22C103.807 271.5 104.907 271.06 106.007 271.06C107.107 271.04 108.247 271.4 109.067 272.14C109.487 272.5 109.827 272.94 110.067 273.42C110.287 273.9 110.407 274.44 110.407 274.96C110.407 275.5 110.287 276.04 110.067 276.52ZM118.363 269.88C117.783 269.9 117.163 270.02 116.623 270.28C116.083 270.54 115.623 270.92 115.303 271.36C115.183 271.52 115.083 271.7 115.003 271.86V269.96H113.783V279.96H115.003V274.5C115.003 274.42 115.003 274.36 115.003 274.28C115.043 273.82 115.123 273.38 115.283 272.96C115.443 272.54 115.683 272.16 116.003 271.86C116.603 271.22 117.483 270.96 118.363 271C118.863 271 119.343 271.12 119.743 271.32L120.023 270.16C119.483 269.96 118.923 269.88 118.363 269.88ZM129.882 269.96V272.3C129.682 272.02 129.482 271.74 129.222 271.48C128.742 271 128.162 270.6 127.522 270.34C126.862 270.06 126.142 269.9 125.422 269.9C124.702 269.9 123.962 270.02 123.302 270.28C122.622 270.54 122.022 270.92 121.522 271.4C120.502 272.34 119.942 273.66 119.962 274.96C119.942 276.28 120.502 277.58 121.522 278.54C122.022 279.02 122.622 279.4 123.282 279.66C123.962 279.92 124.682 280.04 125.422 280.04C126.142 280.04 126.862 279.88 127.522 279.6C128.162 279.34 128.742 278.92 129.222 278.46C129.482 278.2 129.682 277.92 129.882 277.62V279.96H131.102V269.96H129.882ZM129.522 276.54C129.282 277.02 128.942 277.48 128.522 277.84C127.682 278.56 126.542 278.94 125.422 278.94C124.302 278.92 123.202 278.48 122.422 277.74C121.622 277.02 121.182 276 121.162 274.96C121.162 273.94 121.622 272.92 122.422 272.18C123.202 271.46 124.282 271.02 125.422 271C126.542 270.98 127.682 271.36 128.522 272.1C128.942 272.46 129.282 272.9 129.522 273.4C129.762 273.9 129.882 274.42 129.882 274.96C129.882 275.5 129.762 276.04 129.522 276.54ZM136.936 278.34C136.456 278.02 136.276 277.5 136.276 276.3V271.08H139.576V269.96H136.276V266.86L135.056 267.52V269.98H132.336V271.08H135.056V276.3C135.056 277.62 135.256 278.62 136.216 279.24C136.796 279.6 137.536 279.72 138.356 279.72C138.756 279.72 139.156 279.7 139.576 279.66V278.54C138.616 278.64 137.496 278.7 136.936 278.34ZM142.249 279.96V269.96H141.009V279.96H142.249ZM141.629 266.28C141.109 266.28 140.689 266.7 140.689 267.22C140.689 267.76 141.109 268.18 141.629 268.18C142.149 268.18 142.589 267.76 142.589 267.22C142.589 266.7 142.149 266.28 141.629 266.28ZM149.348 269.9C146.328 269.9 143.888 272.18 143.888 274.96C143.888 277.76 146.328 280.04 149.348 280.04C152.368 280.04 154.808 277.76 154.808 274.96C154.808 272.18 152.368 269.9 149.348 269.9ZM149.348 278.94C147.008 278.94 145.108 277.16 145.108 274.96C145.108 272.78 147.008 271 149.348 271C151.688 271 153.588 272.78 153.588 274.96C153.588 277.16 151.688 278.94 149.348 278.94ZM165.239 279.96V274.28C165.259 273.26 164.999 272.16 164.259 271.26C163.879 270.82 163.379 270.44 162.819 270.2C162.239 269.96 161.619 269.88 161.019 269.88C160.439 269.9 159.819 270.02 159.279 270.28C158.739 270.54 158.279 270.92 157.959 271.36C157.839 271.52 157.739 271.7 157.659 271.86V269.96H156.439V279.96H157.659V274.5C157.659 274.42 157.659 274.36 157.659 274.28C157.699 273.82 157.779 273.38 157.939 272.96C158.099 272.54 158.339 272.16 158.659 271.86C159.259 271.22 160.139 270.96 161.019 271C161.919 271.02 162.739 271.34 163.259 271.96C163.519 272.26 163.719 272.64 163.839 273.02C163.959 273.42 164.019 273.84 164.019 274.28V279.96H165.239ZM184.805 269.98L181.025 278.22L179.265 274.44L181.325 269.98H180.005L178.605 273.24L177.225 269.98H175.905L177.945 274.44L176.205 278.22L172.425 269.98H171.105L175.685 279.98H176.725L178.605 275.62L180.505 279.98H181.545L186.125 269.98H184.805ZM188.557 279.96V269.96H187.317V279.96H188.557ZM187.937 266.28C187.417 266.28 186.997 266.7 186.997 267.22C186.997 267.76 187.417 268.18 187.937 268.18C188.457 268.18 188.897 267.76 188.897 267.22C188.897 266.7 188.457 266.28 187.937 266.28ZM194.397 278.34C193.917 278.02 193.737 277.5 193.737 276.3V271.08H197.037V269.96H193.737V266.86L192.517 267.52V269.98H189.797V271.08H192.517V276.3C192.517 277.62 192.717 278.62 193.677 279.24C194.257 279.6 194.997 279.72 195.817 279.72C196.217 279.72 196.617 279.7 197.037 279.66V278.54C196.077 278.64 194.957 278.7 194.397 278.34ZM207.29 279.96V274.28C207.31 273.26 207.05 272.16 206.31 271.26C205.93 270.82 205.43 270.44 204.87 270.2C204.29 269.96 203.67 269.88 203.07 269.88C202.49 269.9 201.87 270.02 201.33 270.28C200.79 270.54 200.33 270.92 200.01 271.36C199.89 271.52 199.79 271.7 199.71 271.86V265.96H198.49V279.96H199.71V274.5C199.71 274.42 199.71 274.36 199.71 274.28C199.75 273.82 199.83 273.38 199.99 272.96C200.15 272.54 200.39 272.16 200.71 271.86C201.31 271.22 202.19 270.96 203.07 271C203.97 271.02 204.79 271.34 205.31 271.96C205.57 272.26 205.77 272.64 205.89 273.02C206.03 273.42 206.07 273.84 206.07 274.28V279.96H207.29ZM217.796 273.2C218.456 273.26 219.476 273.38 220.536 273.14C220.576 273.12 220.616 273.12 220.656 273.12C220.756 273.08 220.856 273.06 220.956 273.02C221.476 272.86 221.956 272.62 222.356 272.34C222.796 272.02 223.136 271.62 223.376 271.16C223.616 270.7 223.736 270.2 223.736 269.66C223.736 269.12 223.616 268.62 223.376 268.16C223.136 267.7 222.796 267.32 222.356 266.98C221.916 266.68 221.396 266.44 220.796 266.26C220.216 266.1 219.556 266 218.836 266H214.196V279.94H215.416V272.38L223.036 280H224.676L217.796 273.2ZM215.416 267.12H218.836C219.416 267.12 219.956 267.18 220.436 267.32C220.896 267.44 221.276 267.64 221.596 267.86C221.896 268.08 222.116 268.34 222.276 268.64C222.436 268.94 222.516 269.3 222.516 269.66C222.516 270.04 222.436 270.38 222.276 270.68C222.116 271 221.896 271.26 221.576 271.48C221.276 271.7 220.876 271.88 220.436 272.02C219.956 272.14 219.416 272.22 218.836 272.22H215.416V267.12ZM235.393 275.52C235.413 275.34 235.433 275.16 235.433 274.96C235.433 272.18 232.993 269.9 229.973 269.9C226.953 269.9 224.513 272.18 224.513 274.96C224.513 277.76 227.133 280.04 230.393 280.04C232.353 280.04 234.153 279.2 235.233 277.84L234.113 277.36C233.233 278.34 231.873 278.94 230.393 278.94C228.033 278.94 226.093 277.44 225.773 275.52H235.393ZM225.773 274.42C226.073 272.5 227.833 271 229.973 271C232.113 271 233.873 272.5 234.173 274.42H225.773ZM239.998 267.5C240.538 267.08 241.298 267 242.498 267.06V265.94C241.278 265.9 240.118 265.94 239.198 266.66C238.438 267.26 238.078 268.14 238.078 269.4V269.96H235.558V271.08H238.078V279.96H239.298V271.08H242.498V269.96H239.298V269.4C239.298 268.22 239.658 267.78 239.998 267.5ZM257.849 267.12V266H248.829V266.02H248.649V280H249.869V273.5H257.329V272.38H249.869V267.12H257.849ZM260.393 279.96V269.96H259.153V279.96H260.393ZM259.773 266.28C259.253 266.28 258.833 266.7 258.833 267.22C258.833 267.76 259.253 268.18 259.773 268.18C260.293 268.18 260.733 267.76 260.733 267.22C260.733 266.7 260.293 266.28 259.773 266.28ZM271.333 279.96V274.28C271.353 273.26 271.093 272.16 270.353 271.26C269.973 270.82 269.473 270.44 268.913 270.2C268.333 269.96 267.713 269.88 267.113 269.88C266.533 269.9 265.913 270.02 265.373 270.28C264.833 270.54 264.373 270.92 264.053 271.36C263.933 271.52 263.833 271.7 263.753 271.86V269.96H262.533V279.96H263.753V274.5C263.753 274.42 263.753 274.36 263.753 274.28C263.793 273.82 263.873 273.38 264.033 272.96C264.193 272.54 264.433 272.16 264.753 271.86C265.353 271.22 266.233 270.96 267.113 271C268.013 271.02 268.833 271.34 269.353 271.96C269.613 272.26 269.813 272.64 269.933 273.02C270.053 273.42 270.113 273.84 270.113 274.28V279.96H271.333ZM282.734 269.96V272.3C282.534 272.02 282.334 271.74 282.074 271.48C281.594 271 281.014 270.6 280.374 270.34C279.714 270.06 278.994 269.9 278.274 269.9C277.554 269.9 276.814 270.02 276.154 270.28C275.474 270.54 274.874 270.92 274.374 271.4C273.354 272.34 272.794 273.66 272.814 274.96C272.794 276.28 273.354 277.58 274.374 278.54C274.874 279.02 275.474 279.4 276.134 279.66C276.814 279.92 277.534 280.04 278.274 280.04C278.994 280.04 279.714 279.88 280.374 279.6C281.014 279.34 281.594 278.92 282.074 278.46C282.334 278.2 282.534 277.92 282.734 277.62V279.96H283.954V269.96H282.734ZM282.374 276.54C282.134 277.02 281.794 277.48 281.374 277.84C280.534 278.56 279.394 278.94 278.274 278.94C277.154 278.92 276.054 278.48 275.274 277.74C274.474 277.02 274.034 276 274.014 274.96C274.014 273.94 274.474 272.92 275.274 272.18C276.054 271.46 277.134 271.02 278.274 271C279.394 270.98 280.534 271.36 281.374 272.1C281.794 272.46 282.134 272.9 282.374 273.4C282.614 273.9 282.734 274.42 282.734 274.96C282.734 275.5 282.614 276.04 282.374 276.54ZM294.887 279.96V274.28C294.907 273.26 294.647 272.16 293.907 271.26C293.527 270.82 293.027 270.44 292.467 270.2C291.887 269.96 291.267 269.88 290.667 269.88C290.087 269.9 289.467 270.02 288.927 270.28C288.387 270.54 287.927 270.92 287.607 271.36C287.487 271.52 287.387 271.7 287.307 271.86V269.96H286.087V279.96H287.307V274.5C287.307 274.42 287.307 274.36 287.307 274.28C287.347 273.82 287.427 273.38 287.587 272.96C287.747 272.54 287.987 272.16 288.307 271.86C288.907 271.22 289.787 270.96 290.667 271C291.567 271.02 292.387 271.34 292.907 271.96C293.167 272.26 293.367 272.64 293.487 273.02C293.607 273.42 293.667 273.84 293.667 274.28V279.96H294.887ZM301.829 278.94H301.809C299.469 278.92 297.569 277.14 297.589 274.96C297.589 272.78 299.489 271 301.829 271C303.189 271 304.449 271.6 305.249 272.64L306.249 272C305.229 270.68 303.569 269.9 301.849 269.9C301.829 269.9 301.829 269.9 301.829 269.9C298.809 269.9 296.369 272.16 296.369 274.96C296.349 277.76 298.789 280.04 301.809 280.04H301.829C303.549 280.04 305.189 279.28 306.209 277.98L305.229 277.34C304.409 278.34 303.169 278.94 301.829 278.94ZM317.912 275.52C317.932 275.34 317.952 275.16 317.952 274.96C317.952 272.18 315.512 269.9 312.492 269.9C309.472 269.9 307.032 272.18 307.032 274.96C307.032 277.76 309.652 280.04 312.912 280.04C314.872 280.04 316.672 279.2 317.752 277.84L316.632 277.36C315.752 278.34 314.392 278.94 312.912 278.94C310.552 278.94 308.612 277.44 308.292 275.52H317.912ZM308.292 274.42C308.592 272.5 310.352 271 312.492 271C314.632 271 316.392 272.5 316.692 274.42H308.292Z" fill="#1C1C1C"/>
<circle cx="43" cy="273" r="14" stroke="#08AEEA" stroke-width="2"/>
<circle cx="43" cy="273" r="5" fill="#08AEEA"/>
<path d="M78.56 218.02L73.44 230.76L68.32 218.02H67.02L72.64 232H74.24L79.86 218.02H78.56ZM88.9448 221.96V224.3C88.7448 224.02 88.5448 223.74 88.2848 223.48C87.8048 223 87.2248 222.6 86.5848 222.34C85.9248 222.06 85.2048 221.9 84.4848 221.9C83.7648 221.9 83.0248 222.02 82.3648 222.28C81.6848 222.54 81.0848 222.92 80.5848 223.4C79.5648 224.34 79.0048 225.66 79.0248 226.96C79.0048 228.28 79.5648 229.58 80.5848 230.54C81.0848 231.02 81.6848 231.4 82.3448 231.66C83.0248 231.92 83.7448 232.04 84.4848 232.04C85.2048 232.04 85.9248 231.88 86.5848 231.6C87.2248 231.34 87.8048 230.92 88.2848 230.46C88.5448 230.2 88.7448 229.92 88.9448 229.62V231.96H90.1648V221.96H88.9448ZM88.5848 228.54C88.3448 229.02 88.0048 229.48 87.5848 229.84C86.7448 230.56 85.6048 230.94 84.4848 230.94C83.3648 230.92 82.2648 230.48 81.4848 229.74C80.6848 229.02 80.2448 228 80.2248 226.96C80.2248 225.94 80.6848 224.92 81.4848 224.18C82.2648 223.46 83.3448 223.02 84.4848 223C85.6048 222.98 86.7448 223.36 87.5848 224.1C88.0048 224.46 88.3448 224.9 88.5848 225.4C88.8248 225.9 88.9448 226.42 88.9448 226.96C88.9448 227.5 88.8248 228.04 88.5848 228.54ZM99.6983 221.96V227.44C99.6983 227.52 99.6983 227.58 99.6983 227.66C99.6583 228.12 99.5783 228.56 99.4183 228.98C99.2583 229.4 99.0183 229.78 98.6983 230.08C98.0983 230.72 97.2183 230.98 96.3183 230.94C95.4383 230.92 94.6183 230.58 94.0983 229.98C93.8383 229.68 93.6383 229.3 93.5183 228.9C93.3783 228.52 93.3383 228.08 93.3183 227.66L93.3383 221.96H92.1183V227.66C92.0983 228.68 92.3583 229.78 93.0983 230.68C93.4783 231.12 93.9783 231.5 94.5383 231.74C95.0983 231.96 95.7383 232.06 96.3183 232.04C96.9183 232.04 97.5383 231.92 98.0783 231.66C98.6183 231.4 99.0783 231.02 99.3983 230.58C99.5183 230.4 99.6183 230.24 99.6983 230.08V231.96H100.918V221.96H99.6983ZM104.28 231.98V217.98H103.06V231.98H104.28ZM110.1 230.34C109.62 230.02 109.44 229.5 109.44 228.3V223.08H112.74V221.96H109.44V218.86L108.22 219.52V221.98H105.5V223.08H108.22V228.3C108.22 229.62 108.42 230.62 109.38 231.24C109.96 231.6 110.7 231.72 111.52 231.72C111.92 231.72 112.32 231.7 112.74 231.66V230.54C111.78 230.64 110.66 230.7 110.1 230.34ZM124.358 224.18C124.138 224.1 123.918 224.04 123.738 223.98C123.638 223.94 123.498 223.88 123.358 223.84C121.758 223.28 120.198 222.62 120.318 221.16C120.458 219.38 122.538 218.9 123.618 218.9C125.478 218.9 126.738 219.6 127.338 220.98L128.478 220.56C127.678 218.74 125.998 217.78 123.618 217.78C122.158 217.78 119.318 218.48 119.098 221.08C118.898 223.5 121.618 224.44 122.938 224.88C123.058 224.92 123.178 224.96 123.278 225C123.478 225.08 123.698 225.14 123.958 225.22C125.918 225.86 127.698 226.6 127.738 228.42C127.758 229.1 127.518 229.7 126.978 230.16C126.238 230.82 125.038 231.18 123.758 231.12C122.098 231.04 120.098 230.22 119.498 228.14L118.318 228.42C118.958 230.62 121.058 232.1 123.698 232.22C123.798 232.22 123.918 232.24 124.038 232.24C125.538 232.24 126.918 231.78 127.838 230.96C128.598 230.28 128.998 229.38 128.957 228.4C128.878 225.64 125.938 224.7 124.358 224.18ZM133.674 230.34C133.194 230.02 133.014 229.5 133.014 228.3V223.08H136.314V221.96H133.014V218.86L131.794 219.52V221.98H129.074V223.08H131.794V228.3C131.794 229.62 131.994 230.62 132.954 231.24C133.534 231.6 134.274 231.72 135.094 231.72C135.494 231.72 135.894 231.7 136.314 231.66V230.54C135.354 230.64 134.234 230.7 133.674 230.34ZM142.347 221.88C141.767 221.9 141.147 222.02 140.607 222.28C140.067 222.54 139.607 222.92 139.287 223.36C139.167 223.52 139.067 223.7 138.987 223.86V221.96H137.767V231.96H138.987V226.5C138.987 226.42 138.987 226.36 138.987 226.28C139.027 225.82 139.107 225.38 139.267 224.96C139.427 224.54 139.667 224.16 139.987 223.86C140.587 223.22 141.467 222.96 142.347 223C142.847 223 143.327 223.12 143.727 223.32L144.007 222.16C143.467 221.96 142.907 221.88 142.347 221.88ZM153.867 221.96V224.3C153.667 224.02 153.467 223.74 153.207 223.48C152.727 223 152.147 222.6 151.507 222.34C150.847 222.06 150.127 221.9 149.407 221.9C148.687 221.9 147.947 222.02 147.287 222.28C146.607 222.54 146.007 222.92 145.507 223.4C144.487 224.34 143.927 225.66 143.947 226.96C143.927 228.28 144.487 229.58 145.507 230.54C146.007 231.02 146.607 231.4 147.267 231.66C147.947 231.92 148.667 232.04 149.407 232.04C150.127 232.04 150.847 231.88 151.507 231.6C152.147 231.34 152.727 230.92 153.207 230.46C153.467 230.2 153.667 229.92 153.867 229.62V231.96H155.087V221.96H153.867ZM153.507 228.54C153.267 229.02 152.927 229.48 152.507 229.84C151.667 230.56 150.527 230.94 149.407 230.94C148.287 230.92 147.187 230.48 146.407 229.74C145.607 229.02 145.167 228 145.147 226.96C145.147 225.94 145.607 224.92 146.407 224.18C147.187 223.46 148.267 223.02 149.407 223C150.527 222.98 151.667 223.36 152.507 224.1C152.927 224.46 153.267 224.9 153.507 225.4C153.747 225.9 153.867 226.42 153.867 226.96C153.867 227.5 153.747 228.04 153.507 228.54ZM160.92 230.34C160.44 230.02 160.26 229.5 160.26 228.3V223.08H163.56V221.96H160.26V218.86L159.04 219.52V221.98H156.32V223.08H159.04V228.3C159.04 229.62 159.24 230.62 160.2 231.24C160.78 231.6 161.52 231.72 162.34 231.72C162.74 231.72 163.14 231.7 163.56 231.66V230.54C162.6 230.64 161.48 230.7 160.92 230.34ZM174.846 227.52C174.866 227.34 174.886 227.16 174.886 226.96C174.886 224.18 172.446 221.9 169.426 221.9C166.406 221.9 163.966 224.18 163.966 226.96C163.966 229.76 166.586 232.04 169.846 232.04C171.806 232.04 173.606 231.2 174.686 229.84L173.566 229.36C172.686 230.34 171.326 230.94 169.846 230.94C167.486 230.94 165.546 229.44 165.226 227.52H174.846ZM165.226 226.42C165.526 224.5 167.286 223 169.426 223C171.566 223 173.326 224.5 173.626 226.42H165.226ZM185.817 221.96V224.32C185.637 224.04 185.437 223.76 185.177 223.52C184.717 223.04 184.137 222.66 183.497 222.38C182.857 222.1 182.137 221.96 181.417 221.94C180.697 221.94 179.977 222.06 179.317 222.32C178.657 222.58 178.057 222.96 177.557 223.44C176.557 224.38 175.997 225.68 176.017 226.96C175.997 228.26 176.557 229.56 177.557 230.5C178.057 230.98 178.657 231.36 179.317 231.62C179.977 231.88 180.697 232 181.417 232C182.137 231.98 182.857 231.84 183.497 231.56C184.137 231.28 184.717 230.9 185.177 230.42C185.437 230.18 185.637 229.9 185.817 229.62V231.04C185.817 232.58 185.257 234.52 182.577 234.98C180.537 235.3 178.337 234.44 177.357 232.9L176.297 233.46C177.357 235.14 179.477 236.16 181.657 236.16C182.037 236.16 182.417 236.12 182.797 236.06C185.497 235.62 187.057 233.78 187.057 231.04V221.96H185.817ZM185.477 228.52C185.237 229 184.897 229.44 184.477 229.8C183.657 230.52 182.517 230.9 181.417 230.88C180.317 230.88 179.217 230.44 178.457 229.72C177.677 229 177.217 227.98 177.217 226.96C177.217 225.94 177.677 224.94 178.457 224.22C179.217 223.5 180.317 223.06 181.417 223.06C182.517 223.04 183.657 223.4 184.477 224.14C184.897 224.5 185.237 224.94 185.477 225.42C185.697 225.9 185.817 226.44 185.817 226.96C185.817 227.5 185.697 228.04 185.477 228.52ZM190.198 231.96V221.96H188.958V231.96H190.198ZM189.578 218.28C189.058 218.28 188.638 218.7 188.638 219.22C188.638 219.76 189.058 220.18 189.578 220.18C190.098 220.18 190.538 219.76 190.538 219.22C190.538 218.7 190.098 218.28 189.578 218.28ZM202.697 227.52C202.717 227.34 202.737 227.16 202.737 226.96C202.737 224.18 200.297 221.9 197.277 221.9C194.257 221.9 191.817 224.18 191.817 226.96C191.817 229.76 194.437 232.04 197.697 232.04C199.657 232.04 201.457 231.2 202.537 229.84L201.417 229.36C200.537 230.34 199.177 230.94 197.697 230.94C195.337 230.94 193.397 229.44 193.077 227.52H202.697ZM193.077 226.42C193.377 224.5 195.137 223 197.277 223C199.417 223 201.177 224.5 201.477 226.42H193.077ZM208.229 226.24C208.069 226.18 207.909 226.14 207.789 226.1C207.709 226.08 207.629 226.04 207.529 226C206.469 225.66 205.449 225.24 205.529 224.38C205.629 223.02 207.629 223 207.649 223C208.869 223 209.689 223.44 210.069 224.3L211.209 223.88C210.629 222.6 209.369 221.9 207.649 221.9C206.129 221.9 204.449 222.64 204.309 224.3C204.169 226.06 206.149 226.72 207.109 227.04C207.189 227.08 207.269 227.1 207.349 227.14C207.489 227.18 207.649 227.24 207.829 227.28C209.129 227.7 210.309 228.16 210.349 229.28C210.349 229.68 210.209 230.04 209.889 230.3C209.409 230.74 208.609 230.96 207.749 230.92C206.649 230.88 205.329 230.36 204.929 229.04L203.769 229.34C204.229 230.9 205.769 231.96 207.689 232.04C207.769 232.04 207.849 232.04 207.929 232.04C209.049 232.04 210.069 231.7 210.749 231.1C211.309 230.6 211.589 229.96 211.569 229.26C211.509 227.26 209.369 226.6 208.229 226.24Z" fill="#1C1C1C"/>
<circle cx="43" cy="225" r="14" stroke="#08AEEA" stroke-width="2"/>
<circle cx="43" cy="225" r="5" fill="#08AEEA"/>
<path d="M74.58 170.02H72.56L67.04 184H68.32L69.86 180.14H77.3L78.82 184H80.12L74.58 170.02ZM70.3 179.02L73.58 170.74L76.86 179.02H70.3ZM88.4483 173.96V179.44C88.4483 179.52 88.4483 179.58 88.4483 179.66C88.4083 180.12 88.3283 180.56 88.1683 180.98C88.0083 181.4 87.7683 181.78 87.4483 182.08C86.8483 182.72 85.9683 182.98 85.0683 182.94C84.1883 182.92 83.3683 182.58 82.8483 181.98C82.5883 181.68 82.3883 181.3 82.2683 180.9C82.1283 180.52 82.0883 180.08 82.0683 179.66L82.0883 173.96H80.8683V179.66C80.8483 180.68 81.1083 181.78 81.8483 182.68C82.2283 183.12 82.7283 183.5 83.2883 183.74C83.8483 183.96 84.4883 184.06 85.0683 184.04C85.6683 184.04 86.2883 183.92 86.8283 183.66C87.3683 183.4 87.8283 183.02 88.1483 182.58C88.2683 182.4 88.3683 182.24 88.4483 182.08V183.96H89.6683V173.96H88.4483ZM95.51 182.34C95.03 182.02 94.85 181.5 94.85 180.3V175.08H98.15V173.96H94.85V170.86L93.63 171.52V173.98H90.91V175.08H93.63V180.3C93.63 181.62 93.83 182.62 94.79 183.24C95.37 183.6 96.11 183.72 96.93 183.72C97.33 183.72 97.73 183.7 98.15 183.66V182.54C97.19 182.64 96.07 182.7 95.51 182.34ZM104.036 173.9C101.016 173.9 98.5756 176.18 98.5756 178.96C98.5756 181.76 101.016 184.04 104.036 184.04C107.056 184.04 109.496 181.76 109.496 178.96C109.496 176.18 107.056 173.9 104.036 173.9ZM104.036 182.94C101.696 182.94 99.7956 181.16 99.7956 178.96C99.7956 176.78 101.696 175 104.036 175C106.376 175 108.276 176.78 108.276 178.96C108.276 181.16 106.376 182.94 104.036 182.94ZM118.626 178.46V177.34H110.386V178.46H118.626ZM127.433 183.12C125.633 183.12 123.933 182.48 122.673 181.34C120.053 178.94 120.053 175.08 122.673 172.68C123.933 171.54 125.633 170.9 127.433 170.9C129.213 170.9 130.913 171.54 132.173 172.68L133.033 171.9C131.533 170.54 129.553 169.78 127.433 169.78C125.293 169.78 123.313 170.54 121.813 171.9C118.713 174.72 118.713 179.3 121.813 182.12C123.313 183.48 125.293 184.24 127.433 184.24C129.553 184.24 131.533 183.48 133.033 182.12L132.173 181.34C130.913 182.48 129.213 183.12 127.433 183.12ZM138.997 173.9C135.977 173.9 133.537 176.18 133.537 178.96C133.537 181.76 135.977 184.04 138.997 184.04C142.017 184.04 144.457 181.76 144.457 178.96C144.457 176.18 142.017 173.9 138.997 173.9ZM138.997 182.94C136.657 182.94 134.757 181.16 134.757 178.96C134.757 176.78 136.657 175 138.997 175C141.337 175 143.237 176.78 143.237 178.96C143.237 181.16 141.337 182.94 138.997 182.94ZM160.087 183.96V178.46V177.76C160.087 177.52 160.087 177.26 160.047 177C159.987 176.5 159.827 175.98 159.547 175.5C159.267 175 158.827 174.58 158.287 174.28C158.007 174.14 157.707 174.04 157.407 173.96C157.107 173.9 156.807 173.88 156.507 173.88C156.207 173.9 155.907 173.94 155.607 174.02C155.327 174.1 155.047 174.22 154.787 174.38C154.287 174.7 153.927 175.14 153.707 175.6C153.607 175.82 153.527 176.02 153.487 176.24C153.387 175.98 153.287 175.74 153.147 175.5C152.867 175 152.427 174.58 151.887 174.28C151.607 174.14 151.327 174.04 151.007 173.96C150.707 173.9 150.407 173.88 150.107 173.88C149.807 173.9 149.507 173.94 149.227 174.02C148.927 174.1 148.647 174.22 148.407 174.38C147.907 174.7 147.527 175.14 147.307 175.6C147.307 175.62 147.307 175.62 147.307 175.62V173.98H146.087V183.96H147.307V178.28L147.327 177.76C147.327 177.54 147.367 177.32 147.407 177.1C147.507 176.68 147.687 176.28 147.947 175.94C148.207 175.6 148.547 175.34 148.927 175.18C149.287 175.04 149.687 174.98 150.107 175C150.947 175.02 151.627 175.4 152.027 176.04C152.247 176.38 152.367 176.76 152.427 177.14C152.467 177.36 152.487 177.56 152.487 177.76V178.46V183.96H153.707V178.46V178.2V177.76C153.727 177.54 153.747 177.32 153.807 177.1C153.907 176.68 154.087 176.26 154.347 175.94C154.607 175.6 154.947 175.34 155.307 175.18C155.687 175.04 156.087 174.98 156.507 175C157.327 175.02 158.027 175.4 158.427 176.04C158.627 176.38 158.767 176.76 158.827 177.14C158.867 177.34 158.867 177.56 158.867 177.76V178.46V183.96H160.087ZM171.663 175.48C171.163 175 170.543 174.62 169.883 174.36C169.203 174.1 168.483 173.96 167.763 173.96C167.023 173.98 166.303 174.12 165.663 174.4C165.003 174.68 164.423 175.08 163.943 175.56C163.703 175.82 163.483 176.1 163.303 176.38V174.04H162.083V188.04H163.303V181.7C163.483 182 163.703 182.28 163.963 182.52C164.423 183 165.003 183.4 165.663 183.68C166.303 183.96 167.023 184.1 167.763 184.12C168.483 184.12 169.203 184 169.883 183.74C170.543 183.48 171.163 183.08 171.663 182.62C172.663 181.66 173.223 180.36 173.223 179.04C173.223 177.74 172.663 176.42 171.663 175.48ZM170.763 181.82C169.983 182.56 168.883 183 167.763 183C166.643 183.02 165.503 182.64 164.663 181.92C164.243 181.54 163.883 181.1 163.643 180.62C163.423 180.12 163.303 179.58 163.303 179.04C163.303 178.5 163.423 177.96 163.663 177.48C163.883 176.98 164.243 176.54 164.663 176.18C165.503 175.44 166.643 175.06 167.763 175.08C168.883 175.1 169.983 175.52 170.763 176.26C171.543 177 172.003 178.02 172.003 179.04C172.003 180.08 171.543 181.1 170.763 181.82ZM179.817 173.9C176.797 173.9 174.357 176.18 174.357 178.96C174.357 181.76 176.797 184.04 179.817 184.04C182.837 184.04 185.277 181.76 185.277 178.96C185.277 176.18 182.837 173.9 179.817 173.9ZM179.817 182.94C177.477 182.94 175.577 181.16 175.577 178.96C175.577 176.78 177.477 175 179.817 175C182.157 175 184.057 176.78 184.057 178.96C184.057 181.16 182.157 182.94 179.817 182.94ZM194.308 173.96V179.44C194.308 179.52 194.308 179.58 194.308 179.66C194.268 180.12 194.188 180.56 194.028 180.98C193.868 181.4 193.628 181.78 193.308 182.08C192.708 182.72 191.828 182.98 190.928 182.94C190.048 182.92 189.228 182.58 188.708 181.98C188.448 181.68 188.248 181.3 188.128 180.9C187.988 180.52 187.948 180.08 187.928 179.66L187.948 173.96H186.728V179.66C186.708 180.68 186.968 181.78 187.708 182.68C188.088 183.12 188.588 183.5 189.148 183.74C189.708 183.96 190.348 184.06 190.928 184.04C191.528 184.04 192.148 183.92 192.688 183.66C193.228 183.4 193.688 183.02 194.008 182.58C194.128 182.4 194.228 182.24 194.308 182.08V183.96H195.528V173.96H194.308ZM206.469 183.96V178.28C206.489 177.26 206.229 176.16 205.489 175.26C205.109 174.82 204.609 174.44 204.049 174.2C203.469 173.96 202.849 173.88 202.249 173.88C201.669 173.9 201.049 174.02 200.509 174.28C199.969 174.54 199.509 174.92 199.189 175.36C199.069 175.52 198.969 175.7 198.889 175.86V173.96H197.669V183.96H198.889V178.5C198.889 178.42 198.889 178.36 198.889 178.28C198.929 177.82 199.009 177.38 199.169 176.96C199.329 176.54 199.569 176.16 199.889 175.86C200.489 175.22 201.369 174.96 202.249 175C203.149 175.02 203.969 175.34 204.489 175.96C204.749 176.26 204.949 176.64 205.069 177.02C205.189 177.42 205.249 177.84 205.249 178.28V183.96H206.469ZM217.871 169.96V176.3C217.671 176.02 217.471 175.74 217.211 175.48C216.731 175 216.151 174.6 215.511 174.34C214.851 174.06 214.131 173.9 213.411 173.9C212.691 173.9 211.951 174.02 211.291 174.28C210.611 174.54 210.011 174.92 209.511 175.4C208.491 176.34 207.931 177.66 207.951 178.96C207.931 180.28 208.491 181.58 209.511 182.54C210.011 183.02 210.611 183.4 211.271 183.66C211.951 183.92 212.671 184.04 213.411 184.04C214.131 184.04 214.851 183.88 215.511 183.6C216.151 183.34 216.731 182.92 217.211 182.46C217.451 182.2 217.671 181.92 217.871 181.62V183.96H219.091V169.96H217.871ZM217.511 180.54C217.271 181.02 216.931 181.48 216.511 181.84C215.671 182.56 214.531 182.94 213.411 182.94C212.291 182.92 211.191 182.48 210.411 181.74C209.611 181.02 209.171 180 209.151 178.96C209.151 177.94 209.611 176.92 210.411 176.18C211.191 175.46 212.271 175.02 213.411 175C214.531 174.98 215.671 175.36 216.511 176.1C216.931 176.46 217.271 176.9 217.511 177.4C217.751 177.9 217.871 178.42 217.871 178.96C217.871 179.5 217.751 180.04 217.511 180.54ZM222.444 183.96V173.96H221.204V183.96H222.444ZM221.824 170.28C221.304 170.28 220.884 170.7 220.884 171.22C220.884 171.76 221.304 172.18 221.824 172.18C222.344 172.18 222.784 171.76 222.784 171.22C222.784 170.7 222.344 170.28 221.824 170.28ZM233.383 183.96V178.28C233.403 177.26 233.143 176.16 232.403 175.26C232.023 174.82 231.523 174.44 230.963 174.2C230.383 173.96 229.763 173.88 229.163 173.88C228.583 173.9 227.963 174.02 227.423 174.28C226.883 174.54 226.423 174.92 226.103 175.36C225.983 175.52 225.883 175.7 225.803 175.86V173.96H224.583V183.96H225.803V178.5C225.803 178.42 225.803 178.36 225.803 178.28C225.843 177.82 225.923 177.38 226.083 176.96C226.243 176.54 226.483 176.16 226.803 175.86C227.403 175.22 228.283 174.96 229.163 175C230.063 175.02 230.883 175.34 231.403 175.96C231.663 176.26 231.863 176.64 231.983 177.02C232.103 177.42 232.163 177.84 232.163 178.28V183.96H233.383ZM244.665 173.96V176.32C244.485 176.04 244.285 175.76 244.025 175.52C243.565 175.04 242.985 174.66 242.345 174.38C241.705 174.1 240.985 173.96 240.265 173.94C239.545 173.94 238.825 174.06 238.165 174.32C237.505 174.58 236.905 174.96 236.405 175.44C235.405 176.38 234.845 177.68 234.865 178.96C234.845 180.26 235.405 181.56 236.405 182.5C236.905 182.98 237.505 183.36 238.165 183.62C238.825 183.88 239.545 184 240.265 184C240.985 183.98 241.705 183.84 242.345 183.56C242.985 183.28 243.565 182.9 244.025 182.42C244.285 182.18 244.485 181.9 244.665 181.62V183.04C244.665 184.58 244.105 186.52 241.425 186.98C239.385 187.3 237.185 186.44 236.205 184.9L235.145 185.46C236.205 187.14 238.325 188.16 240.505 188.16C240.885 188.16 241.265 188.12 241.645 188.06C244.345 187.62 245.905 185.78 245.905 183.04V173.96H244.665ZM244.325 180.52C244.085 181 243.745 181.44 243.325 181.8C242.505 182.52 241.365 182.9 240.265 182.88C239.165 182.88 238.065 182.44 237.305 181.72C236.525 181 236.065 179.98 236.065 178.96C236.065 177.94 236.525 176.94 237.305 176.22C238.065 175.5 239.165 175.06 240.265 175.06C241.365 175.04 242.505 175.4 243.325 176.14C243.745 176.5 244.085 176.94 244.325 177.42C244.545 177.9 244.665 178.44 244.665 178.96C244.665 179.5 244.545 180.04 244.325 180.52Z" fill="#1C1C1C"/>
<circle cx="43" cy="177" r="14" stroke="#08AEEA" stroke-width="2"/>
<circle cx="43" cy="177" r="5" fill="#08AEEA"/>
<path d="M78.36 130.42C78.3 130.32 78.24 130.22 78.18 130.12C78.16 130.08 78.14 130.06 78.12 130.02C78.06 129.94 78.02 129.88 77.96 129.8C77.06 128.7 75.64 128.5 75.64 128.5C75.64 128.5 76.98 128.24 77.62 126.84C77.78 126.46 77.86 126.04 77.86 125.6C77.86 125.08 77.76 124.58 77.54 124.14C77.32 123.7 76.98 123.3 76.56 122.98C76.16 122.68 75.66 122.42 75.1 122.26C74.54 122.1 73.92 122.02 73.24 122.02H68.16V136H73.58C74.34 136 75.04 135.92 75.64 135.74C76.28 135.54 76.84 135.28 77.28 134.94C77.74 134.58 78.1 134.16 78.36 133.66C78.6 133.16 78.72 132.62 78.72 132.04C78.72 131.46 78.6 130.92 78.36 130.42ZM73.24 123.12C73.78 123.12 74.28 123.18 74.72 123.32C75.14 123.44 75.5 123.62 75.78 123.84C76.06 124.04 76.28 124.3 76.42 124.6C76.58 124.9 76.64 125.22 76.64 125.6C76.64 125.96 76.58 126.3 76.42 126.6C76.28 126.9 76.06 127.14 75.78 127.36C75.5 127.58 75.14 127.74 74.72 127.88C74.28 128 73.78 128.06 73.24 128.06H69.38V123.12H73.24ZM77.24 133.2C77.08 133.54 76.82 133.84 76.5 134.08C76.16 134.34 75.76 134.54 75.28 134.68C74.78 134.82 74.2 134.9 73.58 134.9H69.38V129.18H73.58C74.2 129.18 74.78 129.24 75.28 129.4C75.76 129.54 76.16 129.74 76.5 130C76.82 130.24 77.08 130.54 77.24 130.88C77.42 131.22 77.5 131.62 77.5 132.04C77.5 132.46 77.42 132.86 77.24 133.2ZM90.7442 131.52C90.7642 131.34 90.7842 131.16 90.7842 130.96C90.7842 128.18 88.3442 125.9 85.3242 125.9C82.3042 125.9 79.8642 128.18 79.8642 130.96C79.8642 133.76 82.4842 136.04 85.7442 136.04C87.7042 136.04 89.5042 135.2 90.5842 133.84L89.4642 133.36C88.5842 134.34 87.2242 134.94 85.7442 134.94C83.3842 134.94 81.4442 133.44 81.1242 131.52H90.7442ZM81.1242 130.42C81.4242 128.5 83.1842 127 85.3242 127C87.4642 127 89.2242 128.5 89.5242 130.42H81.1242ZM95.4709 134.34C94.9909 134.02 94.8109 133.5 94.8109 132.3V127.08H98.1109V125.96H94.8109V122.86L93.5909 123.52V125.98H90.8709V127.08H93.5909V132.3C93.5909 133.62 93.7909 134.62 94.7509 135.24C95.3309 135.6 96.0709 135.72 96.8909 135.72C97.2909 135.72 97.6909 135.7 98.1109 135.66V134.54C97.1509 134.64 96.0309 134.7 95.4709 134.34ZM108.457 125.96V128.3C108.257 128.02 108.057 127.74 107.797 127.48C107.317 127 106.737 126.6 106.097 126.34C105.437 126.06 104.717 125.9 103.997 125.9C103.277 125.9 102.537 126.02 101.877 126.28C101.197 126.54 100.597 126.92 100.097 127.4C99.0766 128.34 98.5166 129.66 98.5366 130.96C98.5166 132.28 99.0766 133.58 100.097 134.54C100.597 135.02 101.197 135.4 101.857 135.66C102.537 135.92 103.257 136.04 103.997 136.04C104.717 136.04 105.437 135.88 106.097 135.6C106.737 135.34 107.317 134.92 107.797 134.46C108.057 134.2 108.257 133.92 108.457 133.62V135.96H109.677V125.96H108.457ZM108.097 132.54C107.857 133.02 107.517 133.48 107.097 133.84C106.257 134.56 105.117 134.94 103.997 134.94C102.877 134.92 101.777 134.48 100.997 133.74C100.197 133.02 99.7566 132 99.7366 130.96C99.7366 129.94 100.197 128.92 100.997 128.18C101.777 127.46 102.857 127.02 103.997 127C105.117 126.98 106.257 127.36 107.097 128.1C107.517 128.46 107.857 128.9 108.097 129.4C108.337 129.9 108.457 130.42 108.457 130.96C108.457 131.5 108.337 132.04 108.097 132.54ZM120.335 129.2C120.995 129.26 122.015 129.38 123.075 129.14C123.115 129.12 123.155 129.12 123.195 129.12C123.295 129.08 123.395 129.06 123.495 129.02C124.015 128.86 124.495 128.62 124.895 128.34C125.335 128.02 125.675 127.62 125.915 127.16C126.155 126.7 126.275 126.2 126.275 125.66C126.275 125.12 126.155 124.62 125.915 124.16C125.675 123.7 125.335 123.32 124.895 122.98C124.455 122.68 123.935 122.44 123.335 122.26C122.755 122.1 122.095 122 121.375 122H116.735V135.94H117.955V128.38L125.575 136H127.215L120.335 129.2ZM117.955 123.12H121.375C121.955 123.12 122.495 123.18 122.975 123.32C123.435 123.44 123.815 123.64 124.135 123.86C124.435 124.08 124.655 124.34 124.815 124.64C124.975 124.94 125.055 125.3 125.055 125.66C125.055 126.04 124.975 126.38 124.815 126.68C124.655 127 124.435 127.26 124.115 127.48C123.815 127.7 123.415 127.88 122.975 128.02C122.495 128.14 121.955 128.22 121.375 128.22H117.955V123.12ZM137.932 131.52C137.952 131.34 137.972 131.16 137.972 130.96C137.972 128.18 135.532 125.9 132.512 125.9C129.492 125.9 127.052 128.18 127.052 130.96C127.052 133.76 129.672 136.04 132.932 136.04C134.892 136.04 136.692 135.2 137.772 133.84L136.652 133.36C135.772 134.34 134.412 134.94 132.932 134.94C130.572 134.94 128.632 133.44 128.312 131.52H137.932ZM128.312 130.42C128.612 128.5 130.372 127 132.512 127C134.652 127 136.412 128.5 136.712 130.42H128.312ZM140.823 135.98V121.98H139.603V135.98H140.823ZM153.303 131.52C153.323 131.34 153.343 131.16 153.343 130.96C153.343 128.18 150.903 125.9 147.883 125.9C144.863 125.9 142.423 128.18 142.423 130.96C142.423 133.76 145.043 136.04 148.303 136.04C150.263 136.04 152.063 135.2 153.143 133.84L152.023 133.36C151.143 134.34 149.783 134.94 148.303 134.94C145.943 134.94 144.003 133.44 143.683 131.52H153.303ZM143.683 130.42C143.983 128.5 145.743 127 147.883 127C150.023 127 151.783 128.5 152.083 130.42H143.683ZM164.394 125.96V128.3C164.194 128.02 163.994 127.74 163.734 127.48C163.254 127 162.674 126.6 162.034 126.34C161.374 126.06 160.654 125.9 159.934 125.9C159.214 125.9 158.474 126.02 157.814 126.28C157.134 126.54 156.534 126.92 156.034 127.4C155.014 128.34 154.454 129.66 154.474 130.96C154.454 132.28 155.014 133.58 156.034 134.54C156.534 135.02 157.134 135.4 157.794 135.66C158.474 135.92 159.194 136.04 159.934 136.04C160.654 136.04 161.374 135.88 162.034 135.6C162.674 135.34 163.254 134.92 163.734 134.46C163.994 134.2 164.194 133.92 164.394 133.62V135.96H165.614V125.96H164.394ZM164.034 132.54C163.794 133.02 163.454 133.48 163.034 133.84C162.194 134.56 161.054 134.94 159.934 134.94C158.814 134.92 157.714 134.48 156.934 133.74C156.134 133.02 155.694 132 155.674 130.96C155.674 129.94 156.134 128.92 156.934 128.18C157.714 127.46 158.794 127.02 159.934 127C161.054 126.98 162.194 127.36 163.034 128.1C163.454 128.46 163.794 128.9 164.034 129.4C164.274 129.9 164.394 130.42 164.394 130.96C164.394 131.5 164.274 132.04 164.034 132.54ZM171.608 130.24C171.448 130.18 171.288 130.14 171.168 130.1C171.088 130.08 171.008 130.04 170.908 130C169.848 129.66 168.828 129.24 168.908 128.38C169.008 127.02 171.008 127 171.028 127C172.248 127 173.068 127.44 173.448 128.3L174.588 127.88C174.008 126.6 172.748 125.9 171.028 125.9C169.508 125.9 167.828 126.64 167.688 128.3C167.548 130.06 169.528 130.72 170.488 131.04C170.568 131.08 170.648 131.1 170.728 131.14C170.868 131.18 171.028 131.24 171.208 131.28C172.508 131.7 173.688 132.16 173.728 133.28C173.728 133.68 173.588 134.04 173.268 134.3C172.788 134.74 171.988 134.96 171.128 134.92C170.028 134.88 168.708 134.36 168.308 133.04L167.148 133.34C167.608 134.9 169.148 135.96 171.068 136.04C171.148 136.04 171.228 136.04 171.308 136.04C172.428 136.04 173.448 135.7 174.128 135.1C174.688 134.6 174.968 133.96 174.948 133.26C174.888 131.26 172.748 130.6 171.608 130.24ZM186.955 131.52C186.975 131.34 186.995 131.16 186.995 130.96C186.995 128.18 184.555 125.9 181.535 125.9C178.515 125.9 176.075 128.18 176.075 130.96C176.075 133.76 178.695 136.04 181.955 136.04C183.915 136.04 185.715 135.2 186.795 133.84L185.675 133.36C184.795 134.34 183.435 134.94 181.955 134.94C179.595 134.94 177.655 133.44 177.335 131.52H186.955ZM177.335 130.42C177.635 128.5 179.395 127 181.535 127C183.675 127 185.435 128.5 185.735 130.42H177.335Z" fill="#1C1C1C"/>
<circle cx="43" cy="129" r="14" stroke="#08AEEA" stroke-width="2"/>
<circle cx="43" cy="129" r="5" fill="#08AEEA"/>
<path d="M74.58 74.02H72.56L67.04 88H68.32L69.86 84.14H77.3L78.82 88H80.12L74.58 74.02ZM70.3 83.02L73.58 74.74L76.86 83.02H70.3ZM85.8236 77.88C85.2436 77.9 84.6236 78.02 84.0836 78.28C83.5436 78.54 83.0836 78.92 82.7636 79.36C82.6436 79.52 82.5436 79.7 82.4636 79.86V77.96H81.2436V87.96H82.4636V82.5C82.4636 82.42 82.4636 82.36 82.4636 82.28C82.5036 81.82 82.5836 81.38 82.7436 80.96C82.9036 80.54 83.1436 80.16 83.4636 79.86C84.0636 79.22 84.9436 78.96 85.8236 79C86.3236 79 86.8036 79.12 87.2036 79.32L87.4836 78.16C86.9436 77.96 86.3836 77.88 85.8236 77.88ZM92.8833 86.94H92.8633C90.5233 86.92 88.6233 85.14 88.6433 82.96C88.6433 80.78 90.5433 79 92.8833 79C94.2433 79 95.5033 79.6 96.3033 80.64L97.3033 80C96.2833 78.68 94.6233 77.9 92.9033 77.9C92.8833 77.9 92.8833 77.9 92.8833 77.9C89.8633 77.9 87.4233 80.16 87.4233 82.96C87.4033 85.76 89.8433 88.04 92.8633 88.04H92.8833C94.6033 88.04 96.2433 87.28 97.2633 85.98L96.2833 85.34C95.4633 86.34 94.2233 86.94 92.8833 86.94ZM107.583 87.96V82.28C107.603 81.26 107.343 80.16 106.603 79.26C106.223 78.82 105.723 78.44 105.163 78.2C104.583 77.96 103.963 77.88 103.363 77.88C102.783 77.9 102.163 78.02 101.623 78.28C101.083 78.54 100.623 78.92 100.303 79.36C100.183 79.52 100.083 79.7 100.003 79.86V73.96H98.7827V87.96H100.003V82.5C100.003 82.42 100.003 82.36 100.003 82.28C100.043 81.82 100.123 81.38 100.283 80.96C100.443 80.54 100.683 80.16 101.003 79.86C101.603 79.22 102.483 78.96 103.363 79C104.263 79.02 105.083 79.34 105.603 79.96C105.863 80.26 106.063 80.64 106.183 81.02C106.323 81.42 106.363 81.84 106.363 82.28V87.96H107.583ZM110.784 87.96V77.96H109.544V87.96H110.784ZM110.164 74.28C109.644 74.28 109.224 74.7 109.224 75.22C109.224 75.76 109.644 76.18 110.164 76.18C110.684 76.18 111.124 75.76 111.124 75.22C111.124 74.7 110.684 74.28 110.164 74.28ZM116.623 86.34C116.143 86.02 115.963 85.5 115.963 84.3V79.08H119.263V77.96H115.963V74.86L114.743 75.52V77.98H112.023V79.08H114.743V84.3C114.743 85.62 114.943 86.62 115.903 87.24C116.483 87.6 117.223 87.72 118.043 87.72C118.443 87.72 118.843 87.7 119.263 87.66V86.54C118.303 86.64 117.183 86.7 116.623 86.34ZM130.549 83.52C130.569 83.34 130.589 83.16 130.589 82.96C130.589 80.18 128.149 77.9 125.129 77.9C122.109 77.9 119.669 80.18 119.669 82.96C119.669 85.76 122.289 88.04 125.549 88.04C127.509 88.04 129.309 87.2 130.389 85.84L129.269 85.36C128.389 86.34 127.029 86.94 125.549 86.94C123.189 86.94 121.249 85.44 120.929 83.52H130.549ZM120.929 82.42C121.229 80.5 122.989 79 125.129 79C127.269 79 129.029 80.5 129.329 82.42H120.929ZM137.18 86.94H137.16C134.82 86.92 132.92 85.14 132.94 82.96C132.94 80.78 134.84 79 137.18 79C138.54 79 139.8 79.6 140.6 80.64L141.6 80C140.58 78.68 138.92 77.9 137.2 77.9C137.18 77.9 137.18 77.9 137.18 77.9C134.16 77.9 131.72 80.16 131.72 82.96C131.7 85.76 134.14 88.04 137.16 88.04H137.18C138.9 88.04 140.54 87.28 141.56 85.98L140.58 85.34C139.76 86.34 138.52 86.94 137.18 86.94ZM146.78 86.34C146.3 86.02 146.12 85.5 146.12 84.3V79.08H149.42V77.96H146.12V74.86L144.9 75.52V77.98H142.18V79.08H144.9V84.3C144.9 85.62 145.1 86.62 146.06 87.24C146.64 87.6 147.38 87.72 148.2 87.72C148.6 87.72 149 87.7 149.42 87.66V86.54C148.46 86.64 147.34 86.7 146.78 86.34ZM158.273 77.96V83.44C158.273 83.52 158.273 83.58 158.273 83.66C158.233 84.12 158.153 84.56 157.993 84.98C157.833 85.4 157.593 85.78 157.273 86.08C156.673 86.72 155.793 86.98 154.893 86.94C154.013 86.92 153.193 86.58 152.673 85.98C152.413 85.68 152.213 85.3 152.093 84.9C151.953 84.52 151.913 84.08 151.893 83.66L151.913 77.96H150.693V83.66C150.673 84.68 150.933 85.78 151.673 86.68C152.053 87.12 152.553 87.5 153.113 87.74C153.673 87.96 154.313 88.06 154.893 88.04C155.493 88.04 156.113 87.92 156.653 87.66C157.193 87.4 157.653 87.02 157.973 86.58C158.093 86.4 158.193 86.24 158.273 86.08V87.96H159.493V77.96H158.273ZM166.214 77.88C165.634 77.9 165.014 78.02 164.474 78.28C163.934 78.54 163.474 78.92 163.154 79.36C163.034 79.52 162.934 79.7 162.854 79.86V77.96H161.634V87.96H162.854V82.5C162.854 82.42 162.854 82.36 162.854 82.28C162.894 81.82 162.974 81.38 163.134 80.96C163.294 80.54 163.534 80.16 163.854 79.86C164.454 79.22 165.334 78.96 166.214 79C166.714 79 167.194 79.12 167.594 79.32L167.874 78.16C167.334 77.96 166.774 77.88 166.214 77.88ZM177.734 77.96V80.3C177.534 80.02 177.334 79.74 177.074 79.48C176.594 79 176.014 78.6 175.374 78.34C174.714 78.06 173.994 77.9 173.274 77.9C172.554 77.9 171.814 78.02 171.154 78.28C170.474 78.54 169.874 78.92 169.374 79.4C168.354 80.34 167.794 81.66 167.814 82.96C167.794 84.28 168.354 85.58 169.374 86.54C169.874 87.02 170.474 87.4 171.134 87.66C171.814 87.92 172.534 88.04 173.274 88.04C173.994 88.04 174.714 87.88 175.374 87.6C176.014 87.34 176.594 86.92 177.074 86.46C177.334 86.2 177.534 85.92 177.734 85.62V87.96H178.954V77.96H177.734ZM177.374 84.54C177.134 85.02 176.794 85.48 176.374 85.84C175.534 86.56 174.394 86.94 173.274 86.94C172.154 86.92 171.054 86.48 170.274 85.74C169.474 85.02 169.034 84 169.014 82.96C169.014 81.94 169.474 80.92 170.274 80.18C171.054 79.46 172.134 79.02 173.274 79C174.394 78.98 175.534 79.36 176.374 80.1C176.794 80.46 177.134 80.9 177.374 81.4C177.614 81.9 177.734 82.42 177.734 82.96C177.734 83.5 177.614 84.04 177.374 84.54ZM182.307 87.98V73.98H181.087V87.98H182.307ZM201.512 78.2C201.152 77.34 200.612 76.58 199.912 75.96C199.232 75.34 198.372 74.86 197.392 74.52C196.432 74.18 195.332 74 194.132 74H189.352V88.02H194.132C195.332 88.02 196.432 87.84 197.392 87.5C198.372 87.16 199.232 86.68 199.912 86.06C200.612 85.46 201.152 84.7 201.512 83.84C201.892 82.98 202.072 82.04 202.072 81C202.072 80 201.892 79.06 201.512 78.2ZM200.372 83.44C200.072 84.16 199.632 84.76 199.072 85.28C198.492 85.78 197.792 86.18 196.972 86.46C196.132 86.76 195.192 86.9 194.132 86.9H190.572V75.12H194.132C195.192 75.12 196.132 75.26 196.972 75.56C197.792 75.84 198.492 76.24 199.052 76.76C199.632 77.26 200.072 77.88 200.372 78.6C200.692 79.32 200.852 80.14 200.852 81C200.852 81.9 200.692 82.72 200.372 83.44ZM214.065 83.52C214.085 83.34 214.105 83.16 214.105 82.96C214.105 80.18 211.665 77.9 208.645 77.9C205.625 77.9 203.185 80.18 203.185 82.96C203.185 85.76 205.805 88.04 209.065 88.04C211.025 88.04 212.825 87.2 213.905 85.84L212.785 85.36C211.905 86.34 210.545 86.94 209.065 86.94C206.705 86.94 204.765 85.44 204.445 83.52H214.065ZM204.445 82.42C204.745 80.5 206.505 79 208.645 79C210.785 79 212.545 80.5 212.845 82.42H204.445ZM219.596 82.24C219.436 82.18 219.276 82.14 219.156 82.1C219.076 82.08 218.996 82.04 218.896 82C217.836 81.66 216.816 81.24 216.896 80.38C216.996 79.02 218.996 79 219.016 79C220.236 79 221.056 79.44 221.436 80.3L222.576 79.88C221.996 78.6 220.736 77.9 219.016 77.9C217.496 77.9 215.816 78.64 215.676 80.3C215.536 82.06 217.516 82.72 218.476 83.04C218.556 83.08 218.636 83.1 218.716 83.14C218.856 83.18 219.016 83.24 219.196 83.28C220.496 83.7 221.676 84.16 221.716 85.28C221.716 85.68 221.576 86.04 221.256 86.3C220.776 86.74 219.976 86.96 219.116 86.92C218.016 86.88 216.696 86.36 216.296 85.04L215.136 85.34C215.596 86.9 217.136 87.96 219.056 88.04C219.136 88.04 219.216 88.04 219.296 88.04C220.416 88.04 221.436 87.7 222.116 87.1C222.676 86.6 222.956 85.96 222.936 85.26C222.876 83.26 220.736 82.6 219.596 82.24ZM225.667 87.96V77.96H224.427V87.96H225.667ZM225.047 74.28C224.527 74.28 224.107 74.7 224.107 75.22C224.107 75.76 224.527 76.18 225.047 76.18C225.567 76.18 226.007 75.76 226.007 75.22C226.007 74.7 225.567 74.28 225.047 74.28ZM237.106 77.96V80.32C236.926 80.04 236.726 79.76 236.466 79.52C236.006 79.04 235.426 78.66 234.786 78.38C234.146 78.1 233.426 77.96 232.706 77.94C231.986 77.94 231.266 78.06 230.606 78.32C229.946 78.58 229.346 78.96 228.846 79.44C227.846 80.38 227.286 81.68 227.306 82.96C227.286 84.26 227.846 85.56 228.846 86.5C229.346 86.98 229.946 87.36 230.606 87.62C231.266 87.88 231.986 88 232.706 88C233.426 87.98 234.146 87.84 234.786 87.56C235.426 87.28 236.006 86.9 236.466 86.42C236.726 86.18 236.926 85.9 237.106 85.62V87.04C237.106 88.58 236.546 90.52 233.866 90.98C231.826 91.3 229.626 90.44 228.646 88.9L227.586 89.46C228.646 91.14 230.766 92.16 232.946 92.16C233.326 92.16 233.706 92.12 234.086 92.06C236.786 91.62 238.346 89.78 238.346 87.04V77.96H237.106ZM236.766 84.52C236.526 85 236.186 85.44 235.766 85.8C234.946 86.52 233.806 86.9 232.706 86.88C231.606 86.88 230.506 86.44 229.746 85.72C228.966 85 228.506 83.98 228.506 82.96C228.506 81.94 228.966 80.94 229.746 80.22C230.506 79.5 231.606 79.06 232.706 79.06C233.806 79.04 234.946 79.4 235.766 80.14C236.186 80.5 236.526 80.94 236.766 81.42C236.986 81.9 237.106 82.44 237.106 82.96C237.106 83.5 236.986 84.04 236.766 84.52ZM249.282 87.96V82.28C249.302 81.26 249.042 80.16 248.302 79.26C247.922 78.82 247.422 78.44 246.862 78.2C246.282 77.96 245.662 77.88 245.062 77.88C244.482 77.9 243.862 78.02 243.322 78.28C242.782 78.54 242.322 78.92 242.002 79.36C241.882 79.52 241.782 79.7 241.702 79.86V77.96H240.482V87.96H241.702V82.5C241.702 82.42 241.702 82.36 241.702 82.28C241.742 81.82 241.822 81.38 241.982 80.96C242.142 80.54 242.382 80.16 242.702 79.86C243.302 79.22 244.182 78.96 245.062 79C245.962 79.02 246.782 79.34 247.302 79.96C247.562 80.26 247.762 80.64 247.882 81.02C248.002 81.42 248.062 81.84 248.062 82.28V87.96H249.282Z" fill="#1C1C1C"/>
<circle cx="43" cy="81" r="14" stroke="#08AEEA" stroke-width="2"/>
<circle cx="43" cy="81" r="5" fill="#08AEEA"/>
<defs>
<filter id="filter0_d_1431_5130" x="-71" y="-61" width="502" height="500" filterUnits="userSpaceOnUse" color-interpolation-filters="sRGB">
<feFlood flood-opacity="0" result="BackgroundImageFix"/>
<feColorMatrix in="SourceAlpha" type="matrix" values="0 0 0 0 0 0 0 0 0 0 0 0 0 0 0 0 0 0 127 0" result="hardAlpha"/>
<feOffset dy="10"/>
<feGaussianBlur stdDeviation="35.5"/>
<feComposite in2="hardAlpha" operator="out"/>
<feColorMatrix type="matrix" values="0 0 0 0 0 0 0 0 0 0 0 0 0 0 0 0 0 0 0.05 0"/>
<feBlend mode="normal" in2="BackgroundImageFix" result="effect1_dropShadow_1431_5130"/>
<feBlend mode="normal" in="SourceGraphic" in2="effect1_dropShadow_1431_5130" result="shape"/>
</filter>
</defs>
</svg>
