<svg width="360" height="414" viewBox="0 0 360 414" fill="none" xmlns="http://www.w3.org/2000/svg">
<g filter="url(#filter0_d_1431_5145)">
<rect width="360" height="414" rx="7" fill="#F4F8F9"/>
<rect x="0.5" y="0.5" width="359" height="413" rx="6.5" stroke="#BBBBBB" stroke-opacity="0.28"/>
</g>
<path d="M82.42 265.02V275.28C82.42 276.24 82.56 277.04 82.56 277.04C82.56 277.04 82.1 276.18 81.68 275.58L74.14 265.02H73.16V279H74.38V268.74C74.38 267.78 74.24 266.98 74.24 266.98C74.24 266.98 74.7 267.84 75.14 268.44L82.66 279H83.66V265.02H82.42ZM90.852 268.9C87.832 268.9 85.392 271.18 85.392 273.96C85.392 276.76 87.832 279.04 90.852 279.04C93.872 279.04 96.312 276.76 96.312 273.96C96.312 271.18 93.872 268.9 90.852 268.9ZM90.852 277.94C88.512 277.94 86.612 276.16 86.612 273.96C86.612 271.78 88.512 270 90.852 270C93.192 270 95.092 271.78 95.092 273.96C95.092 276.16 93.192 277.94 90.852 277.94ZM106.743 278.96V273.28C106.763 272.26 106.503 271.16 105.763 270.26C105.383 269.82 104.883 269.44 104.323 269.2C103.743 268.96 103.123 268.88 102.523 268.88C101.943 268.9 101.323 269.02 100.783 269.28C100.243 269.54 99.7828 269.92 99.4628 270.36C99.3428 270.52 99.2428 270.7 99.1628 270.86V268.96H97.9428V278.96H99.1628V273.5C99.1628 273.42 99.1628 273.36 99.1628 273.28C99.2028 272.82 99.2828 272.38 99.4428 271.96C99.6028 271.54 99.8428 271.16 100.163 270.86C100.763 270.22 101.643 269.96 102.523 270C103.423 270.02 104.243 270.34 104.763 270.96C105.023 271.26 105.223 271.64 105.343 272.02C105.463 272.42 105.523 272.84 105.523 273.28V278.96H106.743ZM116.224 273.46V272.34H107.984V273.46H116.224ZM121.49 273.24C121.33 273.18 121.17 273.14 121.05 273.1C120.97 273.08 120.89 273.04 120.79 273C119.73 272.66 118.71 272.24 118.79 271.38C118.89 270.02 120.89 270 120.91 270C122.13 270 122.95 270.44 123.33 271.3L124.47 270.88C123.89 269.6 122.63 268.9 120.91 268.9C119.39 268.9 117.71 269.64 117.57 271.3C117.43 273.06 119.41 273.72 120.37 274.04C120.45 274.08 120.53 274.1 120.61 274.14C120.75 274.18 120.91 274.24 121.09 274.28C122.39 274.7 123.57 275.16 123.61 276.28C123.61 276.68 123.47 277.04 123.15 277.3C122.67 277.74 121.87 277.96 121.01 277.92C119.91 277.88 118.59 277.36 118.19 276.04L117.03 276.34C117.49 277.9 119.03 278.96 120.95 279.04C121.03 279.04 121.11 279.04 121.19 279.04C122.31 279.04 123.33 278.7 124.01 278.1C124.57 277.6 124.85 276.96 124.83 276.26C124.77 274.26 122.63 273.6 121.49 273.24ZM130.178 277.34C129.698 277.02 129.518 276.5 129.518 275.3V270.08H132.818V268.96H129.518V265.86L128.298 266.52V268.98H125.578V270.08H128.298V275.3C128.298 276.62 128.498 277.62 129.458 278.24C130.038 278.6 130.778 278.72 131.598 278.72C131.998 278.72 132.398 278.7 132.818 278.66V277.54C131.858 277.64 130.738 277.7 130.178 277.34ZM143.164 268.96V271.3C142.964 271.02 142.764 270.74 142.504 270.48C142.024 270 141.444 269.6 140.804 269.34C140.144 269.06 139.424 268.9 138.704 268.9C137.984 268.9 137.244 269.02 136.584 269.28C135.904 269.54 135.304 269.92 134.804 270.4C133.784 271.34 133.224 272.66 133.244 273.96C133.224 275.28 133.784 276.58 134.804 277.54C135.304 278.02 135.904 278.4 136.564 278.66C137.244 278.92 137.964 279.04 138.704 279.04C139.424 279.04 140.144 278.88 140.804 278.6C141.444 278.34 142.024 277.92 142.504 277.46C142.764 277.2 142.964 276.92 143.164 276.62V278.96H144.384V268.96H143.164ZM142.804 275.54C142.564 276.02 142.224 276.48 141.804 276.84C140.964 277.56 139.824 277.94 138.704 277.94C137.584 277.92 136.484 277.48 135.704 276.74C134.904 276.02 134.464 275 134.444 273.96C134.444 272.94 134.904 271.92 135.704 271.18C136.484 270.46 137.564 270.02 138.704 270C139.824 269.98 140.964 270.36 141.804 271.1C142.224 271.46 142.564 271.9 142.804 272.4C143.044 272.9 143.164 273.42 143.164 273.96C143.164 274.5 143.044 275.04 142.804 275.54ZM156.097 270.4C155.597 269.92 154.977 269.54 154.317 269.28C153.637 269.02 152.917 268.9 152.197 268.9C151.457 268.9 150.737 269.06 150.097 269.34C149.437 269.6 148.857 270 148.397 270.48C148.137 270.74 147.917 271.02 147.737 271.32V264.96H146.517V278.96H147.737V276.62C147.917 276.92 148.137 277.2 148.377 277.46C148.857 277.94 149.437 278.34 150.097 278.6C150.737 278.88 151.457 279.04 152.197 279.04C152.917 279.04 153.637 278.92 154.317 278.66C154.977 278.4 155.597 278.02 156.097 277.54C157.097 276.58 157.657 275.28 157.657 273.96C157.657 272.66 157.097 271.34 156.097 270.4ZM155.197 276.74C154.417 277.48 153.317 277.92 152.197 277.94C151.077 277.94 149.937 277.56 149.097 276.84C148.677 276.48 148.317 276.02 148.097 275.54C147.857 275.04 147.737 274.5 147.737 273.96C147.737 273.42 147.857 272.88 148.077 272.4C148.317 271.9 148.677 271.46 149.097 271.1C149.937 270.36 151.077 269.98 152.197 270C153.317 270.02 154.417 270.44 155.197 271.18C155.977 271.92 156.437 272.94 156.437 273.96C156.437 275 155.977 276.02 155.197 276.74ZM160.51 278.98V264.98H159.29V278.98H160.51ZM172.99 274.52C173.01 274.34 173.03 274.16 173.03 273.96C173.03 271.18 170.59 268.9 167.57 268.9C164.55 268.9 162.11 271.18 162.11 273.96C162.11 276.76 164.73 279.04 167.99 279.04C169.95 279.04 171.75 278.2 172.83 276.84L171.71 276.36C170.83 277.34 169.47 277.94 167.99 277.94C165.63 277.94 163.69 276.44 163.37 274.52H172.99ZM163.37 273.42C163.67 271.5 165.43 270 167.57 270C169.71 270 171.47 271.5 171.77 273.42H163.37ZM179.926 265.06L173.566 279.06H174.886L181.246 265.06H179.926ZM191.854 265.02V275.28C191.854 276.24 191.994 277.04 191.994 277.04C191.994 277.04 191.534 276.18 191.114 275.58L183.574 265.02H182.594V279H183.814V268.74C183.814 267.78 183.674 266.98 183.674 266.98C183.674 266.98 184.134 267.84 184.574 268.44L192.094 279H193.094V265.02H191.854ZM200.286 268.9C197.266 268.9 194.826 271.18 194.826 273.96C194.826 276.76 197.266 279.04 200.286 279.04C203.306 279.04 205.746 276.76 205.746 273.96C205.746 271.18 203.306 268.9 200.286 268.9ZM200.286 277.94C197.946 277.94 196.046 276.16 196.046 273.96C196.046 271.78 197.946 270 200.286 270C202.626 270 204.526 271.78 204.526 273.96C204.526 276.16 202.626 277.94 200.286 277.94ZM216.176 278.96V273.28C216.196 272.26 215.936 271.16 215.196 270.26C214.816 269.82 214.316 269.44 213.756 269.2C213.176 268.96 212.556 268.88 211.956 268.88C211.376 268.9 210.756 269.02 210.216 269.28C209.676 269.54 209.216 269.92 208.896 270.36C208.776 270.52 208.676 270.7 208.596 270.86V268.96H207.376V278.96H208.596V273.5C208.596 273.42 208.596 273.36 208.596 273.28C208.636 272.82 208.716 272.38 208.876 271.96C209.036 271.54 209.276 271.16 209.596 270.86C210.196 270.22 211.076 269.96 211.956 270C212.856 270.02 213.676 270.34 214.196 270.96C214.456 271.26 214.656 271.64 214.776 272.02C214.896 272.42 214.956 272.84 214.956 273.28V278.96H216.176ZM225.658 273.46V272.34H217.418V273.46H225.658ZM230.924 273.24C230.764 273.18 230.604 273.14 230.484 273.1C230.404 273.08 230.324 273.04 230.224 273C229.164 272.66 228.144 272.24 228.224 271.38C228.324 270.02 230.324 270 230.344 270C231.564 270 232.384 270.44 232.764 271.3L233.904 270.88C233.324 269.6 232.064 268.9 230.344 268.9C228.824 268.9 227.144 269.64 227.004 271.3C226.864 273.06 228.844 273.72 229.804 274.04C229.884 274.08 229.964 274.1 230.044 274.14C230.184 274.18 230.344 274.24 230.524 274.28C231.824 274.7 233.004 275.16 233.044 276.28C233.044 276.68 232.904 277.04 232.584 277.3C232.104 277.74 231.304 277.96 230.444 277.92C229.344 277.88 228.024 277.36 227.624 276.04L226.464 276.34C226.924 277.9 228.464 278.96 230.384 279.04C230.464 279.04 230.544 279.04 230.624 279.04C231.744 279.04 232.764 278.7 233.444 278.1C234.004 277.6 234.284 276.96 234.264 276.26C234.204 274.26 232.064 273.6 230.924 273.24ZM239.612 277.34C239.132 277.02 238.952 276.5 238.952 275.3V270.08H242.252V268.96H238.952V265.86L237.732 266.52V268.98H235.012V270.08H237.732V275.3C237.732 276.62 237.932 277.62 238.892 278.24C239.472 278.6 240.212 278.72 241.032 278.72C241.432 278.72 241.832 278.7 242.252 278.66V277.54C241.292 277.64 240.172 277.7 239.612 277.34ZM252.597 268.96V271.3C252.397 271.02 252.197 270.74 251.937 270.48C251.457 270 250.877 269.6 250.237 269.34C249.577 269.06 248.857 268.9 248.137 268.9C247.417 268.9 246.677 269.02 246.017 269.28C245.337 269.54 244.737 269.92 244.237 270.4C243.217 271.34 242.657 272.66 242.677 273.96C242.657 275.28 243.217 276.58 244.237 277.54C244.737 278.02 245.337 278.4 245.997 278.66C246.677 278.92 247.397 279.04 248.137 279.04C248.857 279.04 249.577 278.88 250.237 278.6C250.877 278.34 251.457 277.92 251.937 277.46C252.197 277.2 252.397 276.92 252.597 276.62V278.96H253.817V268.96H252.597ZM252.237 275.54C251.997 276.02 251.657 276.48 251.237 276.84C250.397 277.56 249.257 277.94 248.137 277.94C247.017 277.92 245.917 277.48 245.137 276.74C244.337 276.02 243.897 275 243.877 273.96C243.877 272.94 244.337 271.92 245.137 271.18C245.917 270.46 246.997 270.02 248.137 270C249.257 269.98 250.397 270.36 251.237 271.1C251.657 271.46 251.997 271.9 252.237 272.4C252.477 272.9 252.597 273.42 252.597 273.96C252.597 274.5 252.477 275.04 252.237 275.54ZM265.531 270.4C265.031 269.92 264.411 269.54 263.751 269.28C263.071 269.02 262.351 268.9 261.631 268.9C260.891 268.9 260.171 269.06 259.531 269.34C258.871 269.6 258.291 270 257.831 270.48C257.571 270.74 257.351 271.02 257.171 271.32V264.96H255.951V278.96H257.171V276.62C257.351 276.92 257.571 277.2 257.811 277.46C258.291 277.94 258.871 278.34 259.531 278.6C260.171 278.88 260.891 279.04 261.631 279.04C262.351 279.04 263.071 278.92 263.751 278.66C264.411 278.4 265.031 278.02 265.531 277.54C266.531 276.58 267.091 275.28 267.091 273.96C267.091 272.66 266.531 271.34 265.531 270.4ZM264.631 276.74C263.851 277.48 262.751 277.92 261.631 277.94C260.511 277.94 259.371 277.56 258.531 276.84C258.111 276.48 257.751 276.02 257.531 275.54C257.291 275.04 257.171 274.5 257.171 273.96C257.171 273.42 257.291 272.88 257.511 272.4C257.751 271.9 258.111 271.46 258.531 271.1C259.371 270.36 260.511 269.98 261.631 270C262.751 270.02 263.851 270.44 264.631 271.18C265.411 271.92 265.871 272.94 265.871 273.96C265.871 275 265.411 276.02 264.631 276.74ZM269.944 278.98V264.98H268.724V278.98H269.944ZM282.424 274.52C282.444 274.34 282.464 274.16 282.464 273.96C282.464 271.18 280.024 268.9 277.004 268.9C273.984 268.9 271.544 271.18 271.544 273.96C271.544 276.76 274.164 279.04 277.424 279.04C279.384 279.04 281.184 278.2 282.264 276.84L281.144 276.36C280.264 277.34 278.904 277.94 277.424 277.94C275.064 277.94 273.124 276.44 272.804 274.52H282.424ZM272.804 273.42C273.104 271.5 274.864 270 277.004 270C279.144 270 280.904 271.5 281.204 273.42H272.804ZM83.56 287.02L78.44 299.76L73.32 287.02H72.02L77.64 301H79.24L84.86 287.02H83.56ZM93.9448 290.96V293.3C93.7448 293.02 93.5448 292.74 93.2848 292.48C92.8048 292 92.2248 291.6 91.5848 291.34C90.9248 291.06 90.2048 290.9 89.4848 290.9C88.7648 290.9 88.0248 291.02 87.3648 291.28C86.6848 291.54 86.0848 291.92 85.5848 292.4C84.5648 293.34 84.0048 294.66 84.0248 295.96C84.0048 297.28 84.5648 298.58 85.5848 299.54C86.0848 300.02 86.6848 300.4 87.3448 300.66C88.0248 300.92 88.7448 301.04 89.4848 301.04C90.2048 301.04 90.9248 300.88 91.5848 300.6C92.2248 300.34 92.8048 299.92 93.2848 299.46C93.5448 299.2 93.7448 298.92 93.9448 298.62V300.96H95.1648V290.96H93.9448ZM93.5848 297.54C93.3448 298.02 93.0048 298.48 92.5848 298.84C91.7448 299.56 90.6048 299.94 89.4848 299.94C88.3648 299.92 87.2648 299.48 86.4848 298.74C85.6848 298.02 85.2448 297 85.2248 295.96C85.2248 294.94 85.6848 293.92 86.4848 293.18C87.2648 292.46 88.3448 292.02 89.4848 292C90.6048 291.98 91.7448 292.36 92.5848 293.1C93.0048 293.46 93.3448 293.9 93.5848 294.4C93.8248 294.9 93.9448 295.42 93.9448 295.96C93.9448 296.5 93.8248 297.04 93.5848 297.54ZM104.698 290.96V296.44C104.698 296.52 104.698 296.58 104.698 296.66C104.658 297.12 104.578 297.56 104.418 297.98C104.258 298.4 104.018 298.78 103.698 299.08C103.098 299.72 102.218 299.98 101.318 299.94C100.438 299.92 99.6183 299.58 99.0983 298.98C98.8383 298.68 98.6383 298.3 98.5183 297.9C98.3783 297.52 98.3383 297.08 98.3183 296.66L98.3383 290.96H97.1183V296.66C97.0983 297.68 97.3583 298.78 98.0983 299.68C98.4783 300.12 98.9783 300.5 99.5383 300.74C100.098 300.96 100.738 301.06 101.318 301.04C101.918 301.04 102.538 300.92 103.078 300.66C103.618 300.4 104.078 300.02 104.398 299.58C104.518 299.4 104.618 299.24 104.698 299.08V300.96H105.918V290.96H104.698ZM109.28 300.98V286.98H108.06V300.98H109.28ZM115.1 299.34C114.62 299.02 114.44 298.5 114.44 297.3V292.08H117.74V290.96H114.44V287.86L113.22 288.52V290.98H110.5V292.08H113.22V297.3C113.22 298.62 113.42 299.62 114.38 300.24C114.96 300.6 115.7 300.72 116.52 300.72C116.92 300.72 117.32 300.7 117.74 300.66V299.54C116.78 299.64 115.66 299.7 115.1 299.34ZM129.358 293.18C129.138 293.1 128.918 293.04 128.738 292.98C128.638 292.94 128.498 292.88 128.358 292.84C126.758 292.28 125.198 291.62 125.318 290.16C125.458 288.38 127.538 287.9 128.618 287.9C130.478 287.9 131.738 288.6 132.338 289.98L133.478 289.56C132.678 287.74 130.998 286.78 128.618 286.78C127.158 286.78 124.318 287.48 124.098 290.08C123.898 292.5 126.618 293.44 127.938 293.88C128.058 293.92 128.178 293.96 128.278 294C128.478 294.08 128.698 294.14 128.958 294.22C130.918 294.86 132.698 295.6 132.738 297.42C132.758 298.1 132.518 298.7 131.978 299.16C131.238 299.82 130.038 300.18 128.758 300.12C127.098 300.04 125.098 299.22 124.498 297.14L123.318 297.42C123.958 299.62 126.058 301.1 128.698 301.22C128.798 301.22 128.918 301.24 129.038 301.24C130.538 301.24 131.918 300.78 132.838 299.96C133.598 299.28 133.998 298.38 133.957 297.4C133.878 294.64 130.938 293.7 129.358 293.18ZM138.674 299.34C138.194 299.02 138.014 298.5 138.014 297.3V292.08H141.314V290.96H138.014V287.86L136.794 288.52V290.98H134.074V292.08H136.794V297.3C136.794 298.62 136.994 299.62 137.954 300.24C138.534 300.6 139.274 300.72 140.094 300.72C140.494 300.72 140.894 300.7 141.314 300.66V299.54C140.354 299.64 139.234 299.7 138.674 299.34ZM147.347 290.88C146.767 290.9 146.147 291.02 145.607 291.28C145.067 291.54 144.607 291.92 144.287 292.36C144.167 292.52 144.067 292.7 143.987 292.86V290.96H142.767V300.96H143.987V295.5C143.987 295.42 143.987 295.36 143.987 295.28C144.027 294.82 144.107 294.38 144.267 293.96C144.427 293.54 144.667 293.16 144.987 292.86C145.587 292.22 146.467 291.96 147.347 292C147.847 292 148.327 292.12 148.727 292.32L149.007 291.16C148.467 290.96 147.907 290.88 147.347 290.88ZM158.867 290.96V293.3C158.667 293.02 158.467 292.74 158.207 292.48C157.727 292 157.147 291.6 156.507 291.34C155.847 291.06 155.127 290.9 154.407 290.9C153.687 290.9 152.947 291.02 152.287 291.28C151.607 291.54 151.007 291.92 150.507 292.4C149.487 293.34 148.927 294.66 148.947 295.96C148.927 297.28 149.487 298.58 150.507 299.54C151.007 300.02 151.607 300.4 152.267 300.66C152.947 300.92 153.667 301.04 154.407 301.04C155.127 301.04 155.847 300.88 156.507 300.6C157.147 300.34 157.727 299.92 158.207 299.46C158.467 299.2 158.667 298.92 158.867 298.62V300.96H160.087V290.96H158.867ZM158.507 297.54C158.267 298.02 157.927 298.48 157.507 298.84C156.667 299.56 155.527 299.94 154.407 299.94C153.287 299.92 152.187 299.48 151.407 298.74C150.607 298.02 150.167 297 150.147 295.96C150.147 294.94 150.607 293.92 151.407 293.18C152.187 292.46 153.267 292.02 154.407 292C155.527 291.98 156.667 292.36 157.507 293.1C157.927 293.46 158.267 293.9 158.507 294.4C158.747 294.9 158.867 295.42 158.867 295.96C158.867 296.5 158.747 297.04 158.507 297.54ZM165.92 299.34C165.44 299.02 165.26 298.5 165.26 297.3V292.08H168.56V290.96H165.26V287.86L164.04 288.52V290.98H161.32V292.08H164.04V297.3C164.04 298.62 164.24 299.62 165.2 300.24C165.78 300.6 166.52 300.72 167.34 300.72C167.74 300.72 168.14 300.7 168.56 300.66V299.54C167.6 299.64 166.48 299.7 165.92 299.34ZM179.846 296.52C179.866 296.34 179.886 296.16 179.886 295.96C179.886 293.18 177.446 290.9 174.426 290.9C171.406 290.9 168.966 293.18 168.966 295.96C168.966 298.76 171.586 301.04 174.846 301.04C176.806 301.04 178.606 300.2 179.686 298.84L178.566 298.36C177.686 299.34 176.326 299.94 174.846 299.94C172.486 299.94 170.546 298.44 170.226 296.52H179.846ZM170.226 295.42C170.526 293.5 172.286 292 174.426 292C176.566 292 178.326 293.5 178.626 295.42H170.226ZM190.817 290.96V293.32C190.637 293.04 190.437 292.76 190.177 292.52C189.717 292.04 189.137 291.66 188.497 291.38C187.857 291.1 187.137 290.96 186.417 290.94C185.697 290.94 184.977 291.06 184.317 291.32C183.657 291.58 183.057 291.96 182.557 292.44C181.557 293.38 180.997 294.68 181.017 295.96C180.997 297.26 181.557 298.56 182.557 299.5C183.057 299.98 183.657 300.36 184.317 300.62C184.977 300.88 185.697 301 186.417 301C187.137 300.98 187.857 300.84 188.497 300.56C189.137 300.28 189.717 299.9 190.177 299.42C190.437 299.18 190.637 298.9 190.817 298.62V300.04C190.817 301.58 190.257 303.52 187.577 303.98C185.537 304.3 183.337 303.44 182.357 301.9L181.297 302.46C182.357 304.14 184.477 305.16 186.657 305.16C187.037 305.16 187.417 305.12 187.797 305.06C190.497 304.62 192.057 302.78 192.057 300.04V290.96H190.817ZM190.477 297.52C190.237 298 189.897 298.44 189.477 298.8C188.657 299.52 187.517 299.9 186.417 299.88C185.317 299.88 184.217 299.44 183.457 298.72C182.677 298 182.217 296.98 182.217 295.96C182.217 294.94 182.677 293.94 183.457 293.22C184.217 292.5 185.317 292.06 186.417 292.06C187.517 292.04 188.657 292.4 189.477 293.14C189.897 293.5 190.237 293.94 190.477 294.42C190.697 294.9 190.817 295.44 190.817 295.96C190.817 296.5 190.697 297.04 190.477 297.52ZM195.198 300.96V290.96H193.958V300.96H195.198ZM194.578 287.28C194.058 287.28 193.638 287.7 193.638 288.22C193.638 288.76 194.058 289.18 194.578 289.18C195.098 289.18 195.538 288.76 195.538 288.22C195.538 287.7 195.098 287.28 194.578 287.28ZM207.697 296.52C207.717 296.34 207.737 296.16 207.737 295.96C207.737 293.18 205.297 290.9 202.277 290.9C199.257 290.9 196.817 293.18 196.817 295.96C196.817 298.76 199.437 301.04 202.697 301.04C204.657 301.04 206.457 300.2 207.537 298.84L206.417 298.36C205.537 299.34 204.177 299.94 202.697 299.94C200.337 299.94 198.397 298.44 198.077 296.52H207.697ZM198.077 295.42C198.377 293.5 200.137 292 202.277 292C204.417 292 206.177 293.5 206.477 295.42H198.077ZM213.229 295.24C213.069 295.18 212.909 295.14 212.789 295.1C212.709 295.08 212.629 295.04 212.529 295C211.469 294.66 210.449 294.24 210.529 293.38C210.629 292.02 212.629 292 212.649 292C213.869 292 214.689 292.44 215.069 293.3L216.209 292.88C215.629 291.6 214.369 290.9 212.649 290.9C211.129 290.9 209.449 291.64 209.309 293.3C209.169 295.06 211.149 295.72 212.109 296.04C212.189 296.08 212.269 296.1 212.349 296.14C212.489 296.18 212.649 296.24 212.829 296.28C214.129 296.7 215.309 297.16 215.349 298.28C215.349 298.68 215.209 299.04 214.889 299.3C214.409 299.74 213.609 299.96 212.749 299.92C211.649 299.88 210.329 299.36 209.929 298.04L208.769 298.34C209.229 299.9 210.769 300.96 212.689 301.04C212.769 301.04 212.849 301.04 212.929 301.04C214.049 301.04 215.069 300.7 215.749 300.1C216.309 299.6 216.589 298.96 216.569 298.26C216.509 296.26 214.369 295.6 213.229 295.24Z" fill="#1C1C1C"/>
<circle cx="48" cy="283" r="14" stroke="#08AEEA" stroke-width="2"/>
<circle cx="48" cy="331" r="14" stroke="#08AEEA" stroke-width="2"/>
<circle cx="48" cy="283" r="5" fill="#08AEEA"/>
<circle cx="48" cy="331" r="5" fill="#08AEEA"/>
<path opacity="0.2" d="M52.224 49.814C53.763 48.113 54.681 45.953 54.681 43.55C54.681 38.177 49.983 33.803 44.178 33.803C38.4 33.803 33.702 38.177 33.702 43.55C33.702 48.95 38.4 53.324 44.178 53.324C46.824 53.324 49.254 52.406 51.09 50.894L53.412 53H55.734L52.224 49.814ZM51.063 48.761L48.309 46.25H45.987L49.929 49.841C48.363 51.056 46.365 51.812 44.178 51.812C39.318 51.812 35.349 48.113 35.349 43.577C35.349 39.014 39.318 35.315 44.178 35.315C49.065 35.315 53.034 39.014 53.034 43.577C53.034 45.521 52.305 47.33 51.063 48.761ZM59.256 51.407C61.281 49.247 65.466 44.765 67.545 42.551C67.977 42.092 68.517 41.363 68.76 40.688C68.976 40.148 69.084 39.581 69.084 38.987C69.084 36.125 66.519 33.803 63.36 33.803C60.228 33.803 57.663 36.125 57.663 38.987H59.31C59.31 36.962 61.146 35.315 63.36 35.315C65.601 35.315 67.41 36.962 67.41 38.987C67.41 39.392 67.356 39.824 67.194 40.202C67.059 40.58 66.681 41.147 66.276 41.579C63.657 44.387 57.636 50.84 56.934 51.596V52.919H69.948V51.407H59.256Z" fill="#1C1C1C"/>
<path d="M79.58 372.02H77.56L72.04 386H73.32L74.86 382.14H82.3L83.82 386H85.12L79.58 372.02ZM75.3 381.02L78.58 372.74L81.86 381.02H75.3ZM93.4483 375.96V381.44C93.4483 381.52 93.4483 381.58 93.4483 381.66C93.4083 382.12 93.3283 382.56 93.1683 382.98C93.0083 383.4 92.7683 383.78 92.4483 384.08C91.8483 384.72 90.9683 384.98 90.0683 384.94C89.1883 384.92 88.3683 384.58 87.8483 383.98C87.5883 383.68 87.3883 383.3 87.2683 382.9C87.1283 382.52 87.0883 382.08 87.0683 381.66L87.0883 375.96H85.8683V381.66C85.8483 382.68 86.1083 383.78 86.8483 384.68C87.2283 385.12 87.7283 385.5 88.2883 385.74C88.8483 385.96 89.4883 386.06 90.0683 386.04C90.6683 386.04 91.2883 385.92 91.8283 385.66C92.3683 385.4 92.8283 385.02 93.1483 384.58C93.2683 384.4 93.3683 384.24 93.4483 384.08V385.96H94.6683V375.96H93.4483ZM100.51 384.34C100.03 384.02 99.85 383.5 99.85 382.3V377.08H103.15V375.96H99.85V372.86L98.63 373.52V375.98H95.91V377.08H98.63V382.3C98.63 383.62 98.83 384.62 99.79 385.24C100.37 385.6 101.11 385.72 101.93 385.72C102.33 385.72 102.73 385.7 103.15 385.66V384.54C102.19 384.64 101.07 384.7 100.51 384.34ZM109.036 375.9C106.016 375.9 103.576 378.18 103.576 380.96C103.576 383.76 106.016 386.04 109.036 386.04C112.056 386.04 114.496 383.76 114.496 380.96C114.496 378.18 112.056 375.9 109.036 375.9ZM109.036 384.94C106.696 384.94 104.796 383.16 104.796 380.96C104.796 378.78 106.696 377 109.036 377C111.376 377 113.276 378.78 113.276 380.96C113.276 383.16 111.376 384.94 109.036 384.94ZM123.626 380.46V379.34H115.386V380.46H123.626ZM134.353 373.12V372H125.333V372.02H125.153V386H126.373V379.5H133.833V378.38H126.373V373.12H134.353ZM145 375.96V378.3C144.8 378.02 144.6 377.74 144.34 377.48C143.86 377 143.28 376.6 142.64 376.34C141.98 376.06 141.26 375.9 140.54 375.9C139.82 375.9 139.08 376.02 138.42 376.28C137.74 376.54 137.14 376.92 136.64 377.4C135.62 378.34 135.06 379.66 135.08 380.96C135.06 382.28 135.62 383.58 136.64 384.54C137.14 385.02 137.74 385.4 138.4 385.66C139.08 385.92 139.8 386.04 140.54 386.04C141.26 386.04 141.98 385.88 142.64 385.6C143.28 385.34 143.86 384.92 144.34 384.46C144.6 384.2 144.8 383.92 145 383.62V385.96H146.22V375.96H145ZM144.64 382.54C144.4 383.02 144.06 383.48 143.64 383.84C142.8 384.56 141.66 384.94 140.54 384.94C139.42 384.92 138.32 384.48 137.54 383.74C136.74 383.02 136.3 382 136.28 380.96C136.28 379.94 136.74 378.92 137.54 378.18C138.32 377.46 139.4 377.02 140.54 377C141.66 376.98 142.8 377.36 143.64 378.1C144.06 378.46 144.4 378.9 144.64 379.4C144.88 379.9 145 380.42 145 380.96C145 381.5 144.88 382.04 144.64 382.54ZM152.933 375.88C152.353 375.9 151.733 376.02 151.193 376.28C150.653 376.54 150.193 376.92 149.873 377.36C149.753 377.52 149.653 377.7 149.573 377.86V375.96H148.353V385.96H149.573V380.5C149.573 380.42 149.573 380.36 149.573 380.28C149.613 379.82 149.693 379.38 149.853 378.96C150.013 378.54 150.253 378.16 150.573 377.86C151.173 377.22 152.053 376.96 152.933 377C153.433 377 153.913 377.12 154.313 377.32L154.593 376.16C154.053 375.96 153.493 375.88 152.933 375.88ZM169.833 385.96V380.46V379.76C169.833 379.52 169.833 379.26 169.793 379C169.733 378.5 169.573 377.98 169.293 377.5C169.013 377 168.573 376.58 168.033 376.28C167.753 376.14 167.453 376.04 167.153 375.96C166.853 375.9 166.553 375.88 166.253 375.88C165.953 375.9 165.653 375.94 165.353 376.02C165.073 376.1 164.793 376.22 164.533 376.38C164.033 376.7 163.673 377.14 163.453 377.6C163.353 377.82 163.273 378.02 163.233 378.24C163.133 377.98 163.033 377.74 162.893 377.5C162.613 377 162.173 376.58 161.633 376.28C161.353 376.14 161.073 376.04 160.753 375.96C160.453 375.9 160.153 375.88 159.853 375.88C159.553 375.9 159.253 375.94 158.973 376.02C158.673 376.1 158.393 376.22 158.153 376.38C157.653 376.7 157.273 377.14 157.053 377.6C157.053 377.62 157.053 377.62 157.053 377.62V375.98H155.833V385.96H157.053V380.28L157.073 379.76C157.073 379.54 157.113 379.32 157.153 379.1C157.253 378.68 157.433 378.28 157.693 377.94C157.953 377.6 158.293 377.34 158.673 377.18C159.033 377.04 159.433 376.98 159.853 377C160.693 377.02 161.373 377.4 161.773 378.04C161.993 378.38 162.113 378.76 162.173 379.14C162.213 379.36 162.233 379.56 162.233 379.76V380.46V385.96H163.453V380.46V380.2V379.76C163.473 379.54 163.493 379.32 163.553 379.1C163.653 378.68 163.833 378.26 164.093 377.94C164.353 377.6 164.693 377.34 165.053 377.18C165.433 377.04 165.833 376.98 166.253 377C167.073 377.02 167.773 377.4 168.173 378.04C168.373 378.38 168.513 378.76 168.573 379.14C168.613 379.34 168.613 379.56 168.613 379.76V380.46V385.96H169.833ZM172.913 385.96V375.96H171.673V385.96H172.913ZM172.293 372.28C171.773 372.28 171.353 372.7 171.353 373.22C171.353 373.76 171.773 374.18 172.293 374.18C172.813 374.18 173.253 373.76 173.253 373.22C173.253 372.7 172.813 372.28 172.293 372.28ZM183.852 385.96V380.28C183.872 379.26 183.612 378.16 182.872 377.26C182.492 376.82 181.992 376.44 181.432 376.2C180.852 375.96 180.232 375.88 179.632 375.88C179.052 375.9 178.432 376.02 177.892 376.28C177.352 376.54 176.892 376.92 176.572 377.36C176.452 377.52 176.352 377.7 176.272 377.86V375.96H175.052V385.96H176.272V380.5C176.272 380.42 176.272 380.36 176.272 380.28C176.312 379.82 176.392 379.38 176.552 378.96C176.712 378.54 176.952 378.16 177.272 377.86C177.872 377.22 178.752 376.96 179.632 377C180.532 377.02 181.352 377.34 181.872 377.96C182.132 378.26 182.332 378.64 182.452 379.02C182.572 379.42 182.632 379.84 182.632 380.28V385.96H183.852ZM195.133 375.96V378.32C194.953 378.04 194.753 377.76 194.493 377.52C194.033 377.04 193.453 376.66 192.813 376.38C192.173 376.1 191.453 375.96 190.733 375.94C190.013 375.94 189.293 376.06 188.633 376.32C187.973 376.58 187.373 376.96 186.873 377.44C185.873 378.38 185.313 379.68 185.333 380.96C185.313 382.26 185.873 383.56 186.873 384.5C187.373 384.98 187.973 385.36 188.633 385.62C189.293 385.88 190.013 386 190.733 386C191.453 385.98 192.173 385.84 192.813 385.56C193.453 385.28 194.033 384.9 194.493 384.42C194.753 384.18 194.953 383.9 195.133 383.62V385.04C195.133 386.58 194.573 388.52 191.893 388.98C189.853 389.3 187.653 388.44 186.673 386.9L185.613 387.46C186.673 389.14 188.793 390.16 190.973 390.16C191.353 390.16 191.733 390.12 192.113 390.06C194.813 389.62 196.373 387.78 196.373 385.04V375.96H195.133ZM194.793 382.52C194.553 383 194.213 383.44 193.793 383.8C192.973 384.52 191.833 384.9 190.733 384.88C189.633 384.88 188.533 384.44 187.773 383.72C186.993 383 186.533 381.98 186.533 380.96C186.533 379.94 186.993 378.94 187.773 378.22C188.533 377.5 189.633 377.06 190.733 377.06C191.833 377.04 192.973 377.4 193.793 378.14C194.213 378.5 194.553 378.94 194.793 379.42C195.013 379.9 195.133 380.44 195.133 380.96C195.133 381.5 195.013 382.04 194.793 382.52Z" fill="#1C1C1C"/>
<circle cx="48" cy="379" r="14" stroke="#08AEEA" stroke-width="2" stroke-dasharray="4 4"/>
<line x1="48" y1="360.014" x2="49" y2="350.014" stroke="#08AEEA" stroke-width="2" stroke-dasharray="4 4"/>
<path d="M79.58 324.02H77.56L72.04 338H73.32L74.86 334.14H82.3L83.82 338H85.12L79.58 324.02ZM75.3 333.02L78.58 324.74L81.86 333.02H75.3ZM96.3636 326.28C96.1236 325.8 95.7636 325.38 95.3036 325.04C94.8636 324.72 94.3236 324.46 93.7036 324.28C93.1036 324.1 92.4236 324 91.6836 324H86.3636V338.02H87.5836V331.68H91.6836C92.4236 331.68 93.1036 331.58 93.7036 331.42C94.3236 331.24 94.8636 330.98 95.3036 330.64C95.7636 330.3 96.1236 329.88 96.3636 329.4C96.6036 328.92 96.7236 328.4 96.7236 327.84C96.7236 327.28 96.6036 326.74 96.3636 326.28ZM95.2436 328.94C95.0836 329.26 94.8436 329.54 94.5236 329.78C94.2036 330.02 93.8036 330.22 93.3436 330.36C92.8636 330.5 92.3036 330.56 91.6836 330.56H87.5836V325.12H91.6836C92.3036 325.12 92.8636 325.2 93.3436 325.34C93.8036 325.46 94.2036 325.66 94.5436 325.9C94.8436 326.14 95.0836 326.42 95.2436 326.74C95.4236 327.06 95.5036 327.44 95.5036 327.84C95.5036 328.24 95.4236 328.6 95.2436 328.94ZM107.004 324.02L102.584 330.02L98.1642 324.02H96.7042L101.964 331.18V338H103.184V331.18L108.464 324.02H107.004ZM114.104 330.18C113.884 330.1 113.664 330.04 113.484 329.98C113.384 329.94 113.244 329.88 113.104 329.84C111.504 329.28 109.944 328.62 110.064 327.16C110.204 325.38 112.284 324.9 113.364 324.9C115.224 324.9 116.484 325.6 117.084 326.98L118.224 326.56C117.424 324.74 115.744 323.78 113.364 323.78C111.904 323.78 109.064 324.48 108.844 327.08C108.644 329.5 111.364 330.44 112.684 330.88C112.804 330.92 112.924 330.96 113.024 331C113.224 331.08 113.444 331.14 113.704 331.22C115.664 331.86 117.444 332.6 117.484 334.42C117.504 335.1 117.264 335.7 116.724 336.16C115.984 336.82 114.784 337.18 113.504 337.12C111.844 337.04 109.844 336.22 109.244 334.14L108.064 334.42C108.704 336.62 110.804 338.1 113.444 338.22C113.544 338.22 113.664 338.24 113.784 338.24C115.284 338.24 116.664 337.78 117.584 336.96C118.344 336.28 118.744 335.38 118.704 334.4C118.624 331.64 115.684 330.7 114.104 330.18ZM134.71 329.4C134.21 328.92 133.59 328.54 132.93 328.28C132.25 328.02 131.53 327.9 130.81 327.9C130.07 327.9 129.35 328.06 128.71 328.34C128.05 328.6 127.47 329 127.01 329.48C126.75 329.74 126.53 330.02 126.35 330.32V323.96H125.13V337.96H126.35V335.62C126.53 335.92 126.75 336.2 126.99 336.46C127.47 336.94 128.05 337.34 128.71 337.6C129.35 337.88 130.07 338.04 130.81 338.04C131.53 338.04 132.25 337.92 132.93 337.66C133.59 337.4 134.21 337.02 134.71 336.54C135.71 335.58 136.27 334.28 136.27 332.96C136.27 331.66 135.71 330.34 134.71 329.4ZM133.81 335.74C133.03 336.48 131.93 336.92 130.81 336.94C129.69 336.94 128.55 336.56 127.71 335.84C127.29 335.48 126.93 335.02 126.71 334.54C126.47 334.04 126.35 333.5 126.35 332.96C126.35 332.42 126.47 331.88 126.69 331.4C126.93 330.9 127.29 330.46 127.71 330.1C128.55 329.36 129.69 328.98 130.81 329C131.93 329.02 133.03 329.44 133.81 330.18C134.59 330.92 135.05 331.94 135.05 332.96C135.05 334 134.59 335.02 133.81 335.74ZM142.484 327.88C141.904 327.9 141.284 328.02 140.744 328.28C140.204 328.54 139.744 328.92 139.424 329.36C139.304 329.52 139.204 329.7 139.124 329.86V327.96H137.904V337.96H139.124V332.5C139.124 332.42 139.124 332.36 139.124 332.28C139.164 331.82 139.244 331.38 139.404 330.96C139.564 330.54 139.804 330.16 140.124 329.86C140.724 329.22 141.604 328.96 142.484 329C142.984 329 143.464 329.12 143.864 329.32L144.144 328.16C143.604 327.96 143.044 327.88 142.484 327.88ZM146.604 337.96V327.96H145.364V337.96H146.604ZM145.984 324.28C145.464 324.28 145.044 324.7 145.044 325.22C145.044 325.76 145.464 326.18 145.984 326.18C146.504 326.18 146.944 325.76 146.944 325.22C146.944 324.7 146.504 324.28 145.984 324.28ZM158.164 323.96V330.3C157.964 330.02 157.764 329.74 157.504 329.48C157.024 329 156.444 328.6 155.804 328.34C155.144 328.06 154.424 327.9 153.704 327.9C152.984 327.9 152.244 328.02 151.584 328.28C150.904 328.54 150.304 328.92 149.804 329.4C148.784 330.34 148.224 331.66 148.244 332.96C148.224 334.28 148.784 335.58 149.804 336.54C150.304 337.02 150.904 337.4 151.564 337.66C152.244 337.92 152.964 338.04 153.704 338.04C154.424 338.04 155.144 337.88 155.804 337.6C156.444 337.34 157.024 336.92 157.504 336.46C157.744 336.2 157.964 335.92 158.164 335.62V337.96H159.384V323.96H158.164ZM157.804 334.54C157.564 335.02 157.224 335.48 156.804 335.84C155.964 336.56 154.824 336.94 153.704 336.94C152.584 336.92 151.484 336.48 150.704 335.74C149.904 335.02 149.464 334 149.444 332.96C149.444 331.94 149.904 330.92 150.704 330.18C151.484 329.46 152.564 329.02 153.704 329C154.824 328.98 155.964 329.36 156.804 330.1C157.224 330.46 157.564 330.9 157.804 331.4C158.044 331.9 158.164 332.42 158.164 332.96C158.164 333.5 158.044 334.04 157.804 334.54ZM170.817 327.96V330.32C170.637 330.04 170.437 329.76 170.177 329.52C169.717 329.04 169.137 328.66 168.497 328.38C167.857 328.1 167.137 327.96 166.417 327.94C165.697 327.94 164.977 328.06 164.317 328.32C163.657 328.58 163.057 328.96 162.557 329.44C161.557 330.38 160.997 331.68 161.017 332.96C160.997 334.26 161.557 335.56 162.557 336.5C163.057 336.98 163.657 337.36 164.317 337.62C164.977 337.88 165.697 338 166.417 338C167.137 337.98 167.857 337.84 168.497 337.56C169.137 337.28 169.717 336.9 170.177 336.42C170.437 336.18 170.637 335.9 170.817 335.62V337.04C170.817 338.58 170.257 340.52 167.577 340.98C165.537 341.3 163.337 340.44 162.357 338.9L161.297 339.46C162.357 341.14 164.477 342.16 166.657 342.16C167.037 342.16 167.417 342.12 167.797 342.06C170.497 341.62 172.057 339.78 172.057 337.04V327.96H170.817ZM170.477 334.52C170.237 335 169.897 335.44 169.477 335.8C168.657 336.52 167.517 336.9 166.417 336.88C165.317 336.88 164.217 336.44 163.457 335.72C162.677 335 162.217 333.98 162.217 332.96C162.217 331.94 162.677 330.94 163.457 330.22C164.217 329.5 165.317 329.06 166.417 329.06C167.517 329.04 168.657 329.4 169.477 330.14C169.897 330.5 170.237 330.94 170.477 331.42C170.697 331.9 170.817 332.44 170.817 332.96C170.817 333.5 170.697 334.04 170.477 334.52ZM184.553 333.52C184.573 333.34 184.593 333.16 184.593 332.96C184.593 330.18 182.153 327.9 179.133 327.9C176.113 327.9 173.673 330.18 173.673 332.96C173.673 335.76 176.293 338.04 179.553 338.04C181.513 338.04 183.313 337.2 184.393 335.84L183.273 335.36C182.393 336.34 181.033 336.94 179.553 336.94C177.193 336.94 175.253 335.44 174.933 333.52H184.553ZM174.933 332.42C175.233 330.5 176.993 329 179.133 329C181.273 329 183.033 330.5 183.333 332.42H174.933ZM194.729 336.34C194.249 336.02 194.069 335.5 194.069 334.3V329.08H197.369V327.96H194.069V324.86L192.849 325.52V327.98H190.129V329.08H192.849V334.3C192.849 335.62 193.049 336.62 194.009 337.24C194.589 337.6 195.329 337.72 196.149 337.72C196.549 337.72 196.949 337.7 197.369 337.66V336.54C196.409 336.64 195.289 336.7 194.729 336.34ZM203.254 327.9C200.234 327.9 197.794 330.18 197.794 332.96C197.794 335.76 200.234 338.04 203.254 338.04C206.274 338.04 208.714 335.76 208.714 332.96C208.714 330.18 206.274 327.9 203.254 327.9ZM203.254 336.94C200.914 336.94 199.014 335.16 199.014 332.96C199.014 330.78 200.914 329 203.254 329C205.594 329 207.494 330.78 207.494 332.96C207.494 335.16 205.594 336.94 203.254 336.94ZM224.51 324.02V334.28C224.51 335.24 224.65 336.04 224.65 336.04C224.65 336.04 224.19 335.18 223.77 334.58L216.23 324.02H215.25V338H216.47V327.74C216.47 326.78 216.33 325.98 216.33 325.98C216.33 325.98 216.79 326.84 217.23 327.44L224.75 338H225.75V324.02H224.51ZM237.302 325.12V324H228.282V324.02H228.102V338H228.282V338.02H237.302V336.9H229.322V331.5H236.782V330.38H229.322V325.12H237.302ZM245.361 324.02H243.341L237.821 338H239.101L240.641 334.14H248.081L249.601 338H250.901L245.361 324.02ZM241.081 333.02L244.361 324.74L247.641 333.02H241.081ZM255.745 331.2C256.405 331.26 257.425 331.38 258.485 331.14C258.525 331.12 258.565 331.12 258.605 331.12C258.705 331.08 258.805 331.06 258.905 331.02C259.425 330.86 259.905 330.62 260.305 330.34C260.745 330.02 261.085 329.62 261.325 329.16C261.565 328.7 261.685 328.2 261.685 327.66C261.685 327.12 261.565 326.62 261.325 326.16C261.085 325.7 260.745 325.32 260.305 324.98C259.865 324.68 259.345 324.44 258.745 324.26C258.165 324.1 257.505 324 256.785 324H252.145V337.94H253.365V330.38L260.985 338H262.625L255.745 331.2ZM253.365 325.12H256.785C257.365 325.12 257.905 325.18 258.385 325.32C258.845 325.44 259.225 325.64 259.545 325.86C259.845 326.08 260.065 326.34 260.225 326.64C260.385 326.94 260.465 327.3 260.465 327.66C260.465 328.04 260.385 328.38 260.225 328.68C260.065 329 259.845 329.26 259.525 329.48C259.225 329.7 258.825 329.88 258.385 330.02C257.905 330.14 257.365 330.22 256.785 330.22H253.365V325.12ZM278.746 326.28C278.506 325.8 278.146 325.38 277.686 325.04C277.246 324.72 276.706 324.46 276.086 324.28C275.486 324.1 274.806 324 274.066 324H268.746V338.02H269.966V331.68H274.066C274.806 331.68 275.486 331.58 276.086 331.42C276.706 331.24 277.246 330.98 277.686 330.64C278.146 330.3 278.506 329.88 278.746 329.4C278.986 328.92 279.106 328.4 279.106 327.84C279.106 327.28 278.986 326.74 278.746 326.28ZM277.626 328.94C277.466 329.26 277.226 329.54 276.906 329.78C276.586 330.02 276.186 330.22 275.726 330.36C275.246 330.5 274.686 330.56 274.066 330.56H269.966V325.12H274.066C274.686 325.12 275.246 325.2 275.726 325.34C276.186 325.46 276.586 325.66 276.926 325.9C277.226 326.14 277.466 326.42 277.626 326.74C277.806 327.06 277.886 327.44 277.886 327.84C277.886 328.24 277.806 328.6 277.626 328.94ZM285.081 327.88C284.501 327.9 283.881 328.02 283.341 328.28C282.801 328.54 282.341 328.92 282.021 329.36C281.901 329.52 281.801 329.7 281.721 329.86V327.96H280.501V337.96H281.721V332.5C281.721 332.42 281.721 332.36 281.721 332.28C281.761 331.82 281.841 331.38 282.001 330.96C282.161 330.54 282.401 330.16 282.721 329.86C283.321 329.22 284.201 328.96 285.081 329C285.581 329 286.061 329.12 286.461 329.32L286.741 328.16C286.201 327.96 285.641 327.88 285.081 327.88ZM292.141 327.9C289.121 327.9 286.681 330.18 286.681 332.96C286.681 335.76 289.121 338.04 292.141 338.04C295.161 338.04 297.601 335.76 297.601 332.96C297.601 330.18 295.161 327.9 292.141 327.9ZM292.141 336.94C289.801 336.94 287.901 335.16 287.901 332.96C287.901 330.78 289.801 329 292.141 329C294.481 329 296.381 330.78 296.381 332.96C296.381 335.16 294.481 336.94 292.141 336.94ZM302.287 336.34C301.807 336.02 301.627 335.5 301.627 334.3V329.08H304.927V327.96H301.627V324.86L300.407 325.52V327.98H297.687V329.08H300.407V334.3C300.407 335.62 300.607 336.62 301.567 337.24C302.147 337.6 302.887 337.72 303.707 337.72C304.107 337.72 304.507 337.7 304.927 337.66V336.54C303.967 336.64 302.847 336.7 302.287 336.34ZM310.813 327.9C307.793 327.9 305.353 330.18 305.353 332.96C305.353 335.76 307.793 338.04 310.813 338.04C313.833 338.04 316.273 335.76 316.273 332.96C316.273 330.18 313.833 327.9 310.813 327.9ZM310.813 336.94C308.473 336.94 306.573 335.16 306.573 332.96C306.573 330.78 308.473 329 310.813 329C313.153 329 315.053 330.78 315.053 332.96C315.053 335.16 313.153 336.94 310.813 336.94ZM322.864 336.94H322.844C320.504 336.92 318.604 335.14 318.624 332.96C318.624 330.78 320.524 329 322.864 329C324.224 329 325.484 329.6 326.284 330.64L327.284 330C326.264 328.68 324.604 327.9 322.884 327.9C322.864 327.9 322.864 327.9 322.864 327.9C319.844 327.9 317.404 330.16 317.404 332.96C317.384 335.76 319.824 338.04 322.844 338.04H322.864C324.584 338.04 326.224 337.28 327.244 335.98L326.264 335.34C325.444 336.34 324.204 336.94 322.864 336.94ZM333.547 327.9C330.527 327.9 328.087 330.18 328.087 332.96C328.087 335.76 330.527 338.04 333.547 338.04C336.567 338.04 339.007 335.76 339.007 332.96C339.007 330.18 336.567 327.9 333.547 327.9ZM333.547 336.94C331.207 336.94 329.307 335.16 329.307 332.96C329.307 330.78 331.207 329 333.547 329C335.887 329 337.787 330.78 337.787 332.96C337.787 335.16 335.887 336.94 333.547 336.94ZM341.858 337.98V323.98H340.638V337.98H341.858Z" fill="#1C1C1C"/>
<path d="M85.82 228.02H84.84L79.98 237.98L75.12 228.02H74.14L72.64 242H73.86L74.94 232.06C75.04 231.1 75.04 230.74 74.98 230.22C74.98 230.22 75.34 231.2 75.72 231.98L79.98 240.72L84.24 231.98C84.62 231.2 84.98 230.22 84.98 230.22C84.92 230.74 84.92 231.1 85.02 232.06L86.1 242.02H87.32L85.82 228.02ZM93.9966 231.9C90.9766 231.9 88.5366 234.18 88.5366 236.96C88.5366 239.76 90.9766 242.04 93.9966 242.04C97.0166 242.04 99.4566 239.76 99.4566 236.96C99.4566 234.18 97.0166 231.9 93.9966 231.9ZM93.9966 240.94C91.6566 240.94 89.7566 239.16 89.7566 236.96C89.7566 234.78 91.6566 233 93.9966 233C96.3366 233 98.2366 234.78 98.2366 236.96C98.2366 239.16 96.3366 240.94 93.9966 240.94ZM105.667 231.88C105.087 231.9 104.467 232.02 103.927 232.28C103.387 232.54 102.927 232.92 102.607 233.36C102.487 233.52 102.387 233.7 102.307 233.86V231.96H101.087V241.96H102.307V236.5C102.307 236.42 102.307 236.36 102.307 236.28C102.347 235.82 102.427 235.38 102.587 234.96C102.747 234.54 102.987 234.16 103.307 233.86C103.907 233.22 104.787 232.96 105.667 233C106.167 233 106.647 233.12 107.047 233.32L107.327 232.16C106.787 231.96 106.227 231.88 105.667 231.88ZM118.127 237.52C118.147 237.34 118.167 237.16 118.167 236.96C118.167 234.18 115.727 231.9 112.707 231.9C109.687 231.9 107.247 234.18 107.247 236.96C107.247 239.76 109.867 242.04 113.127 242.04C115.087 242.04 116.887 241.2 117.967 239.84L116.847 239.36C115.967 240.34 114.607 240.94 113.127 240.94C110.767 240.94 108.827 239.44 108.507 237.52H118.127ZM108.507 236.42C108.807 234.5 110.567 233 112.707 233C114.847 233 116.607 234.5 116.907 236.42H108.507ZM133.623 228.02V237.16C133.623 237.8 133.523 238.36 133.343 238.86C133.143 239.34 132.883 239.76 132.543 240.08C132.203 240.42 131.783 240.68 131.323 240.86C130.843 241.02 130.303 241.12 129.703 241.12C129.123 241.12 128.583 241.02 128.103 240.86C127.623 240.68 127.203 240.42 126.883 240.08C126.523 239.76 126.263 239.34 126.063 238.86C125.883 238.36 125.783 237.8 125.783 237.16V228.02H124.563V237.16C124.563 237.92 124.683 238.62 124.923 239.24C125.163 239.86 125.523 240.4 125.983 240.84C126.443 241.3 127.003 241.64 127.623 241.88C128.263 242.12 128.963 242.24 129.703 242.24C130.463 242.24 131.163 242.12 131.783 241.88C132.423 241.64 132.983 241.3 133.423 240.84C133.883 240.4 134.243 239.86 134.483 239.24C134.723 238.62 134.843 237.92 134.843 237.18V228.02H133.623ZM138.267 242V228.02H137.047V242H138.267ZM152.706 231.96V237.44C152.706 237.52 152.706 237.58 152.706 237.66C152.666 238.12 152.586 238.56 152.426 238.98C152.266 239.4 152.026 239.78 151.706 240.08C151.106 240.72 150.226 240.98 149.326 240.94C148.446 240.92 147.626 240.58 147.106 239.98C146.846 239.68 146.646 239.3 146.526 238.9C146.386 238.52 146.346 238.08 146.326 237.66L146.346 231.96H145.126V237.66C145.106 238.68 145.366 239.78 146.106 240.68C146.486 241.12 146.986 241.5 147.546 241.74C148.106 241.96 148.746 242.06 149.326 242.04C149.926 242.04 150.546 241.92 151.086 241.66C151.626 241.4 152.086 241.02 152.406 240.58C152.526 240.4 152.626 240.24 152.706 240.08V241.96H153.926V231.96H152.706ZM165.648 233.48C165.148 233 164.528 232.62 163.868 232.36C163.188 232.1 162.468 231.96 161.748 231.96C161.008 231.98 160.288 232.12 159.648 232.4C158.988 232.68 158.408 233.08 157.928 233.56C157.688 233.82 157.468 234.1 157.288 234.38V232.04H156.068V246.04H157.288V239.7C157.468 240 157.688 240.28 157.948 240.52C158.408 241 158.988 241.4 159.648 241.68C160.288 241.96 161.008 242.1 161.748 242.12C162.468 242.12 163.188 242 163.868 241.74C164.528 241.48 165.148 241.08 165.648 240.62C166.648 239.66 167.208 238.36 167.208 237.04C167.208 235.74 166.648 234.42 165.648 233.48ZM164.748 239.82C163.968 240.56 162.868 241 161.748 241C160.628 241.02 159.488 240.64 158.648 239.92C158.228 239.54 157.868 239.1 157.628 238.62C157.408 238.12 157.288 237.58 157.288 237.04C157.288 236.5 157.408 235.96 157.648 235.48C157.868 234.98 158.228 234.54 158.648 234.18C159.488 233.44 160.628 233.06 161.748 233.08C162.868 233.1 163.968 233.52 164.748 234.26C165.528 235 165.988 236.02 165.988 237.04C165.988 238.08 165.528 239.1 164.748 239.82ZM178.261 227.96V234.3C178.061 234.02 177.861 233.74 177.601 233.48C177.121 233 176.541 232.6 175.901 232.34C175.241 232.06 174.521 231.9 173.801 231.9C173.081 231.9 172.341 232.02 171.681 232.28C171.001 232.54 170.401 232.92 169.901 233.4C168.881 234.34 168.321 235.66 168.341 236.96C168.321 238.28 168.881 239.58 169.901 240.54C170.401 241.02 171.001 241.4 171.661 241.66C172.341 241.92 173.061 242.04 173.801 242.04C174.521 242.04 175.241 241.88 175.901 241.6C176.541 241.34 177.121 240.92 177.601 240.46C177.841 240.2 178.061 239.92 178.261 239.62V241.96H179.481V227.96H178.261ZM177.901 238.54C177.661 239.02 177.321 239.48 176.901 239.84C176.061 240.56 174.921 240.94 173.801 240.94C172.681 240.92 171.581 240.48 170.801 239.74C170.001 239.02 169.561 238 169.541 236.96C169.541 235.94 170.001 234.92 170.801 234.18C171.581 233.46 172.661 233.02 173.801 233C174.921 232.98 176.061 233.36 176.901 234.1C177.321 234.46 177.661 234.9 177.901 235.4C178.141 235.9 178.261 236.42 178.261 236.96C178.261 237.5 178.141 238.04 177.901 238.54ZM191.035 231.96V234.3C190.835 234.02 190.635 233.74 190.375 233.48C189.895 233 189.315 232.6 188.675 232.34C188.015 232.06 187.295 231.9 186.575 231.9C185.855 231.9 185.115 232.02 184.455 232.28C183.775 232.54 183.175 232.92 182.675 233.4C181.655 234.34 181.095 235.66 181.115 236.96C181.095 238.28 181.655 239.58 182.675 240.54C183.175 241.02 183.775 241.4 184.435 241.66C185.115 241.92 185.835 242.04 186.575 242.04C187.295 242.04 188.015 241.88 188.675 241.6C189.315 241.34 189.895 240.92 190.375 240.46C190.635 240.2 190.835 239.92 191.035 239.62V241.96H192.255V231.96H191.035ZM190.675 238.54C190.435 239.02 190.095 239.48 189.675 239.84C188.835 240.56 187.695 240.94 186.575 240.94C185.455 240.92 184.355 240.48 183.575 239.74C182.775 239.02 182.335 238 182.315 236.96C182.315 235.94 182.775 234.92 183.575 234.18C184.355 233.46 185.435 233.02 186.575 233C187.695 232.98 188.835 233.36 189.675 234.1C190.095 234.46 190.435 234.9 190.675 235.4C190.915 235.9 191.035 236.42 191.035 236.96C191.035 237.5 190.915 238.04 190.675 238.54ZM198.088 240.34C197.608 240.02 197.428 239.5 197.428 238.3V233.08H200.728V231.96H197.428V228.86L196.208 229.52V231.98H193.488V233.08H196.208V238.3C196.208 239.62 196.408 240.62 197.368 241.24C197.948 241.6 198.688 241.72 199.508 241.72C199.908 241.72 200.308 241.7 200.728 241.66V240.54C199.768 240.64 198.648 240.7 198.088 240.34ZM212.014 237.52C212.034 237.34 212.054 237.16 212.054 236.96C212.054 234.18 209.614 231.9 206.594 231.9C203.574 231.9 201.134 234.18 201.134 236.96C201.134 239.76 203.754 242.04 207.014 242.04C208.974 242.04 210.774 241.2 211.854 239.84L210.734 239.36C209.854 240.34 208.494 240.94 207.014 240.94C204.654 240.94 202.714 239.44 202.394 237.52H212.014ZM202.394 236.42C202.694 234.5 204.454 233 206.594 233C208.734 233 210.494 234.5 210.794 236.42H202.394ZM217.545 236.24C217.385 236.18 217.225 236.14 217.105 236.1C217.025 236.08 216.945 236.04 216.845 236C215.785 235.66 214.765 235.24 214.845 234.38C214.945 233.02 216.945 233 216.965 233C218.185 233 219.005 233.44 219.385 234.3L220.525 233.88C219.945 232.6 218.685 231.9 216.965 231.9C215.445 231.9 213.765 232.64 213.625 234.3C213.485 236.06 215.465 236.72 216.425 237.04C216.505 237.08 216.585 237.1 216.665 237.14C216.805 237.18 216.965 237.24 217.145 237.28C218.445 237.7 219.625 238.16 219.665 239.28C219.665 239.68 219.525 240.04 219.205 240.3C218.725 240.74 217.925 240.96 217.065 240.92C215.965 240.88 214.645 240.36 214.245 239.04L213.085 239.34C213.545 240.9 215.085 241.96 217.005 242.04C217.085 242.04 217.165 242.04 217.245 242.04C218.365 242.04 219.385 241.7 220.065 241.1C220.625 240.6 220.905 239.96 220.885 239.26C220.825 237.26 218.685 236.6 217.545 236.24Z" fill="#1C1C1C"/>
<circle cx="48" cy="235" r="14" stroke="#08AEEA" stroke-width="2"/>
<circle cx="48" cy="235" r="5" fill="#08AEEA"/>
<rect x="47" y="202" width="2" height="18" fill="#08AEEA"/>
<rect x="47" y="250" width="2" height="18" fill="#08AEEA"/>
<rect x="47" y="298" width="2" height="18" fill="#08AEEA"/>
<path d="M83.36 140.42C83.3 140.32 83.24 140.22 83.18 140.12C83.16 140.08 83.14 140.06 83.12 140.02C83.06 139.94 83.02 139.88 82.96 139.8C82.06 138.7 80.64 138.5 80.64 138.5C80.64 138.5 81.98 138.24 82.62 136.84C82.78 136.46 82.86 136.04 82.86 135.6C82.86 135.08 82.76 134.58 82.54 134.14C82.32 133.7 81.98 133.3 81.56 132.98C81.16 132.68 80.66 132.42 80.1 132.26C79.54 132.1 78.92 132.02 78.24 132.02H73.16V146H78.58C79.34 146 80.04 145.92 80.64 145.74C81.28 145.54 81.84 145.28 82.28 144.94C82.74 144.58 83.1 144.16 83.36 143.66C83.6 143.16 83.72 142.62 83.72 142.04C83.72 141.46 83.6 140.92 83.36 140.42ZM78.24 133.12C78.78 133.12 79.28 133.18 79.72 133.32C80.14 133.44 80.5 133.62 80.78 133.84C81.06 134.04 81.28 134.3 81.42 134.6C81.58 134.9 81.64 135.22 81.64 135.6C81.64 135.96 81.58 136.3 81.42 136.6C81.28 136.9 81.06 137.14 80.78 137.36C80.5 137.58 80.14 137.74 79.72 137.88C79.28 138 78.78 138.06 78.24 138.06H74.38V133.12H78.24ZM82.24 143.2C82.08 143.54 81.82 143.84 81.5 144.08C81.16 144.34 80.76 144.54 80.28 144.68C79.78 144.82 79.2 144.9 78.58 144.9H74.38V139.18H78.58C79.2 139.18 79.78 139.24 80.28 139.4C80.76 139.54 81.16 139.74 81.5 140C81.82 140.24 82.08 140.54 82.24 140.88C82.42 141.22 82.5 141.62 82.5 142.04C82.5 142.46 82.42 142.86 82.24 143.2ZM90.3442 135.9C87.3242 135.9 84.8842 138.18 84.8842 140.96C84.8842 143.76 87.3242 146.04 90.3442 146.04C93.3642 146.04 95.8042 143.76 95.8042 140.96C95.8042 138.18 93.3642 135.9 90.3442 135.9ZM90.3442 144.94C88.0042 144.94 86.1042 143.16 86.1042 140.96C86.1042 138.78 88.0042 137 90.3442 137C92.6842 137 94.5842 138.78 94.5842 140.96C94.5842 143.16 92.6842 144.94 90.3442 144.94ZM106.235 145.96V140.28C106.255 139.26 105.995 138.16 105.255 137.26C104.875 136.82 104.375 136.44 103.815 136.2C103.235 135.96 102.615 135.88 102.015 135.88C101.435 135.9 100.815 136.02 100.275 136.28C99.735 136.54 99.275 136.92 98.955 137.36C98.835 137.52 98.735 137.7 98.655 137.86V135.96H97.435V145.96H98.655V140.5C98.655 140.42 98.655 140.36 98.655 140.28C98.695 139.82 98.775 139.38 98.935 138.96C99.095 138.54 99.335 138.16 99.655 137.86C100.255 137.22 101.135 136.96 102.015 137C102.915 137.02 103.735 137.34 104.255 137.96C104.515 138.26 104.715 138.64 104.835 139.02C104.955 139.42 105.015 139.84 105.015 140.28V145.96H106.235ZM115.616 135.96V141.44C115.616 141.52 115.616 141.58 115.616 141.66C115.576 142.12 115.496 142.56 115.336 142.98C115.176 143.4 114.936 143.78 114.616 144.08C114.016 144.72 113.136 144.98 112.236 144.94C111.356 144.92 110.536 144.58 110.016 143.98C109.756 143.68 109.556 143.3 109.436 142.9C109.296 142.52 109.256 142.08 109.236 141.66L109.256 135.96H108.036V141.66C108.016 142.68 108.276 143.78 109.016 144.68C109.396 145.12 109.896 145.5 110.456 145.74C111.016 145.96 111.656 146.06 112.236 146.04C112.836 146.04 113.456 145.92 113.996 145.66C114.536 145.4 114.996 145.02 115.316 144.58C115.436 144.4 115.536 144.24 115.616 144.08V145.96H116.836V135.96H115.616ZM122.838 140.24C122.678 140.18 122.518 140.14 122.398 140.1C122.318 140.08 122.238 140.04 122.138 140C121.078 139.66 120.058 139.24 120.138 138.38C120.238 137.02 122.238 137 122.258 137C123.478 137 124.298 137.44 124.678 138.3L125.818 137.88C125.238 136.6 123.978 135.9 122.258 135.9C120.738 135.9 119.058 136.64 118.918 138.3C118.778 140.06 120.758 140.72 121.718 141.04C121.798 141.08 121.878 141.1 121.958 141.14C122.098 141.18 122.258 141.24 122.438 141.28C123.738 141.7 124.918 142.16 124.958 143.28C124.958 143.68 124.818 144.04 124.498 144.3C124.018 144.74 123.218 144.96 122.358 144.92C121.258 144.88 119.938 144.36 119.538 143.04L118.378 143.34C118.838 144.9 120.378 145.96 122.298 146.04C122.378 146.04 122.458 146.04 122.538 146.04C123.658 146.04 124.678 145.7 125.358 145.1C125.918 144.6 126.198 143.96 126.178 143.26C126.118 141.26 123.978 140.6 122.838 140.24ZM137.21 135.88C136.63 135.9 136.01 136.02 135.47 136.28C134.93 136.54 134.47 136.92 134.15 137.36C134.03 137.52 133.93 137.7 133.85 137.86V135.96H132.63V145.96H133.85V140.5C133.85 140.42 133.85 140.36 133.85 140.28C133.89 139.82 133.97 139.38 134.13 138.96C134.29 138.54 134.53 138.16 134.85 137.86C135.45 137.22 136.33 136.96 137.21 137C137.71 137 138.19 137.12 138.59 137.32L138.87 136.16C138.33 135.96 137.77 135.88 137.21 135.88ZM149.67 141.52C149.69 141.34 149.71 141.16 149.71 140.96C149.71 138.18 147.27 135.9 144.25 135.9C141.23 135.9 138.79 138.18 138.79 140.96C138.79 143.76 141.41 146.04 144.67 146.04C146.63 146.04 148.43 145.2 149.51 143.84L148.39 143.36C147.51 144.34 146.15 144.94 144.67 144.94C142.31 144.94 140.37 143.44 140.05 141.52H149.67ZM140.05 140.42C140.35 138.5 142.11 137 144.25 137C146.39 137 148.15 138.5 148.45 140.42H140.05ZM163.574 135.98L159.794 144.22L158.034 140.44L160.094 135.98H158.774L157.374 139.24L155.994 135.98H154.674L156.714 140.44L154.974 144.22L151.194 135.98H149.874L154.454 145.98H155.494L157.374 141.62L159.274 145.98H160.314L164.894 135.98H163.574ZM174.98 135.96V138.3C174.78 138.02 174.58 137.74 174.32 137.48C173.84 137 173.26 136.6 172.62 136.34C171.96 136.06 171.24 135.9 170.52 135.9C169.8 135.9 169.06 136.02 168.4 136.28C167.72 136.54 167.12 136.92 166.62 137.4C165.6 138.34 165.04 139.66 165.06 140.96C165.04 142.28 165.6 143.58 166.62 144.54C167.12 145.02 167.72 145.4 168.38 145.66C169.06 145.92 169.78 146.04 170.52 146.04C171.24 146.04 171.96 145.88 172.62 145.6C173.26 145.34 173.84 144.92 174.32 144.46C174.58 144.2 174.78 143.92 174.98 143.62V145.96H176.2V135.96H174.98ZM174.62 142.54C174.38 143.02 174.04 143.48 173.62 143.84C172.78 144.56 171.64 144.94 170.52 144.94C169.4 144.92 168.3 144.48 167.52 143.74C166.72 143.02 166.28 142 166.26 140.96C166.26 139.94 166.72 138.92 167.52 138.18C168.3 137.46 169.38 137.02 170.52 137C171.64 136.98 172.78 137.36 173.62 138.1C174.04 138.46 174.38 138.9 174.62 139.4C174.86 139.9 174.98 140.42 174.98 140.96C174.98 141.5 174.86 142.04 174.62 142.54ZM182.913 135.88C182.333 135.9 181.713 136.02 181.173 136.28C180.633 136.54 180.173 136.92 179.853 137.36C179.733 137.52 179.633 137.7 179.553 137.86V135.96H178.333V145.96H179.553V140.5C179.553 140.42 179.553 140.36 179.553 140.28C179.593 139.82 179.673 139.38 179.833 138.96C179.993 138.54 180.233 138.16 180.553 137.86C181.153 137.22 182.033 136.96 182.913 137C183.413 137 183.893 137.12 184.293 137.32L184.573 136.16C184.033 135.96 183.473 135.88 182.913 135.88ZM194.453 131.96V138.3C194.253 138.02 194.053 137.74 193.793 137.48C193.313 137 192.733 136.6 192.093 136.34C191.433 136.06 190.713 135.9 189.993 135.9C189.273 135.9 188.533 136.02 187.873 136.28C187.193 136.54 186.593 136.92 186.093 137.4C185.073 138.34 184.513 139.66 184.533 140.96C184.513 142.28 185.073 143.58 186.093 144.54C186.593 145.02 187.193 145.4 187.853 145.66C188.533 145.92 189.253 146.04 189.993 146.04C190.713 146.04 191.433 145.88 192.093 145.6C192.733 145.34 193.313 144.92 193.793 144.46C194.033 144.2 194.253 143.92 194.453 143.62V145.96H195.673V131.96H194.453ZM194.093 142.54C193.853 143.02 193.513 143.48 193.093 143.84C192.253 144.56 191.113 144.94 189.993 144.94C188.873 144.92 187.773 144.48 186.993 143.74C186.193 143.02 185.753 142 185.733 140.96C185.733 139.94 186.193 138.92 186.993 138.18C187.773 137.46 188.853 137.02 189.993 137C191.113 136.98 192.253 137.36 193.093 138.1C193.513 138.46 193.853 138.9 194.093 139.4C194.333 139.9 194.453 140.42 194.453 140.96C194.453 141.5 194.333 142.04 194.093 142.54ZM201.666 140.24C201.506 140.18 201.346 140.14 201.226 140.1C201.146 140.08 201.066 140.04 200.966 140C199.906 139.66 198.886 139.24 198.966 138.38C199.066 137.02 201.066 137 201.086 137C202.306 137 203.126 137.44 203.506 138.3L204.646 137.88C204.066 136.6 202.806 135.9 201.086 135.9C199.566 135.9 197.886 136.64 197.746 138.3C197.606 140.06 199.586 140.72 200.546 141.04C200.626 141.08 200.706 141.1 200.786 141.14C200.926 141.18 201.086 141.24 201.266 141.28C202.566 141.7 203.746 142.16 203.786 143.28C203.786 143.68 203.646 144.04 203.326 144.3C202.846 144.74 202.046 144.96 201.186 144.92C200.086 144.88 198.766 144.36 198.366 143.04L197.206 143.34C197.666 144.9 199.206 145.96 201.126 146.04C201.206 146.04 201.286 146.04 201.366 146.04C202.486 146.04 203.506 145.7 204.186 145.1C204.746 144.6 205.026 143.96 205.006 143.26C204.946 141.26 202.806 140.6 201.666 140.24ZM214.978 133.5C215.518 133.08 216.278 133 217.478 133.06V131.94C216.258 131.9 215.098 131.94 214.178 132.66C213.418 133.26 213.058 134.14 213.058 135.4V135.96H210.538V137.08H213.058V145.96H214.278V137.08H217.478V135.96H214.278V135.4C214.278 134.22 214.638 133.78 214.978 133.5ZM228.342 141.52C228.362 141.34 228.382 141.16 228.382 140.96C228.382 138.18 225.942 135.9 222.922 135.9C219.902 135.9 217.462 138.18 217.462 140.96C217.462 143.76 220.082 146.04 223.342 146.04C225.302 146.04 227.102 145.2 228.182 143.84L227.062 143.36C226.182 144.34 224.822 144.94 223.342 144.94C220.982 144.94 219.042 143.44 218.722 141.52H228.342ZM218.722 140.42C219.022 138.5 220.782 137 222.922 137C225.062 137 226.822 138.5 227.122 140.42H218.722ZM239.433 135.96V138.3C239.233 138.02 239.033 137.74 238.773 137.48C238.293 137 237.713 136.6 237.073 136.34C236.413 136.06 235.693 135.9 234.973 135.9C234.253 135.9 233.513 136.02 232.853 136.28C232.173 136.54 231.573 136.92 231.073 137.4C230.053 138.34 229.493 139.66 229.513 140.96C229.493 142.28 230.053 143.58 231.073 144.54C231.573 145.02 232.173 145.4 232.833 145.66C233.513 145.92 234.233 146.04 234.973 146.04C235.693 146.04 236.413 145.88 237.073 145.6C237.713 145.34 238.293 144.92 238.773 144.46C239.033 144.2 239.233 143.92 239.433 143.62V145.96H240.653V135.96H239.433ZM239.073 142.54C238.833 143.02 238.493 143.48 238.073 143.84C237.233 144.56 236.093 144.94 234.973 144.94C233.853 144.92 232.753 144.48 231.973 143.74C231.173 143.02 230.733 142 230.713 140.96C230.713 139.94 231.173 138.92 231.973 138.18C232.753 137.46 233.833 137.02 234.973 137C236.093 136.98 237.233 137.36 238.073 138.1C238.493 138.46 238.833 138.9 239.073 139.4C239.313 139.9 239.433 140.42 239.433 140.96C239.433 141.5 239.313 142.04 239.073 142.54ZM246.487 144.34C246.007 144.02 245.827 143.5 245.827 142.3V137.08H249.127V135.96H245.827V132.86L244.607 133.52V135.98H241.887V137.08H244.607V142.3C244.607 143.62 244.807 144.62 245.767 145.24C246.347 145.6 247.087 145.72 247.907 145.72C248.307 145.72 248.707 145.7 249.127 145.66V144.54C248.167 144.64 247.047 144.7 246.487 144.34ZM257.98 135.96V141.44C257.98 141.52 257.98 141.58 257.98 141.66C257.94 142.12 257.86 142.56 257.7 142.98C257.54 143.4 257.3 143.78 256.98 144.08C256.38 144.72 255.5 144.98 254.6 144.94C253.72 144.92 252.9 144.58 252.38 143.98C252.12 143.68 251.92 143.3 251.8 142.9C251.66 142.52 251.62 142.08 251.6 141.66L251.62 135.96H250.4V141.66C250.38 142.68 250.64 143.78 251.38 144.68C251.76 145.12 252.26 145.5 252.82 145.74C253.38 145.96 254.02 146.06 254.6 146.04C255.2 146.04 255.82 145.92 256.36 145.66C256.9 145.4 257.36 145.02 257.68 144.58C257.8 144.4 257.9 144.24 257.98 144.08V145.96H259.2V135.96H257.98ZM265.921 135.88C265.341 135.9 264.721 136.02 264.181 136.28C263.641 136.54 263.181 136.92 262.861 137.36C262.741 137.52 262.641 137.7 262.561 137.86V135.96H261.341V145.96H262.561V140.5C262.561 140.42 262.561 140.36 262.561 140.28C262.601 139.82 262.681 139.38 262.841 138.96C263.001 138.54 263.241 138.16 263.561 137.86C264.161 137.22 265.041 136.96 265.921 137C266.421 137 266.901 137.12 267.301 137.32L267.581 136.16C267.041 135.96 266.481 135.88 265.921 135.88ZM278.381 141.52C278.401 141.34 278.421 141.16 278.421 140.96C278.421 138.18 275.981 135.9 272.961 135.9C269.941 135.9 267.501 138.18 267.501 140.96C267.501 143.76 270.121 146.04 273.381 146.04C275.341 146.04 277.141 145.2 278.221 143.84L277.101 143.36C276.221 144.34 274.861 144.94 273.381 144.94C271.021 144.94 269.081 143.44 268.761 141.52H278.381ZM268.761 140.42C269.061 138.5 270.821 137 272.961 137C275.101 137 276.861 138.5 277.161 140.42H268.761Z" fill="#1C1C1C"/>
<circle cx="48" cy="139" r="14" stroke="#08AEEA" stroke-width="2"/>
<circle cx="48" cy="139" r="5" fill="#08AEEA"/>
<path d="M48 172V154" stroke="#08AEEA" stroke-width="2"/>
<path d="M82.42 180.02V190.28C82.42 191.24 82.56 192.04 82.56 192.04C82.56 192.04 82.1 191.18 81.68 190.58L74.14 180.02H73.16V194H74.38V183.74C74.38 182.78 74.24 181.98 74.24 181.98C74.24 181.98 74.7 182.84 75.14 183.44L82.66 194H83.66V180.02H82.42ZM96.252 189.52C96.272 189.34 96.292 189.16 96.292 188.96C96.292 186.18 93.852 183.9 90.832 183.9C87.812 183.9 85.372 186.18 85.372 188.96C85.372 191.76 87.992 194.04 91.252 194.04C93.212 194.04 95.012 193.2 96.092 191.84L94.972 191.36C94.092 192.34 92.732 192.94 91.252 192.94C88.892 192.94 86.952 191.44 86.632 189.52H96.252ZM86.632 188.42C86.932 186.5 88.692 185 90.832 185C92.972 185 94.732 186.5 95.032 188.42H86.632ZM110.156 183.98L106.376 192.22L104.616 188.44L106.676 183.98H105.356L103.956 187.24L102.576 183.98H101.256L103.296 188.44L101.556 192.22L97.7764 183.98H96.4564L101.036 193.98H102.076L103.956 189.62L105.856 193.98H106.896L111.476 183.98H110.156ZM118.834 192.9V180.02H117.614V194H118.214V194.02H126.474V192.9H118.834ZM136.406 183.96V186.3C136.206 186.02 136.006 185.74 135.746 185.48C135.266 185 134.686 184.6 134.046 184.34C133.386 184.06 132.666 183.9 131.946 183.9C131.226 183.9 130.486 184.02 129.826 184.28C129.146 184.54 128.546 184.92 128.046 185.4C127.026 186.34 126.466 187.66 126.486 188.96C126.466 190.28 127.026 191.58 128.046 192.54C128.546 193.02 129.146 193.4 129.806 193.66C130.486 193.92 131.206 194.04 131.946 194.04C132.666 194.04 133.386 193.88 134.046 193.6C134.686 193.34 135.266 192.92 135.746 192.46C136.006 192.2 136.206 191.92 136.406 191.62V193.96H137.626V183.96H136.406ZM136.046 190.54C135.806 191.02 135.466 191.48 135.046 191.84C134.206 192.56 133.066 192.94 131.946 192.94C130.826 192.92 129.726 192.48 128.946 191.74C128.146 191.02 127.706 190 127.686 188.96C127.686 187.94 128.146 186.92 128.946 186.18C129.726 185.46 130.806 185.02 131.946 185C133.066 184.98 134.206 185.36 135.046 186.1C135.466 186.46 135.806 186.9 136.046 187.4C136.286 187.9 136.406 188.42 136.406 188.96C136.406 189.5 136.286 190.04 136.046 190.54ZM148.559 193.96V188.28C148.579 187.26 148.319 186.16 147.579 185.26C147.199 184.82 146.699 184.44 146.139 184.2C145.559 183.96 144.939 183.88 144.339 183.88C143.759 183.9 143.139 184.02 142.599 184.28C142.059 184.54 141.599 184.92 141.279 185.36C141.159 185.52 141.059 185.7 140.979 185.86V183.96H139.759V193.96H140.979V188.5C140.979 188.42 140.979 188.36 140.979 188.28C141.019 187.82 141.099 187.38 141.259 186.96C141.419 186.54 141.659 186.16 141.979 185.86C142.579 185.22 143.459 184.96 144.339 185C145.239 185.02 146.059 185.34 146.579 185.96C146.839 186.26 147.039 186.64 147.159 187.02C147.279 187.42 147.339 187.84 147.339 188.28V193.96H148.559ZM159.96 179.96V186.3C159.76 186.02 159.56 185.74 159.3 185.48C158.82 185 158.24 184.6 157.6 184.34C156.94 184.06 156.22 183.9 155.5 183.9C154.78 183.9 154.04 184.02 153.38 184.28C152.7 184.54 152.1 184.92 151.6 185.4C150.58 186.34 150.02 187.66 150.04 188.96C150.02 190.28 150.58 191.58 151.6 192.54C152.1 193.02 152.7 193.4 153.36 193.66C154.04 193.92 154.76 194.04 155.5 194.04C156.22 194.04 156.94 193.88 157.6 193.6C158.24 193.34 158.82 192.92 159.3 192.46C159.54 192.2 159.76 191.92 159.96 191.62V193.96H161.18V179.96H159.96ZM159.6 190.54C159.36 191.02 159.02 191.48 158.6 191.84C157.76 192.56 156.62 192.94 155.5 192.94C154.38 192.92 153.28 192.48 152.5 191.74C151.7 191.02 151.26 190 151.24 188.96C151.24 187.94 151.7 186.92 152.5 186.18C153.28 185.46 154.36 185.02 155.5 185C156.62 184.98 157.76 185.36 158.6 186.1C159.02 186.46 159.36 186.9 159.6 187.4C159.84 187.9 159.96 188.42 159.96 188.96C159.96 189.5 159.84 190.04 159.6 190.54ZM164.534 193.96V183.96H163.294V193.96H164.534ZM163.914 180.28C163.394 180.28 162.974 180.7 162.974 181.22C162.974 181.76 163.394 182.18 163.914 182.18C164.434 182.18 164.874 181.76 164.874 181.22C164.874 180.7 164.434 180.28 163.914 180.28ZM175.473 193.96V188.28C175.493 187.26 175.233 186.16 174.493 185.26C174.113 184.82 173.613 184.44 173.053 184.2C172.473 183.96 171.853 183.88 171.253 183.88C170.673 183.9 170.053 184.02 169.513 184.28C168.973 184.54 168.513 184.92 168.193 185.36C168.073 185.52 167.973 185.7 167.893 185.86V183.96H166.673V193.96H167.893V188.5C167.893 188.42 167.893 188.36 167.893 188.28C167.933 187.82 168.013 187.38 168.173 186.96C168.333 186.54 168.573 186.16 168.893 185.86C169.493 185.22 170.373 184.96 171.253 185C172.153 185.02 172.973 185.34 173.493 185.96C173.753 186.26 173.953 186.64 174.073 187.02C174.193 187.42 174.253 187.84 174.253 188.28V193.96H175.473ZM186.755 183.96V186.32C186.575 186.04 186.375 185.76 186.115 185.52C185.655 185.04 185.075 184.66 184.435 184.38C183.795 184.1 183.075 183.96 182.355 183.94C181.635 183.94 180.915 184.06 180.255 184.32C179.595 184.58 178.995 184.96 178.495 185.44C177.495 186.38 176.935 187.68 176.955 188.96C176.935 190.26 177.495 191.56 178.495 192.5C178.995 192.98 179.595 193.36 180.255 193.62C180.915 193.88 181.635 194 182.355 194C183.075 193.98 183.795 193.84 184.435 193.56C185.075 193.28 185.655 192.9 186.115 192.42C186.375 192.18 186.575 191.9 186.755 191.62V193.04C186.755 194.58 186.195 196.52 183.515 196.98C181.475 197.3 179.275 196.44 178.295 194.9L177.235 195.46C178.295 197.14 180.415 198.16 182.595 198.16C182.975 198.16 183.355 198.12 183.735 198.06C186.435 197.62 187.995 195.78 187.995 193.04V183.96H186.755ZM186.415 190.52C186.175 191 185.835 191.44 185.415 191.8C184.595 192.52 183.455 192.9 182.355 192.88C181.255 192.88 180.155 192.44 179.395 191.72C178.615 191 178.155 189.98 178.155 188.96C178.155 187.94 178.615 186.94 179.395 186.22C180.155 185.5 181.255 185.06 182.355 185.06C183.455 185.04 184.595 185.4 185.415 186.14C185.835 186.5 186.175 186.94 186.415 187.42C186.635 187.9 186.755 188.44 186.755 188.96C186.755 189.5 186.635 190.04 186.415 190.52ZM199.515 183.88C198.935 183.9 198.315 184.02 197.775 184.28C197.235 184.54 196.775 184.92 196.455 185.36C196.335 185.52 196.235 185.7 196.155 185.86V183.96H194.935V193.96H196.155V188.5C196.155 188.42 196.155 188.36 196.155 188.28C196.195 187.82 196.275 187.38 196.435 186.96C196.595 186.54 196.835 186.16 197.155 185.86C197.755 185.22 198.635 184.96 199.515 185C200.015 185 200.495 185.12 200.895 185.32L201.175 184.16C200.635 183.96 200.075 183.88 199.515 183.88ZM211.975 189.52C211.995 189.34 212.015 189.16 212.015 188.96C212.015 186.18 209.575 183.9 206.555 183.9C203.535 183.9 201.095 186.18 201.095 188.96C201.095 191.76 203.715 194.04 206.975 194.04C208.935 194.04 210.735 193.2 211.815 191.84L210.695 191.36C209.815 192.34 208.455 192.94 206.975 192.94C204.615 192.94 202.675 191.44 202.355 189.52H211.975ZM202.355 188.42C202.655 186.5 204.415 185 206.555 185C208.695 185 210.455 186.5 210.755 188.42H202.355ZM214.866 193.98V179.98H213.646V193.98H214.866ZM227.346 189.52C227.366 189.34 227.386 189.16 227.386 188.96C227.386 186.18 224.946 183.9 221.926 183.9C218.906 183.9 216.466 186.18 216.466 188.96C216.466 191.76 219.086 194.04 222.346 194.04C224.306 194.04 226.106 193.2 227.186 191.84L226.066 191.36C225.186 192.34 223.826 192.94 222.346 192.94C219.986 192.94 218.046 191.44 217.726 189.52H227.346ZM217.726 188.42C218.026 186.5 219.786 185 221.926 185C224.066 185 225.826 186.5 226.126 188.42H217.726ZM238.437 183.96V186.3C238.237 186.02 238.037 185.74 237.777 185.48C237.297 185 236.717 184.6 236.077 184.34C235.417 184.06 234.697 183.9 233.977 183.9C233.257 183.9 232.517 184.02 231.857 184.28C231.177 184.54 230.577 184.92 230.077 185.4C229.057 186.34 228.497 187.66 228.517 188.96C228.497 190.28 229.057 191.58 230.077 192.54C230.577 193.02 231.177 193.4 231.837 193.66C232.517 193.92 233.237 194.04 233.977 194.04C234.697 194.04 235.417 193.88 236.077 193.6C236.717 193.34 237.297 192.92 237.777 192.46C238.037 192.2 238.237 191.92 238.437 191.62V193.96H239.657V183.96H238.437ZM238.077 190.54C237.837 191.02 237.497 191.48 237.077 191.84C236.237 192.56 235.097 192.94 233.977 192.94C232.857 192.92 231.757 192.48 230.977 191.74C230.177 191.02 229.737 190 229.717 188.96C229.717 187.94 230.177 186.92 230.977 186.18C231.757 185.46 232.837 185.02 233.977 185C235.097 184.98 236.237 185.36 237.077 186.1C237.497 186.46 237.837 186.9 238.077 187.4C238.317 187.9 238.437 188.42 238.437 188.96C238.437 189.5 238.317 190.04 238.077 190.54ZM245.65 188.24C245.49 188.18 245.33 188.14 245.21 188.1C245.13 188.08 245.05 188.04 244.95 188C243.89 187.66 242.87 187.24 242.95 186.38C243.05 185.02 245.05 185 245.07 185C246.29 185 247.11 185.44 247.49 186.3L248.63 185.88C248.05 184.6 246.79 183.9 245.07 183.9C243.55 183.9 241.87 184.64 241.73 186.3C241.59 188.06 243.57 188.72 244.53 189.04C244.61 189.08 244.69 189.1 244.77 189.14C244.91 189.18 245.07 189.24 245.25 189.28C246.55 189.7 247.73 190.16 247.77 191.28C247.77 191.68 247.63 192.04 247.31 192.3C246.83 192.74 246.03 192.96 245.17 192.92C244.07 192.88 242.75 192.36 242.35 191.04L241.19 191.34C241.65 192.9 243.19 193.96 245.11 194.04C245.19 194.04 245.27 194.04 245.35 194.04C246.47 194.04 247.49 193.7 248.17 193.1C248.73 192.6 249.01 191.96 248.99 191.26C248.93 189.26 246.79 188.6 245.65 188.24ZM260.998 189.52C261.018 189.34 261.038 189.16 261.038 188.96C261.038 186.18 258.598 183.9 255.578 183.9C252.558 183.9 250.118 186.18 250.118 188.96C250.118 191.76 252.738 194.04 255.998 194.04C257.958 194.04 259.758 193.2 260.838 191.84L259.718 191.36C258.838 192.34 257.478 192.94 255.998 192.94C253.638 192.94 251.698 191.44 251.378 189.52H260.998ZM251.378 188.42C251.678 186.5 253.438 185 255.578 185C257.718 185 259.478 186.5 259.778 188.42H251.378Z" fill="#1C1C1C"/>
<circle cx="48" cy="187" r="14" stroke="#08AEEA" stroke-width="2"/>
<circle cx="48" cy="187" r="5" fill="#08AEEA"/>
<path d="M48 124V106" stroke="#08AEEA" stroke-width="2"/>
<path d="M74.38 98V84.02H73.16V98H74.38ZM85.4147 97.96V92.28C85.4347 91.26 85.1747 90.16 84.4347 89.26C84.0547 88.82 83.5547 88.44 82.9947 88.2C82.4147 87.96 81.7947 87.88 81.1947 87.88C80.6147 87.9 79.9947 88.02 79.4547 88.28C78.9147 88.54 78.4547 88.92 78.1347 89.36C78.0147 89.52 77.9147 89.7 77.8347 89.86V87.96H76.6147V97.96H77.8347V92.5C77.8347 92.42 77.8347 92.36 77.8347 92.28C77.8747 91.82 77.9547 91.38 78.1147 90.96C78.2747 90.54 78.5147 90.16 78.8347 89.86C79.4347 89.22 80.3147 88.96 81.1947 89C82.0947 89.02 82.9147 89.34 83.4347 89.96C83.6947 90.26 83.8947 90.64 84.0147 91.02C84.1347 91.42 84.1947 91.84 84.1947 92.28V97.96H85.4147ZM90.51 96.34C90.03 96.02 89.85 95.5 89.85 94.3V89.08H93.15V87.96H89.85V84.86L88.63 85.52V87.98H85.91V89.08H88.63V94.3C88.63 95.62 88.83 96.62 89.79 97.24C90.37 97.6 91.11 97.72 91.93 97.72C92.33 97.72 92.73 97.7 93.15 97.66V96.54C92.19 96.64 91.07 96.7 90.51 96.34ZM104.436 93.52C104.456 93.34 104.476 93.16 104.476 92.96C104.476 90.18 102.036 87.9 99.0156 87.9C95.9956 87.9 93.5556 90.18 93.5556 92.96C93.5556 95.76 96.1756 98.04 99.4356 98.04C101.396 98.04 103.196 97.2 104.276 95.84L103.156 95.36C102.276 96.34 100.916 96.94 99.4356 96.94C97.0756 96.94 95.1356 95.44 94.8156 93.52H104.436ZM94.8156 92.42C95.1156 90.5 96.8756 89 99.0156 89C101.156 89 102.916 90.5 103.216 92.42H94.8156ZM115.407 87.96V90.32C115.227 90.04 115.027 89.76 114.767 89.52C114.307 89.04 113.727 88.66 113.087 88.38C112.447 88.1 111.727 87.96 111.007 87.94C110.287 87.94 109.567 88.06 108.907 88.32C108.247 88.58 107.647 88.96 107.147 89.44C106.147 90.38 105.587 91.68 105.607 92.96C105.587 94.26 106.147 95.56 107.147 96.5C107.647 96.98 108.247 97.36 108.907 97.62C109.567 97.88 110.287 98 111.007 98C111.727 97.98 112.447 97.84 113.087 97.56C113.727 97.28 114.307 96.9 114.767 96.42C115.027 96.18 115.227 95.9 115.407 95.62V97.04C115.407 98.58 114.847 100.52 112.167 100.98C110.127 101.3 107.927 100.44 106.947 98.9L105.887 99.46C106.947 101.14 109.067 102.16 111.247 102.16C111.627 102.16 112.007 102.12 112.387 102.06C115.087 101.62 116.647 99.78 116.647 97.04V87.96H115.407ZM115.067 94.52C114.827 95 114.487 95.44 114.067 95.8C113.247 96.52 112.107 96.9 111.007 96.88C109.907 96.88 108.807 96.44 108.047 95.72C107.267 95 106.807 93.98 106.807 92.96C106.807 91.94 107.267 90.94 108.047 90.22C108.807 89.5 109.907 89.06 111.007 89.06C112.107 89.04 113.247 89.4 114.067 90.14C114.487 90.5 114.827 90.94 115.067 91.42C115.287 91.9 115.407 92.44 115.407 92.96C115.407 93.5 115.287 94.04 115.067 94.52ZM123.363 87.88C122.783 87.9 122.163 88.02 121.623 88.28C121.083 88.54 120.623 88.92 120.303 89.36C120.183 89.52 120.083 89.7 120.003 89.86V87.96H118.783V97.96H120.003V92.5C120.003 92.42 120.003 92.36 120.003 92.28C120.043 91.82 120.123 91.38 120.283 90.96C120.443 90.54 120.683 90.16 121.003 89.86C121.603 89.22 122.483 88.96 123.363 89C123.863 89 124.343 89.12 124.743 89.32L125.023 88.16C124.483 87.96 123.923 87.88 123.363 87.88ZM134.882 87.96V90.3C134.682 90.02 134.482 89.74 134.222 89.48C133.742 89 133.162 88.6 132.522 88.34C131.862 88.06 131.142 87.9 130.422 87.9C129.702 87.9 128.962 88.02 128.302 88.28C127.622 88.54 127.022 88.92 126.522 89.4C125.502 90.34 124.942 91.66 124.962 92.96C124.942 94.28 125.502 95.58 126.522 96.54C127.022 97.02 127.622 97.4 128.282 97.66C128.962 97.92 129.682 98.04 130.422 98.04C131.142 98.04 131.862 97.88 132.522 97.6C133.162 97.34 133.742 96.92 134.222 96.46C134.482 96.2 134.682 95.92 134.882 95.62V97.96H136.102V87.96H134.882ZM134.522 94.54C134.282 95.02 133.942 95.48 133.522 95.84C132.682 96.56 131.542 96.94 130.422 96.94C129.302 96.92 128.202 96.48 127.422 95.74C126.622 95.02 126.182 94 126.162 92.96C126.162 91.94 126.622 90.92 127.422 90.18C128.202 89.46 129.282 89.02 130.422 89C131.542 88.98 132.682 89.36 133.522 90.1C133.942 90.46 134.282 90.9 134.522 91.4C134.762 91.9 134.882 92.42 134.882 92.96C134.882 93.5 134.762 94.04 134.522 94.54ZM141.936 96.34C141.456 96.02 141.276 95.5 141.276 94.3V89.08H144.576V87.96H141.276V84.86L140.056 85.52V87.98H137.336V89.08H140.056V94.3C140.056 95.62 140.256 96.62 141.216 97.24C141.796 97.6 142.536 97.72 143.356 97.72C143.756 97.72 144.156 97.7 144.576 97.66V96.54C143.616 96.64 142.496 96.7 141.936 96.34ZM147.249 97.96V87.96H146.009V97.96H147.249ZM146.629 84.28C146.109 84.28 145.689 84.7 145.689 85.22C145.689 85.76 146.109 86.18 146.629 86.18C147.149 86.18 147.589 85.76 147.589 85.22C147.589 84.7 147.149 84.28 146.629 84.28ZM154.348 87.9C151.328 87.9 148.888 90.18 148.888 92.96C148.888 95.76 151.328 98.04 154.348 98.04C157.368 98.04 159.808 95.76 159.808 92.96C159.808 90.18 157.368 87.9 154.348 87.9ZM154.348 96.94C152.008 96.94 150.108 95.16 150.108 92.96C150.108 90.78 152.008 89 154.348 89C156.688 89 158.588 90.78 158.588 92.96C158.588 95.16 156.688 96.94 154.348 96.94ZM170.239 97.96V92.28C170.259 91.26 169.999 90.16 169.259 89.26C168.879 88.82 168.379 88.44 167.819 88.2C167.239 87.96 166.619 87.88 166.019 87.88C165.439 87.9 164.819 88.02 164.279 88.28C163.739 88.54 163.279 88.92 162.959 89.36C162.839 89.52 162.739 89.7 162.659 89.86V87.96H161.439V97.96H162.659V92.5C162.659 92.42 162.659 92.36 162.659 92.28C162.699 91.82 162.779 91.38 162.939 90.96C163.099 90.54 163.339 90.16 163.659 89.86C164.259 89.22 165.139 88.96 166.019 89C166.919 89.02 167.739 89.34 168.259 89.96C168.519 90.26 168.719 90.64 168.839 91.02C168.959 91.42 169.019 91.84 169.019 92.28V97.96H170.239ZM189.805 87.98L186.025 96.22L184.265 92.44L186.325 87.98H185.005L183.605 91.24L182.225 87.98H180.905L182.945 92.44L181.205 96.22L177.425 87.98H176.105L180.685 97.98H181.725L183.605 93.62L185.505 97.98H186.545L191.125 87.98H189.805ZM193.557 97.96V87.96H192.317V97.96H193.557ZM192.937 84.28C192.417 84.28 191.997 84.7 191.997 85.22C191.997 85.76 192.417 86.18 192.937 86.18C193.457 86.18 193.897 85.76 193.897 85.22C193.897 84.7 193.457 84.28 192.937 84.28ZM199.397 96.34C198.917 96.02 198.737 95.5 198.737 94.3V89.08H202.037V87.96H198.737V84.86L197.517 85.52V87.98H194.797V89.08H197.517V94.3C197.517 95.62 197.717 96.62 198.677 97.24C199.257 97.6 199.997 97.72 200.817 97.72C201.217 97.72 201.617 97.7 202.037 97.66V96.54C201.077 96.64 199.957 96.7 199.397 96.34ZM212.29 97.96V92.28C212.31 91.26 212.05 90.16 211.31 89.26C210.93 88.82 210.43 88.44 209.87 88.2C209.29 87.96 208.67 87.88 208.07 87.88C207.49 87.9 206.87 88.02 206.33 88.28C205.79 88.54 205.33 88.92 205.01 89.36C204.89 89.52 204.79 89.7 204.71 89.86V83.96H203.49V97.96H204.71V92.5C204.71 92.42 204.71 92.36 204.71 92.28C204.75 91.82 204.83 91.38 204.99 90.96C205.15 90.54 205.39 90.16 205.71 89.86C206.31 89.22 207.19 88.96 208.07 89C208.97 89.02 209.79 89.34 210.31 89.96C210.57 90.26 210.77 90.64 210.89 91.02C211.03 91.42 211.07 91.84 211.07 92.28V97.96H212.29ZM226.316 84.02V93.36C226.316 94.6 225.996 95.54 225.376 96.18C224.736 96.82 223.916 97.12 222.816 97.12C221.976 97.12 221.256 96.9 220.616 96.44C219.996 95.98 219.536 95.3 219.256 94.42L218.096 94.7C218.436 95.82 219.036 96.7 219.856 97.3C220.696 97.92 221.696 98.24 222.816 98.24C224.256 98.24 225.416 97.8 226.276 96.92C227.116 96.08 227.536 94.88 227.536 93.36V84.02H226.316ZM237.062 87.96V93.44C237.062 93.52 237.062 93.58 237.062 93.66C237.022 94.12 236.942 94.56 236.782 94.98C236.622 95.4 236.382 95.78 236.062 96.08C235.462 96.72 234.582 96.98 233.682 96.94C232.802 96.92 231.982 96.58 231.462 95.98C231.202 95.68 231.002 95.3 230.882 94.9C230.742 94.52 230.702 94.08 230.682 93.66L230.702 87.96H229.482V93.66C229.462 94.68 229.722 95.78 230.462 96.68C230.842 97.12 231.342 97.5 231.902 97.74C232.462 97.96 233.102 98.06 233.682 98.04C234.282 98.04 234.902 97.92 235.442 97.66C235.982 97.4 236.442 97.02 236.762 96.58C236.882 96.4 236.982 96.24 237.062 96.08V97.96H238.282V87.96H237.062ZM254.423 97.96V92.46V91.76C254.423 91.52 254.423 91.26 254.383 91C254.323 90.5 254.163 89.98 253.883 89.5C253.603 89 253.163 88.58 252.623 88.28C252.343 88.14 252.043 88.04 251.743 87.96C251.443 87.9 251.143 87.88 250.843 87.88C250.543 87.9 250.243 87.94 249.943 88.02C249.663 88.1 249.383 88.22 249.123 88.38C248.623 88.7 248.263 89.14 248.043 89.6C247.943 89.82 247.863 90.02 247.823 90.24C247.723 89.98 247.623 89.74 247.483 89.5C247.203 89 246.763 88.58 246.223 88.28C245.943 88.14 245.663 88.04 245.343 87.96C245.043 87.9 244.743 87.88 244.443 87.88C244.143 87.9 243.843 87.94 243.563 88.02C243.263 88.1 242.983 88.22 242.743 88.38C242.243 88.7 241.863 89.14 241.643 89.6C241.643 89.62 241.643 89.62 241.643 89.62V87.98H240.423V97.96H241.643V92.28L241.663 91.76C241.663 91.54 241.703 91.32 241.743 91.1C241.843 90.68 242.023 90.28 242.283 89.94C242.543 89.6 242.883 89.34 243.263 89.18C243.623 89.04 244.023 88.98 244.443 89C245.283 89.02 245.963 89.4 246.363 90.04C246.583 90.38 246.703 90.76 246.763 91.14C246.803 91.36 246.823 91.56 246.823 91.76V92.46V97.96H248.043V92.46V92.2V91.76C248.063 91.54 248.083 91.32 248.143 91.1C248.243 90.68 248.423 90.26 248.683 89.94C248.943 89.6 249.283 89.34 249.643 89.18C250.023 89.04 250.423 88.98 250.843 89C251.663 89.02 252.363 89.4 252.763 90.04C252.963 90.38 253.103 90.76 253.163 91.14C253.203 91.34 253.203 91.56 253.203 91.76V92.46V97.96H254.423ZM265.999 89.4C265.499 88.92 264.879 88.54 264.219 88.28C263.539 88.02 262.819 87.9 262.099 87.9C261.359 87.9 260.639 88.06 259.999 88.34C259.339 88.6 258.759 89 258.299 89.48C258.039 89.74 257.819 90.02 257.639 90.32V83.96H256.419V97.96H257.639V95.62C257.819 95.92 258.039 96.2 258.279 96.46C258.759 96.94 259.339 97.34 259.999 97.6C260.639 97.88 261.359 98.04 262.099 98.04C262.819 98.04 263.539 97.92 264.219 97.66C264.879 97.4 265.499 97.02 265.999 96.54C266.999 95.58 267.559 94.28 267.559 92.96C267.559 91.66 266.999 90.34 265.999 89.4ZM265.099 95.74C264.319 96.48 263.219 96.92 262.099 96.94C260.979 96.94 259.839 96.56 258.999 95.84C258.579 95.48 258.219 95.02 257.999 94.54C257.759 94.04 257.639 93.5 257.639 92.96C257.639 92.42 257.759 91.88 257.979 91.4C258.219 90.9 258.579 90.46 258.999 90.1C259.839 89.36 260.979 88.98 262.099 89C263.219 89.02 264.319 89.44 265.099 90.18C265.879 90.92 266.339 91.94 266.339 92.96C266.339 94 265.879 95.02 265.099 95.74ZM274.153 87.9C271.133 87.9 268.693 90.18 268.693 92.96C268.693 95.76 271.133 98.04 274.153 98.04C277.173 98.04 279.613 95.76 279.613 92.96C279.613 90.18 277.173 87.9 274.153 87.9ZM274.153 96.94C271.813 96.94 269.913 95.16 269.913 92.96C269.913 90.78 271.813 89 274.153 89C276.493 89 278.393 90.78 278.393 92.96C278.393 95.16 276.493 96.94 274.153 96.94Z" fill="#1C1C1C"/>
<circle cx="48" cy="91" r="14" stroke="#08AEEA" stroke-width="2"/>
<circle cx="48" cy="91" r="5" fill="#08AEEA"/>
<defs>
<filter id="filter0_d_1431_5145" x="-71" y="-61" width="502" height="556" filterUnits="userSpaceOnUse" color-interpolation-filters="sRGB">
<feFlood flood-opacity="0" result="BackgroundImageFix"/>
<feColorMatrix in="SourceAlpha" type="matrix" values="0 0 0 0 0 0 0 0 0 0 0 0 0 0 0 0 0 0 127 0" result="hardAlpha"/>
<feOffset dy="10"/>
<feGaussianBlur stdDeviation="35.5"/>
<feComposite in2="hardAlpha" operator="out"/>
<feColorMatrix type="matrix" values="0 0 0 0 0 0 0 0 0 0 0 0 0 0 0 0 0 0 0.05 0"/>
<feBlend mode="normal" in2="BackgroundImageFix" result="effect1_dropShadow_1431_5145"/>
<feBlend mode="normal" in="SourceGraphic" in2="effect1_dropShadow_1431_5145" result="shape"/>
</filter>
</defs>
</svg>
