<svg xmlns="http://www.w3.org/2000/svg" fill="none" viewBox="71 61 360 406">
<g filter="url(#filter0_d_1431_5145)">
<rect x="71" y="61" width="360" height="406" rx="7" fill="#F4F8F9"/>
<rect x="71.5" y="61.5" width="359" height="405" rx="6.5" stroke="#BBBBBB" stroke-opacity="0.28"/>
</g>
<path opacity="0.2" d="M123.224 100.814C124.763 99.113 125.681 96.953 125.681 94.55C125.681 89.177 120.983 84.803 115.178 84.803C109.4 84.803 104.702 89.177 104.702 94.55C104.702 99.95 109.4 104.324 115.178 104.324C117.824 104.324 120.254 103.406 122.09 101.894L124.412 104H126.734L123.224 100.814ZM122.063 99.761L119.309 97.25H116.987L120.929 100.841C119.363 102.056 117.365 102.812 115.178 102.812C110.318 102.812 106.349 99.113 106.349 94.577C106.349 90.014 110.318 86.315 115.178 86.315C120.065 86.315 124.034 90.014 124.034 94.577C124.034 96.521 123.305 98.33 122.063 99.761ZM130.256 102.407C132.281 100.247 136.466 95.765 138.545 93.551C138.977 93.092 139.517 92.363 139.76 91.688C139.976 91.148 140.084 90.581 140.084 89.987C140.084 87.125 137.519 84.803 134.36 84.803C131.228 84.803 128.663 87.125 128.663 89.987H130.31C130.31 87.962 132.146 86.315 134.36 86.315C136.601 86.315 138.41 87.962 138.41 89.987C138.41 90.392 138.356 90.824 138.194 91.202C138.059 91.58 137.681 92.147 137.276 92.579C134.657 95.387 128.636 101.84 127.934 102.596V103.919H140.948V102.407H130.256Z" fill="#1C1C1C"/>
<path d="M149.42 429.18C149.2 429.1 148.98 429.04 148.8 428.98C148.7 428.94 148.56 428.88 148.42 428.84C146.82 428.28 145.26 427.62 145.38 426.16C145.52 424.38 147.6 423.9 148.68 423.9C150.54 423.9 151.8 424.6 152.4 425.98L153.54 425.56C152.74 423.74 151.06 422.78 148.68 422.78C147.22 422.78 144.38 423.48 144.16 426.08C143.96 428.5 146.68 429.44 148 429.88C148.12 429.92 148.24 429.96 148.34 430C148.54 430.08 148.76 430.14 149.02 430.22C150.98 430.86 152.76 431.6 152.8 433.42C152.82 434.1 152.58 434.7 152.04 435.16C151.3 435.82 150.1 436.18 148.82 436.12C147.16 436.04 145.16 435.22 144.56 433.14L143.38 433.42C144.02 435.62 146.12 437.1 148.76 437.22C148.86 437.22 148.98 437.24 149.1 437.24C150.6 437.24 151.98 436.78 152.9 435.96C153.66 435.28 154.06 434.38 154.02 433.4C153.94 430.64 151 429.7 149.42 429.18ZM158.737 435.34C158.257 435.02 158.077 434.5 158.077 433.3V428.08H161.377V426.96H158.077V423.86L156.857 424.52V426.98H154.137V428.08H156.857V433.3C156.857 434.62 157.057 435.62 158.017 436.24C158.597 436.6 159.337 436.72 160.157 436.72C160.557 436.72 160.957 436.7 161.377 436.66V435.54C160.417 435.64 159.297 435.7 158.737 435.34ZM171.722 426.96V429.3C171.522 429.02 171.322 428.74 171.062 428.48C170.582 428 170.002 427.6 169.362 427.34C168.702 427.06 167.982 426.9 167.262 426.9C166.542 426.9 165.802 427.02 165.142 427.28C164.462 427.54 163.862 427.92 163.362 428.4C162.342 429.34 161.782 430.66 161.802 431.96C161.782 433.28 162.342 434.58 163.362 435.54C163.862 436.02 164.462 436.4 165.122 436.66C165.802 436.92 166.522 437.04 167.262 437.04C167.982 437.04 168.702 436.88 169.362 436.6C170.002 436.34 170.582 435.92 171.062 435.46C171.322 435.2 171.522 434.92 171.722 434.62V436.96H172.942V426.96H171.722ZM171.362 433.54C171.122 434.02 170.782 434.48 170.362 434.84C169.522 435.56 168.382 435.94 167.262 435.94C166.142 435.92 165.042 435.48 164.262 434.74C163.462 434.02 163.022 433 163.002 431.96C163.002 430.94 163.462 429.92 164.262 429.18C165.042 428.46 166.122 428.02 167.262 428C168.382 427.98 169.522 428.36 170.362 429.1C170.782 429.46 171.122 429.9 171.362 430.4C171.602 430.9 171.722 431.42 171.722 431.96C171.722 432.5 171.602 433.04 171.362 433.54ZM177.636 431.4L182.396 426.98H180.696L176.296 431.06V422.98H175.076V436.98H176.296V431.76L181.896 436.98H183.616L177.636 431.4ZM185.983 436.96V426.96H184.743V436.96H185.983ZM185.363 423.28C184.843 423.28 184.423 423.7 184.423 424.22C184.423 424.76 184.843 425.18 185.363 425.18C185.883 425.18 186.323 424.76 186.323 424.22C186.323 423.7 185.883 423.28 185.363 423.28ZM196.923 436.96V431.28C196.943 430.26 196.683 429.16 195.943 428.26C195.563 427.82 195.063 427.44 194.503 427.2C193.923 426.96 193.303 426.88 192.703 426.88C192.123 426.9 191.503 427.02 190.963 427.28C190.423 427.54 189.963 427.92 189.643 428.36C189.523 428.52 189.423 428.7 189.343 428.86V426.96H188.123V436.96H189.343V431.5C189.343 431.42 189.343 431.36 189.343 431.28C189.383 430.82 189.463 430.38 189.623 429.96C189.783 429.54 190.023 429.16 190.343 428.86C190.943 428.22 191.823 427.96 192.703 428C193.603 428.02 194.423 428.34 194.943 428.96C195.203 429.26 195.403 429.64 195.523 430.02C195.643 430.42 195.703 430.84 195.703 431.28V436.96H196.923ZM208.204 426.96V429.32C208.024 429.04 207.824 428.76 207.564 428.52C207.104 428.04 206.524 427.66 205.884 427.38C205.244 427.1 204.524 426.96 203.804 426.94C203.084 426.94 202.364 427.06 201.704 427.32C201.044 427.58 200.444 427.96 199.944 428.44C198.944 429.38 198.384 430.68 198.404 431.96C198.384 433.26 198.944 434.56 199.944 435.5C200.444 435.98 201.044 436.36 201.704 436.62C202.364 436.88 203.084 437 203.804 437C204.524 436.98 205.244 436.84 205.884 436.56C206.524 436.28 207.104 435.9 207.564 435.42C207.824 435.18 208.024 434.9 208.204 434.62V436.04C208.204 437.58 207.644 439.52 204.964 439.98C202.924 440.3 200.724 439.44 199.744 437.9L198.684 438.46C199.744 440.14 201.864 441.16 204.044 441.16C204.424 441.16 204.804 441.12 205.184 441.06C207.884 440.62 209.444 438.78 209.444 436.04V426.96H208.204ZM207.864 433.52C207.624 434 207.284 434.44 206.864 434.8C206.044 435.52 204.904 435.9 203.804 435.88C202.704 435.88 201.604 435.44 200.844 434.72C200.064 434 199.604 432.98 199.604 431.96C199.604 430.94 200.064 429.94 200.844 429.22C201.604 428.5 202.704 428.06 203.804 428.06C204.904 428.04 206.044 428.4 206.864 429.14C207.284 429.5 207.624 429.94 207.864 430.42C208.084 430.9 208.204 431.44 208.204 431.96C208.204 432.5 208.084 433.04 207.864 433.52ZM221.744 429.18C221.524 429.1 221.304 429.04 221.124 428.98C221.024 428.94 220.884 428.88 220.744 428.84C219.144 428.28 217.584 427.62 217.704 426.16C217.844 424.38 219.924 423.9 221.004 423.9C222.864 423.9 224.124 424.6 224.724 425.98L225.864 425.56C225.064 423.74 223.384 422.78 221.004 422.78C219.544 422.78 216.704 423.48 216.484 426.08C216.284 428.5 219.004 429.44 220.324 429.88C220.444 429.92 220.564 429.96 220.664 430C220.864 430.08 221.084 430.14 221.344 430.22C223.304 430.86 225.084 431.6 225.124 433.42C225.144 434.1 224.904 434.7 224.364 435.16C223.624 435.82 222.424 436.18 221.144 436.12C219.484 436.04 217.484 435.22 216.884 433.14L215.704 433.42C216.344 435.62 218.444 437.1 221.084 437.22C221.184 437.22 221.304 437.24 221.424 437.24C222.924 437.24 224.304 436.78 225.224 435.96C225.984 435.28 226.384 434.38 226.344 433.4C226.264 430.64 223.324 429.7 221.744 429.18ZM231.061 435.34C230.581 435.02 230.401 434.5 230.401 433.3V428.08H233.701V426.96H230.401V423.86L229.181 424.52V426.98H226.461V428.08H229.181V433.3C229.181 434.62 229.381 435.62 230.341 436.24C230.921 436.6 231.661 436.72 232.481 436.72C232.881 436.72 233.281 436.7 233.701 436.66V435.54C232.741 435.64 231.621 435.7 231.061 435.34ZM239.734 426.88C239.154 426.9 238.534 427.02 237.994 427.28C237.454 427.54 236.994 427.92 236.674 428.36C236.554 428.52 236.454 428.7 236.374 428.86V426.96H235.154V436.96H236.374V431.5C236.374 431.42 236.374 431.36 236.374 431.28C236.414 430.82 236.494 430.38 236.654 429.96C236.814 429.54 237.054 429.16 237.374 428.86C237.974 428.22 238.854 427.96 239.734 428C240.234 428 240.714 428.12 241.114 428.32L241.394 427.16C240.854 426.96 240.294 426.88 239.734 426.88ZM251.253 426.96V429.3C251.053 429.02 250.853 428.74 250.593 428.48C250.113 428 249.533 427.6 248.893 427.34C248.233 427.06 247.513 426.9 246.793 426.9C246.073 426.9 245.333 427.02 244.673 427.28C243.993 427.54 243.393 427.92 242.893 428.4C241.873 429.34 241.313 430.66 241.333 431.96C241.313 433.28 241.873 434.58 242.893 435.54C243.393 436.02 243.993 436.4 244.653 436.66C245.333 436.92 246.053 437.04 246.793 437.04C247.513 437.04 248.233 436.88 248.893 436.6C249.533 436.34 250.113 435.92 250.593 435.46C250.853 435.2 251.053 434.92 251.253 434.62V436.96H252.473V426.96H251.253ZM250.893 433.54C250.653 434.02 250.313 434.48 249.893 434.84C249.053 435.56 247.913 435.94 246.793 435.94C245.673 435.92 244.573 435.48 243.793 434.74C242.993 434.02 242.553 433 242.533 431.96C242.533 430.94 242.993 429.92 243.793 429.18C244.573 428.46 245.653 428.02 246.793 428C247.913 427.98 249.053 428.36 249.893 429.1C250.313 429.46 250.653 429.9 250.893 430.4C251.133 430.9 251.253 431.42 251.253 431.96C251.253 432.5 251.133 433.04 250.893 433.54ZM258.307 435.34C257.827 435.02 257.647 434.5 257.647 433.3V428.08H260.947V426.96H257.647V423.86L256.427 424.52V426.98H253.707V428.08H256.427V433.3C256.427 434.62 256.627 435.62 257.587 436.24C258.167 436.6 258.907 436.72 259.727 436.72C260.127 436.72 260.527 436.7 260.947 436.66V435.54C259.987 435.64 258.867 435.7 258.307 435.34ZM272.233 432.52C272.253 432.34 272.273 432.16 272.273 431.96C272.273 429.18 269.833 426.9 266.813 426.9C263.793 426.9 261.353 429.18 261.353 431.96C261.353 434.76 263.973 437.04 267.233 437.04C269.193 437.04 270.993 436.2 272.073 434.84L270.953 434.36C270.073 435.34 268.713 435.94 267.233 435.94C264.873 435.94 262.933 434.44 262.613 432.52H272.233ZM262.613 431.42C262.913 429.5 264.673 428 266.813 428C268.953 428 270.713 429.5 271.013 431.42H262.613ZM283.204 426.96V429.32C283.024 429.04 282.824 428.76 282.564 428.52C282.104 428.04 281.524 427.66 280.884 427.38C280.244 427.1 279.524 426.96 278.804 426.94C278.084 426.94 277.364 427.06 276.704 427.32C276.044 427.58 275.444 427.96 274.944 428.44C273.944 429.38 273.384 430.68 273.404 431.96C273.384 433.26 273.944 434.56 274.944 435.5C275.444 435.98 276.044 436.36 276.704 436.62C277.364 436.88 278.084 437 278.804 437C279.524 436.98 280.244 436.84 280.884 436.56C281.524 436.28 282.104 435.9 282.564 435.42C282.824 435.18 283.024 434.9 283.204 434.62V436.04C283.204 437.58 282.644 439.52 279.964 439.98C277.924 440.3 275.724 439.44 274.744 437.9L273.684 438.46C274.744 440.14 276.864 441.16 279.044 441.16C279.424 441.16 279.804 441.12 280.184 441.06C282.884 440.62 284.444 438.78 284.444 436.04V426.96H283.204ZM282.864 433.52C282.624 434 282.284 434.44 281.864 434.8C281.044 435.52 279.904 435.9 278.804 435.88C277.704 435.88 276.604 435.44 275.844 434.72C275.064 434 274.604 432.98 274.604 431.96C274.604 430.94 275.064 429.94 275.844 429.22C276.604 428.5 277.704 428.06 278.804 428.06C279.904 428.04 281.044 428.4 281.864 429.14C282.284 429.5 282.624 429.94 282.864 430.42C283.084 430.9 283.204 431.44 283.204 431.96C283.204 432.5 283.084 433.04 282.864 433.52ZM294.58 426.98L290.7 435.42L286.98 426.98H285.66L290.12 436.68L288.14 440.98H289.46L295.9 427V426.98H294.58Z" fill="#1C1C1C" fill-opacity="0.4"/>
<circle cx="119" cy="430" r="14" stroke="#CCCCCC" stroke-opacity="0.4" stroke-width="2"/>
<ellipse cx="119.129" cy="430" rx="5.04274" ry="5" fill="#CCCCCC" fill-opacity="0.4"/>
<path d="M154.36 383.42C154.3 383.32 154.24 383.22 154.18 383.12C154.16 383.08 154.14 383.06 154.12 383.02C154.06 382.94 154.02 382.88 153.96 382.8C153.06 381.7 151.64 381.5 151.64 381.5C151.64 381.5 152.98 381.24 153.62 379.84C153.78 379.46 153.86 379.04 153.86 378.6C153.86 378.08 153.76 377.58 153.54 377.14C153.32 376.7 152.98 376.3 152.56 375.98C152.16 375.68 151.66 375.42 151.1 375.26C150.54 375.1 149.92 375.02 149.24 375.02H144.16V389H149.58C150.34 389 151.04 388.92 151.64 388.74C152.28 388.54 152.84 388.28 153.28 387.94C153.74 387.58 154.1 387.16 154.36 386.66C154.6 386.16 154.72 385.62 154.72 385.04C154.72 384.46 154.6 383.92 154.36 383.42ZM149.24 376.12C149.78 376.12 150.28 376.18 150.72 376.32C151.14 376.44 151.5 376.62 151.78 376.84C152.06 377.04 152.28 377.3 152.42 377.6C152.58 377.9 152.64 378.22 152.64 378.6C152.64 378.96 152.58 379.3 152.42 379.6C152.28 379.9 152.06 380.14 151.78 380.36C151.5 380.58 151.14 380.74 150.72 380.88C150.28 381 149.78 381.06 149.24 381.06H145.38V376.12H149.24ZM153.24 386.2C153.08 386.54 152.82 386.84 152.5 387.08C152.16 387.34 151.76 387.54 151.28 387.68C150.78 387.82 150.2 387.9 149.58 387.9H145.38V382.18H149.58C150.2 382.18 150.78 382.24 151.28 382.4C151.76 382.54 152.16 382.74 152.5 383C152.82 383.24 153.08 383.54 153.24 383.88C153.42 384.22 153.5 384.62 153.5 385.04C153.5 385.46 153.42 385.86 153.24 386.2ZM160.964 378.88C160.384 378.9 159.764 379.02 159.224 379.28C158.684 379.54 158.224 379.92 157.904 380.36C157.784 380.52 157.684 380.7 157.604 380.86V378.96H156.384V388.96H157.604V383.5C157.604 383.42 157.604 383.36 157.604 383.28C157.644 382.82 157.724 382.38 157.884 381.96C158.044 381.54 158.284 381.16 158.604 380.86C159.204 380.22 160.084 379.96 160.964 380C161.464 380 161.944 380.12 162.344 380.32L162.624 379.16C162.084 378.96 161.524 378.88 160.964 378.88ZM165.085 388.96V378.96H163.845V388.96H165.085ZM164.465 375.28C163.945 375.28 163.525 375.7 163.525 376.22C163.525 376.76 163.945 377.18 164.465 377.18C164.985 377.18 165.425 376.76 165.425 376.22C165.425 375.7 164.985 375.28 164.465 375.28ZM176.644 374.96V381.3C176.444 381.02 176.244 380.74 175.984 380.48C175.504 380 174.924 379.6 174.284 379.34C173.624 379.06 172.904 378.9 172.184 378.9C171.464 378.9 170.724 379.02 170.064 379.28C169.384 379.54 168.784 379.92 168.284 380.4C167.264 381.34 166.704 382.66 166.724 383.96C166.704 385.28 167.264 386.58 168.284 387.54C168.784 388.02 169.384 388.4 170.044 388.66C170.724 388.92 171.444 389.04 172.184 389.04C172.904 389.04 173.624 388.88 174.284 388.6C174.924 388.34 175.504 387.92 175.984 387.46C176.224 387.2 176.444 386.92 176.644 386.62V388.96H177.864V374.96H176.644ZM176.284 385.54C176.044 386.02 175.704 386.48 175.284 386.84C174.444 387.56 173.304 387.94 172.184 387.94C171.064 387.92 169.964 387.48 169.184 386.74C168.384 386.02 167.944 385 167.924 383.96C167.924 382.94 168.384 381.92 169.184 381.18C169.964 380.46 171.044 380.02 172.184 380C173.304 379.98 174.444 380.36 175.284 381.1C175.704 381.46 176.044 381.9 176.284 382.4C176.524 382.9 176.644 383.42 176.644 383.96C176.644 384.5 176.524 385.04 176.284 385.54ZM189.298 378.96V381.32C189.118 381.04 188.918 380.76 188.658 380.52C188.198 380.04 187.618 379.66 186.978 379.38C186.338 379.1 185.618 378.96 184.898 378.94C184.178 378.94 183.458 379.06 182.798 379.32C182.138 379.58 181.538 379.96 181.038 380.44C180.038 381.38 179.478 382.68 179.498 383.96C179.478 385.26 180.038 386.56 181.038 387.5C181.538 387.98 182.138 388.36 182.798 388.62C183.458 388.88 184.178 389 184.898 389C185.618 388.98 186.338 388.84 186.978 388.56C187.618 388.28 188.198 387.9 188.658 387.42C188.918 387.18 189.118 386.9 189.298 386.62V388.04C189.298 389.58 188.738 391.52 186.058 391.98C184.018 392.3 181.818 391.44 180.838 389.9L179.778 390.46C180.838 392.14 182.958 393.16 185.138 393.16C185.518 393.16 185.898 393.12 186.278 393.06C188.978 392.62 190.538 390.78 190.538 388.04V378.96H189.298ZM188.958 385.52C188.718 386 188.378 386.44 187.958 386.8C187.138 387.52 185.998 387.9 184.898 387.88C183.798 387.88 182.698 387.44 181.938 386.72C181.158 386 180.698 384.98 180.698 383.96C180.698 382.94 181.158 381.94 181.938 381.22C182.698 380.5 183.798 380.06 184.898 380.06C185.998 380.04 187.138 380.4 187.958 381.14C188.378 381.5 188.718 381.94 188.958 382.42C189.178 382.9 189.298 383.44 189.298 383.96C189.298 384.5 189.178 385.04 188.958 385.52ZM203.033 384.52C203.053 384.34 203.073 384.16 203.073 383.96C203.073 381.18 200.633 378.9 197.613 378.9C194.593 378.9 192.153 381.18 192.153 383.96C192.153 386.76 194.773 389.04 198.033 389.04C199.993 389.04 201.793 388.2 202.873 386.84L201.753 386.36C200.873 387.34 199.513 387.94 198.033 387.94C195.673 387.94 193.733 386.44 193.413 384.52H203.033ZM193.413 383.42C193.713 381.5 195.473 380 197.613 380C199.753 380 201.513 381.5 201.813 383.42H193.413ZM216.029 375.02H214.009L208.489 389H209.769L211.309 385.14H218.749L220.269 389H221.569L216.029 375.02ZM211.749 384.02L215.029 375.74L218.309 384.02H211.749ZM232.813 377.28C232.573 376.8 232.213 376.38 231.753 376.04C231.313 375.72 230.773 375.46 230.153 375.28C229.553 375.1 228.873 375 228.133 375H222.813V389.02H224.033V382.68H228.133C228.873 382.68 229.553 382.58 230.153 382.42C230.773 382.24 231.313 381.98 231.753 381.64C232.213 381.3 232.573 380.88 232.813 380.4C233.053 379.92 233.173 379.4 233.173 378.84C233.173 378.28 233.053 377.74 232.813 377.28ZM231.693 379.94C231.533 380.26 231.293 380.54 230.973 380.78C230.653 381.02 230.253 381.22 229.793 381.36C229.313 381.5 228.753 381.56 228.133 381.56H224.033V376.12H228.133C228.753 376.12 229.313 376.2 229.793 376.34C230.253 376.46 230.653 376.66 230.993 376.9C231.293 377.14 231.533 377.42 231.693 377.74C231.873 378.06 231.953 378.44 231.953 378.84C231.953 379.24 231.873 379.6 231.693 379.94ZM243.453 375.02L239.033 381.02L234.613 375.02H233.153L238.413 382.18V389H239.633V382.18L244.913 375.02H243.453ZM250.553 381.18C250.333 381.1 250.113 381.04 249.933 380.98C249.833 380.94 249.693 380.88 249.553 380.84C247.953 380.28 246.393 379.62 246.513 378.16C246.653 376.38 248.733 375.9 249.813 375.9C251.673 375.9 252.933 376.6 253.533 377.98L254.673 377.56C253.873 375.74 252.193 374.78 249.813 374.78C248.353 374.78 245.513 375.48 245.293 378.08C245.093 380.5 247.813 381.44 249.133 381.88C249.253 381.92 249.373 381.96 249.473 382C249.673 382.08 249.893 382.14 250.153 382.22C252.113 382.86 253.893 383.6 253.933 385.42C253.953 386.1 253.713 386.7 253.173 387.16C252.433 387.82 251.233 388.18 249.953 388.12C248.293 388.04 246.293 387.22 245.693 385.14L244.513 385.42C245.153 387.62 247.253 389.1 249.893 389.22C249.993 389.22 250.113 389.24 250.233 389.24C251.733 389.24 253.113 388.78 254.033 387.96C254.793 387.28 255.193 386.38 255.153 385.4C255.073 382.64 252.133 381.7 250.553 381.18ZM265.28 387.34C264.8 387.02 264.62 386.5 264.62 385.3V380.08H267.92V378.96H264.62V375.86L263.4 376.52V378.98H260.68V380.08H263.4V385.3C263.4 386.62 263.6 387.62 264.56 388.24C265.14 388.6 265.88 388.72 266.7 388.72C267.1 388.72 267.5 388.7 267.92 388.66V387.54C266.96 387.64 265.84 387.7 265.28 387.34ZM273.805 378.9C270.785 378.9 268.345 381.18 268.345 383.96C268.345 386.76 270.785 389.04 273.805 389.04C276.825 389.04 279.265 386.76 279.265 383.96C279.265 381.18 276.825 378.9 273.805 378.9ZM273.805 387.94C271.465 387.94 269.565 386.16 269.565 383.96C269.565 381.78 271.465 380 273.805 380C276.145 380 278.045 381.78 278.045 383.96C278.045 386.16 276.145 387.94 273.805 387.94ZM295.061 375.02V385.28C295.061 386.24 295.201 387.04 295.201 387.04C295.201 387.04 294.741 386.18 294.321 385.58L286.781 375.02H285.801V389H287.021V378.74C287.021 377.78 286.881 376.98 286.881 376.98C286.881 376.98 287.341 377.84 287.781 378.44L295.301 389H296.301V375.02H295.061ZM307.853 376.12V375H298.833V375.02H298.653V389H298.833V389.02H307.853V387.9H299.873V382.5H307.333V381.38H299.873V376.12H307.853ZM315.912 375.02H313.892L308.372 389H309.652L311.192 385.14H318.632L320.152 389H321.452L315.912 375.02ZM311.632 384.02L314.912 375.74L318.192 384.02H311.632ZM326.296 382.2C326.956 382.26 327.976 382.38 329.036 382.14C329.076 382.12 329.116 382.12 329.156 382.12C329.256 382.08 329.356 382.06 329.456 382.02C329.976 381.86 330.456 381.62 330.856 381.34C331.296 381.02 331.636 380.62 331.876 380.16C332.116 379.7 332.236 379.2 332.236 378.66C332.236 378.12 332.116 377.62 331.876 377.16C331.636 376.7 331.296 376.32 330.856 375.98C330.416 375.68 329.896 375.44 329.296 375.26C328.716 375.1 328.056 375 327.336 375H322.696V388.94H323.916V381.38L331.536 389H333.176L326.296 382.2ZM323.916 376.12H327.336C327.916 376.12 328.456 376.18 328.936 376.32C329.396 376.44 329.776 376.64 330.096 376.86C330.396 377.08 330.616 377.34 330.776 377.64C330.936 377.94 331.016 378.3 331.016 378.66C331.016 379.04 330.936 379.38 330.776 379.68C330.616 380 330.396 380.26 330.076 380.48C329.776 380.7 329.376 380.88 328.936 381.02C328.456 381.14 327.916 381.22 327.336 381.22H323.916V376.12Z" fill="#1C1C1C"/>
<circle cx="119" cy="382" r="14" stroke="#08AEEA" stroke-width="2" stroke-dasharray="4 4"/>
<line x1="119" y1="363.014" x2="120" y2="353.014" stroke="#08AEEA" stroke-width="2" stroke-dasharray="4 4"/>
<path d="M149.42 333.18C149.2 333.1 148.98 333.04 148.8 332.98C148.7 332.94 148.56 332.88 148.42 332.84C146.82 332.28 145.26 331.62 145.38 330.16C145.52 328.38 147.6 327.9 148.68 327.9C150.54 327.9 151.8 328.6 152.4 329.98L153.54 329.56C152.74 327.74 151.06 326.78 148.68 326.78C147.22 326.78 144.38 327.48 144.16 330.08C143.96 332.5 146.68 333.44 148 333.88C148.12 333.92 148.24 333.96 148.34 334C148.54 334.08 148.76 334.14 149.02 334.22C150.98 334.86 152.76 335.6 152.8 337.42C152.82 338.1 152.58 338.7 152.04 339.16C151.3 339.82 150.1 340.18 148.82 340.12C147.16 340.04 145.16 339.22 144.56 337.14L143.38 337.42C144.02 339.62 146.12 341.1 148.76 341.22C148.86 341.22 148.98 341.24 149.1 341.24C150.6 341.24 151.98 340.78 152.9 339.96C153.66 339.28 154.06 338.38 154.02 337.4C153.94 334.64 151 333.7 149.42 333.18ZM169.642 340.96V335.46V334.76C169.642 334.52 169.642 334.26 169.602 334C169.542 333.5 169.382 332.98 169.102 332.5C168.822 332 168.382 331.58 167.842 331.28C167.562 331.14 167.262 331.04 166.962 330.96C166.662 330.9 166.362 330.88 166.062 330.88C165.762 330.9 165.462 330.94 165.162 331.02C164.882 331.1 164.602 331.22 164.342 331.38C163.842 331.7 163.482 332.14 163.262 332.6C163.162 332.82 163.082 333.02 163.042 333.24C162.942 332.98 162.842 332.74 162.702 332.5C162.422 332 161.982 331.58 161.442 331.28C161.162 331.14 160.882 331.04 160.562 330.96C160.262 330.9 159.962 330.88 159.662 330.88C159.362 330.9 159.062 330.94 158.782 331.02C158.482 331.1 158.202 331.22 157.962 331.38C157.462 331.7 157.082 332.14 156.862 332.6C156.862 332.62 156.862 332.62 156.862 332.62V330.98H155.642V340.96H156.862V335.28L156.882 334.76C156.882 334.54 156.922 334.32 156.962 334.1C157.062 333.68 157.242 333.28 157.502 332.94C157.762 332.6 158.102 332.34 158.482 332.18C158.842 332.04 159.242 331.98 159.662 332C160.502 332.02 161.182 332.4 161.582 333.04C161.802 333.38 161.922 333.76 161.982 334.14C162.022 334.36 162.042 334.56 162.042 334.76V335.46V340.96H163.262V335.46V335.2V334.76C163.282 334.54 163.302 334.32 163.362 334.1C163.462 333.68 163.642 333.26 163.902 332.94C164.162 332.6 164.502 332.34 164.862 332.18C165.242 332.04 165.642 331.98 166.062 332C166.882 332.02 167.582 332.4 167.982 333.04C168.182 333.38 168.322 333.76 168.382 334.14C168.422 334.34 168.422 334.56 168.422 334.76V335.46V340.96H169.642ZM181.058 330.96V333.3C180.858 333.02 180.658 332.74 180.398 332.48C179.918 332 179.338 331.6 178.698 331.34C178.038 331.06 177.318 330.9 176.598 330.9C175.878 330.9 175.138 331.02 174.478 331.28C173.798 331.54 173.198 331.92 172.698 332.4C171.678 333.34 171.118 334.66 171.138 335.96C171.118 337.28 171.678 338.58 172.698 339.54C173.198 340.02 173.798 340.4 174.458 340.66C175.138 340.92 175.858 341.04 176.598 341.04C177.318 341.04 178.038 340.88 178.698 340.6C179.338 340.34 179.918 339.92 180.398 339.46C180.658 339.2 180.858 338.92 181.058 338.62V340.96H182.278V330.96H181.058ZM180.698 337.54C180.458 338.02 180.118 338.48 179.698 338.84C178.858 339.56 177.718 339.94 176.598 339.94C175.478 339.92 174.378 339.48 173.598 338.74C172.798 338.02 172.358 337 172.338 335.96C172.338 334.94 172.798 333.92 173.598 333.18C174.378 332.46 175.458 332.02 176.598 332C177.718 331.98 178.858 332.36 179.698 333.1C180.118 333.46 180.458 333.9 180.698 334.4C180.938 334.9 181.058 335.42 181.058 335.96C181.058 336.5 180.938 337.04 180.698 337.54ZM188.992 330.88C188.412 330.9 187.792 331.02 187.252 331.28C186.712 331.54 186.252 331.92 185.932 332.36C185.812 332.52 185.712 332.7 185.632 332.86V330.96H184.412V340.96H185.632V335.5C185.632 335.42 185.632 335.36 185.632 335.28C185.672 334.82 185.752 334.38 185.912 333.96C186.072 333.54 186.312 333.16 186.632 332.86C187.232 332.22 188.112 331.96 188.992 332C189.492 332 189.972 332.12 190.372 332.32L190.652 331.16C190.112 330.96 189.552 330.88 188.992 330.88ZM195.592 339.34C195.112 339.02 194.932 338.5 194.932 337.3V332.08H198.232V330.96H194.932V327.86L193.712 328.52V330.98H190.992V332.08H193.712V337.3C193.712 338.62 193.912 339.62 194.872 340.24C195.452 340.6 196.192 340.72 197.012 340.72C197.412 340.72 197.812 340.7 198.232 340.66V339.54C197.272 339.64 196.152 339.7 195.592 339.34ZM213.81 328.12V327H204.79V327.02H204.61V341H205.83V334.5H213.29V333.38H205.83V328.12H213.81ZM225.397 336.52C225.417 336.34 225.437 336.16 225.437 335.96C225.437 333.18 222.997 330.9 219.977 330.9C216.957 330.9 214.517 333.18 214.517 335.96C214.517 338.76 217.137 341.04 220.397 341.04C222.357 341.04 224.157 340.2 225.237 338.84L224.117 338.36C223.237 339.34 221.877 339.94 220.397 339.94C218.037 339.94 216.097 338.44 215.777 336.52H225.397ZM215.777 335.42C216.077 333.5 217.837 332 219.977 332C222.117 332 223.877 333.5 224.177 335.42H215.777ZM237.428 336.52C237.448 336.34 237.468 336.16 237.468 335.96C237.468 333.18 235.028 330.9 232.008 330.9C228.988 330.9 226.548 333.18 226.548 335.96C226.548 338.76 229.168 341.04 232.428 341.04C234.388 341.04 236.188 340.2 237.268 338.84L236.148 338.36C235.268 339.34 233.908 339.94 232.428 339.94C230.068 339.94 228.128 338.44 227.808 336.52H237.428ZM227.808 335.42C228.108 333.5 229.868 332 232.008 332C234.148 332 235.908 333.5 236.208 335.42H227.808ZM256.664 327.02H255.684L250.824 336.98L245.964 327.02H244.984L243.484 341H244.704L245.784 331.06C245.884 330.1 245.884 329.74 245.824 329.22C245.824 329.22 246.184 330.2 246.564 330.98L250.824 339.72L255.084 330.98C255.464 330.2 255.824 329.22 255.824 329.22C255.764 329.74 255.764 330.1 255.864 331.06L256.944 341.02H258.164L256.664 327.02ZM269.3 330.96V333.3C269.1 333.02 268.9 332.74 268.64 332.48C268.16 332 267.58 331.6 266.94 331.34C266.28 331.06 265.56 330.9 264.84 330.9C264.12 330.9 263.38 331.02 262.72 331.28C262.04 331.54 261.44 331.92 260.94 332.4C259.92 333.34 259.36 334.66 259.38 335.96C259.36 337.28 259.92 338.58 260.94 339.54C261.44 340.02 262.04 340.4 262.7 340.66C263.38 340.92 264.1 341.04 264.84 341.04C265.56 341.04 266.28 340.88 266.94 340.6C267.58 340.34 268.16 339.92 268.64 339.46C268.9 339.2 269.1 338.92 269.3 338.62V340.96H270.52V330.96H269.3ZM268.94 337.54C268.7 338.02 268.36 338.48 267.94 338.84C267.1 339.56 265.96 339.94 264.84 339.94C263.72 339.92 262.62 339.48 261.84 338.74C261.04 338.02 260.6 337 260.58 335.96C260.58 334.94 261.04 333.92 261.84 333.18C262.62 332.46 263.7 332.02 264.84 332C265.96 331.98 267.1 332.36 267.94 333.1C268.36 333.46 268.7 333.9 268.94 334.4C269.18 334.9 269.3 335.42 269.3 335.96C269.3 336.5 269.18 337.04 268.94 337.54ZM281.454 340.96V335.28C281.474 334.26 281.214 333.16 280.474 332.26C280.094 331.82 279.594 331.44 279.034 331.2C278.454 330.96 277.834 330.88 277.234 330.88C276.654 330.9 276.034 331.02 275.494 331.28C274.954 331.54 274.494 331.92 274.174 332.36C274.054 332.52 273.954 332.7 273.874 332.86V330.96H272.654V340.96H273.874V335.5C273.874 335.42 273.874 335.36 273.874 335.28C273.914 334.82 273.994 334.38 274.154 333.96C274.314 333.54 274.554 333.16 274.874 332.86C275.474 332.22 276.354 331.96 277.234 332C278.134 332.02 278.954 332.34 279.474 332.96C279.734 333.26 279.934 333.64 280.054 334.02C280.174 334.42 280.234 334.84 280.234 335.28V340.96H281.454ZM292.855 330.96V333.3C292.655 333.02 292.455 332.74 292.195 332.48C291.715 332 291.135 331.6 290.495 331.34C289.835 331.06 289.115 330.9 288.395 330.9C287.675 330.9 286.935 331.02 286.275 331.28C285.595 331.54 284.995 331.92 284.495 332.4C283.475 333.34 282.915 334.66 282.935 335.96C282.915 337.28 283.475 338.58 284.495 339.54C284.995 340.02 285.595 340.4 286.255 340.66C286.935 340.92 287.655 341.04 288.395 341.04C289.115 341.04 289.835 340.88 290.495 340.6C291.135 340.34 291.715 339.92 292.195 339.46C292.455 339.2 292.655 338.92 292.855 338.62V340.96H294.075V330.96H292.855ZM292.495 337.54C292.255 338.02 291.915 338.48 291.495 338.84C290.655 339.56 289.515 339.94 288.395 339.94C287.275 339.92 286.175 339.48 285.395 338.74C284.595 338.02 284.155 337 284.135 335.96C284.135 334.94 284.595 333.92 285.395 333.18C286.175 332.46 287.255 332.02 288.395 332C289.515 331.98 290.655 332.36 291.495 333.1C291.915 333.46 292.255 333.9 292.495 334.4C292.735 334.9 292.855 335.42 292.855 335.96C292.855 336.5 292.735 337.04 292.495 337.54ZM305.508 330.96V333.32C305.328 333.04 305.128 332.76 304.868 332.52C304.408 332.04 303.828 331.66 303.188 331.38C302.548 331.1 301.828 330.96 301.108 330.94C300.388 330.94 299.668 331.06 299.008 331.32C298.348 331.58 297.748 331.96 297.248 332.44C296.248 333.38 295.688 334.68 295.708 335.96C295.688 337.26 296.248 338.56 297.248 339.5C297.748 339.98 298.348 340.36 299.008 340.62C299.668 340.88 300.388 341 301.108 341C301.828 340.98 302.548 340.84 303.188 340.56C303.828 340.28 304.408 339.9 304.868 339.42C305.128 339.18 305.328 338.9 305.508 338.62V340.04C305.508 341.58 304.948 343.52 302.268 343.98C300.228 344.3 298.028 343.44 297.048 341.9L295.988 342.46C297.048 344.14 299.168 345.16 301.348 345.16C301.728 345.16 302.108 345.12 302.488 345.06C305.188 344.62 306.748 342.78 306.748 340.04V330.96H305.508ZM305.168 337.52C304.928 338 304.588 338.44 304.168 338.8C303.348 339.52 302.208 339.9 301.108 339.88C300.008 339.88 298.908 339.44 298.148 338.72C297.368 338 296.908 336.98 296.908 335.96C296.908 334.94 297.368 333.94 298.148 333.22C298.908 332.5 300.008 332.06 301.108 332.06C302.208 332.04 303.348 332.4 304.168 333.14C304.588 333.5 304.928 333.94 305.168 334.42C305.388 334.9 305.508 335.44 305.508 335.96C305.508 336.5 305.388 337.04 305.168 337.52ZM322.884 340.96V335.46V334.76C322.884 334.52 322.884 334.26 322.844 334C322.784 333.5 322.624 332.98 322.344 332.5C322.064 332 321.624 331.58 321.084 331.28C320.804 331.14 320.504 331.04 320.204 330.96C319.904 330.9 319.604 330.88 319.304 330.88C319.004 330.9 318.704 330.94 318.404 331.02C318.124 331.1 317.844 331.22 317.584 331.38C317.084 331.7 316.724 332.14 316.504 332.6C316.404 332.82 316.324 333.02 316.284 333.24C316.184 332.98 316.084 332.74 315.944 332.5C315.664 332 315.224 331.58 314.684 331.28C314.404 331.14 314.124 331.04 313.804 330.96C313.504 330.9 313.204 330.88 312.904 330.88C312.604 330.9 312.304 330.94 312.024 331.02C311.724 331.1 311.444 331.22 311.204 331.38C310.704 331.7 310.324 332.14 310.104 332.6C310.104 332.62 310.104 332.62 310.104 332.62V330.98H308.884V340.96H310.104V335.28L310.124 334.76C310.124 334.54 310.164 334.32 310.204 334.1C310.304 333.68 310.484 333.28 310.744 332.94C311.004 332.6 311.344 332.34 311.724 332.18C312.084 332.04 312.484 331.98 312.904 332C313.744 332.02 314.424 332.4 314.824 333.04C315.044 333.38 315.164 333.76 315.224 334.14C315.264 334.36 315.284 334.56 315.284 334.76V335.46V340.96H316.504V335.46V335.2V334.76C316.524 334.54 316.544 334.32 316.604 334.1C316.704 333.68 316.884 333.26 317.144 332.94C317.404 332.6 317.744 332.34 318.104 332.18C318.484 332.04 318.884 331.98 319.304 332C320.124 332.02 320.824 332.4 321.224 333.04C321.424 333.38 321.564 333.76 321.624 334.14C321.664 334.34 321.664 334.56 321.664 334.76V335.46V340.96H322.884ZM335.24 336.52C335.26 336.34 335.28 336.16 335.28 335.96C335.28 333.18 332.84 330.9 329.82 330.9C326.8 330.9 324.36 333.18 324.36 335.96C324.36 338.76 326.98 341.04 330.24 341.04C332.2 341.04 334 340.2 335.08 338.84L333.96 338.36C333.08 339.34 331.72 339.94 330.24 339.94C327.88 339.94 325.94 338.44 325.62 336.52H335.24ZM325.62 335.42C325.92 333.5 327.68 332 329.82 332C331.96 332 333.72 333.5 334.02 335.42H325.62ZM345.712 340.96V335.28C345.732 334.26 345.472 333.16 344.732 332.26C344.352 331.82 343.852 331.44 343.292 331.2C342.712 330.96 342.092 330.88 341.492 330.88C340.912 330.9 340.292 331.02 339.752 331.28C339.212 331.54 338.752 331.92 338.432 332.36C338.312 332.52 338.212 332.7 338.132 332.86V330.96H336.912V340.96H338.132V335.5C338.132 335.42 338.132 335.36 338.132 335.28C338.172 334.82 338.252 334.38 338.412 333.96C338.572 333.54 338.812 333.16 339.132 332.86C339.732 332.22 340.612 331.96 341.492 332C342.392 332.02 343.212 332.34 343.732 332.96C343.992 333.26 344.192 333.64 344.312 334.02C344.432 334.42 344.492 334.84 344.492 335.28V340.96H345.712ZM350.807 339.34C350.327 339.02 350.147 338.5 350.147 337.3V332.08H353.447V330.96H350.147V327.86L348.927 328.52V330.98H346.207V332.08H348.927V337.3C348.927 338.62 349.127 339.62 350.087 340.24C350.667 340.6 351.407 340.72 352.227 340.72C352.627 340.72 353.027 340.7 353.447 340.66V339.54C352.487 339.64 351.367 339.7 350.807 339.34Z" fill="#1C1C1C"/>
<circle cx="119" cy="334" r="14" stroke="#08AEEA" stroke-width="2" stroke-dasharray="4 4"/>
<path d="M119 315V305" stroke="#08AEEA" stroke-width="2" stroke-dasharray="5 5"/>
<path d="M150.58 279.02H148.56L143.04 293H144.32L145.86 289.14H153.3L154.82 293H156.12L150.58 279.02ZM146.3 288.02L149.58 279.74L152.86 288.02H146.3ZM164.448 282.96V288.44C164.448 288.52 164.448 288.58 164.448 288.66C164.408 289.12 164.328 289.56 164.168 289.98C164.008 290.4 163.768 290.78 163.448 291.08C162.848 291.72 161.968 291.98 161.068 291.94C160.188 291.92 159.368 291.58 158.848 290.98C158.588 290.68 158.388 290.3 158.268 289.9C158.128 289.52 158.088 289.08 158.068 288.66L158.088 282.96H156.868V288.66C156.848 289.68 157.108 290.78 157.848 291.68C158.228 292.12 158.728 292.5 159.288 292.74C159.848 292.96 160.488 293.06 161.068 293.04C161.668 293.04 162.288 292.92 162.828 292.66C163.368 292.4 163.828 292.02 164.148 291.58C164.268 291.4 164.368 291.24 164.448 291.08V292.96H165.668V282.96H164.448ZM171.51 291.34C171.03 291.02 170.85 290.5 170.85 289.3V284.08H174.15V282.96H170.85V279.86L169.63 280.52V282.98H166.91V284.08H169.63V289.3C169.63 290.62 169.83 291.62 170.79 292.24C171.37 292.6 172.11 292.72 172.93 292.72C173.33 292.72 173.73 292.7 174.15 292.66V291.54C173.19 291.64 172.07 291.7 171.51 291.34ZM180.036 282.9C177.016 282.9 174.576 285.18 174.576 287.96C174.576 290.76 177.016 293.04 180.036 293.04C183.056 293.04 185.496 290.76 185.496 287.96C185.496 285.18 183.056 282.9 180.036 282.9ZM180.036 291.94C177.696 291.94 175.796 290.16 175.796 287.96C175.796 285.78 177.696 284 180.036 284C182.376 284 184.276 285.78 184.276 287.96C184.276 290.16 182.376 291.94 180.036 291.94ZM194.626 287.46V286.34H186.386V287.46H194.626ZM205.353 280.12V279H196.333V279.02H196.153V293H197.373V286.5H204.833V285.38H197.373V280.12H205.353ZM216 282.96V285.3C215.8 285.02 215.6 284.74 215.34 284.48C214.86 284 214.28 283.6 213.64 283.34C212.98 283.06 212.26 282.9 211.54 282.9C210.82 282.9 210.08 283.02 209.42 283.28C208.74 283.54 208.14 283.92 207.64 284.4C206.62 285.34 206.06 286.66 206.08 287.96C206.06 289.28 206.62 290.58 207.64 291.54C208.14 292.02 208.74 292.4 209.4 292.66C210.08 292.92 210.8 293.04 211.54 293.04C212.26 293.04 212.98 292.88 213.64 292.6C214.28 292.34 214.86 291.92 215.34 291.46C215.6 291.2 215.8 290.92 216 290.62V292.96H217.22V282.96H216ZM215.64 289.54C215.4 290.02 215.06 290.48 214.64 290.84C213.8 291.56 212.66 291.94 211.54 291.94C210.42 291.92 209.32 291.48 208.54 290.74C207.74 290.02 207.3 289 207.28 287.96C207.28 286.94 207.74 285.92 208.54 285.18C209.32 284.46 210.4 284.02 211.54 284C212.66 283.98 213.8 284.36 214.64 285.1C215.06 285.46 215.4 285.9 215.64 286.4C215.88 286.9 216 287.42 216 287.96C216 288.5 215.88 289.04 215.64 289.54ZM223.933 282.88C223.353 282.9 222.733 283.02 222.193 283.28C221.653 283.54 221.193 283.92 220.873 284.36C220.753 284.52 220.653 284.7 220.573 284.86V282.96H219.353V292.96H220.573V287.5C220.573 287.42 220.573 287.36 220.573 287.28C220.613 286.82 220.693 286.38 220.853 285.96C221.013 285.54 221.253 285.16 221.573 284.86C222.173 284.22 223.053 283.96 223.933 284C224.433 284 224.913 284.12 225.313 284.32L225.593 283.16C225.053 282.96 224.493 282.88 223.933 282.88ZM240.833 292.96V287.46V286.76C240.833 286.52 240.833 286.26 240.793 286C240.733 285.5 240.573 284.98 240.293 284.5C240.013 284 239.573 283.58 239.033 283.28C238.753 283.14 238.453 283.04 238.153 282.96C237.853 282.9 237.553 282.88 237.253 282.88C236.953 282.9 236.653 282.94 236.353 283.02C236.073 283.1 235.793 283.22 235.533 283.38C235.033 283.7 234.673 284.14 234.453 284.6C234.353 284.82 234.273 285.02 234.233 285.24C234.133 284.98 234.033 284.74 233.893 284.5C233.613 284 233.173 283.58 232.633 283.28C232.353 283.14 232.073 283.04 231.753 282.96C231.453 282.9 231.153 282.88 230.853 282.88C230.553 282.9 230.253 282.94 229.973 283.02C229.673 283.1 229.393 283.22 229.153 283.38C228.653 283.7 228.273 284.14 228.053 284.6C228.053 284.62 228.053 284.62 228.053 284.62V282.98H226.833V292.96H228.053V287.28L228.073 286.76C228.073 286.54 228.113 286.32 228.153 286.1C228.253 285.68 228.433 285.28 228.693 284.94C228.953 284.6 229.293 284.34 229.673 284.18C230.033 284.04 230.433 283.98 230.853 284C231.693 284.02 232.373 284.4 232.773 285.04C232.993 285.38 233.113 285.76 233.173 286.14C233.213 286.36 233.233 286.56 233.233 286.76V287.46V292.96H234.453V287.46V287.2V286.76C234.473 286.54 234.493 286.32 234.553 286.1C234.653 285.68 234.833 285.26 235.093 284.94C235.353 284.6 235.693 284.34 236.053 284.18C236.433 284.04 236.833 283.98 237.253 284C238.073 284.02 238.773 284.4 239.173 285.04C239.373 285.38 239.513 285.76 239.573 286.14C239.613 286.34 239.613 286.56 239.613 286.76V287.46V292.96H240.833ZM243.913 292.96V282.96H242.673V292.96H243.913ZM243.293 279.28C242.773 279.28 242.353 279.7 242.353 280.22C242.353 280.76 242.773 281.18 243.293 281.18C243.813 281.18 244.253 280.76 244.253 280.22C244.253 279.7 243.813 279.28 243.293 279.28ZM254.852 292.96V287.28C254.872 286.26 254.612 285.16 253.872 284.26C253.492 283.82 252.992 283.44 252.432 283.2C251.852 282.96 251.232 282.88 250.632 282.88C250.052 282.9 249.432 283.02 248.892 283.28C248.352 283.54 247.892 283.92 247.572 284.36C247.452 284.52 247.352 284.7 247.272 284.86V282.96H246.052V292.96H247.272V287.5C247.272 287.42 247.272 287.36 247.272 287.28C247.312 286.82 247.392 286.38 247.552 285.96C247.712 285.54 247.952 285.16 248.272 284.86C248.872 284.22 249.752 283.96 250.632 284C251.532 284.02 252.352 284.34 252.872 284.96C253.132 285.26 253.332 285.64 253.452 286.02C253.572 286.42 253.632 286.84 253.632 287.28V292.96H254.852ZM266.133 282.96V285.32C265.953 285.04 265.753 284.76 265.493 284.52C265.033 284.04 264.453 283.66 263.813 283.38C263.173 283.1 262.453 282.96 261.733 282.94C261.013 282.94 260.293 283.06 259.633 283.32C258.973 283.58 258.373 283.96 257.873 284.44C256.873 285.38 256.313 286.68 256.333 287.96C256.313 289.26 256.873 290.56 257.873 291.5C258.373 291.98 258.973 292.36 259.633 292.62C260.293 292.88 261.013 293 261.733 293C262.453 292.98 263.173 292.84 263.813 292.56C264.453 292.28 265.033 291.9 265.493 291.42C265.753 291.18 265.953 290.9 266.133 290.62V292.04C266.133 293.58 265.573 295.52 262.893 295.98C260.853 296.3 258.653 295.44 257.673 293.9L256.613 294.46C257.673 296.14 259.793 297.16 261.973 297.16C262.353 297.16 262.733 297.12 263.113 297.06C265.813 296.62 267.373 294.78 267.373 292.04V282.96H266.133ZM265.793 289.52C265.553 290 265.213 290.44 264.793 290.8C263.973 291.52 262.833 291.9 261.733 291.88C260.633 291.88 259.533 291.44 258.773 290.72C257.993 290 257.533 288.98 257.533 287.96C257.533 286.94 257.993 285.94 258.773 285.22C259.533 284.5 260.633 284.06 261.733 284.06C262.833 284.04 263.973 284.4 264.793 285.14C265.213 285.5 265.553 285.94 265.793 286.42C266.013 286.9 266.133 287.44 266.133 287.96C266.133 288.5 266.013 289.04 265.793 289.52Z" fill="#1C1C1C"/>
<circle cx="119" cy="286" r="14" stroke="#08AEEA" stroke-width="2" stroke-dasharray="4 4"/>
<rect x="118" y="253" width="2" height="18" fill="url(#paint0_linear_1431_5145)"/>
<path d="M154.36 191.42C154.3 191.32 154.24 191.22 154.18 191.12C154.16 191.08 154.14 191.06 154.12 191.02C154.06 190.94 154.02 190.88 153.96 190.8C153.06 189.7 151.64 189.5 151.64 189.5C151.64 189.5 152.98 189.24 153.62 187.84C153.78 187.46 153.86 187.04 153.86 186.6C153.86 186.08 153.76 185.58 153.54 185.14C153.32 184.7 152.98 184.3 152.56 183.98C152.16 183.68 151.66 183.42 151.1 183.26C150.54 183.1 149.92 183.02 149.24 183.02H144.16V197H149.58C150.34 197 151.04 196.92 151.64 196.74C152.28 196.54 152.84 196.28 153.28 195.94C153.74 195.58 154.1 195.16 154.36 194.66C154.6 194.16 154.72 193.62 154.72 193.04C154.72 192.46 154.6 191.92 154.36 191.42ZM149.24 184.12C149.78 184.12 150.28 184.18 150.72 184.32C151.14 184.44 151.5 184.62 151.78 184.84C152.06 185.04 152.28 185.3 152.42 185.6C152.58 185.9 152.64 186.22 152.64 186.6C152.64 186.96 152.58 187.3 152.42 187.6C152.28 187.9 152.06 188.14 151.78 188.36C151.5 188.58 151.14 188.74 150.72 188.88C150.28 189 149.78 189.06 149.24 189.06H145.38V184.12H149.24ZM153.24 194.2C153.08 194.54 152.82 194.84 152.5 195.08C152.16 195.34 151.76 195.54 151.28 195.68C150.78 195.82 150.2 195.9 149.58 195.9H145.38V190.18H149.58C150.2 190.18 150.78 190.24 151.28 190.4C151.76 190.54 152.16 190.74 152.5 191C152.82 191.24 153.08 191.54 153.24 191.88C153.42 192.22 153.5 192.62 153.5 193.04C153.5 193.46 153.42 193.86 153.24 194.2ZM161.344 186.9C158.324 186.9 155.884 189.18 155.884 191.96C155.884 194.76 158.324 197.04 161.344 197.04C164.364 197.04 166.804 194.76 166.804 191.96C166.804 189.18 164.364 186.9 161.344 186.9ZM161.344 195.94C159.004 195.94 157.104 194.16 157.104 191.96C157.104 189.78 159.004 188 161.344 188C163.684 188 165.584 189.78 165.584 191.96C165.584 194.16 163.684 195.94 161.344 195.94ZM177.235 196.96V191.28C177.255 190.26 176.995 189.16 176.255 188.26C175.875 187.82 175.375 187.44 174.815 187.2C174.235 186.96 173.615 186.88 173.015 186.88C172.435 186.9 171.815 187.02 171.275 187.28C170.735 187.54 170.275 187.92 169.955 188.36C169.835 188.52 169.735 188.7 169.655 188.86V186.96H168.435V196.96H169.655V191.5C169.655 191.42 169.655 191.36 169.655 191.28C169.695 190.82 169.775 190.38 169.935 189.96C170.095 189.54 170.335 189.16 170.655 188.86C171.255 188.22 172.135 187.96 173.015 188C173.915 188.02 174.735 188.34 175.255 188.96C175.515 189.26 175.715 189.64 175.835 190.02C175.955 190.42 176.015 190.84 176.015 191.28V196.96H177.235ZM186.616 186.96V192.44C186.616 192.52 186.616 192.58 186.616 192.66C186.576 193.12 186.496 193.56 186.336 193.98C186.176 194.4 185.936 194.78 185.616 195.08C185.016 195.72 184.136 195.98 183.236 195.94C182.356 195.92 181.536 195.58 181.016 194.98C180.756 194.68 180.556 194.3 180.436 193.9C180.296 193.52 180.256 193.08 180.236 192.66L180.256 186.96H179.036V192.66C179.016 193.68 179.276 194.78 180.016 195.68C180.396 196.12 180.896 196.5 181.456 196.74C182.016 196.96 182.656 197.06 183.236 197.04C183.836 197.04 184.456 196.92 184.996 196.66C185.536 196.4 185.996 196.02 186.316 195.58C186.436 195.4 186.536 195.24 186.616 195.08V196.96H187.836V186.96H186.616ZM193.838 191.24C193.678 191.18 193.518 191.14 193.398 191.1C193.318 191.08 193.238 191.04 193.138 191C192.078 190.66 191.058 190.24 191.138 189.38C191.238 188.02 193.238 188 193.258 188C194.478 188 195.298 188.44 195.678 189.3L196.818 188.88C196.238 187.6 194.978 186.9 193.258 186.9C191.738 186.9 190.058 187.64 189.918 189.3C189.778 191.06 191.758 191.72 192.718 192.04C192.798 192.08 192.878 192.1 192.958 192.14C193.098 192.18 193.258 192.24 193.438 192.28C194.738 192.7 195.918 193.16 195.958 194.28C195.958 194.68 195.818 195.04 195.498 195.3C195.018 195.74 194.218 195.96 193.358 195.92C192.258 195.88 190.938 195.36 190.538 194.04L189.378 194.34C189.838 195.9 191.378 196.96 193.298 197.04C193.378 197.04 193.458 197.04 193.538 197.04C194.658 197.04 195.678 196.7 196.358 196.1C196.918 195.6 197.198 194.96 197.178 194.26C197.118 192.26 194.978 191.6 193.838 191.24ZM207.35 190.2C208.01 190.26 209.03 190.38 210.09 190.14C210.13 190.12 210.17 190.12 210.21 190.12C210.31 190.08 210.41 190.06 210.51 190.02C211.03 189.86 211.51 189.62 211.91 189.34C212.35 189.02 212.69 188.62 212.93 188.16C213.17 187.7 213.29 187.2 213.29 186.66C213.29 186.12 213.17 185.62 212.93 185.16C212.69 184.7 212.35 184.32 211.91 183.98C211.47 183.68 210.95 183.44 210.35 183.26C209.77 183.1 209.11 183 208.39 183H203.75V196.94H204.97V189.38L212.59 197H214.23L207.35 190.2ZM204.97 184.12H208.39C208.97 184.12 209.51 184.18 209.99 184.32C210.45 184.44 210.83 184.64 211.15 184.86C211.45 185.08 211.67 185.34 211.83 185.64C211.99 185.94 212.07 186.3 212.07 186.66C212.07 187.04 211.99 187.38 211.83 187.68C211.67 188 211.45 188.26 211.13 188.48C210.83 188.7 210.43 188.88 209.99 189.02C209.51 189.14 208.97 189.22 208.39 189.22H204.97V184.12ZM224.947 192.52C224.967 192.34 224.987 192.16 224.987 191.96C224.987 189.18 222.547 186.9 219.527 186.9C216.507 186.9 214.067 189.18 214.067 191.96C214.067 194.76 216.687 197.04 219.947 197.04C221.907 197.04 223.707 196.2 224.787 194.84L223.667 194.36C222.787 195.34 221.427 195.94 219.947 195.94C217.587 195.94 215.647 194.44 215.327 192.52H224.947ZM215.327 191.42C215.627 189.5 217.387 188 219.527 188C221.667 188 223.427 189.5 223.727 191.42H215.327ZM238.852 186.98L235.072 195.22L233.312 191.44L235.372 186.98H234.052L232.652 190.24L231.272 186.98H229.952L231.992 191.44L230.252 195.22L226.472 186.98H225.152L229.732 196.98H230.772L232.652 192.62L234.552 196.98H235.592L240.172 186.98H238.852ZM250.257 186.96V189.3C250.057 189.02 249.857 188.74 249.597 188.48C249.117 188 248.537 187.6 247.897 187.34C247.237 187.06 246.517 186.9 245.797 186.9C245.077 186.9 244.337 187.02 243.677 187.28C242.997 187.54 242.397 187.92 241.897 188.4C240.877 189.34 240.317 190.66 240.337 191.96C240.317 193.28 240.877 194.58 241.897 195.54C242.397 196.02 242.997 196.4 243.657 196.66C244.337 196.92 245.057 197.04 245.797 197.04C246.517 197.04 247.237 196.88 247.897 196.6C248.537 196.34 249.117 195.92 249.597 195.46C249.857 195.2 250.057 194.92 250.257 194.62V196.96H251.477V186.96H250.257ZM249.897 193.54C249.657 194.02 249.317 194.48 248.897 194.84C248.057 195.56 246.917 195.94 245.797 195.94C244.677 195.92 243.577 195.48 242.797 194.74C241.997 194.02 241.557 193 241.537 191.96C241.537 190.94 241.997 189.92 242.797 189.18C243.577 188.46 244.657 188.02 245.797 188C246.917 187.98 248.057 188.36 248.897 189.1C249.317 189.46 249.657 189.9 249.897 190.4C250.137 190.9 250.257 191.42 250.257 191.96C250.257 192.5 250.137 193.04 249.897 193.54ZM258.191 186.88C257.611 186.9 256.991 187.02 256.451 187.28C255.911 187.54 255.451 187.92 255.131 188.36C255.011 188.52 254.911 188.7 254.831 188.86V186.96H253.611V196.96H254.831V191.5C254.831 191.42 254.831 191.36 254.831 191.28C254.871 190.82 254.951 190.38 255.111 189.96C255.271 189.54 255.511 189.16 255.831 188.86C256.431 188.22 257.311 187.96 258.191 188C258.691 188 259.171 188.12 259.571 188.32L259.851 187.16C259.311 186.96 258.751 186.88 258.191 186.88ZM269.73 182.96V189.3C269.53 189.02 269.33 188.74 269.07 188.48C268.59 188 268.01 187.6 267.37 187.34C266.71 187.06 265.99 186.9 265.27 186.9C264.55 186.9 263.81 187.02 263.15 187.28C262.47 187.54 261.87 187.92 261.37 188.4C260.35 189.34 259.79 190.66 259.81 191.96C259.79 193.28 260.35 194.58 261.37 195.54C261.87 196.02 262.47 196.4 263.13 196.66C263.81 196.92 264.53 197.04 265.27 197.04C265.99 197.04 266.71 196.88 267.37 196.6C268.01 196.34 268.59 195.92 269.07 195.46C269.31 195.2 269.53 194.92 269.73 194.62V196.96H270.95V182.96H269.73ZM269.37 193.54C269.13 194.02 268.79 194.48 268.37 194.84C267.53 195.56 266.39 195.94 265.27 195.94C264.15 195.92 263.05 195.48 262.27 194.74C261.47 194.02 261.03 193 261.01 191.96C261.01 190.94 261.47 189.92 262.27 189.18C263.05 188.46 264.13 188.02 265.27 188C266.39 187.98 267.53 188.36 268.37 189.1C268.79 189.46 269.13 189.9 269.37 190.4C269.61 190.9 269.73 191.42 269.73 191.96C269.73 192.5 269.61 193.04 269.37 193.54ZM276.943 191.24C276.783 191.18 276.623 191.14 276.503 191.1C276.423 191.08 276.343 191.04 276.243 191C275.183 190.66 274.163 190.24 274.243 189.38C274.343 188.02 276.343 188 276.363 188C277.583 188 278.403 188.44 278.783 189.3L279.923 188.88C279.343 187.6 278.083 186.9 276.363 186.9C274.843 186.9 273.163 187.64 273.023 189.3C272.883 191.06 274.863 191.72 275.823 192.04C275.903 192.08 275.983 192.1 276.063 192.14C276.203 192.18 276.363 192.24 276.543 192.28C277.843 192.7 279.023 193.16 279.063 194.28C279.063 194.68 278.923 195.04 278.603 195.3C278.123 195.74 277.323 195.96 276.463 195.92C275.363 195.88 274.043 195.36 273.643 194.04L272.483 194.34C272.943 195.9 274.483 196.96 276.403 197.04C276.483 197.04 276.563 197.04 276.643 197.04C277.763 197.04 278.783 196.7 279.463 196.1C280.023 195.6 280.303 194.96 280.283 194.26C280.223 192.26 278.083 191.6 276.943 191.24Z" fill="#1C1C1C"/>
<circle cx="119" cy="190" r="14" stroke="#008000" stroke-width="2"/>
<circle cx="119" cy="190" r="5" fill="#008000"/>
<path d="M119 223V205" stroke="#008000" stroke-width="2"/>
<path d="M145.4 243.9V231.02H144.18V245H144.78V245.02H153.04V243.9H145.4ZM162.972 234.96V237.3C162.772 237.02 162.572 236.74 162.312 236.48C161.832 236 161.252 235.6 160.612 235.34C159.952 235.06 159.232 234.9 158.512 234.9C157.792 234.9 157.052 235.02 156.392 235.28C155.712 235.54 155.112 235.92 154.612 236.4C153.592 237.34 153.032 238.66 153.052 239.96C153.032 241.28 153.592 242.58 154.612 243.54C155.112 244.02 155.712 244.4 156.372 244.66C157.052 244.92 157.772 245.04 158.512 245.04C159.232 245.04 159.952 244.88 160.612 244.6C161.252 244.34 161.832 243.92 162.312 243.46C162.572 243.2 162.772 242.92 162.972 242.62V244.96H164.192V234.96H162.972ZM162.612 241.54C162.372 242.02 162.032 242.48 161.612 242.84C160.772 243.56 159.632 243.94 158.512 243.94C157.392 243.92 156.292 243.48 155.512 242.74C154.712 242.02 154.272 241 154.252 239.96C154.252 238.94 154.712 237.92 155.512 237.18C156.292 236.46 157.372 236.02 158.512 236C159.632 235.98 160.772 236.36 161.612 237.1C162.032 237.46 162.372 237.9 162.612 238.4C162.852 238.9 162.972 239.42 162.972 239.96C162.972 240.5 162.852 241.04 162.612 241.54ZM175.126 244.96V239.28C175.146 238.26 174.886 237.16 174.146 236.26C173.766 235.82 173.266 235.44 172.706 235.2C172.126 234.96 171.506 234.88 170.906 234.88C170.326 234.9 169.706 235.02 169.166 235.28C168.626 235.54 168.166 235.92 167.846 236.36C167.726 236.52 167.626 236.7 167.546 236.86V234.96H166.326V244.96H167.546V239.5C167.546 239.42 167.546 239.36 167.546 239.28C167.586 238.82 167.666 238.38 167.826 237.96C167.986 237.54 168.226 237.16 168.546 236.86C169.146 236.22 170.026 235.96 170.906 236C171.806 236.02 172.626 236.34 173.146 236.96C173.406 237.26 173.606 237.64 173.726 238.02C173.846 238.42 173.906 238.84 173.906 239.28V244.96H175.126ZM186.527 230.96V237.3C186.327 237.02 186.127 236.74 185.867 236.48C185.387 236 184.807 235.6 184.167 235.34C183.507 235.06 182.787 234.9 182.067 234.9C181.347 234.9 180.607 235.02 179.947 235.28C179.267 235.54 178.667 235.92 178.167 236.4C177.147 237.34 176.587 238.66 176.607 239.96C176.587 241.28 177.147 242.58 178.167 243.54C178.667 244.02 179.267 244.4 179.927 244.66C180.607 244.92 181.327 245.04 182.067 245.04C182.787 245.04 183.507 244.88 184.167 244.6C184.807 244.34 185.387 243.92 185.867 243.46C186.107 243.2 186.327 242.92 186.527 242.62V244.96H187.747V230.96H186.527ZM186.167 241.54C185.927 242.02 185.587 242.48 185.167 242.84C184.327 243.56 183.187 243.94 182.067 243.94C180.947 243.92 179.847 243.48 179.067 242.74C178.267 242.02 177.827 241 177.807 239.96C177.807 238.94 178.267 237.92 179.067 237.18C179.847 236.46 180.927 236.02 182.067 236C183.187 235.98 184.327 236.36 185.167 237.1C185.587 237.46 185.927 237.9 186.167 238.4C186.407 238.9 186.527 239.42 186.527 239.96C186.527 240.5 186.407 241.04 186.167 241.54ZM191.1 244.96V234.96H189.86V244.96H191.1ZM190.48 231.28C189.96 231.28 189.54 231.7 189.54 232.22C189.54 232.76 189.96 233.18 190.48 233.18C191 233.18 191.44 232.76 191.44 232.22C191.44 231.7 191 231.28 190.48 231.28ZM202.04 244.96V239.28C202.06 238.26 201.8 237.16 201.06 236.26C200.68 235.82 200.18 235.44 199.62 235.2C199.04 234.96 198.42 234.88 197.82 234.88C197.24 234.9 196.62 235.02 196.08 235.28C195.54 235.54 195.08 235.92 194.76 236.36C194.64 236.52 194.54 236.7 194.46 236.86V234.96H193.24V244.96H194.46V239.5C194.46 239.42 194.46 239.36 194.46 239.28C194.5 238.82 194.58 238.38 194.74 237.96C194.9 237.54 195.14 237.16 195.46 236.86C196.06 236.22 196.94 235.96 197.82 236C198.72 236.02 199.54 236.34 200.06 236.96C200.32 237.26 200.52 237.64 200.64 238.02C200.76 238.42 200.82 238.84 200.82 239.28V244.96H202.04ZM213.321 234.96V237.32C213.141 237.04 212.941 236.76 212.681 236.52C212.221 236.04 211.641 235.66 211.001 235.38C210.361 235.1 209.641 234.96 208.921 234.94C208.201 234.94 207.481 235.06 206.821 235.32C206.161 235.58 205.561 235.96 205.061 236.44C204.061 237.38 203.501 238.68 203.521 239.96C203.501 241.26 204.061 242.56 205.061 243.5C205.561 243.98 206.161 244.36 206.821 244.62C207.481 244.88 208.201 245 208.921 245C209.641 244.98 210.361 244.84 211.001 244.56C211.641 244.28 212.221 243.9 212.681 243.42C212.941 243.18 213.141 242.9 213.321 242.62V244.04C213.321 245.58 212.761 247.52 210.081 247.98C208.041 248.3 205.841 247.44 204.861 245.9L203.801 246.46C204.861 248.14 206.981 249.16 209.161 249.16C209.541 249.16 209.921 249.12 210.301 249.06C213.001 248.62 214.561 246.78 214.561 244.04V234.96H213.321ZM212.981 241.52C212.741 242 212.401 242.44 211.981 242.8C211.161 243.52 210.021 243.9 208.921 243.88C207.821 243.88 206.721 243.44 205.961 242.72C205.181 242 204.721 240.98 204.721 239.96C204.721 238.94 205.181 237.94 205.961 237.22C206.721 236.5 207.821 236.06 208.921 236.06C210.021 236.04 211.161 236.4 211.981 237.14C212.401 237.5 212.741 237.94 212.981 238.42C213.201 238.9 213.321 239.44 213.321 239.96C213.321 240.5 213.201 241.04 212.981 241.52ZM216.597 242.62L215.297 248.5H216.117L217.837 242.62H216.597ZM236.399 235.2C236.039 234.34 235.499 233.58 234.799 232.96C234.119 232.34 233.259 231.86 232.279 231.52C231.319 231.18 230.219 231 229.019 231H224.239V245.02H229.019C230.219 245.02 231.319 244.84 232.279 244.5C233.259 244.16 234.119 243.68 234.799 243.06C235.499 242.46 236.039 241.7 236.399 240.84C236.779 239.98 236.959 239.04 236.959 238C236.959 237 236.779 236.06 236.399 235.2ZM235.259 240.44C234.959 241.16 234.519 241.76 233.959 242.28C233.379 242.78 232.679 243.18 231.859 243.46C231.019 243.76 230.079 243.9 229.019 243.9H225.459V232.12H229.019C230.079 232.12 231.019 232.26 231.859 232.56C232.679 232.84 233.379 233.24 233.939 233.76C234.519 234.26 234.959 234.88 235.259 235.6C235.579 236.32 235.739 237.14 235.739 238C235.739 238.9 235.579 239.72 235.259 240.44ZM243.551 234.9C240.531 234.9 238.091 237.18 238.091 239.96C238.091 242.76 240.531 245.04 243.551 245.04C246.571 245.04 249.011 242.76 249.011 239.96C249.011 237.18 246.571 234.9 243.551 234.9ZM243.551 243.94C241.211 243.94 239.311 242.16 239.311 239.96C239.311 237.78 241.211 236 243.551 236C245.891 236 247.791 237.78 247.791 239.96C247.791 242.16 245.891 243.94 243.551 243.94ZM255.602 243.94H255.582C253.242 243.92 251.342 242.14 251.362 239.96C251.362 237.78 253.262 236 255.602 236C256.962 236 258.222 236.6 259.022 237.64L260.022 237C259.002 235.68 257.342 234.9 255.622 234.9C255.602 234.9 255.602 234.9 255.602 234.9C252.582 234.9 250.142 237.16 250.142 239.96C250.122 242.76 252.562 245.04 255.582 245.04H255.602C257.322 245.04 258.962 244.28 259.982 242.98L259.002 242.34C258.182 243.34 256.942 243.94 255.602 243.94ZM268.901 234.96V240.44C268.901 240.52 268.901 240.58 268.901 240.66C268.861 241.12 268.781 241.56 268.621 241.98C268.461 242.4 268.221 242.78 267.901 243.08C267.301 243.72 266.421 243.98 265.521 243.94C264.641 243.92 263.821 243.58 263.301 242.98C263.041 242.68 262.841 242.3 262.721 241.9C262.581 241.52 262.541 241.08 262.521 240.66L262.541 234.96H261.321V240.66C261.301 241.68 261.561 242.78 262.301 243.68C262.681 244.12 263.181 244.5 263.741 244.74C264.301 244.96 264.941 245.06 265.521 245.04C266.121 245.04 266.741 244.92 267.281 244.66C267.821 244.4 268.281 244.02 268.601 243.58C268.721 243.4 268.821 243.24 268.901 243.08V244.96H270.121V234.96H268.901ZM286.263 244.96V239.46V238.76C286.263 238.52 286.263 238.26 286.223 238C286.163 237.5 286.003 236.98 285.723 236.5C285.443 236 285.003 235.58 284.463 235.28C284.183 235.14 283.883 235.04 283.583 234.96C283.283 234.9 282.983 234.88 282.683 234.88C282.383 234.9 282.083 234.94 281.783 235.02C281.503 235.1 281.223 235.22 280.963 235.38C280.463 235.7 280.103 236.14 279.883 236.6C279.783 236.82 279.703 237.02 279.663 237.24C279.563 236.98 279.463 236.74 279.323 236.5C279.043 236 278.603 235.58 278.063 235.28C277.783 235.14 277.503 235.04 277.183 234.96C276.883 234.9 276.583 234.88 276.283 234.88C275.983 234.9 275.683 234.94 275.403 235.02C275.103 235.1 274.823 235.22 274.583 235.38C274.083 235.7 273.703 236.14 273.483 236.6C273.483 236.62 273.483 236.62 273.483 236.62V234.98H272.263V244.96H273.483V239.28L273.503 238.76C273.503 238.54 273.543 238.32 273.583 238.1C273.683 237.68 273.863 237.28 274.123 236.94C274.383 236.6 274.723 236.34 275.103 236.18C275.463 236.04 275.863 235.98 276.283 236C277.123 236.02 277.803 236.4 278.203 237.04C278.423 237.38 278.543 237.76 278.603 238.14C278.643 238.36 278.663 238.56 278.663 238.76V239.46V244.96H279.883V239.46V239.2V238.76C279.903 238.54 279.923 238.32 279.983 238.1C280.083 237.68 280.263 237.26 280.523 236.94C280.783 236.6 281.123 236.34 281.483 236.18C281.863 236.04 282.263 235.98 282.683 236C283.503 236.02 284.203 236.4 284.603 237.04C284.803 237.38 284.943 237.76 285.003 238.14C285.043 238.34 285.043 238.56 285.043 238.76V239.46V244.96H286.263ZM298.619 240.52C298.639 240.34 298.659 240.16 298.659 239.96C298.659 237.18 296.219 234.9 293.199 234.9C290.179 234.9 287.739 237.18 287.739 239.96C287.739 242.76 290.359 245.04 293.619 245.04C295.579 245.04 297.379 244.2 298.459 242.84L297.339 242.36C296.459 243.34 295.099 243.94 293.619 243.94C291.259 243.94 289.319 242.44 288.999 240.52H298.619ZM288.999 239.42C289.299 237.5 291.059 236 293.199 236C295.339 236 297.099 237.5 297.399 239.42H288.999ZM309.09 244.96V239.28C309.11 238.26 308.85 237.16 308.11 236.26C307.73 235.82 307.23 235.44 306.67 235.2C306.09 234.96 305.47 234.88 304.87 234.88C304.29 234.9 303.67 235.02 303.13 235.28C302.59 235.54 302.13 235.92 301.81 236.36C301.69 236.52 301.59 236.7 301.51 236.86V234.96H300.29V244.96H301.51V239.5C301.51 239.42 301.51 239.36 301.51 239.28C301.55 238.82 301.63 238.38 301.79 237.96C301.95 237.54 302.19 237.16 302.51 236.86C303.11 236.22 303.99 235.96 304.87 236C305.77 236.02 306.59 236.34 307.11 236.96C307.37 237.26 307.57 237.64 307.69 238.02C307.81 238.42 307.87 238.84 307.87 239.28V244.96H309.09ZM314.186 243.34C313.706 243.02 313.526 242.5 313.526 241.3V236.08H316.826V234.96H313.526V231.86L312.306 232.52V234.98H309.586V236.08H312.306V241.3C312.306 242.62 312.506 243.62 313.466 244.24C314.046 244.6 314.786 244.72 315.606 244.72C316.006 244.72 316.406 244.7 316.826 244.66V243.54C315.866 243.64 314.746 243.7 314.186 243.34ZM327.171 234.96V237.3C326.971 237.02 326.771 236.74 326.511 236.48C326.031 236 325.451 235.6 324.811 235.34C324.151 235.06 323.431 234.9 322.711 234.9C321.991 234.9 321.251 235.02 320.591 235.28C319.911 235.54 319.311 235.92 318.811 236.4C317.791 237.34 317.231 238.66 317.251 239.96C317.231 241.28 317.791 242.58 318.811 243.54C319.311 244.02 319.911 244.4 320.571 244.66C321.251 244.92 321.971 245.04 322.711 245.04C323.431 245.04 324.151 244.88 324.811 244.6C325.451 244.34 326.031 243.92 326.511 243.46C326.771 243.2 326.971 242.92 327.171 242.62V244.96H328.391V234.96H327.171ZM326.811 241.54C326.571 242.02 326.231 242.48 325.811 242.84C324.971 243.56 323.831 243.94 322.711 243.94C321.591 243.92 320.491 243.48 319.711 242.74C318.911 242.02 318.471 241 318.451 239.96C318.451 238.94 318.911 237.92 319.711 237.18C320.491 236.46 321.571 236.02 322.711 236C323.831 235.98 324.971 236.36 325.811 237.1C326.231 237.46 326.571 237.9 326.811 238.4C327.051 238.9 327.171 239.42 327.171 239.96C327.171 240.5 327.051 241.04 326.811 241.54ZM334.225 243.34C333.745 243.02 333.565 242.5 333.565 241.3V236.08H336.865V234.96H333.565V231.86L332.345 232.52V234.98H329.625V236.08H332.345V241.3C332.345 242.62 332.545 243.62 333.505 244.24C334.085 244.6 334.825 244.72 335.645 244.72C336.045 244.72 336.445 244.7 336.865 244.66V243.54C335.905 243.64 334.785 243.7 334.225 243.34ZM339.538 244.96V234.96H338.298V244.96H339.538ZM338.918 231.28C338.398 231.28 337.978 231.7 337.978 232.22C337.978 232.76 338.398 233.18 338.918 233.18C339.438 233.18 339.878 232.76 339.878 232.22C339.878 231.7 339.438 231.28 338.918 231.28ZM346.637 234.9C343.617 234.9 341.177 237.18 341.177 239.96C341.177 242.76 343.617 245.04 346.637 245.04C349.657 245.04 352.097 242.76 352.097 239.96C352.097 237.18 349.657 234.9 346.637 234.9ZM346.637 243.94C344.297 243.94 342.397 242.16 342.397 239.96C342.397 237.78 344.297 236 346.637 236C348.977 236 350.877 237.78 350.877 239.96C350.877 242.16 348.977 243.94 346.637 243.94ZM362.528 244.96V239.28C362.548 238.26 362.288 237.16 361.548 236.26C361.168 235.82 360.668 235.44 360.108 235.2C359.528 234.96 358.908 234.88 358.308 234.88C357.728 234.9 357.108 235.02 356.568 235.28C356.028 235.54 355.568 235.92 355.248 236.36C355.128 236.52 355.028 236.7 354.948 236.86V234.96H353.728V244.96H354.948V239.5C354.948 239.42 354.948 239.36 354.948 239.28C354.988 238.82 355.068 238.38 355.228 237.96C355.388 237.54 355.628 237.16 355.948 236.86C356.548 236.22 357.428 235.96 358.308 236C359.208 236.02 360.028 236.34 360.548 236.96C360.808 237.26 361.008 237.64 361.128 238.02C361.248 238.42 361.308 238.84 361.308 239.28V244.96H362.528Z" fill="#1C1C1C"/>
<circle cx="119" cy="238" r="14" stroke="#008000" stroke-width="2"/>
<circle cx="119" cy="238" r="5" fill="#008000"/>
<path d="M119 175V157" stroke="#008000" stroke-width="2"/>
<path d="M151.3 135.02V144.36C151.3 145.6 150.98 146.54 150.36 147.18C149.72 147.82 148.9 148.12 147.8 148.12C146.96 148.12 146.24 147.9 145.6 147.44C144.98 146.98 144.52 146.3 144.24 145.42L143.08 145.7C143.42 146.82 144.02 147.7 144.84 148.3C145.68 148.92 146.68 149.24 147.8 149.24C149.24 149.24 150.4 148.8 151.26 147.92C152.1 147.08 152.52 145.88 152.52 144.36V135.02H151.3ZM162.046 138.96V144.44C162.046 144.52 162.046 144.58 162.046 144.66C162.006 145.12 161.926 145.56 161.766 145.98C161.606 146.4 161.366 146.78 161.046 147.08C160.446 147.72 159.566 147.98 158.666 147.94C157.786 147.92 156.966 147.58 156.446 146.98C156.186 146.68 155.986 146.3 155.866 145.9C155.726 145.52 155.686 145.08 155.666 144.66L155.686 138.96H154.466V144.66C154.446 145.68 154.706 146.78 155.446 147.68C155.826 148.12 156.326 148.5 156.886 148.74C157.446 148.96 158.086 149.06 158.666 149.04C159.266 149.04 159.886 148.92 160.426 148.66C160.966 148.4 161.426 148.02 161.746 147.58C161.866 147.4 161.966 147.24 162.046 147.08V148.96H163.266V138.96H162.046ZM179.408 148.96V143.46V142.76C179.408 142.52 179.408 142.26 179.368 142C179.308 141.5 179.148 140.98 178.868 140.5C178.588 140 178.148 139.58 177.608 139.28C177.328 139.14 177.028 139.04 176.728 138.96C176.428 138.9 176.128 138.88 175.828 138.88C175.528 138.9 175.228 138.94 174.928 139.02C174.648 139.1 174.368 139.22 174.108 139.38C173.608 139.7 173.248 140.14 173.028 140.6C172.928 140.82 172.848 141.02 172.808 141.24C172.708 140.98 172.608 140.74 172.468 140.5C172.188 140 171.748 139.58 171.208 139.28C170.928 139.14 170.648 139.04 170.328 138.96C170.028 138.9 169.728 138.88 169.428 138.88C169.128 138.9 168.828 138.94 168.548 139.02C168.248 139.1 167.968 139.22 167.728 139.38C167.228 139.7 166.848 140.14 166.628 140.6C166.628 140.62 166.628 140.62 166.628 140.62V138.98H165.408V148.96H166.628V143.28L166.648 142.76C166.648 142.54 166.688 142.32 166.728 142.1C166.828 141.68 167.008 141.28 167.268 140.94C167.528 140.6 167.868 140.34 168.248 140.18C168.608 140.04 169.008 139.98 169.428 140C170.268 140.02 170.948 140.4 171.348 141.04C171.568 141.38 171.688 141.76 171.748 142.14C171.788 142.36 171.808 142.56 171.808 142.76V143.46V148.96H173.028V143.46V143.2V142.76C173.048 142.54 173.068 142.32 173.128 142.1C173.228 141.68 173.408 141.26 173.668 140.94C173.928 140.6 174.268 140.34 174.628 140.18C175.008 140.04 175.408 139.98 175.828 140C176.648 140.02 177.348 140.4 177.748 141.04C177.948 141.38 178.088 141.76 178.148 142.14C178.188 142.34 178.188 142.56 178.188 142.76V143.46V148.96H179.408ZM190.984 140.4C190.484 139.92 189.864 139.54 189.204 139.28C188.524 139.02 187.804 138.9 187.084 138.9C186.344 138.9 185.624 139.06 184.984 139.34C184.324 139.6 183.744 140 183.284 140.48C183.024 140.74 182.804 141.02 182.624 141.32V134.96H181.404V148.96H182.624V146.62C182.804 146.92 183.024 147.2 183.264 147.46C183.744 147.94 184.324 148.34 184.984 148.6C185.624 148.88 186.344 149.04 187.084 149.04C187.804 149.04 188.524 148.92 189.204 148.66C189.864 148.4 190.484 148.02 190.984 147.54C191.984 146.58 192.544 145.28 192.544 143.96C192.544 142.66 191.984 141.34 190.984 140.4ZM190.084 146.74C189.304 147.48 188.204 147.92 187.084 147.94C185.964 147.94 184.824 147.56 183.984 146.84C183.564 146.48 183.204 146.02 182.984 145.54C182.744 145.04 182.624 144.5 182.624 143.96C182.624 143.42 182.744 142.88 182.964 142.4C183.204 141.9 183.564 141.46 183.984 141.1C184.824 140.36 185.964 139.98 187.084 140C188.204 140.02 189.304 140.44 190.084 141.18C190.864 141.92 191.324 142.94 191.324 143.96C191.324 145 190.864 146.02 190.084 146.74ZM199.137 138.9C196.117 138.9 193.677 141.18 193.677 143.96C193.677 146.76 196.117 149.04 199.137 149.04C202.157 149.04 204.597 146.76 204.597 143.96C204.597 141.18 202.157 138.9 199.137 138.9ZM199.137 147.94C196.797 147.94 194.897 146.16 194.897 143.96C194.897 141.78 196.797 140 199.137 140C201.477 140 203.377 141.78 203.377 143.96C203.377 146.16 201.477 147.94 199.137 147.94ZM218.433 148.12C216.633 148.12 214.933 147.48 213.673 146.34C211.053 143.94 211.053 140.08 213.673 137.68C214.933 136.54 216.633 135.9 218.433 135.9C220.213 135.9 221.913 136.54 223.173 137.68L224.033 136.9C222.533 135.54 220.553 134.78 218.433 134.78C216.293 134.78 214.313 135.54 212.813 136.9C209.713 139.72 209.713 144.3 212.813 147.12C214.313 148.48 216.293 149.24 218.433 149.24C220.553 149.24 222.533 148.48 224.033 147.12L223.173 146.34C221.913 147.48 220.213 148.12 218.433 148.12ZM229.997 138.9C226.977 138.9 224.537 141.18 224.537 143.96C224.537 146.76 226.977 149.04 229.997 149.04C233.017 149.04 235.457 146.76 235.457 143.96C235.457 141.18 233.017 138.9 229.997 138.9ZM229.997 147.94C227.657 147.94 225.757 146.16 225.757 143.96C225.757 141.78 227.657 140 229.997 140C232.337 140 234.237 141.78 234.237 143.96C234.237 146.16 232.337 147.94 229.997 147.94ZM251.087 148.96V143.46V142.76C251.087 142.52 251.087 142.26 251.047 142C250.987 141.5 250.827 140.98 250.547 140.5C250.267 140 249.827 139.58 249.287 139.28C249.007 139.14 248.707 139.04 248.407 138.96C248.107 138.9 247.807 138.88 247.507 138.88C247.207 138.9 246.907 138.94 246.607 139.02C246.327 139.1 246.047 139.22 245.787 139.38C245.287 139.7 244.927 140.14 244.707 140.6C244.607 140.82 244.527 141.02 244.487 141.24C244.387 140.98 244.287 140.74 244.147 140.5C243.867 140 243.427 139.58 242.887 139.28C242.607 139.14 242.327 139.04 242.007 138.96C241.707 138.9 241.407 138.88 241.107 138.88C240.807 138.9 240.507 138.94 240.227 139.02C239.927 139.1 239.647 139.22 239.407 139.38C238.907 139.7 238.527 140.14 238.307 140.6C238.307 140.62 238.307 140.62 238.307 140.62V138.98H237.087V148.96H238.307V143.28L238.327 142.76C238.327 142.54 238.367 142.32 238.407 142.1C238.507 141.68 238.687 141.28 238.947 140.94C239.207 140.6 239.547 140.34 239.927 140.18C240.287 140.04 240.687 139.98 241.107 140C241.947 140.02 242.627 140.4 243.027 141.04C243.247 141.38 243.367 141.76 243.427 142.14C243.467 142.36 243.487 142.56 243.487 142.76V143.46V148.96H244.707V143.46V143.2V142.76C244.727 142.54 244.747 142.32 244.807 142.1C244.907 141.68 245.087 141.26 245.347 140.94C245.607 140.6 245.947 140.34 246.307 140.18C246.687 140.04 247.087 139.98 247.507 140C248.327 140.02 249.027 140.4 249.427 141.04C249.627 141.38 249.767 141.76 249.827 142.14C249.867 142.34 249.867 142.56 249.867 142.76V143.46V148.96H251.087ZM262.663 140.48C262.163 140 261.543 139.62 260.883 139.36C260.203 139.1 259.483 138.96 258.763 138.96C258.023 138.98 257.303 139.12 256.663 139.4C256.003 139.68 255.423 140.08 254.943 140.56C254.703 140.82 254.483 141.1 254.303 141.38V139.04H253.083V153.04H254.303V146.7C254.483 147 254.703 147.28 254.963 147.52C255.423 148 256.003 148.4 256.663 148.68C257.303 148.96 258.023 149.1 258.763 149.12C259.483 149.12 260.203 149 260.883 148.74C261.543 148.48 262.163 148.08 262.663 147.62C263.663 146.66 264.223 145.36 264.223 144.04C264.223 142.74 263.663 141.42 262.663 140.48ZM261.763 146.82C260.983 147.56 259.883 148 258.763 148C257.643 148.02 256.503 147.64 255.663 146.92C255.243 146.54 254.883 146.1 254.643 145.62C254.423 145.12 254.303 144.58 254.303 144.04C254.303 143.5 254.423 142.96 254.663 142.48C254.883 141.98 255.243 141.54 255.663 141.18C256.503 140.44 257.643 140.06 258.763 140.08C259.883 140.1 260.983 140.52 261.763 141.26C262.543 142 263.003 143.02 263.003 144.04C263.003 145.08 262.543 146.1 261.763 146.82ZM275.277 138.96V141.3C275.077 141.02 274.877 140.74 274.617 140.48C274.137 140 273.557 139.6 272.917 139.34C272.257 139.06 271.537 138.9 270.817 138.9C270.097 138.9 269.357 139.02 268.697 139.28C268.017 139.54 267.417 139.92 266.917 140.4C265.897 141.34 265.337 142.66 265.357 143.96C265.337 145.28 265.897 146.58 266.917 147.54C267.417 148.02 268.017 148.4 268.677 148.66C269.357 148.92 270.077 149.04 270.817 149.04C271.537 149.04 272.257 148.88 272.917 148.6C273.557 148.34 274.137 147.92 274.617 147.46C274.877 147.2 275.077 146.92 275.277 146.62V148.96H276.497V138.96H275.277ZM274.917 145.54C274.677 146.02 274.337 146.48 273.917 146.84C273.077 147.56 271.937 147.94 270.817 147.94C269.697 147.92 268.597 147.48 267.817 146.74C267.017 146.02 266.577 145 266.557 143.96C266.557 142.94 267.017 141.92 267.817 141.18C268.597 140.46 269.677 140.02 270.817 140C271.937 139.98 273.077 140.36 273.917 141.1C274.337 141.46 274.677 141.9 274.917 142.4C275.157 142.9 275.277 143.42 275.277 143.96C275.277 144.5 275.157 145.04 274.917 145.54ZM282.33 147.34C281.85 147.02 281.67 146.5 281.67 145.3V140.08H284.97V138.96H281.67V135.86L280.45 136.52V138.98H277.73V140.08H280.45V145.3C280.45 146.62 280.65 147.62 281.61 148.24C282.19 148.6 282.93 148.72 283.75 148.72C284.15 148.72 284.55 148.7 284.97 148.66V147.54C284.01 147.64 282.89 147.7 282.33 147.34ZM287.643 148.96V138.96H286.403V148.96H287.643ZM287.023 135.28C286.503 135.28 286.083 135.7 286.083 136.22C286.083 136.76 286.503 137.18 287.023 137.18C287.543 137.18 287.983 136.76 287.983 136.22C287.983 135.7 287.543 135.28 287.023 135.28ZM299.363 140.4C298.863 139.92 298.243 139.54 297.583 139.28C296.903 139.02 296.183 138.9 295.463 138.9C294.723 138.9 294.003 139.06 293.363 139.34C292.703 139.6 292.123 140 291.663 140.48C291.403 140.74 291.183 141.02 291.003 141.32V134.96H289.783V148.96H291.003V146.62C291.183 146.92 291.403 147.2 291.643 147.46C292.123 147.94 292.703 148.34 293.363 148.6C294.003 148.88 294.723 149.04 295.463 149.04C296.183 149.04 296.903 148.92 297.583 148.66C298.243 148.4 298.863 148.02 299.363 147.54C300.363 146.58 300.923 145.28 300.923 143.96C300.923 142.66 300.363 141.34 299.363 140.4ZM298.463 146.74C297.683 147.48 296.583 147.92 295.463 147.94C294.343 147.94 293.203 147.56 292.363 146.84C291.943 146.48 291.583 146.02 291.363 145.54C291.123 145.04 291.003 144.5 291.003 143.96C291.003 143.42 291.123 142.88 291.343 142.4C291.583 141.9 291.943 141.46 292.363 141.1C293.203 140.36 294.343 139.98 295.463 140C296.583 140.02 297.683 140.44 298.463 141.18C299.243 141.92 299.703 142.94 299.703 143.96C299.703 145 299.243 146.02 298.463 146.74ZM303.776 148.96V138.96H302.536V148.96H303.776ZM303.156 135.28C302.636 135.28 302.216 135.7 302.216 136.22C302.216 136.76 302.636 137.18 303.156 137.18C303.676 137.18 304.116 136.76 304.116 136.22C304.116 135.7 303.676 135.28 303.156 135.28ZM307.135 148.98V134.98H305.915V148.98H307.135ZM310.475 148.96V138.96H309.235V148.96H310.475ZM309.855 135.28C309.335 135.28 308.915 135.7 308.915 136.22C308.915 136.76 309.335 137.18 309.855 137.18C310.375 137.18 310.815 136.76 310.815 136.22C310.815 135.7 310.375 135.28 309.855 135.28ZM316.315 147.34C315.835 147.02 315.655 146.5 315.655 145.3V140.08H318.955V138.96H315.655V135.86L314.435 136.52V138.98H311.715V140.08H314.435V145.3C314.435 146.62 314.635 147.62 315.595 148.24C316.175 148.6 316.915 148.72 317.735 148.72C318.135 148.72 318.535 148.7 318.955 148.66V147.54C317.995 147.64 316.875 147.7 316.315 147.34ZM328.408 138.98L324.528 147.42L320.808 138.98H319.488L323.948 148.68L321.968 152.98H323.288L329.728 139V138.98H328.408Z" fill="#1C1C1C"/>
<circle cx="119" cy="142" r="14" stroke="#008000" stroke-width="2"/>
<circle cx="119" cy="142" r="5" fill="#008000"/>
<defs>
<filter id="filter0_d_1431_5145" x="0" y="0" width="502" height="548" filterUnits="userSpaceOnUse" color-interpolation-filters="sRGB">
<feFlood flood-opacity="0" result="BackgroundImageFix"/>
<feColorMatrix in="SourceAlpha" type="matrix" values="0 0 0 0 0 0 0 0 0 0 0 0 0 0 0 0 0 0 127 0" result="hardAlpha"/>
<feOffset dy="10"/>
<feGaussianBlur stdDeviation="35.5"/>
<feComposite in2="hardAlpha" operator="out"/>
<feColorMatrix type="matrix" values="0 0 0 0 0 0 0 0 0 0 0 0 0 0 0 0 0 0 0.05 0"/>
<feBlend mode="normal" in2="BackgroundImageFix" result="effect1_dropShadow_1431_5145"/>
<feBlend mode="normal" in="SourceGraphic" in2="effect1_dropShadow_1431_5145" result="shape"/>
</filter>
<linearGradient id="paint0_linear_1431_5145" x1="119" y1="253" x2="119" y2="271" gradientUnits="userSpaceOnUse">
<stop stop-color="#008000"/>
<stop offset="1" stop-color="#08AEEA"/>
</linearGradient>
</defs>
</svg>