<svg xmlns="http://www.w3.org/2000/svg" fill="none" viewBox="71 61 360 214">
<g filter="url(#filter0_d_1431_5166)">
<rect x="71" y="61" width="360" height="214" rx="7" fill="#F4F8F9"/>
<rect x="71.5" y="61.5" width="359" height="213" rx="6.5" stroke="#BBBBBB" stroke-opacity="0.28"/>
</g>
<path opacity="0.2" d="M128.224 100.814C129.763 99.113 130.681 96.953 130.681 94.55C130.681 89.177 125.983 84.803 120.178 84.803C114.4 84.803 109.702 89.177 109.702 94.55C109.702 99.95 114.4 104.324 120.178 104.324C122.824 104.324 125.254 103.406 127.09 101.894L129.412 104H131.734L128.224 100.814ZM127.063 99.761L124.309 97.25H121.987L125.929 100.841C124.363 102.056 122.365 102.812 120.178 102.812C115.318 102.812 111.349 99.113 111.349 94.577C111.349 90.014 115.318 86.315 120.178 86.315C125.065 86.315 129.034 90.014 129.034 94.577C129.034 96.521 128.305 98.33 127.063 99.761ZM143.086 93.713C141.034 92.444 139.09 92.795 139.09 92.795L145.057 86.666V85.019H133.42V86.504H143.032L136.822 93.038L137.848 94.307C138.334 94.172 138.82 94.091 139.333 94.091C141.952 94.091 144.085 96.008 144.085 98.357C144.085 100.706 141.952 102.623 139.333 102.623C136.714 102.623 134.608 100.706 134.608 98.357H132.961C132.961 101.516 135.823 104.108 139.333 104.108C142.87 104.108 145.732 101.516 145.732 98.357C145.732 96.44 144.706 94.739 143.086 93.713Z" fill="#1C1C1C"/>
<path d="M150.4 195.9V183.02H149.18V197H149.78V197.02H158.04V195.9H150.4ZM169.219 185.28C168.979 184.8 168.619 184.38 168.159 184.04C167.719 183.72 167.179 183.46 166.559 183.28C165.959 183.1 165.279 183 164.539 183H159.219V197.02H160.439V190.68H164.539C165.279 190.68 165.959 190.58 166.559 190.42C167.179 190.24 167.719 189.98 168.159 189.64C168.619 189.3 168.979 188.88 169.219 188.4C169.459 187.92 169.579 187.4 169.579 186.84C169.579 186.28 169.459 185.74 169.219 185.28ZM168.099 187.94C167.939 188.26 167.699 188.54 167.379 188.78C167.059 189.02 166.659 189.22 166.199 189.36C165.719 189.5 165.159 189.56 164.539 189.56H160.439V184.12H164.539C165.159 184.12 165.719 184.2 166.199 184.34C166.659 184.46 167.059 184.66 167.399 184.9C167.699 185.14 167.939 185.42 168.099 185.74C168.279 186.06 168.359 186.44 168.359 186.84C168.359 187.24 168.279 187.6 168.099 187.94ZM174.679 183V184.12H179.619V197H180.859V184.12H185.819V183H174.679ZM189.86 186.9C186.84 186.9 184.4 189.18 184.4 191.96C184.4 194.76 186.84 197.04 189.86 197.04C192.88 197.04 195.32 194.76 195.32 191.96C195.32 189.18 192.88 186.9 189.86 186.9ZM189.86 195.94C187.52 195.94 185.62 194.16 185.62 191.96C185.62 189.78 187.52 188 189.86 188C192.2 188 194.1 189.78 194.1 191.96C194.1 194.16 192.2 195.94 189.86 195.94ZM199.511 191.4L204.271 186.98H202.571L198.171 191.06V182.98H196.951V196.98H198.171V191.76L203.771 196.98H205.491L199.511 191.4ZM215.983 192.52C216.003 192.34 216.023 192.16 216.023 191.96C216.023 189.18 213.583 186.9 210.563 186.9C207.543 186.9 205.103 189.18 205.103 191.96C205.103 194.76 207.723 197.04 210.983 197.04C212.943 197.04 214.743 196.2 215.823 194.84L214.703 194.36C213.823 195.34 212.463 195.94 210.983 195.94C208.623 195.94 206.683 194.44 206.363 192.52H215.983ZM206.363 191.42C206.663 189.5 208.423 188 210.563 188C212.703 188 214.463 189.5 214.763 191.42H206.363ZM226.454 196.96V191.28C226.474 190.26 226.214 189.16 225.474 188.26C225.094 187.82 224.594 187.44 224.034 187.2C223.454 186.96 222.834 186.88 222.234 186.88C221.654 186.9 221.034 187.02 220.494 187.28C219.954 187.54 219.494 187.92 219.174 188.36C219.054 188.52 218.954 188.7 218.874 188.86V186.96H217.654V196.96H218.874V191.5C218.874 191.42 218.874 191.36 218.874 191.28C218.914 190.82 218.994 190.38 219.154 189.96C219.314 189.54 219.554 189.16 219.874 188.86C220.474 188.22 221.354 187.96 222.234 188C223.134 188.02 223.954 188.34 224.474 188.96C224.734 189.26 224.934 189.64 225.054 190.02C225.174 190.42 225.234 190.84 225.234 191.28V196.96H226.454ZM234.58 195.9V183.02H233.36V197H233.96V197.02H242.22V195.9H234.58ZM253.092 192.52C253.112 192.34 253.132 192.16 253.132 191.96C253.132 189.18 250.692 186.9 247.672 186.9C244.652 186.9 242.212 189.18 242.212 191.96C242.212 194.76 244.832 197.04 248.092 197.04C250.052 197.04 251.852 196.2 252.932 194.84L251.812 194.36C250.932 195.34 249.572 195.94 248.092 195.94C245.732 195.94 243.792 194.44 243.472 192.52H253.092ZM243.472 191.42C243.772 189.5 245.532 188 247.672 188C249.812 188 251.572 189.5 251.872 191.42H243.472ZM263.563 196.96V191.28C263.583 190.26 263.323 189.16 262.583 188.26C262.203 187.82 261.703 187.44 261.143 187.2C260.563 186.96 259.943 186.88 259.343 186.88C258.763 186.9 258.143 187.02 257.603 187.28C257.063 187.54 256.603 187.92 256.283 188.36C256.163 188.52 256.063 188.7 255.983 188.86V186.96H254.763V196.96H255.983V191.5C255.983 191.42 255.983 191.36 255.983 191.28C256.023 190.82 256.103 190.38 256.263 189.96C256.423 189.54 256.663 189.16 256.983 188.86C257.583 188.22 258.463 187.96 259.343 188C260.243 188.02 261.063 188.34 261.583 188.96C261.843 189.26 262.043 189.64 262.163 190.02C262.283 190.42 262.343 190.84 262.343 191.28V196.96H263.563ZM274.964 182.96V189.3C274.764 189.02 274.564 188.74 274.304 188.48C273.824 188 273.244 187.6 272.604 187.34C271.944 187.06 271.224 186.9 270.504 186.9C269.784 186.9 269.044 187.02 268.384 187.28C267.704 187.54 267.104 187.92 266.604 188.4C265.584 189.34 265.024 190.66 265.044 191.96C265.024 193.28 265.584 194.58 266.604 195.54C267.104 196.02 267.704 196.4 268.364 196.66C269.044 196.92 269.764 197.04 270.504 197.04C271.224 197.04 271.944 196.88 272.604 196.6C273.244 196.34 273.824 195.92 274.304 195.46C274.544 195.2 274.764 194.92 274.964 194.62V196.96H276.184V182.96H274.964ZM274.604 193.54C274.364 194.02 274.024 194.48 273.604 194.84C272.764 195.56 271.624 195.94 270.504 195.94C269.384 195.92 268.284 195.48 267.504 194.74C266.704 194.02 266.264 193 266.244 191.96C266.244 190.94 266.704 189.92 267.504 189.18C268.284 188.46 269.364 188.02 270.504 188C271.624 187.98 272.764 188.36 273.604 189.1C274.024 189.46 274.364 189.9 274.604 190.4C274.844 190.9 274.964 191.42 274.964 191.96C274.964 192.5 274.844 193.04 274.604 193.54ZM279.538 196.96V186.96H278.298V196.96H279.538ZM278.918 183.28C278.398 183.28 277.978 183.7 277.978 184.22C277.978 184.76 278.398 185.18 278.918 185.18C279.438 185.18 279.878 184.76 279.878 184.22C279.878 183.7 279.438 183.28 278.918 183.28ZM290.477 196.96V191.28C290.497 190.26 290.237 189.16 289.497 188.26C289.117 187.82 288.617 187.44 288.057 187.2C287.477 186.96 286.857 186.88 286.257 186.88C285.677 186.9 285.057 187.02 284.517 187.28C283.977 187.54 283.517 187.92 283.197 188.36C283.077 188.52 282.977 188.7 282.897 188.86V186.96H281.677V196.96H282.897V191.5C282.897 191.42 282.897 191.36 282.897 191.28C282.937 190.82 283.017 190.38 283.177 189.96C283.337 189.54 283.577 189.16 283.897 188.86C284.497 188.22 285.377 187.96 286.257 188C287.157 188.02 287.977 188.34 288.497 188.96C288.757 189.26 288.957 189.64 289.077 190.02C289.197 190.42 289.257 190.84 289.257 191.28V196.96H290.477ZM301.758 186.96V189.32C301.578 189.04 301.378 188.76 301.118 188.52C300.658 188.04 300.078 187.66 299.438 187.38C298.798 187.1 298.078 186.96 297.358 186.94C296.638 186.94 295.918 187.06 295.258 187.32C294.598 187.58 293.998 187.96 293.498 188.44C292.498 189.38 291.938 190.68 291.958 191.96C291.938 193.26 292.498 194.56 293.498 195.5C293.998 195.98 294.598 196.36 295.258 196.62C295.918 196.88 296.638 197 297.358 197C298.078 196.98 298.798 196.84 299.438 196.56C300.078 196.28 300.658 195.9 301.118 195.42C301.378 195.18 301.578 194.9 301.758 194.62V196.04C301.758 197.58 301.198 199.52 298.518 199.98C296.478 200.3 294.278 199.44 293.298 197.9L292.238 198.46C293.298 200.14 295.418 201.16 297.598 201.16C297.978 201.16 298.358 201.12 298.738 201.06C301.438 200.62 302.998 198.78 302.998 196.04V186.96H301.758ZM301.418 193.52C301.178 194 300.838 194.44 300.418 194.8C299.598 195.52 298.458 195.9 297.358 195.88C296.258 195.88 295.158 195.44 294.398 194.72C293.618 194 293.158 192.98 293.158 191.96C293.158 190.94 293.618 189.94 294.398 189.22C295.158 188.5 296.258 188.06 297.358 188.06C298.458 188.04 299.598 188.4 300.418 189.14C300.838 189.5 301.178 189.94 301.418 190.42C301.638 190.9 301.758 191.44 301.758 191.96C301.758 192.5 301.638 193.04 301.418 193.52Z" fill="#1C1C1C"/>
<circle cx="124" cy="190" r="14" stroke="#CCCCCC" stroke-width="2"/>
<line x1="124" y1="175.014" x2="124" y2="157.014" stroke="#CCCCCC" stroke-width="2"/>
<path d="M158.08 231.02V240.16C158.08 240.8 157.98 241.36 157.8 241.86C157.6 242.34 157.34 242.76 157 243.08C156.66 243.42 156.24 243.68 155.78 243.86C155.3 244.02 154.76 244.12 154.16 244.12C153.58 244.12 153.04 244.02 152.56 243.86C152.08 243.68 151.66 243.42 151.34 243.08C150.98 242.76 150.72 242.34 150.52 241.86C150.34 241.36 150.24 240.8 150.24 240.16V231.02H149.02V240.16C149.02 240.92 149.14 241.62 149.38 242.24C149.62 242.86 149.98 243.4 150.44 243.84C150.9 244.3 151.46 244.64 152.08 244.88C152.72 245.12 153.42 245.24 154.16 245.24C154.92 245.24 155.62 245.12 156.24 244.88C156.88 244.64 157.44 244.3 157.88 243.84C158.34 243.4 158.7 242.86 158.94 242.24C159.18 241.62 159.3 240.92 159.3 240.18V231.02H158.08ZM162.724 245V231.02H161.504V245H162.724ZM171.083 245V231.02H169.863V245H171.083ZM187.318 244.96V239.46V238.76C187.318 238.52 187.318 238.26 187.278 238C187.218 237.5 187.058 236.98 186.778 236.5C186.498 236 186.058 235.58 185.518 235.28C185.238 235.14 184.938 235.04 184.638 234.96C184.338 234.9 184.038 234.88 183.738 234.88C183.438 234.9 183.138 234.94 182.838 235.02C182.558 235.1 182.278 235.22 182.018 235.38C181.518 235.7 181.158 236.14 180.938 236.6C180.838 236.82 180.758 237.02 180.718 237.24C180.618 236.98 180.518 236.74 180.378 236.5C180.098 236 179.658 235.58 179.118 235.28C178.838 235.14 178.558 235.04 178.238 234.96C177.938 234.9 177.638 234.88 177.338 234.88C177.038 234.9 176.738 234.94 176.458 235.02C176.158 235.1 175.878 235.22 175.638 235.38C175.138 235.7 174.758 236.14 174.538 236.6C174.538 236.62 174.538 236.62 174.538 236.62V234.98H173.318V244.96H174.538V239.28L174.558 238.76C174.558 238.54 174.598 238.32 174.638 238.1C174.738 237.68 174.918 237.28 175.178 236.94C175.438 236.6 175.778 236.34 176.158 236.18C176.518 236.04 176.918 235.98 177.338 236C178.178 236.02 178.858 236.4 179.258 237.04C179.478 237.38 179.598 237.76 179.658 238.14C179.698 238.36 179.718 238.56 179.718 238.76V239.46V244.96H180.938V239.46V239.2V238.76C180.958 238.54 180.978 238.32 181.038 238.1C181.138 237.68 181.318 237.26 181.578 236.94C181.838 236.6 182.178 236.34 182.538 236.18C182.918 236.04 183.318 235.98 183.738 236C184.558 236.02 185.258 236.4 185.658 237.04C185.858 237.38 185.998 237.76 186.058 238.14C186.098 238.34 186.098 238.56 186.098 238.76V239.46V244.96H187.318ZM198.894 236.48C198.394 236 197.774 235.62 197.114 235.36C196.434 235.1 195.714 234.96 194.994 234.96C194.254 234.98 193.534 235.12 192.894 235.4C192.234 235.68 191.654 236.08 191.174 236.56C190.934 236.82 190.714 237.1 190.534 237.38V235.04H189.314V249.04H190.534V242.7C190.714 243 190.934 243.28 191.194 243.52C191.654 244 192.234 244.4 192.894 244.68C193.534 244.96 194.254 245.1 194.994 245.12C195.714 245.12 196.434 245 197.114 244.74C197.774 244.48 198.394 244.08 198.894 243.62C199.894 242.66 200.454 241.36 200.454 240.04C200.454 238.74 199.894 237.42 198.894 236.48ZM197.994 242.82C197.214 243.56 196.114 244 194.994 244C193.874 244.02 192.734 243.64 191.894 242.92C191.474 242.54 191.114 242.1 190.874 241.62C190.654 241.12 190.534 240.58 190.534 240.04C190.534 239.5 190.654 238.96 190.894 238.48C191.114 237.98 191.474 237.54 191.894 237.18C192.734 236.44 193.874 236.06 194.994 236.08C196.114 236.1 197.214 236.52 197.994 237.26C198.774 238 199.234 239.02 199.234 240.04C199.234 241.08 198.774 242.1 197.994 242.82ZM206.667 234.88C206.087 234.9 205.467 235.02 204.927 235.28C204.387 235.54 203.927 235.92 203.607 236.36C203.487 236.52 203.387 236.7 203.307 236.86V234.96H202.087V244.96H203.307V239.5C203.307 239.42 203.307 239.36 203.307 239.28C203.347 238.82 203.427 238.38 203.587 237.96C203.747 237.54 203.987 237.16 204.307 236.86C204.907 236.22 205.787 235.96 206.667 236C207.167 236 207.647 236.12 208.047 236.32L208.327 235.16C207.787 234.96 207.227 234.88 206.667 234.88ZM213.727 234.9C210.707 234.9 208.267 237.18 208.267 239.96C208.267 242.76 210.707 245.04 213.727 245.04C216.747 245.04 219.187 242.76 219.187 239.96C219.187 237.18 216.747 234.9 213.727 234.9ZM213.727 243.94C211.387 243.94 209.487 242.16 209.487 239.96C209.487 237.78 211.387 236 213.727 236C216.067 236 217.967 237.78 217.967 239.96C217.967 242.16 216.067 243.94 213.727 243.94ZM227.387 234.98L224.107 243.64L220.827 234.98H219.547L223.327 244.96H224.907L228.687 234.98H227.387ZM239.908 240.52C239.928 240.34 239.948 240.16 239.948 239.96C239.948 237.18 237.508 234.9 234.488 234.9C231.468 234.9 229.028 237.18 229.028 239.96C229.028 242.76 231.648 245.04 234.908 245.04C236.868 245.04 238.668 244.2 239.748 242.84L238.628 242.36C237.748 243.34 236.388 243.94 234.908 243.94C232.548 243.94 230.608 242.44 230.288 240.52H239.908ZM230.288 239.42C230.588 237.5 232.348 236 234.488 236C236.628 236 238.388 237.5 238.688 239.42H230.288ZM255.58 244.96V239.46V238.76C255.58 238.52 255.58 238.26 255.54 238C255.48 237.5 255.32 236.98 255.04 236.5C254.76 236 254.32 235.58 253.78 235.28C253.5 235.14 253.2 235.04 252.9 234.96C252.6 234.9 252.3 234.88 252 234.88C251.7 234.9 251.4 234.94 251.1 235.02C250.82 235.1 250.54 235.22 250.28 235.38C249.78 235.7 249.42 236.14 249.2 236.6C249.1 236.82 249.02 237.02 248.98 237.24C248.88 236.98 248.78 236.74 248.64 236.5C248.36 236 247.92 235.58 247.38 235.28C247.1 235.14 246.82 235.04 246.5 234.96C246.2 234.9 245.9 234.88 245.6 234.88C245.3 234.9 245 234.94 244.72 235.02C244.42 235.1 244.14 235.22 243.9 235.38C243.4 235.7 243.02 236.14 242.8 236.6C242.8 236.62 242.8 236.62 242.8 236.62V234.98H241.58V244.96H242.8V239.28L242.82 238.76C242.82 238.54 242.86 238.32 242.9 238.1C243 237.68 243.18 237.28 243.44 236.94C243.7 236.6 244.04 236.34 244.42 236.18C244.78 236.04 245.18 235.98 245.6 236C246.44 236.02 247.12 236.4 247.52 237.04C247.74 237.38 247.86 237.76 247.92 238.14C247.96 238.36 247.98 238.56 247.98 238.76V239.46V244.96H249.2V239.46V239.2V238.76C249.22 238.54 249.24 238.32 249.3 238.1C249.4 237.68 249.58 237.26 249.84 236.94C250.1 236.6 250.44 236.34 250.8 236.18C251.18 236.04 251.58 235.98 252 236C252.82 236.02 253.52 236.4 253.92 237.04C254.12 237.38 254.26 237.76 254.32 238.14C254.36 238.34 254.36 238.56 254.36 238.76V239.46V244.96H255.58ZM267.936 240.52C267.956 240.34 267.976 240.16 267.976 239.96C267.976 237.18 265.536 234.9 262.516 234.9C259.496 234.9 257.056 237.18 257.056 239.96C257.056 242.76 259.676 245.04 262.936 245.04C264.896 245.04 266.696 244.2 267.776 242.84L266.656 242.36C265.776 243.34 264.416 243.94 262.936 243.94C260.576 243.94 258.636 242.44 258.316 240.52H267.936ZM258.316 239.42C258.616 237.5 260.376 236 262.516 236C264.656 236 266.416 237.5 266.716 239.42H258.316ZM278.407 244.96V239.28C278.427 238.26 278.167 237.16 277.427 236.26C277.047 235.82 276.547 235.44 275.987 235.2C275.407 234.96 274.787 234.88 274.187 234.88C273.607 234.9 272.987 235.02 272.447 235.28C271.907 235.54 271.447 235.92 271.127 236.36C271.007 236.52 270.907 236.7 270.827 236.86V234.96H269.607V244.96H270.827V239.5C270.827 239.42 270.827 239.36 270.827 239.28C270.867 238.82 270.947 238.38 271.107 237.96C271.267 237.54 271.507 237.16 271.827 236.86C272.427 236.22 273.307 235.96 274.187 236C275.087 236.02 275.907 236.34 276.427 236.96C276.687 237.26 276.887 237.64 277.007 238.02C277.127 238.42 277.187 238.84 277.187 239.28V244.96H278.407ZM283.502 243.34C283.022 243.02 282.842 242.5 282.842 241.3V236.08H286.142V234.96H282.842V231.86L281.622 232.52V234.98H278.902V236.08H281.622V241.3C281.622 242.62 281.822 243.62 282.782 244.24C283.362 244.6 284.102 244.72 284.922 244.72C285.322 244.72 285.722 244.7 286.142 244.66V243.54C285.182 243.64 284.062 243.7 283.502 243.34ZM291.455 239.24C291.295 239.18 291.135 239.14 291.015 239.1C290.935 239.08 290.855 239.04 290.755 239C289.695 238.66 288.675 238.24 288.755 237.38C288.855 236.02 290.855 236 290.875 236C292.095 236 292.915 236.44 293.295 237.3L294.435 236.88C293.855 235.6 292.595 234.9 290.875 234.9C289.355 234.9 287.675 235.64 287.535 237.3C287.395 239.06 289.375 239.72 290.335 240.04C290.415 240.08 290.495 240.1 290.575 240.14C290.715 240.18 290.875 240.24 291.055 240.28C292.355 240.7 293.535 241.16 293.575 242.28C293.575 242.68 293.435 243.04 293.115 243.3C292.635 243.74 291.835 243.96 290.975 243.92C289.875 243.88 288.555 243.36 288.155 242.04L286.995 242.34C287.455 243.9 288.995 244.96 290.915 245.04C290.995 245.04 291.075 245.04 291.155 245.04C292.275 245.04 293.295 244.7 293.975 244.1C294.535 243.6 294.815 242.96 294.795 242.26C294.735 240.26 292.595 239.6 291.455 239.24Z" fill="#1C1C1C"/>
<circle cx="124" cy="238" r="14" stroke="#CCCCCC" stroke-width="2"/>
<line x1="124" y1="223.014" x2="124" y2="205.014" stroke="#CCCCCC" stroke-width="2"/>
<path d="M155.58 135.02H153.56L148.04 149H149.32L150.86 145.14H158.3L159.82 149H161.12L155.58 135.02ZM151.3 144.02L154.58 135.74L157.86 144.02H151.3ZM171.044 148.96V143.28C171.064 142.26 170.804 141.16 170.064 140.26C169.684 139.82 169.184 139.44 168.624 139.2C168.044 138.96 167.424 138.88 166.824 138.88C166.244 138.9 165.624 139.02 165.084 139.28C164.544 139.54 164.084 139.92 163.764 140.36C163.644 140.52 163.544 140.7 163.464 140.86V138.96H162.244V148.96H163.464V143.5C163.464 143.42 163.464 143.36 163.464 143.28C163.504 142.82 163.584 142.38 163.744 141.96C163.904 141.54 164.144 141.16 164.464 140.86C165.064 140.22 165.944 139.96 166.824 140C167.724 140.02 168.544 140.34 169.064 140.96C169.324 141.26 169.524 141.64 169.644 142.02C169.764 142.42 169.824 142.84 169.824 143.28V148.96H171.044ZM182.445 138.96V141.3C182.245 141.02 182.045 140.74 181.785 140.48C181.305 140 180.725 139.6 180.085 139.34C179.425 139.06 178.705 138.9 177.985 138.9C177.265 138.9 176.525 139.02 175.865 139.28C175.185 139.54 174.585 139.92 174.085 140.4C173.065 141.34 172.505 142.66 172.525 143.96C172.505 145.28 173.065 146.58 174.085 147.54C174.585 148.02 175.185 148.4 175.845 148.66C176.525 148.92 177.245 149.04 177.985 149.04C178.705 149.04 179.425 148.88 180.085 148.6C180.725 148.34 181.305 147.92 181.785 147.46C182.045 147.2 182.245 146.92 182.445 146.62V148.96H183.665V138.96H182.445ZM182.085 145.54C181.845 146.02 181.505 146.48 181.085 146.84C180.245 147.56 179.105 147.94 177.985 147.94C176.865 147.92 175.765 147.48 174.985 146.74C174.185 146.02 173.745 145 173.725 143.96C173.725 142.94 174.185 141.92 174.985 141.18C175.765 140.46 176.845 140.02 177.985 140C179.105 139.98 180.245 140.36 181.085 141.1C181.505 141.46 181.845 141.9 182.085 142.4C182.325 142.9 182.445 143.42 182.445 143.96C182.445 144.5 182.325 145.04 182.085 145.54ZM187.018 148.98V134.98H185.798V148.98H187.018ZM197.138 138.98L193.258 147.42L189.538 138.98H188.218L192.678 148.68L190.698 152.98H192.018L198.458 139V138.98H197.138ZM203.385 147.34C202.905 147.02 202.725 146.5 202.725 145.3V140.08H206.025V138.96H202.725V135.86L201.505 136.52V138.98H198.785V140.08H201.505V145.3C201.505 146.62 201.705 147.62 202.665 148.24C203.245 148.6 203.985 148.72 204.805 148.72C205.205 148.72 205.605 148.7 206.025 148.66V147.54C205.065 147.64 203.945 147.7 203.385 147.34ZM208.698 148.96V138.96H207.458V148.96H208.698ZM208.078 135.28C207.558 135.28 207.138 135.7 207.138 136.22C207.138 136.76 207.558 137.18 208.078 137.18C208.598 137.18 209.038 136.76 209.038 136.22C209.038 135.7 208.598 135.28 208.078 135.28ZM215.797 147.94H215.777C213.437 147.92 211.537 146.14 211.557 143.96C211.557 141.78 213.457 140 215.797 140C217.157 140 218.417 140.6 219.217 141.64L220.217 141C219.197 139.68 217.537 138.9 215.817 138.9C215.797 138.9 215.797 138.9 215.797 138.9C212.777 138.9 210.337 141.16 210.337 143.96C210.317 146.76 212.757 149.04 215.777 149.04H215.797C217.517 149.04 219.157 148.28 220.177 146.98L219.197 146.34C218.377 147.34 217.137 147.94 215.797 147.94ZM225.557 143.24C225.397 143.18 225.237 143.14 225.117 143.1C225.037 143.08 224.957 143.04 224.857 143C223.797 142.66 222.777 142.24 222.857 141.38C222.957 140.02 224.957 140 224.977 140C226.197 140 227.017 140.44 227.397 141.3L228.537 140.88C227.957 139.6 226.697 138.9 224.977 138.9C223.457 138.9 221.777 139.64 221.637 141.3C221.497 143.06 223.477 143.72 224.437 144.04C224.517 144.08 224.597 144.1 224.677 144.14C224.817 144.18 224.977 144.24 225.157 144.28C226.457 144.7 227.637 145.16 227.677 146.28C227.677 146.68 227.537 147.04 227.217 147.3C226.737 147.74 225.937 147.96 225.077 147.92C223.977 147.88 222.657 147.36 222.257 146.04L221.097 146.34C221.557 147.9 223.097 148.96 225.017 149.04C225.097 149.04 225.177 149.04 225.257 149.04C226.377 149.04 227.397 148.7 228.077 148.1C228.637 147.6 228.917 146.96 228.897 146.26C228.837 144.26 226.697 143.6 225.557 143.24ZM247.629 139.2C247.269 138.34 246.729 137.58 246.029 136.96C245.349 136.34 244.489 135.86 243.509 135.52C242.549 135.18 241.449 135 240.249 135H235.469V149.02H240.249C241.449 149.02 242.549 148.84 243.509 148.5C244.489 148.16 245.349 147.68 246.029 147.06C246.729 146.46 247.269 145.7 247.629 144.84C248.009 143.98 248.189 143.04 248.189 142C248.189 141 248.009 140.06 247.629 139.2ZM246.489 144.44C246.189 145.16 245.749 145.76 245.189 146.28C244.609 146.78 243.909 147.18 243.089 147.46C242.249 147.76 241.309 147.9 240.249 147.9H236.689V136.12H240.249C241.309 136.12 242.249 136.26 243.089 136.56C243.909 136.84 244.609 137.24 245.169 137.76C245.749 138.26 246.189 138.88 246.489 139.6C246.809 140.32 246.969 141.14 246.969 142C246.969 142.9 246.809 143.72 246.489 144.44ZM259.242 138.96V141.3C259.042 141.02 258.842 140.74 258.582 140.48C258.102 140 257.522 139.6 256.882 139.34C256.222 139.06 255.502 138.9 254.782 138.9C254.062 138.9 253.322 139.02 252.662 139.28C251.982 139.54 251.382 139.92 250.882 140.4C249.862 141.34 249.302 142.66 249.322 143.96C249.302 145.28 249.862 146.58 250.882 147.54C251.382 148.02 251.982 148.4 252.642 148.66C253.322 148.92 254.042 149.04 254.782 149.04C255.502 149.04 256.222 148.88 256.882 148.6C257.522 148.34 258.102 147.92 258.582 147.46C258.842 147.2 259.042 146.92 259.242 146.62V148.96H260.462V138.96H259.242ZM258.882 145.54C258.642 146.02 258.302 146.48 257.882 146.84C257.042 147.56 255.902 147.94 254.782 147.94C253.662 147.92 252.562 147.48 251.782 146.74C250.982 146.02 250.542 145 250.522 143.96C250.522 142.94 250.982 141.92 251.782 141.18C252.562 140.46 253.642 140.02 254.782 140C255.902 139.98 257.042 140.36 257.882 141.1C258.302 141.46 258.642 141.9 258.882 142.4C259.122 142.9 259.242 143.42 259.242 143.96C259.242 144.5 259.122 145.04 258.882 145.54ZM266.455 143.24C266.295 143.18 266.135 143.14 266.015 143.1C265.935 143.08 265.855 143.04 265.755 143C264.695 142.66 263.675 142.24 263.755 141.38C263.855 140.02 265.855 140 265.875 140C267.095 140 267.915 140.44 268.295 141.3L269.435 140.88C268.855 139.6 267.595 138.9 265.875 138.9C264.355 138.9 262.675 139.64 262.535 141.3C262.395 143.06 264.375 143.72 265.335 144.04C265.415 144.08 265.495 144.1 265.575 144.14C265.715 144.18 265.875 144.24 266.055 144.28C267.355 144.7 268.535 145.16 268.575 146.28C268.575 146.68 268.435 147.04 268.115 147.3C267.635 147.74 266.835 147.96 265.975 147.92C264.875 147.88 263.555 147.36 263.155 146.04L261.995 146.34C262.455 147.9 263.995 148.96 265.915 149.04C265.995 149.04 266.075 149.04 266.155 149.04C267.275 149.04 268.295 148.7 268.975 148.1C269.535 147.6 269.815 146.96 269.795 146.26C269.735 144.26 267.595 143.6 266.455 143.24ZM280.243 148.96V143.28C280.263 142.26 280.003 141.16 279.263 140.26C278.883 139.82 278.383 139.44 277.823 139.2C277.243 138.96 276.623 138.88 276.023 138.88C275.443 138.9 274.823 139.02 274.283 139.28C273.743 139.54 273.283 139.92 272.963 140.36C272.843 140.52 272.743 140.7 272.663 140.86V134.96H271.443V148.96H272.663V143.5C272.663 143.42 272.663 143.36 272.663 143.28C272.703 142.82 272.783 142.38 272.943 141.96C273.103 141.54 273.343 141.16 273.663 140.86C274.263 140.22 275.143 139.96 276.023 140C276.923 140.02 277.743 140.34 278.263 140.96C278.523 141.26 278.723 141.64 278.843 142.02C278.983 142.42 279.023 142.84 279.023 143.28V148.96H280.243ZM291.804 140.4C291.304 139.92 290.684 139.54 290.024 139.28C289.344 139.02 288.624 138.9 287.904 138.9C287.164 138.9 286.444 139.06 285.804 139.34C285.144 139.6 284.564 140 284.104 140.48C283.844 140.74 283.624 141.02 283.444 141.32V134.96H282.224V148.96H283.444V146.62C283.624 146.92 283.844 147.2 284.084 147.46C284.564 147.94 285.144 148.34 285.804 148.6C286.444 148.88 287.164 149.04 287.904 149.04C288.624 149.04 289.344 148.92 290.024 148.66C290.684 148.4 291.304 148.02 291.804 147.54C292.804 146.58 293.364 145.28 293.364 143.96C293.364 142.66 292.804 141.34 291.804 140.4ZM290.904 146.74C290.124 147.48 289.024 147.92 287.904 147.94C286.784 147.94 285.644 147.56 284.804 146.84C284.384 146.48 284.024 146.02 283.804 145.54C283.564 145.04 283.444 144.5 283.444 143.96C283.444 143.42 283.564 142.88 283.784 142.4C284.024 141.9 284.384 141.46 284.804 141.1C285.644 140.36 286.784 139.98 287.904 140C289.024 140.02 290.124 140.44 290.904 141.18C291.684 141.92 292.144 142.94 292.144 143.96C292.144 145 291.684 146.02 290.904 146.74ZM299.958 138.9C296.938 138.9 294.498 141.18 294.498 143.96C294.498 146.76 296.938 149.04 299.958 149.04C302.978 149.04 305.418 146.76 305.418 143.96C305.418 141.18 302.978 138.9 299.958 138.9ZM299.958 147.94C297.618 147.94 295.718 146.16 295.718 143.96C295.718 141.78 297.618 140 299.958 140C302.298 140 304.198 141.78 304.198 143.96C304.198 146.16 302.298 147.94 299.958 147.94ZM316.468 138.96V141.3C316.268 141.02 316.068 140.74 315.808 140.48C315.328 140 314.748 139.6 314.108 139.34C313.448 139.06 312.728 138.9 312.008 138.9C311.288 138.9 310.548 139.02 309.888 139.28C309.208 139.54 308.608 139.92 308.108 140.4C307.088 141.34 306.528 142.66 306.548 143.96C306.528 145.28 307.088 146.58 308.108 147.54C308.608 148.02 309.208 148.4 309.868 148.66C310.548 148.92 311.268 149.04 312.008 149.04C312.728 149.04 313.448 148.88 314.108 148.6C314.748 148.34 315.328 147.92 315.808 147.46C316.068 147.2 316.268 146.92 316.468 146.62V148.96H317.688V138.96H316.468ZM316.108 145.54C315.868 146.02 315.528 146.48 315.108 146.84C314.268 147.56 313.128 147.94 312.008 147.94C310.888 147.92 309.788 147.48 309.008 146.74C308.208 146.02 307.768 145 307.748 143.96C307.748 142.94 308.208 141.92 309.008 141.18C309.788 140.46 310.868 140.02 312.008 140C313.128 139.98 314.268 140.36 315.108 141.1C315.528 141.46 315.868 141.9 316.108 142.4C316.348 142.9 316.468 143.42 316.468 143.96C316.468 144.5 316.348 145.04 316.108 145.54ZM324.402 138.88C323.822 138.9 323.202 139.02 322.662 139.28C322.122 139.54 321.662 139.92 321.342 140.36C321.222 140.52 321.122 140.7 321.042 140.86V138.96H319.822V148.96H321.042V143.5C321.042 143.42 321.042 143.36 321.042 143.28C321.082 142.82 321.162 142.38 321.322 141.96C321.482 141.54 321.722 141.16 322.042 140.86C322.642 140.22 323.522 139.96 324.402 140C324.902 140 325.382 140.12 325.782 140.32L326.062 139.16C325.522 138.96 324.962 138.88 324.402 138.88ZM335.941 134.96V141.3C335.741 141.02 335.541 140.74 335.281 140.48C334.801 140 334.221 139.6 333.581 139.34C332.921 139.06 332.201 138.9 331.481 138.9C330.761 138.9 330.021 139.02 329.361 139.28C328.681 139.54 328.081 139.92 327.581 140.4C326.561 141.34 326.001 142.66 326.021 143.96C326.001 145.28 326.561 146.58 327.581 147.54C328.081 148.02 328.681 148.4 329.341 148.66C330.021 148.92 330.741 149.04 331.481 149.04C332.201 149.04 332.921 148.88 333.581 148.6C334.221 148.34 334.801 147.92 335.281 147.46C335.521 147.2 335.741 146.92 335.941 146.62V148.96H337.161V134.96H335.941ZM335.581 145.54C335.341 146.02 335.001 146.48 334.581 146.84C333.741 147.56 332.601 147.94 331.481 147.94C330.361 147.92 329.261 147.48 328.481 146.74C327.681 146.02 327.241 145 327.221 143.96C327.221 142.94 327.681 141.92 328.481 141.18C329.261 140.46 330.341 140.02 331.481 140C332.601 139.98 333.741 140.36 334.581 141.1C335.001 141.46 335.341 141.9 335.581 142.4C335.821 142.9 335.941 143.42 335.941 143.96C335.941 144.5 335.821 145.04 335.581 145.54Z" fill="#1C1C1C"/>
<circle cx="124" cy="142" r="14" stroke="#CCCCCC" stroke-width="2"/>
<defs>
<filter id="filter0_d_1431_5166" x="0" y="0" width="502" height="356" filterUnits="userSpaceOnUse" color-interpolation-filters="sRGB">
<feFlood flood-opacity="0" result="BackgroundImageFix"/>
<feColorMatrix in="SourceAlpha" type="matrix" values="0 0 0 0 0 0 0 0 0 0 0 0 0 0 0 0 0 0 127 0" result="hardAlpha"/>
<feOffset dy="10"/>
<feGaussianBlur stdDeviation="35.5"/>
<feComposite in2="hardAlpha" operator="out"/>
<feColorMatrix type="matrix" values="0 0 0 0 0 0 0 0 0 0 0 0 0 0 0 0 0 0 0.05 0"/>
<feBlend mode="normal" in2="BackgroundImageFix" result="effect1_dropShadow_1431_5166"/>
<feBlend mode="normal" in="SourceGraphic" in2="effect1_dropShadow_1431_5166" result="shape"/>
</filter>
</defs>
</svg>