<svg width="360" height="208" viewBox="0 0 360 208" fill="none" xmlns="http://www.w3.org/2000/svg">
<g filter="url(#filter0_d_1431_5166)">
<rect width="360" height="208" rx="7" fill="#F4F8F9"/>
<rect x="0.5" y="0.5" width="359" height="207" rx="6.5" stroke="#BBBBBB" stroke-opacity="0.28"/>
</g>
<path d="M53 104V94" stroke="#08AEEA" stroke-width="2" stroke-dasharray="5 5"/>
<path opacity="0.2" d="M57.224 33.814C58.763 32.113 59.681 29.953 59.681 27.55C59.681 22.177 54.983 17.803 49.178 17.803C43.4 17.803 38.702 22.177 38.702 27.55C38.702 32.95 43.4 37.324 49.178 37.324C51.824 37.324 54.254 36.406 56.09 34.894L58.412 37H60.734L57.224 33.814ZM56.063 32.761L53.309 30.25H50.987L54.929 33.841C53.363 35.056 51.365 35.812 49.178 35.812C44.318 35.812 40.349 32.113 40.349 27.577C40.349 23.014 44.318 19.315 49.178 19.315C54.065 19.315 58.034 23.014 58.034 27.577C58.034 29.521 57.305 31.33 56.063 32.761ZM72.086 26.713C70.034 25.444 68.09 25.795 68.09 25.795L74.057 19.666V18.019H62.42V19.504H72.032L65.822 26.038L66.848 27.307C67.334 27.172 67.82 27.091 68.333 27.091C70.952 27.091 73.085 29.008 73.085 31.357C73.085 33.706 70.952 35.623 68.333 35.623C65.714 35.623 63.608 33.706 63.608 31.357H61.961C61.961 34.516 64.823 37.108 68.333 37.108C71.87 37.108 74.732 34.516 74.732 31.357C74.732 29.44 73.706 27.739 72.086 26.713Z" fill="#1C1C1C"/>
<path d="M87.08 164.02V173.16C87.08 173.8 86.98 174.36 86.8 174.86C86.6 175.34 86.34 175.76 86 176.08C85.66 176.42 85.24 176.68 84.78 176.86C84.3 177.02 83.76 177.12 83.16 177.12C82.58 177.12 82.04 177.02 81.56 176.86C81.08 176.68 80.66 176.42 80.34 176.08C79.98 175.76 79.72 175.34 79.52 174.86C79.34 174.36 79.24 173.8 79.24 173.16V164.02H78.02V173.16C78.02 173.92 78.14 174.62 78.38 175.24C78.62 175.86 78.98 176.4 79.44 176.84C79.9 177.3 80.46 177.64 81.08 177.88C81.72 178.12 82.42 178.24 83.16 178.24C83.92 178.24 84.62 178.12 85.24 177.88C85.88 177.64 86.44 177.3 86.88 176.84C87.34 176.4 87.7 175.86 87.94 175.24C88.18 174.62 88.3 173.92 88.3 173.18V164.02H87.08ZM91.7238 178V164.02H90.5038V178H91.7238ZM100.083 178V164.02H98.8631V178H100.083ZM116.318 177.96V172.46V171.76C116.318 171.52 116.318 171.26 116.278 171C116.218 170.5 116.058 169.98 115.778 169.5C115.498 169 115.058 168.58 114.518 168.28C114.238 168.14 113.938 168.04 113.638 167.96C113.338 167.9 113.038 167.88 112.738 167.88C112.438 167.9 112.138 167.94 111.838 168.02C111.558 168.1 111.278 168.22 111.018 168.38C110.518 168.7 110.158 169.14 109.938 169.6C109.838 169.82 109.758 170.02 109.718 170.24C109.618 169.98 109.518 169.74 109.378 169.5C109.098 169 108.658 168.58 108.118 168.28C107.838 168.14 107.558 168.04 107.238 167.96C106.938 167.9 106.638 167.88 106.338 167.88C106.038 167.9 105.738 167.94 105.458 168.02C105.158 168.1 104.878 168.22 104.638 168.38C104.138 168.7 103.758 169.14 103.538 169.6C103.538 169.62 103.538 169.62 103.538 169.62V167.98H102.318V177.96H103.538V172.28L103.558 171.76C103.558 171.54 103.598 171.32 103.638 171.1C103.738 170.68 103.918 170.28 104.178 169.94C104.438 169.6 104.778 169.34 105.158 169.18C105.518 169.04 105.918 168.98 106.338 169C107.178 169.02 107.858 169.4 108.258 170.04C108.478 170.38 108.598 170.76 108.658 171.14C108.698 171.36 108.718 171.56 108.718 171.76V172.46V177.96H109.938V172.46V172.2V171.76C109.958 171.54 109.978 171.32 110.038 171.1C110.138 170.68 110.318 170.26 110.578 169.94C110.838 169.6 111.178 169.34 111.538 169.18C111.918 169.04 112.318 168.98 112.738 169C113.558 169.02 114.258 169.4 114.658 170.04C114.858 170.38 114.998 170.76 115.058 171.14C115.098 171.34 115.098 171.56 115.098 171.76V172.46V177.96H116.318ZM127.894 169.48C127.394 169 126.774 168.62 126.114 168.36C125.434 168.1 124.714 167.96 123.994 167.96C123.254 167.98 122.534 168.12 121.894 168.4C121.234 168.68 120.654 169.08 120.174 169.56C119.934 169.82 119.714 170.1 119.534 170.38V168.04H118.314V182.04H119.534V175.7C119.714 176 119.934 176.28 120.194 176.52C120.654 177 121.234 177.4 121.894 177.68C122.534 177.96 123.254 178.1 123.994 178.12C124.714 178.12 125.434 178 126.114 177.74C126.774 177.48 127.394 177.08 127.894 176.62C128.894 175.66 129.454 174.36 129.454 173.04C129.454 171.74 128.894 170.42 127.894 169.48ZM126.994 175.82C126.214 176.56 125.114 177 123.994 177C122.874 177.02 121.734 176.64 120.894 175.92C120.474 175.54 120.114 175.1 119.874 174.62C119.654 174.12 119.534 173.58 119.534 173.04C119.534 172.5 119.654 171.96 119.894 171.48C120.114 170.98 120.474 170.54 120.894 170.18C121.734 169.44 122.874 169.06 123.994 169.08C125.114 169.1 126.214 169.52 126.994 170.26C127.774 171 128.234 172.02 128.234 173.04C128.234 174.08 127.774 175.1 126.994 175.82ZM135.667 167.88C135.087 167.9 134.467 168.02 133.927 168.28C133.387 168.54 132.927 168.92 132.607 169.36C132.487 169.52 132.387 169.7 132.307 169.86V167.96H131.087V177.96H132.307V172.5C132.307 172.42 132.307 172.36 132.307 172.28C132.347 171.82 132.427 171.38 132.587 170.96C132.747 170.54 132.987 170.16 133.307 169.86C133.907 169.22 134.787 168.96 135.667 169C136.167 169 136.647 169.12 137.047 169.32L137.327 168.16C136.787 167.96 136.227 167.88 135.667 167.88ZM142.727 167.9C139.707 167.9 137.267 170.18 137.267 172.96C137.267 175.76 139.707 178.04 142.727 178.04C145.747 178.04 148.187 175.76 148.187 172.96C148.187 170.18 145.747 167.9 142.727 167.9ZM142.727 176.94C140.387 176.94 138.487 175.16 138.487 172.96C138.487 170.78 140.387 169 142.727 169C145.067 169 146.967 170.78 146.967 172.96C146.967 175.16 145.067 176.94 142.727 176.94ZM156.387 167.98L153.107 176.64L149.827 167.98H148.547L152.327 177.96H153.907L157.687 167.98H156.387ZM168.908 173.52C168.928 173.34 168.948 173.16 168.948 172.96C168.948 170.18 166.508 167.9 163.488 167.9C160.468 167.9 158.028 170.18 158.028 172.96C158.028 175.76 160.648 178.04 163.908 178.04C165.868 178.04 167.668 177.2 168.748 175.84L167.628 175.36C166.748 176.34 165.388 176.94 163.908 176.94C161.548 176.94 159.608 175.44 159.288 173.52H168.908ZM159.288 172.42C159.588 170.5 161.348 169 163.488 169C165.628 169 167.388 170.5 167.688 172.42H159.288ZM184.58 177.96V172.46V171.76C184.58 171.52 184.58 171.26 184.54 171C184.48 170.5 184.32 169.98 184.04 169.5C183.76 169 183.32 168.58 182.78 168.28C182.5 168.14 182.2 168.04 181.9 167.96C181.6 167.9 181.3 167.88 181 167.88C180.7 167.9 180.4 167.94 180.1 168.02C179.82 168.1 179.54 168.22 179.28 168.38C178.78 168.7 178.42 169.14 178.2 169.6C178.1 169.82 178.02 170.02 177.98 170.24C177.88 169.98 177.78 169.74 177.64 169.5C177.36 169 176.92 168.58 176.38 168.28C176.1 168.14 175.82 168.04 175.5 167.96C175.2 167.9 174.9 167.88 174.6 167.88C174.3 167.9 174 167.94 173.72 168.02C173.42 168.1 173.14 168.22 172.9 168.38C172.4 168.7 172.02 169.14 171.8 169.6C171.8 169.62 171.8 169.62 171.8 169.62V167.98H170.58V177.96H171.8V172.28L171.82 171.76C171.82 171.54 171.86 171.32 171.9 171.1C172 170.68 172.18 170.28 172.44 169.94C172.7 169.6 173.04 169.34 173.42 169.18C173.78 169.04 174.18 168.98 174.6 169C175.44 169.02 176.12 169.4 176.52 170.04C176.74 170.38 176.86 170.76 176.92 171.14C176.96 171.36 176.98 171.56 176.98 171.76V172.46V177.96H178.2V172.46V172.2V171.76C178.22 171.54 178.24 171.32 178.3 171.1C178.4 170.68 178.58 170.26 178.84 169.94C179.1 169.6 179.44 169.34 179.8 169.18C180.18 169.04 180.58 168.98 181 169C181.82 169.02 182.52 169.4 182.92 170.04C183.12 170.38 183.26 170.76 183.32 171.14C183.36 171.34 183.36 171.56 183.36 171.76V172.46V177.96H184.58ZM196.936 173.52C196.956 173.34 196.976 173.16 196.976 172.96C196.976 170.18 194.536 167.9 191.516 167.9C188.496 167.9 186.056 170.18 186.056 172.96C186.056 175.76 188.676 178.04 191.936 178.04C193.896 178.04 195.696 177.2 196.776 175.84L195.656 175.36C194.776 176.34 193.416 176.94 191.936 176.94C189.576 176.94 187.636 175.44 187.316 173.52H196.936ZM187.316 172.42C187.616 170.5 189.376 169 191.516 169C193.656 169 195.416 170.5 195.716 172.42H187.316ZM207.407 177.96V172.28C207.427 171.26 207.167 170.16 206.427 169.26C206.047 168.82 205.547 168.44 204.987 168.2C204.407 167.96 203.787 167.88 203.187 167.88C202.607 167.9 201.987 168.02 201.447 168.28C200.907 168.54 200.447 168.92 200.127 169.36C200.007 169.52 199.907 169.7 199.827 169.86V167.96H198.607V177.96H199.827V172.5C199.827 172.42 199.827 172.36 199.827 172.28C199.867 171.82 199.947 171.38 200.107 170.96C200.267 170.54 200.507 170.16 200.827 169.86C201.427 169.22 202.307 168.96 203.187 169C204.087 169.02 204.907 169.34 205.427 169.96C205.687 170.26 205.887 170.64 206.007 171.02C206.127 171.42 206.187 171.84 206.187 172.28V177.96H207.407ZM212.502 176.34C212.022 176.02 211.842 175.5 211.842 174.3V169.08H215.142V167.96H211.842V164.86L210.622 165.52V167.98H207.902V169.08H210.622V174.3C210.622 175.62 210.822 176.62 211.782 177.24C212.362 177.6 213.102 177.72 213.922 177.72C214.322 177.72 214.722 177.7 215.142 177.66V176.54C214.182 176.64 213.062 176.7 212.502 176.34ZM220.455 172.24C220.295 172.18 220.135 172.14 220.015 172.1C219.935 172.08 219.855 172.04 219.755 172C218.695 171.66 217.675 171.24 217.755 170.38C217.855 169.02 219.855 169 219.875 169C221.095 169 221.915 169.44 222.295 170.3L223.435 169.88C222.855 168.6 221.595 167.9 219.875 167.9C218.355 167.9 216.675 168.64 216.535 170.3C216.395 172.06 218.375 172.72 219.335 173.04C219.415 173.08 219.495 173.1 219.575 173.14C219.715 173.18 219.875 173.24 220.055 173.28C221.355 173.7 222.535 174.16 222.575 175.28C222.575 175.68 222.435 176.04 222.115 176.3C221.635 176.74 220.835 176.96 219.975 176.92C218.875 176.88 217.555 176.36 217.155 175.04L215.995 175.34C216.455 176.9 217.995 177.96 219.915 178.04C219.995 178.04 220.075 178.04 220.155 178.04C221.275 178.04 222.295 177.7 222.975 177.1C223.535 176.6 223.815 175.96 223.795 175.26C223.735 173.26 221.595 172.6 220.455 172.24Z" fill="#1C1C1C"/>
<path d="M90.82 116.02H89.84L84.98 125.98L80.12 116.02H79.14L77.64 130H78.86L79.94 120.06C80.04 119.1 80.04 118.74 79.98 118.22C79.98 118.22 80.34 119.2 80.72 119.98L84.98 128.72L89.24 119.98C89.62 119.2 89.98 118.22 89.98 118.22C89.92 118.74 89.92 119.1 90.02 120.06L91.1 130.02H92.32L90.82 116.02ZM103.457 119.96V122.3C103.257 122.02 103.057 121.74 102.797 121.48C102.317 121 101.737 120.6 101.097 120.34C100.437 120.06 99.7166 119.9 98.9966 119.9C98.2766 119.9 97.5366 120.02 96.8766 120.28C96.1966 120.54 95.5966 120.92 95.0966 121.4C94.0766 122.34 93.5166 123.66 93.5366 124.96C93.5166 126.28 94.0766 127.58 95.0966 128.54C95.5966 129.02 96.1966 129.4 96.8566 129.66C97.5366 129.92 98.2566 130.04 98.9966 130.04C99.7166 130.04 100.437 129.88 101.097 129.6C101.737 129.34 102.317 128.92 102.797 128.46C103.057 128.2 103.257 127.92 103.457 127.62V129.96H104.677V119.96H103.457ZM103.097 126.54C102.857 127.02 102.517 127.48 102.097 127.84C101.257 128.56 100.117 128.94 98.9966 128.94C97.8766 128.92 96.7766 128.48 95.9966 127.74C95.1966 127.02 94.7566 126 94.7366 124.96C94.7366 123.94 95.1966 122.92 95.9966 122.18C96.7766 121.46 97.8566 121.02 98.9966 121C100.117 120.98 101.257 121.36 102.097 122.1C102.517 122.46 102.857 122.9 103.097 123.4C103.337 123.9 103.457 124.42 103.457 124.96C103.457 125.5 103.337 126.04 103.097 126.54ZM111.39 119.88C110.81 119.9 110.19 120.02 109.65 120.28C109.11 120.54 108.65 120.92 108.33 121.36C108.21 121.52 108.11 121.7 108.03 121.86V119.96H106.81V129.96H108.03V124.5C108.03 124.42 108.03 124.36 108.03 124.28C108.07 123.82 108.15 123.38 108.31 122.96C108.47 122.54 108.71 122.16 109.03 121.86C109.63 121.22 110.51 120.96 111.39 121C111.89 121 112.37 121.12 112.77 121.32L113.05 120.16C112.51 119.96 111.95 119.88 111.39 119.88ZM122.79 119.96V122.32C122.61 122.04 122.41 121.76 122.15 121.52C121.69 121.04 121.11 120.66 120.47 120.38C119.83 120.1 119.11 119.96 118.39 119.94C117.67 119.94 116.95 120.06 116.29 120.32C115.63 120.58 115.03 120.96 114.53 121.44C113.53 122.38 112.97 123.68 112.99 124.96C112.97 126.26 113.53 127.56 114.53 128.5C115.03 128.98 115.63 129.36 116.29 129.62C116.95 129.88 117.67 130 118.39 130C119.11 129.98 119.83 129.84 120.47 129.56C121.11 129.28 121.69 128.9 122.15 128.42C122.41 128.18 122.61 127.9 122.79 127.62V129.04C122.79 130.58 122.23 132.52 119.55 132.98C117.51 133.3 115.31 132.44 114.33 130.9L113.27 131.46C114.33 133.14 116.45 134.16 118.63 134.16C119.01 134.16 119.39 134.12 119.77 134.06C122.47 133.62 124.03 131.78 124.03 129.04V119.96H122.79ZM122.45 126.52C122.21 127 121.87 127.44 121.45 127.8C120.63 128.52 119.49 128.9 118.39 128.88C117.29 128.88 116.19 128.44 115.43 127.72C114.65 127 114.19 125.98 114.19 124.96C114.19 123.94 114.65 122.94 115.43 122.22C116.19 121.5 117.29 121.06 118.39 121.06C119.49 121.04 120.63 121.4 121.45 122.14C121.87 122.5 122.21 122.94 122.45 123.42C122.67 123.9 122.79 124.44 122.79 124.96C122.79 125.5 122.67 126.04 122.45 126.52ZM127.171 129.96V119.96H125.931V129.96H127.171ZM126.551 116.28C126.031 116.28 125.611 116.7 125.611 117.22C125.611 117.76 126.031 118.18 126.551 118.18C127.071 118.18 127.511 117.76 127.511 117.22C127.511 116.7 127.071 116.28 126.551 116.28ZM138.11 129.96V124.28C138.13 123.26 137.87 122.16 137.13 121.26C136.75 120.82 136.25 120.44 135.69 120.2C135.11 119.96 134.49 119.88 133.89 119.88C133.31 119.9 132.69 120.02 132.15 120.28C131.61 120.54 131.15 120.92 130.83 121.36C130.71 121.52 130.61 121.7 130.53 121.86V119.96H129.31V129.96H130.53V124.5C130.53 124.42 130.53 124.36 130.53 124.28C130.57 123.82 130.65 123.38 130.81 122.96C130.97 122.54 131.21 122.16 131.53 121.86C132.13 121.22 133.01 120.96 133.89 121C134.79 121.02 135.61 121.34 136.13 121.96C136.39 122.26 136.59 122.64 136.71 123.02C136.83 123.42 136.89 123.84 136.89 124.28V129.96H138.11ZM152.896 119.98L149.016 128.42L145.296 119.98H143.976L148.436 129.68L146.456 133.98H147.776L154.216 120V119.98H152.896ZM156.663 129.96V119.96H155.423V129.96H156.663ZM156.043 116.28C155.523 116.28 155.103 116.7 155.103 117.22C155.103 117.76 155.523 118.18 156.043 118.18C156.563 118.18 157.003 117.76 157.003 117.22C157.003 116.7 156.563 116.28 156.043 116.28ZM169.162 125.52C169.182 125.34 169.202 125.16 169.202 124.96C169.202 122.18 166.762 119.9 163.742 119.9C160.722 119.9 158.282 122.18 158.282 124.96C158.282 127.76 160.902 130.04 164.162 130.04C166.122 130.04 167.922 129.2 169.002 127.84L167.882 127.36C167.002 128.34 165.642 128.94 164.162 128.94C161.802 128.94 159.862 127.44 159.542 125.52H169.162ZM159.542 124.42C159.842 122.5 161.602 121 163.742 121C165.882 121 167.642 122.5 167.942 124.42H159.542ZM172.053 129.98V115.98H170.833V129.98H172.053ZM183.593 115.96V122.3C183.393 122.02 183.193 121.74 182.933 121.48C182.453 121 181.873 120.6 181.233 120.34C180.573 120.06 179.853 119.9 179.133 119.9C178.413 119.9 177.673 120.02 177.013 120.28C176.333 120.54 175.733 120.92 175.233 121.4C174.213 122.34 173.653 123.66 173.673 124.96C173.653 126.28 174.213 127.58 175.233 128.54C175.733 129.02 176.333 129.4 176.993 129.66C177.673 129.92 178.393 130.04 179.133 130.04C179.853 130.04 180.573 129.88 181.233 129.6C181.873 129.34 182.453 128.92 182.933 128.46C183.173 128.2 183.393 127.92 183.593 127.62V129.96H184.813V115.96H183.593ZM183.233 126.54C182.993 127.02 182.653 127.48 182.233 127.84C181.393 128.56 180.253 128.94 179.133 128.94C178.013 128.92 176.913 128.48 176.133 127.74C175.333 127.02 174.893 126 174.873 124.96C174.873 123.94 175.333 122.92 176.133 122.18C176.913 121.46 177.993 121.02 179.133 121C180.253 120.98 181.393 121.36 182.233 122.1C182.653 122.46 182.993 122.9 183.233 123.4C183.473 123.9 183.593 124.42 183.593 124.96C183.593 125.5 183.473 126.04 183.233 126.54ZM195.271 117.5C195.811 117.08 196.571 117 197.771 117.06V115.94C196.551 115.9 195.391 115.94 194.471 116.66C193.711 117.26 193.351 118.14 193.351 119.4V119.96H190.831V121.08H193.351V129.96H194.571V121.08H197.771V119.96H194.571V119.4C194.571 118.22 194.931 117.78 195.271 117.5ZM207.695 119.96V122.3C207.495 122.02 207.295 121.74 207.035 121.48C206.555 121 205.975 120.6 205.335 120.34C204.675 120.06 203.955 119.9 203.235 119.9C202.515 119.9 201.775 120.02 201.115 120.28C200.435 120.54 199.835 120.92 199.335 121.4C198.315 122.34 197.755 123.66 197.775 124.96C197.755 126.28 198.315 127.58 199.335 128.54C199.835 129.02 200.435 129.4 201.095 129.66C201.775 129.92 202.495 130.04 203.235 130.04C203.955 130.04 204.675 129.88 205.335 129.6C205.975 129.34 206.555 128.92 207.035 128.46C207.295 128.2 207.495 127.92 207.695 127.62V129.96H208.915V119.96H207.695ZM207.335 126.54C207.095 127.02 206.755 127.48 206.335 127.84C205.495 128.56 204.355 128.94 203.235 128.94C202.115 128.92 201.015 128.48 200.235 127.74C199.435 127.02 198.995 126 198.975 124.96C198.975 123.94 199.435 122.92 200.235 122.18C201.015 121.46 202.095 121.02 203.235 121C204.355 120.98 205.495 121.36 206.335 122.1C206.755 122.46 207.095 122.9 207.335 123.4C207.575 123.9 207.695 124.42 207.695 124.96C207.695 125.5 207.575 126.04 207.335 126.54ZM215.628 119.88C215.048 119.9 214.428 120.02 213.888 120.28C213.348 120.54 212.888 120.92 212.568 121.36C212.448 121.52 212.348 121.7 212.268 121.86V119.96H211.048V129.96H212.268V124.5C212.268 124.42 212.268 124.36 212.268 124.28C212.308 123.82 212.388 123.38 212.548 122.96C212.708 122.54 212.948 122.16 213.268 121.86C213.868 121.22 214.748 120.96 215.628 121C216.128 121 216.608 121.12 217.008 121.32L217.288 120.16C216.748 119.96 216.188 119.88 215.628 119.88ZM232.529 129.96V124.46V123.76C232.529 123.52 232.529 123.26 232.489 123C232.429 122.5 232.269 121.98 231.989 121.5C231.709 121 231.269 120.58 230.729 120.28C230.449 120.14 230.149 120.04 229.849 119.96C229.549 119.9 229.249 119.88 228.949 119.88C228.649 119.9 228.349 119.94 228.049 120.02C227.769 120.1 227.489 120.22 227.229 120.38C226.729 120.7 226.369 121.14 226.149 121.6C226.049 121.82 225.969 122.02 225.929 122.24C225.829 121.98 225.729 121.74 225.589 121.5C225.309 121 224.869 120.58 224.329 120.28C224.049 120.14 223.769 120.04 223.449 119.96C223.149 119.9 222.849 119.88 222.549 119.88C222.249 119.9 221.949 119.94 221.669 120.02C221.369 120.1 221.089 120.22 220.849 120.38C220.349 120.7 219.969 121.14 219.749 121.6C219.749 121.62 219.749 121.62 219.749 121.62V119.98H218.529V129.96H219.749V124.28L219.769 123.76C219.769 123.54 219.809 123.32 219.849 123.1C219.949 122.68 220.129 122.28 220.389 121.94C220.649 121.6 220.989 121.34 221.369 121.18C221.729 121.04 222.129 120.98 222.549 121C223.389 121.02 224.069 121.4 224.469 122.04C224.689 122.38 224.809 122.76 224.869 123.14C224.909 123.36 224.929 123.56 224.929 123.76V124.46V129.96H226.149V124.46V124.2V123.76C226.169 123.54 226.189 123.32 226.249 123.1C226.349 122.68 226.529 122.26 226.789 121.94C227.049 121.6 227.389 121.34 227.749 121.18C228.129 121.04 228.529 120.98 228.949 121C229.769 121.02 230.469 121.4 230.869 122.04C231.069 122.38 231.209 122.76 231.269 123.14C231.309 123.34 231.309 123.56 231.309 123.76V124.46V129.96H232.529ZM235.608 129.96V119.96H234.368V129.96H235.608ZM234.988 116.28C234.468 116.28 234.048 116.7 234.048 117.22C234.048 117.76 234.468 118.18 234.988 118.18C235.508 118.18 235.948 117.76 235.948 117.22C235.948 116.7 235.508 116.28 234.988 116.28ZM246.548 129.96V124.28C246.568 123.26 246.308 122.16 245.568 121.26C245.188 120.82 244.688 120.44 244.128 120.2C243.548 119.96 242.928 119.88 242.328 119.88C241.748 119.9 241.128 120.02 240.588 120.28C240.048 120.54 239.588 120.92 239.268 121.36C239.148 121.52 239.048 121.7 238.968 121.86V119.96H237.748V129.96H238.968V124.5C238.968 124.42 238.968 124.36 238.968 124.28C239.008 123.82 239.088 123.38 239.248 122.96C239.408 122.54 239.648 122.16 239.968 121.86C240.568 121.22 241.448 120.96 242.328 121C243.228 121.02 244.048 121.34 244.568 121.96C244.828 122.26 245.028 122.64 245.148 123.02C245.268 123.42 245.328 123.84 245.328 124.28V129.96H246.548ZM257.829 119.96V122.32C257.649 122.04 257.449 121.76 257.189 121.52C256.729 121.04 256.149 120.66 255.509 120.38C254.869 120.1 254.149 119.96 253.429 119.94C252.709 119.94 251.989 120.06 251.329 120.32C250.669 120.58 250.069 120.96 249.569 121.44C248.569 122.38 248.009 123.68 248.029 124.96C248.009 126.26 248.569 127.56 249.569 128.5C250.069 128.98 250.669 129.36 251.329 129.62C251.989 129.88 252.709 130 253.429 130C254.149 129.98 254.869 129.84 255.509 129.56C256.149 129.28 256.729 128.9 257.189 128.42C257.449 128.18 257.649 127.9 257.829 127.62V129.04C257.829 130.58 257.269 132.52 254.589 132.98C252.549 133.3 250.349 132.44 249.369 130.9L248.309 131.46C249.369 133.14 251.489 134.16 253.669 134.16C254.049 134.16 254.429 134.12 254.809 134.06C257.509 133.62 259.069 131.78 259.069 129.04V119.96H257.829ZM257.489 126.52C257.249 127 256.909 127.44 256.489 127.8C255.669 128.52 254.529 128.9 253.429 128.88C252.329 128.88 251.229 128.44 250.469 127.72C249.689 127 249.229 125.98 249.229 124.96C249.229 123.94 249.689 122.94 250.469 122.22C251.229 121.5 252.329 121.06 253.429 121.06C254.529 121.04 255.669 121.4 256.489 122.14C256.909 122.5 257.249 122.94 257.489 123.42C257.709 123.9 257.829 124.44 257.829 124.96C257.829 125.5 257.709 126.04 257.489 126.52Z" fill="#1C1C1C"/>
<circle cx="53" cy="123" r="14" stroke="#08AEEA" stroke-width="2" stroke-dasharray="4 4"/>
<path d="M84.58 68.02H82.56L77.04 82H78.32L79.86 78.14H87.3L88.82 82H90.12L84.58 68.02ZM80.3 77.02L83.58 68.74L86.86 77.02H80.3ZM100.044 81.96V76.28C100.064 75.26 99.8036 74.16 99.0636 73.26C98.6836 72.82 98.1836 72.44 97.6236 72.2C97.0436 71.96 96.4236 71.88 95.8236 71.88C95.2436 71.9 94.6236 72.02 94.0836 72.28C93.5436 72.54 93.0836 72.92 92.7636 73.36C92.6436 73.52 92.5436 73.7 92.4636 73.86V71.96H91.2436V81.96H92.4636V76.5C92.4636 76.42 92.4636 76.36 92.4636 76.28C92.5036 75.82 92.5836 75.38 92.7436 74.96C92.9036 74.54 93.1436 74.16 93.4636 73.86C94.0636 73.22 94.9436 72.96 95.8236 73C96.7236 73.02 97.5436 73.34 98.0636 73.96C98.3236 74.26 98.5236 74.64 98.6436 75.02C98.7636 75.42 98.8236 75.84 98.8236 76.28V81.96H100.044ZM111.445 71.96V74.3C111.245 74.02 111.045 73.74 110.785 73.48C110.305 73 109.725 72.6 109.085 72.34C108.425 72.06 107.705 71.9 106.985 71.9C106.265 71.9 105.525 72.02 104.865 72.28C104.185 72.54 103.585 72.92 103.085 73.4C102.065 74.34 101.505 75.66 101.525 76.96C101.505 78.28 102.065 79.58 103.085 80.54C103.585 81.02 104.185 81.4 104.845 81.66C105.525 81.92 106.245 82.04 106.985 82.04C107.705 82.04 108.425 81.88 109.085 81.6C109.725 81.34 110.305 80.92 110.785 80.46C111.045 80.2 111.245 79.92 111.445 79.62V81.96H112.665V71.96H111.445ZM111.085 78.54C110.845 79.02 110.505 79.48 110.085 79.84C109.245 80.56 108.105 80.94 106.985 80.94C105.865 80.92 104.765 80.48 103.985 79.74C103.185 79.02 102.745 78 102.725 76.96C102.725 75.94 103.185 74.92 103.985 74.18C104.765 73.46 105.845 73.02 106.985 73C108.105 72.98 109.245 73.36 110.085 74.1C110.505 74.46 110.845 74.9 111.085 75.4C111.325 75.9 111.445 76.42 111.445 76.96C111.445 77.5 111.325 78.04 111.085 78.54ZM116.018 81.98V67.98H114.798V81.98H116.018ZM126.138 71.98L122.258 80.42L118.538 71.98H117.218L121.678 81.68L119.698 85.98H121.018L127.458 72V71.98H126.138ZM132.385 80.34C131.905 80.02 131.725 79.5 131.725 78.3V73.08H135.025V71.96H131.725V68.86L130.505 69.52V71.98H127.785V73.08H130.505V78.3C130.505 79.62 130.705 80.62 131.665 81.24C132.245 81.6 132.985 81.72 133.805 81.72C134.205 81.72 134.605 81.7 135.025 81.66V80.54C134.065 80.64 132.945 80.7 132.385 80.34ZM137.698 81.96V71.96H136.458V81.96H137.698ZM137.078 68.28C136.558 68.28 136.138 68.7 136.138 69.22C136.138 69.76 136.558 70.18 137.078 70.18C137.598 70.18 138.038 69.76 138.038 69.22C138.038 68.7 137.598 68.28 137.078 68.28ZM144.797 80.94H144.777C142.437 80.92 140.537 79.14 140.557 76.96C140.557 74.78 142.457 73 144.797 73C146.157 73 147.417 73.6 148.217 74.64L149.217 74C148.197 72.68 146.537 71.9 144.817 71.9C144.797 71.9 144.797 71.9 144.797 71.9C141.777 71.9 139.337 74.16 139.337 76.96C139.317 79.76 141.757 82.04 144.777 82.04H144.797C146.517 82.04 148.157 81.28 149.177 79.98L148.197 79.34C147.377 80.34 146.137 80.94 144.797 80.94ZM154.557 76.24C154.397 76.18 154.237 76.14 154.117 76.1C154.037 76.08 153.957 76.04 153.857 76C152.797 75.66 151.777 75.24 151.857 74.38C151.957 73.02 153.957 73 153.977 73C155.197 73 156.017 73.44 156.397 74.3L157.537 73.88C156.957 72.6 155.697 71.9 153.977 71.9C152.457 71.9 150.777 72.64 150.637 74.3C150.497 76.06 152.477 76.72 153.437 77.04C153.517 77.08 153.597 77.1 153.677 77.14C153.817 77.18 153.977 77.24 154.157 77.28C155.457 77.7 156.637 78.16 156.677 79.28C156.677 79.68 156.537 80.04 156.217 80.3C155.737 80.74 154.937 80.96 154.077 80.92C152.977 80.88 151.657 80.36 151.257 79.04L150.097 79.34C150.557 80.9 152.097 81.96 154.017 82.04C154.097 82.04 154.177 82.04 154.257 82.04C155.377 82.04 156.397 81.7 157.077 81.1C157.637 80.6 157.917 79.96 157.897 79.26C157.837 77.26 155.697 76.6 154.557 76.24ZM176.629 72.2C176.269 71.34 175.729 70.58 175.029 69.96C174.349 69.34 173.489 68.86 172.509 68.52C171.549 68.18 170.449 68 169.249 68H164.469V82.02H169.249C170.449 82.02 171.549 81.84 172.509 81.5C173.489 81.16 174.349 80.68 175.029 80.06C175.729 79.46 176.269 78.7 176.629 77.84C177.009 76.98 177.189 76.04 177.189 75C177.189 74 177.009 73.06 176.629 72.2ZM175.489 77.44C175.189 78.16 174.749 78.76 174.189 79.28C173.609 79.78 172.909 80.18 172.089 80.46C171.249 80.76 170.309 80.9 169.249 80.9H165.689V69.12H169.249C170.309 69.12 171.249 69.26 172.089 69.56C172.909 69.84 173.609 70.24 174.169 70.76C174.749 71.26 175.189 71.88 175.489 72.6C175.809 73.32 175.969 74.14 175.969 75C175.969 75.9 175.809 76.72 175.489 77.44ZM188.242 71.96V74.3C188.042 74.02 187.842 73.74 187.582 73.48C187.102 73 186.522 72.6 185.882 72.34C185.222 72.06 184.502 71.9 183.782 71.9C183.062 71.9 182.322 72.02 181.662 72.28C180.982 72.54 180.382 72.92 179.882 73.4C178.862 74.34 178.302 75.66 178.322 76.96C178.302 78.28 178.862 79.58 179.882 80.54C180.382 81.02 180.982 81.4 181.642 81.66C182.322 81.92 183.042 82.04 183.782 82.04C184.502 82.04 185.222 81.88 185.882 81.6C186.522 81.34 187.102 80.92 187.582 80.46C187.842 80.2 188.042 79.92 188.242 79.62V81.96H189.462V71.96H188.242ZM187.882 78.54C187.642 79.02 187.302 79.48 186.882 79.84C186.042 80.56 184.902 80.94 183.782 80.94C182.662 80.92 181.562 80.48 180.782 79.74C179.982 79.02 179.542 78 179.522 76.96C179.522 75.94 179.982 74.92 180.782 74.18C181.562 73.46 182.642 73.02 183.782 73C184.902 72.98 186.042 73.36 186.882 74.1C187.302 74.46 187.642 74.9 187.882 75.4C188.122 75.9 188.242 76.42 188.242 76.96C188.242 77.5 188.122 78.04 187.882 78.54ZM195.455 76.24C195.295 76.18 195.135 76.14 195.015 76.1C194.935 76.08 194.855 76.04 194.755 76C193.695 75.66 192.675 75.24 192.755 74.38C192.855 73.02 194.855 73 194.875 73C196.095 73 196.915 73.44 197.295 74.3L198.435 73.88C197.855 72.6 196.595 71.9 194.875 71.9C193.355 71.9 191.675 72.64 191.535 74.3C191.395 76.06 193.375 76.72 194.335 77.04C194.415 77.08 194.495 77.1 194.575 77.14C194.715 77.18 194.875 77.24 195.055 77.28C196.355 77.7 197.535 78.16 197.575 79.28C197.575 79.68 197.435 80.04 197.115 80.3C196.635 80.74 195.835 80.96 194.975 80.92C193.875 80.88 192.555 80.36 192.155 79.04L190.995 79.34C191.455 80.9 192.995 81.96 194.915 82.04C194.995 82.04 195.075 82.04 195.155 82.04C196.275 82.04 197.295 81.7 197.975 81.1C198.535 80.6 198.815 79.96 198.795 79.26C198.735 77.26 196.595 76.6 195.455 76.24ZM209.243 81.96V76.28C209.263 75.26 209.003 74.16 208.263 73.26C207.883 72.82 207.383 72.44 206.823 72.2C206.243 71.96 205.623 71.88 205.023 71.88C204.443 71.9 203.823 72.02 203.283 72.28C202.743 72.54 202.283 72.92 201.963 73.36C201.843 73.52 201.743 73.7 201.663 73.86V67.96H200.443V81.96H201.663V76.5C201.663 76.42 201.663 76.36 201.663 76.28C201.703 75.82 201.783 75.38 201.943 74.96C202.103 74.54 202.343 74.16 202.663 73.86C203.263 73.22 204.143 72.96 205.023 73C205.923 73.02 206.743 73.34 207.263 73.96C207.523 74.26 207.723 74.64 207.843 75.02C207.983 75.42 208.023 75.84 208.023 76.28V81.96H209.243ZM220.804 73.4C220.304 72.92 219.684 72.54 219.024 72.28C218.344 72.02 217.624 71.9 216.904 71.9C216.164 71.9 215.444 72.06 214.804 72.34C214.144 72.6 213.564 73 213.104 73.48C212.844 73.74 212.624 74.02 212.444 74.32V67.96H211.224V81.96H212.444V79.62C212.624 79.92 212.844 80.2 213.084 80.46C213.564 80.94 214.144 81.34 214.804 81.6C215.444 81.88 216.164 82.04 216.904 82.04C217.624 82.04 218.344 81.92 219.024 81.66C219.684 81.4 220.304 81.02 220.804 80.54C221.804 79.58 222.364 78.28 222.364 76.96C222.364 75.66 221.804 74.34 220.804 73.4ZM219.904 79.74C219.124 80.48 218.024 80.92 216.904 80.94C215.784 80.94 214.644 80.56 213.804 79.84C213.384 79.48 213.024 79.02 212.804 78.54C212.564 78.04 212.444 77.5 212.444 76.96C212.444 76.42 212.564 75.88 212.784 75.4C213.024 74.9 213.384 74.46 213.804 74.1C214.644 73.36 215.784 72.98 216.904 73C218.024 73.02 219.124 73.44 219.904 74.18C220.684 74.92 221.144 75.94 221.144 76.96C221.144 78 220.684 79.02 219.904 79.74ZM228.958 71.9C225.938 71.9 223.498 74.18 223.498 76.96C223.498 79.76 225.938 82.04 228.958 82.04C231.978 82.04 234.418 79.76 234.418 76.96C234.418 74.18 231.978 71.9 228.958 71.9ZM228.958 80.94C226.618 80.94 224.718 79.16 224.718 76.96C224.718 74.78 226.618 73 228.958 73C231.298 73 233.198 74.78 233.198 76.96C233.198 79.16 231.298 80.94 228.958 80.94ZM245.468 71.96V74.3C245.268 74.02 245.068 73.74 244.808 73.48C244.328 73 243.748 72.6 243.108 72.34C242.448 72.06 241.728 71.9 241.008 71.9C240.288 71.9 239.548 72.02 238.888 72.28C238.208 72.54 237.608 72.92 237.108 73.4C236.088 74.34 235.528 75.66 235.548 76.96C235.528 78.28 236.088 79.58 237.108 80.54C237.608 81.02 238.208 81.4 238.868 81.66C239.548 81.92 240.268 82.04 241.008 82.04C241.728 82.04 242.448 81.88 243.108 81.6C243.748 81.34 244.328 80.92 244.808 80.46C245.068 80.2 245.268 79.92 245.468 79.62V81.96H246.688V71.96H245.468ZM245.108 78.54C244.868 79.02 244.528 79.48 244.108 79.84C243.268 80.56 242.128 80.94 241.008 80.94C239.888 80.92 238.788 80.48 238.008 79.74C237.208 79.02 236.768 78 236.748 76.96C236.748 75.94 237.208 74.92 238.008 74.18C238.788 73.46 239.868 73.02 241.008 73C242.128 72.98 243.268 73.36 244.108 74.1C244.528 74.46 244.868 74.9 245.108 75.4C245.348 75.9 245.468 76.42 245.468 76.96C245.468 77.5 245.348 78.04 245.108 78.54ZM253.402 71.88C252.822 71.9 252.202 72.02 251.662 72.28C251.122 72.54 250.662 72.92 250.342 73.36C250.222 73.52 250.122 73.7 250.042 73.86V71.96H248.822V81.96H250.042V76.5C250.042 76.42 250.042 76.36 250.042 76.28C250.082 75.82 250.162 75.38 250.322 74.96C250.482 74.54 250.722 74.16 251.042 73.86C251.642 73.22 252.522 72.96 253.402 73C253.902 73 254.382 73.12 254.782 73.32L255.062 72.16C254.522 71.96 253.962 71.88 253.402 71.88ZM264.941 67.96V74.3C264.741 74.02 264.541 73.74 264.281 73.48C263.801 73 263.221 72.6 262.581 72.34C261.921 72.06 261.201 71.9 260.481 71.9C259.761 71.9 259.021 72.02 258.361 72.28C257.681 72.54 257.081 72.92 256.581 73.4C255.561 74.34 255.001 75.66 255.021 76.96C255.001 78.28 255.561 79.58 256.581 80.54C257.081 81.02 257.681 81.4 258.341 81.66C259.021 81.92 259.741 82.04 260.481 82.04C261.201 82.04 261.921 81.88 262.581 81.6C263.221 81.34 263.801 80.92 264.281 80.46C264.521 80.2 264.741 79.92 264.941 79.62V81.96H266.161V67.96H264.941ZM264.581 78.54C264.341 79.02 264.001 79.48 263.581 79.84C262.741 80.56 261.601 80.94 260.481 80.94C259.361 80.92 258.261 80.48 257.481 79.74C256.681 79.02 256.241 78 256.221 76.96C256.221 75.94 256.681 74.92 257.481 74.18C258.261 73.46 259.341 73.02 260.481 73C261.601 72.98 262.741 73.36 263.581 74.1C264.001 74.46 264.341 74.9 264.581 75.4C264.821 75.9 264.941 76.42 264.941 76.96C264.941 77.5 264.821 78.04 264.581 78.54Z" fill="#1C1C1C"/>
<circle cx="53" cy="75" r="14" stroke="#08AEEA" stroke-width="2" stroke-dasharray="4 4"/>
<line x1="53" y1="156" x2="53" y2="138" stroke="#08AEEA" stroke-width="2"/>
<circle cx="53" cy="171" r="14" stroke="#08AEEA" stroke-width="2"/>
<circle cx="53" cy="171" r="5" fill="#08AEEA"/>
<defs>
<filter id="filter0_d_1431_5166" x="-71" y="-61" width="502" height="350" filterUnits="userSpaceOnUse" color-interpolation-filters="sRGB">
<feFlood flood-opacity="0" result="BackgroundImageFix"/>
<feColorMatrix in="SourceAlpha" type="matrix" values="0 0 0 0 0 0 0 0 0 0 0 0 0 0 0 0 0 0 127 0" result="hardAlpha"/>
<feOffset dy="10"/>
<feGaussianBlur stdDeviation="35.5"/>
<feComposite in2="hardAlpha" operator="out"/>
<feColorMatrix type="matrix" values="0 0 0 0 0 0 0 0 0 0 0 0 0 0 0 0 0 0 0.05 0"/>
<feBlend mode="normal" in2="BackgroundImageFix" result="effect1_dropShadow_1431_5166"/>
<feBlend mode="normal" in="SourceGraphic" in2="effect1_dropShadow_1431_5166" result="shape"/>
</filter>
</defs>
</svg>
