<svg xmlns="http://www.w3.org/2000/svg" fill="none" viewBox="71 61 360 214">
<g filter="url(#filter0_d_1433_5206)">
<rect x="71" y="61" width="360" height="214" rx="7" fill="#F4F8F9"/>
<rect x="71.5" y="61.5" width="359" height="213" rx="6.5" stroke="#BBBBBB" stroke-opacity="0.28"/>
</g>
<path opacity="0.2" d="M128.224 100.814C129.763 99.113 130.681 96.953 130.681 94.55C130.681 89.177 125.983 84.803 120.178 84.803C114.4 84.803 109.702 89.177 109.702 94.55C109.702 99.95 114.4 104.324 120.178 104.324C122.824 104.324 125.254 103.406 127.09 101.894L129.412 104H131.734L128.224 100.814ZM127.063 99.761L124.309 97.25H121.987L125.929 100.841C124.363 102.056 122.365 102.812 120.178 102.812C115.318 102.812 111.349 99.113 111.349 94.577C111.349 90.014 115.318 86.315 120.178 86.315C125.065 86.315 129.034 90.014 129.034 94.577C129.034 96.521 128.305 98.33 127.063 99.761ZM146.758 97.412H143.113V91.823H141.466V97.412H134.743L142.141 85.019H140.251L132.745 97.628V98.897H141.466V103.919H143.113V98.897H146.758V97.412Z" fill="#1C1C1C"/>
<path d="M161.34 235.2C160.98 234.34 160.44 233.58 159.74 232.96C159.06 232.34 158.2 231.86 157.22 231.52C156.26 231.18 155.16 231 153.96 231H149.18V245.02H153.96C155.16 245.02 156.26 244.84 157.22 244.5C158.2 244.16 159.06 243.68 159.74 243.06C160.44 242.46 160.98 241.7 161.34 240.84C161.72 239.98 161.9 239.04 161.9 238C161.9 237 161.72 236.06 161.34 235.2ZM160.2 240.44C159.9 241.16 159.46 241.76 158.9 242.28C158.32 242.78 157.62 243.18 156.8 243.46C155.96 243.76 155.02 243.9 153.96 243.9H150.4V232.12H153.96C155.02 232.12 155.96 232.26 156.8 232.56C157.62 232.84 158.32 233.24 158.88 233.76C159.46 234.26 159.9 234.88 160.2 235.6C160.52 236.32 160.68 237.14 160.68 238C160.68 238.9 160.52 239.72 160.2 240.44ZM169.35 231.02H167.33L161.81 245H163.09L164.63 241.14H172.07L173.59 245H174.89L169.35 231.02ZM165.07 240.02L168.35 231.74L171.63 240.02H165.07ZM182.53 230.78C178.25 230.78 174.77 234.02 174.77 238C174.77 242 178.25 245.24 182.53 245.24C186.83 245.24 190.31 242 190.31 238C190.31 234.02 186.83 230.78 182.53 230.78ZM182.53 244.12C178.93 244.12 175.99 241.38 175.99 238C175.99 234.64 178.93 231.9 182.53 231.9C186.15 231.9 189.09 234.64 189.09 238C189.09 241.38 186.15 244.12 182.53 244.12ZM200.236 232.5C200.776 232.08 201.536 232 202.736 232.06V230.94C201.516 230.9 200.356 230.94 199.436 231.66C198.676 232.26 198.316 233.14 198.316 234.4V234.96H195.796V236.08H198.316V244.96H199.536V236.08H202.736V234.96H199.536V234.4C199.536 233.22 199.896 232.78 200.236 232.5ZM208.2 234.9C205.18 234.9 202.74 237.18 202.74 239.96C202.74 242.76 205.18 245.04 208.2 245.04C211.22 245.04 213.66 242.76 213.66 239.96C213.66 237.18 211.22 234.9 208.2 234.9ZM208.2 243.94C205.86 243.94 203.96 242.16 203.96 239.96C203.96 237.78 205.86 236 208.2 236C210.54 236 212.44 237.78 212.44 239.96C212.44 242.16 210.54 243.94 208.2 243.94ZM219.87 234.88C219.29 234.9 218.67 235.02 218.13 235.28C217.59 235.54 217.13 235.92 216.81 236.36C216.69 236.52 216.59 236.7 216.51 236.86V234.96H215.29V244.96H216.51V239.5C216.51 239.42 216.51 239.36 216.51 239.28C216.55 238.82 216.63 238.38 216.79 237.96C216.95 237.54 217.19 237.16 217.51 236.86C218.11 236.22 218.99 235.96 219.87 236C220.37 236 220.85 236.12 221.25 236.32L221.53 235.16C220.99 234.96 220.43 234.88 219.87 234.88ZM234.096 231.02H232.076L226.556 245H227.836L229.376 241.14H236.816L238.336 245H239.636L234.096 231.02ZM229.816 240.02L233.096 231.74L236.376 240.02H229.816ZM250.879 233.28C250.639 232.8 250.279 232.38 249.819 232.04C249.379 231.72 248.839 231.46 248.219 231.28C247.619 231.1 246.939 231 246.199 231H240.879V245.02H242.099V238.68H246.199C246.939 238.68 247.619 238.58 248.219 238.42C248.839 238.24 249.379 237.98 249.819 237.64C250.279 237.3 250.639 236.88 250.879 236.4C251.119 235.92 251.239 235.4 251.239 234.84C251.239 234.28 251.119 233.74 250.879 233.28ZM249.759 235.94C249.599 236.26 249.359 236.54 249.039 236.78C248.719 237.02 248.319 237.22 247.859 237.36C247.379 237.5 246.819 237.56 246.199 237.56H242.099V232.12H246.199C246.819 232.12 247.379 232.2 247.859 232.34C248.319 232.46 248.719 232.66 249.059 232.9C249.359 233.14 249.599 233.42 249.759 233.74C249.939 234.06 250.019 234.44 250.019 234.84C250.019 235.24 249.939 235.6 249.759 235.94ZM261.52 231.02L257.1 237.02L252.68 231.02H251.22L256.48 238.18V245H257.7V238.18L262.98 231.02H261.52ZM268.619 237.18C268.399 237.1 268.179 237.04 267.999 236.98C267.899 236.94 267.759 236.88 267.619 236.84C266.019 236.28 264.459 235.62 264.579 234.16C264.719 232.38 266.799 231.9 267.879 231.9C269.739 231.9 270.999 232.6 271.599 233.98L272.739 233.56C271.939 231.74 270.259 230.78 267.879 230.78C266.419 230.78 263.579 231.48 263.359 234.08C263.159 236.5 265.879 237.44 267.199 237.88C267.319 237.92 267.439 237.96 267.539 238C267.739 238.08 267.959 238.14 268.219 238.22C270.179 238.86 271.959 239.6 271.999 241.42C272.019 242.1 271.779 242.7 271.239 243.16C270.499 243.82 269.299 244.18 268.019 244.12C266.359 244.04 264.359 243.22 263.759 241.14L262.579 241.42C263.219 243.62 265.319 245.1 267.959 245.22C268.059 245.22 268.179 245.24 268.299 245.24C269.799 245.24 271.179 244.78 272.099 243.96C272.859 243.28 273.259 242.38 273.219 241.4C273.139 238.64 270.199 237.7 268.619 237.18ZM283.506 239.24C283.346 239.18 283.186 239.14 283.066 239.1C282.986 239.08 282.906 239.04 282.806 239C281.746 238.66 280.726 238.24 280.806 237.38C280.906 236.02 282.906 236 282.926 236C284.146 236 284.966 236.44 285.346 237.3L286.486 236.88C285.906 235.6 284.646 234.9 282.926 234.9C281.406 234.9 279.726 235.64 279.586 237.3C279.446 239.06 281.426 239.72 282.386 240.04C282.466 240.08 282.546 240.1 282.626 240.14C282.766 240.18 282.926 240.24 283.106 240.28C284.406 240.7 285.586 241.16 285.626 242.28C285.626 242.68 285.486 243.04 285.166 243.3C284.686 243.74 283.886 243.96 283.026 243.92C281.926 243.88 280.606 243.36 280.206 242.04L279.046 242.34C279.506 243.9 281.046 244.96 282.966 245.04C283.046 245.04 283.126 245.04 283.206 245.04C284.326 245.04 285.346 244.7 286.026 244.1C286.586 243.6 286.866 242.96 286.846 242.26C286.786 240.26 284.646 239.6 283.506 239.24ZM292.194 243.34C291.714 243.02 291.534 242.5 291.534 241.3V236.08H294.834V234.96H291.534V231.86L290.314 232.52V234.98H287.594V236.08H290.314V241.3C290.314 242.62 290.514 243.62 291.474 244.24C292.054 244.6 292.794 244.72 293.614 244.72C294.014 244.72 294.414 244.7 294.834 244.66V243.54C293.874 243.64 292.754 243.7 292.194 243.34ZM305.179 234.96V237.3C304.979 237.02 304.779 236.74 304.519 236.48C304.039 236 303.459 235.6 302.819 235.34C302.159 235.06 301.439 234.9 300.719 234.9C299.999 234.9 299.259 235.02 298.599 235.28C297.919 235.54 297.319 235.92 296.819 236.4C295.799 237.34 295.239 238.66 295.259 239.96C295.239 241.28 295.799 242.58 296.819 243.54C297.319 244.02 297.919 244.4 298.579 244.66C299.259 244.92 299.979 245.04 300.719 245.04C301.439 245.04 302.159 244.88 302.819 244.6C303.459 244.34 304.039 243.92 304.519 243.46C304.779 243.2 304.979 242.92 305.179 242.62V244.96H306.399V234.96H305.179ZM304.819 241.54C304.579 242.02 304.239 242.48 303.819 242.84C302.979 243.56 301.839 243.94 300.719 243.94C299.599 243.92 298.499 243.48 297.719 242.74C296.919 242.02 296.479 241 296.459 239.96C296.459 238.94 296.919 237.92 297.719 237.18C298.499 236.46 299.579 236.02 300.719 236C301.839 235.98 302.979 236.36 303.819 237.1C304.239 237.46 304.579 237.9 304.819 238.4C305.059 238.9 305.179 239.42 305.179 239.96C305.179 240.5 305.059 241.04 304.819 241.54ZM311.093 239.4L315.853 234.98H314.153L309.753 239.06V230.98H308.533V244.98H309.753V239.76L315.353 244.98H317.073L311.093 239.4ZM327.565 240.52C327.585 240.34 327.605 240.16 327.605 239.96C327.605 237.18 325.165 234.9 322.145 234.9C319.125 234.9 316.685 237.18 316.685 239.96C316.685 242.76 319.305 245.04 322.565 245.04C324.525 245.04 326.325 244.2 327.405 242.84L326.285 242.36C325.405 243.34 324.045 243.94 322.565 243.94C320.205 243.94 318.265 242.44 317.945 240.52H327.565ZM317.945 239.42C318.245 237.5 320.005 236 322.145 236C324.285 236 326.045 237.5 326.345 239.42H317.945ZM333.816 234.88C333.236 234.9 332.616 235.02 332.076 235.28C331.536 235.54 331.076 235.92 330.756 236.36C330.636 236.52 330.536 236.7 330.456 236.86V234.96H329.236V244.96H330.456V239.5C330.456 239.42 330.456 239.36 330.456 239.28C330.496 238.82 330.576 238.38 330.736 237.96C330.896 237.54 331.136 237.16 331.456 236.86C332.056 236.22 332.936 235.96 333.816 236C334.316 236 334.796 236.12 335.196 236.32L335.476 235.16C334.936 234.96 334.376 234.88 333.816 234.88ZM340.303 239.24C340.143 239.18 339.983 239.14 339.863 239.1C339.783 239.08 339.703 239.04 339.603 239C338.543 238.66 337.523 238.24 337.603 237.38C337.703 236.02 339.703 236 339.723 236C340.943 236 341.763 236.44 342.143 237.3L343.283 236.88C342.703 235.6 341.443 234.9 339.723 234.9C338.203 234.9 336.523 235.64 336.383 237.3C336.243 239.06 338.223 239.72 339.183 240.04C339.263 240.08 339.343 240.1 339.423 240.14C339.563 240.18 339.723 240.24 339.903 240.28C341.203 240.7 342.383 241.16 342.423 242.28C342.423 242.68 342.283 243.04 341.963 243.3C341.483 243.74 340.683 243.96 339.823 243.92C338.723 243.88 337.403 243.36 337.003 242.04L335.843 242.34C336.303 243.9 337.843 244.96 339.763 245.04C339.843 245.04 339.923 245.04 340.003 245.04C341.123 245.04 342.143 244.7 342.823 244.1C343.383 243.6 343.663 242.96 343.643 242.26C343.583 240.26 341.443 239.6 340.303 239.24Z" fill="#1C1C1C"/>
<circle cx="124" cy="238" r="14" stroke="#CCCCCC" stroke-width="2"/>
<line x1="124" y1="223.014" x2="124" y2="205.014" stroke="#CCCCCC" stroke-width="2"/>
<path d="M155.58 183.02H153.56L148.04 197H149.32L150.86 193.14H158.3L159.82 197H161.12L155.58 183.02ZM151.3 192.02L154.58 183.74L157.86 192.02H151.3ZM169.448 186.96V192.44C169.448 192.52 169.448 192.58 169.448 192.66C169.408 193.12 169.328 193.56 169.168 193.98C169.008 194.4 168.768 194.78 168.448 195.08C167.848 195.72 166.968 195.98 166.068 195.94C165.188 195.92 164.368 195.58 163.848 194.98C163.588 194.68 163.388 194.3 163.268 193.9C163.128 193.52 163.088 193.08 163.068 192.66L163.088 186.96H161.868V192.66C161.848 193.68 162.108 194.78 162.848 195.68C163.228 196.12 163.728 196.5 164.288 196.74C164.848 196.96 165.488 197.06 166.068 197.04C166.668 197.04 167.288 196.92 167.828 196.66C168.368 196.4 168.828 196.02 169.148 195.58C169.268 195.4 169.368 195.24 169.448 195.08V196.96H170.668V186.96H169.448ZM177.39 186.88C176.81 186.9 176.19 187.02 175.65 187.28C175.11 187.54 174.65 187.92 174.33 188.36C174.21 188.52 174.11 188.7 174.03 188.86V186.96H172.81V196.96H174.03V191.5C174.03 191.42 174.03 191.36 174.03 191.28C174.07 190.82 174.15 190.38 174.31 189.96C174.47 189.54 174.71 189.16 175.03 188.86C175.63 188.22 176.51 187.96 177.39 188C177.89 188 178.37 188.12 178.77 188.32L179.05 187.16C178.51 186.96 177.95 186.88 177.39 186.88ZM184.45 186.9C181.43 186.9 178.99 189.18 178.99 191.96C178.99 194.76 181.43 197.04 184.45 197.04C187.47 197.04 189.91 194.76 189.91 191.96C189.91 189.18 187.47 186.9 184.45 186.9ZM184.45 195.94C182.11 195.94 180.21 194.16 180.21 191.96C180.21 189.78 182.11 188 184.45 188C186.79 188 188.69 189.78 188.69 191.96C188.69 194.16 186.79 195.94 184.45 195.94ZM196.12 186.88C195.54 186.9 194.92 187.02 194.38 187.28C193.84 187.54 193.38 187.92 193.06 188.36C192.94 188.52 192.84 188.7 192.76 188.86V186.96H191.54V196.96H192.76V191.5C192.76 191.42 192.76 191.36 192.76 191.28C192.8 190.82 192.88 190.38 193.04 189.96C193.2 189.54 193.44 189.16 193.76 188.86C194.36 188.22 195.24 187.96 196.12 188C196.62 188 197.1 188.12 197.5 188.32L197.78 187.16C197.24 186.96 196.68 186.88 196.12 186.88ZM207.64 186.96V189.3C207.44 189.02 207.24 188.74 206.98 188.48C206.5 188 205.92 187.6 205.28 187.34C204.62 187.06 203.9 186.9 203.18 186.9C202.46 186.9 201.72 187.02 201.06 187.28C200.38 187.54 199.78 187.92 199.28 188.4C198.26 189.34 197.7 190.66 197.72 191.96C197.7 193.28 198.26 194.58 199.28 195.54C199.78 196.02 200.38 196.4 201.04 196.66C201.72 196.92 202.44 197.04 203.18 197.04C203.9 197.04 204.62 196.88 205.28 196.6C205.92 196.34 206.5 195.92 206.98 195.46C207.24 195.2 207.44 194.92 207.64 194.62V196.96H208.86V186.96H207.64ZM207.28 193.54C207.04 194.02 206.7 194.48 206.28 194.84C205.44 195.56 204.3 195.94 203.18 195.94C202.06 195.92 200.96 195.48 200.18 194.74C199.38 194.02 198.94 193 198.92 191.96C198.92 190.94 199.38 189.92 200.18 189.18C200.96 188.46 202.04 188.02 203.18 188C204.3 187.98 205.44 188.36 206.28 189.1C206.7 189.46 207.04 189.9 207.28 190.4C207.52 190.9 207.64 191.42 207.64 191.96C207.64 192.5 207.52 193.04 207.28 193.54ZM228.078 187.2C227.718 186.34 227.178 185.58 226.478 184.96C225.798 184.34 224.938 183.86 223.958 183.52C222.998 183.18 221.898 183 220.698 183H215.918V197.02H220.698C221.898 197.02 222.998 196.84 223.958 196.5C224.938 196.16 225.798 195.68 226.478 195.06C227.178 194.46 227.718 193.7 228.078 192.84C228.458 191.98 228.638 191.04 228.638 190C228.638 189 228.458 188.06 228.078 187.2ZM226.938 192.44C226.638 193.16 226.198 193.76 225.638 194.28C225.058 194.78 224.358 195.18 223.538 195.46C222.698 195.76 221.758 195.9 220.698 195.9H217.138V184.12H220.698C221.758 184.12 222.698 184.26 223.538 184.56C224.358 184.84 225.058 185.24 225.618 185.76C226.198 186.26 226.638 186.88 226.938 187.6C227.258 188.32 227.418 189.14 227.418 190C227.418 190.9 227.258 191.72 226.938 192.44ZM239.591 184.12V183H230.571V183.02H230.391V197H230.571V197.02H239.591V195.9H231.611V190.5H239.071V189.38H231.611V184.12H239.591ZM251.91 183.02H250.45L246.03 189.02L241.61 183.02H240.15L245.29 190L240.15 197H241.61L246.03 191L250.45 197H251.91L246.77 190L251.91 183.02ZM262.623 192.52C262.643 192.34 262.663 192.16 262.663 191.96C262.663 189.18 260.223 186.9 257.203 186.9C254.183 186.9 251.743 189.18 251.743 191.96C251.743 194.76 254.363 197.04 257.623 197.04C259.583 197.04 261.383 196.2 262.463 194.84L261.343 194.36C260.463 195.34 259.103 195.94 257.623 195.94C255.263 195.94 253.323 194.44 253.003 192.52H262.623ZM253.003 191.42C253.303 189.5 255.063 188 257.203 188C259.343 188 261.103 189.5 261.403 191.42H253.003ZM268.154 191.24C267.994 191.18 267.834 191.14 267.714 191.1C267.634 191.08 267.554 191.04 267.454 191C266.394 190.66 265.374 190.24 265.454 189.38C265.554 188.02 267.554 188 267.574 188C268.794 188 269.614 188.44 269.994 189.3L271.134 188.88C270.554 187.6 269.294 186.9 267.574 186.9C266.054 186.9 264.374 187.64 264.234 189.3C264.094 191.06 266.074 191.72 267.034 192.04C267.114 192.08 267.194 192.1 267.274 192.14C267.414 192.18 267.574 192.24 267.754 192.28C269.054 192.7 270.234 193.16 270.274 194.28C270.274 194.68 270.134 195.04 269.814 195.3C269.334 195.74 268.534 195.96 267.674 195.92C266.574 195.88 265.254 195.36 264.854 194.04L263.694 194.34C264.154 195.9 265.694 196.96 267.614 197.04C267.694 197.04 267.774 197.04 267.854 197.04C268.974 197.04 269.994 196.7 270.674 196.1C271.234 195.6 271.514 194.96 271.494 194.26C271.434 192.26 269.294 191.6 268.154 191.24Z" fill="#1C1C1C"/>
<circle cx="124" cy="190" r="14" stroke="#CCCCCC" stroke-width="2"/>
<path d="M124 175V157" stroke="#CCCCCC" stroke-width="2"/>
<path d="M155.58 135.02H153.56L148.04 149H149.32L150.86 145.14H158.3L159.82 149H161.12L155.58 135.02ZM151.3 144.02L154.58 135.74L157.86 144.02H151.3ZM169.448 138.96V144.44C169.448 144.52 169.448 144.58 169.448 144.66C169.408 145.12 169.328 145.56 169.168 145.98C169.008 146.4 168.768 146.78 168.448 147.08C167.848 147.72 166.968 147.98 166.068 147.94C165.188 147.92 164.368 147.58 163.848 146.98C163.588 146.68 163.388 146.3 163.268 145.9C163.128 145.52 163.088 145.08 163.068 144.66L163.088 138.96H161.868V144.66C161.848 145.68 162.108 146.78 162.848 147.68C163.228 148.12 163.728 148.5 164.288 148.74C164.848 148.96 165.488 149.06 166.068 149.04C166.668 149.04 167.288 148.92 167.828 148.66C168.368 148.4 168.828 148.02 169.148 147.58C169.268 147.4 169.368 147.24 169.448 147.08V148.96H170.668V138.96H169.448ZM177.39 138.88C176.81 138.9 176.19 139.02 175.65 139.28C175.11 139.54 174.65 139.92 174.33 140.36C174.21 140.52 174.11 140.7 174.03 140.86V138.96H172.81V148.96H174.03V143.5C174.03 143.42 174.03 143.36 174.03 143.28C174.07 142.82 174.15 142.38 174.31 141.96C174.47 141.54 174.71 141.16 175.03 140.86C175.63 140.22 176.51 139.96 177.39 140C177.89 140 178.37 140.12 178.77 140.32L179.05 139.16C178.51 138.96 177.95 138.88 177.39 138.88ZM184.45 138.9C181.43 138.9 178.99 141.18 178.99 143.96C178.99 146.76 181.43 149.04 184.45 149.04C187.47 149.04 189.91 146.76 189.91 143.96C189.91 141.18 187.47 138.9 184.45 138.9ZM184.45 147.94C182.11 147.94 180.21 146.16 180.21 143.96C180.21 141.78 182.11 140 184.45 140C186.79 140 188.69 141.78 188.69 143.96C188.69 146.16 186.79 147.94 184.45 147.94ZM196.12 138.88C195.54 138.9 194.92 139.02 194.38 139.28C193.84 139.54 193.38 139.92 193.06 140.36C192.94 140.52 192.84 140.7 192.76 140.86V138.96H191.54V148.96H192.76V143.5C192.76 143.42 192.76 143.36 192.76 143.28C192.8 142.82 192.88 142.38 193.04 141.96C193.2 141.54 193.44 141.16 193.76 140.86C194.36 140.22 195.24 139.96 196.12 140C196.62 140 197.1 140.12 197.5 140.32L197.78 139.16C197.24 138.96 196.68 138.88 196.12 138.88ZM207.64 138.96V141.3C207.44 141.02 207.24 140.74 206.98 140.48C206.5 140 205.92 139.6 205.28 139.34C204.62 139.06 203.9 138.9 203.18 138.9C202.46 138.9 201.72 139.02 201.06 139.28C200.38 139.54 199.78 139.92 199.28 140.4C198.26 141.34 197.7 142.66 197.72 143.96C197.7 145.28 198.26 146.58 199.28 147.54C199.78 148.02 200.38 148.4 201.04 148.66C201.72 148.92 202.44 149.04 203.18 149.04C203.9 149.04 204.62 148.88 205.28 148.6C205.92 148.34 206.5 147.92 206.98 147.46C207.24 147.2 207.44 146.92 207.64 146.62V148.96H208.86V138.96H207.64ZM207.28 145.54C207.04 146.02 206.7 146.48 206.28 146.84C205.44 147.56 204.3 147.94 203.18 147.94C202.06 147.92 200.96 147.48 200.18 146.74C199.38 146.02 198.94 145 198.92 143.96C198.92 142.94 199.38 141.92 200.18 141.18C200.96 140.46 202.04 140.02 203.18 140C204.3 139.98 205.44 140.36 206.28 141.1C206.7 141.46 207.04 141.9 207.28 142.4C207.52 142.9 207.64 143.42 207.64 143.96C207.64 144.5 207.52 145.04 207.28 145.54ZM225.158 135.02V145.28C225.158 146.24 225.298 147.04 225.298 147.04C225.298 147.04 224.838 146.18 224.418 145.58L216.878 135.02H215.898V149H217.118V138.74C217.118 137.78 216.978 136.98 216.978 136.98C216.978 136.98 217.438 137.84 217.878 138.44L225.398 149H226.398V135.02H225.158ZM238.99 144.52C239.01 144.34 239.03 144.16 239.03 143.96C239.03 141.18 236.59 138.9 233.57 138.9C230.55 138.9 228.11 141.18 228.11 143.96C228.11 146.76 230.73 149.04 233.99 149.04C235.95 149.04 237.75 148.2 238.83 146.84L237.71 146.36C236.83 147.34 235.47 147.94 233.99 147.94C231.63 147.94 229.69 146.44 229.37 144.52H238.99ZM229.37 143.42C229.67 141.5 231.43 140 233.57 140C235.71 140 237.47 141.5 237.77 143.42H229.37ZM243.717 147.34C243.237 147.02 243.057 146.5 243.057 145.3V140.08H246.357V138.96H243.057V135.86L241.837 136.52V138.98H239.117V140.08H241.837V145.3C241.837 146.62 242.037 147.62 242.997 148.24C243.577 148.6 244.317 148.72 245.137 148.72C245.537 148.72 245.937 148.7 246.357 148.66V147.54C245.397 147.64 244.277 147.7 243.717 147.34ZM260.59 138.98L256.81 147.22L255.05 143.44L257.11 138.98H255.79L254.39 142.24L253.01 138.98H251.69L253.73 143.44L251.99 147.22L248.21 138.98H246.89L251.47 148.98H252.51L254.39 144.62L256.29 148.98H257.33L261.91 138.98H260.59ZM267.536 138.9C264.516 138.9 262.076 141.18 262.076 143.96C262.076 146.76 264.516 149.04 267.536 149.04C270.556 149.04 272.996 146.76 272.996 143.96C272.996 141.18 270.556 138.9 267.536 138.9ZM267.536 147.94C265.196 147.94 263.296 146.16 263.296 143.96C263.296 141.78 265.196 140 267.536 140C269.876 140 271.776 141.78 271.776 143.96C271.776 146.16 269.876 147.94 267.536 147.94ZM279.206 138.88C278.626 138.9 278.006 139.02 277.466 139.28C276.926 139.54 276.466 139.92 276.146 140.36C276.026 140.52 275.926 140.7 275.846 140.86V138.96H274.626V148.96H275.846V143.5C275.846 143.42 275.846 143.36 275.846 143.28C275.886 142.82 275.966 142.38 276.126 141.96C276.286 141.54 276.526 141.16 276.846 140.86C277.446 140.22 278.326 139.96 279.206 140C279.706 140 280.186 140.12 280.586 140.32L280.866 139.16C280.326 138.96 279.766 138.88 279.206 138.88ZM284.667 143.4L289.427 138.98H287.727L283.327 143.06V134.98H282.107V148.98H283.327V143.76L288.927 148.98H290.647L284.667 143.4Z" fill="#1C1C1C"/>
<circle cx="124" cy="142" r="14" stroke="#CCCCCC" stroke-width="2"/>
<defs>
<filter id="filter0_d_1433_5206" x="0" y="0" width="502" height="356" filterUnits="userSpaceOnUse" color-interpolation-filters="sRGB">
<feFlood flood-opacity="0" result="BackgroundImageFix"/>
<feColorMatrix in="SourceAlpha" type="matrix" values="0 0 0 0 0 0 0 0 0 0 0 0 0 0 0 0 0 0 127 0" result="hardAlpha"/>
<feOffset dy="10"/>
<feGaussianBlur stdDeviation="35.5"/>
<feComposite in2="hardAlpha" operator="out"/>
<feColorMatrix type="matrix" values="0 0 0 0 0 0 0 0 0 0 0 0 0 0 0 0 0 0 0.05 0"/>
<feBlend mode="normal" in2="BackgroundImageFix" result="effect1_dropShadow_1433_5206"/>
<feBlend mode="normal" in="SourceGraphic" in2="effect1_dropShadow_1433_5206" result="shape"/>
</filter>
</defs>
</svg>