<svg width="360" height="214" viewBox="0 0 360 214" fill="none" xmlns="http://www.w3.org/2000/svg">
<g filter="url(#filter0_d_1433_5206)">
<rect width="360" height="214" rx="7" fill="#F4F8F9"/>
<rect x="0.5" y="0.5" width="359" height="213" rx="6.5" stroke="#BBBBBB" stroke-opacity="0.28"/>
</g>
<path opacity="0.2" d="M57.224 39.814C58.763 38.113 59.681 35.953 59.681 33.55C59.681 28.177 54.983 23.803 49.178 23.803C43.4 23.803 38.702 28.177 38.702 33.55C38.702 38.95 43.4 43.324 49.178 43.324C51.824 43.324 54.254 42.406 56.09 40.894L58.412 43H60.734L57.224 39.814ZM56.063 38.761L53.309 36.25H50.987L54.929 39.841C53.363 41.056 51.365 41.812 49.178 41.812C44.318 41.812 40.349 38.113 40.349 33.577C40.349 29.014 44.318 25.315 49.178 25.315C54.065 25.315 58.034 29.014 58.034 33.577C58.034 35.521 57.305 37.33 56.063 38.761ZM75.758 36.412H72.113V30.823H70.466V36.412H63.743L71.141 24.019H69.251L61.745 36.628V37.897H70.466V42.919H72.113V37.897H75.758V36.412Z" fill="#1C1C1C"/>
<path d="M84.58 170.02H82.56L77.04 184H78.32L79.86 180.14H87.3L88.82 184H90.12L84.58 170.02ZM80.3 179.02L83.58 170.74L86.86 179.02H80.3ZM101.364 172.28C101.124 171.8 100.764 171.38 100.304 171.04C99.8636 170.72 99.3236 170.46 98.7036 170.28C98.1036 170.1 97.4236 170 96.6836 170H91.3636V184.02H92.5836V177.68H96.6836C97.4236 177.68 98.1036 177.58 98.7036 177.42C99.3236 177.24 99.8636 176.98 100.304 176.64C100.764 176.3 101.124 175.88 101.364 175.4C101.604 174.92 101.724 174.4 101.724 173.84C101.724 173.28 101.604 172.74 101.364 172.28ZM100.244 174.94C100.084 175.26 99.8436 175.54 99.5236 175.78C99.2036 176.02 98.8036 176.22 98.3436 176.36C97.8636 176.5 97.3036 176.56 96.6836 176.56H92.5836V171.12H96.6836C97.3036 171.12 97.8636 171.2 98.3436 171.34C98.8036 171.46 99.2036 171.66 99.5436 171.9C99.8436 172.14 100.084 172.42 100.244 172.74C100.424 173.06 100.504 173.44 100.504 173.84C100.504 174.24 100.424 174.6 100.244 174.94ZM112.004 170.02L107.584 176.02L103.164 170.02H101.704L106.964 177.18V184H108.184V177.18L113.464 170.02H112.004ZM119.104 176.18C118.884 176.1 118.664 176.04 118.484 175.98C118.384 175.94 118.244 175.88 118.104 175.84C116.504 175.28 114.944 174.62 115.064 173.16C115.204 171.38 117.284 170.9 118.364 170.9C120.224 170.9 121.484 171.6 122.084 172.98L123.224 172.56C122.424 170.74 120.744 169.78 118.364 169.78C116.904 169.78 114.064 170.48 113.844 173.08C113.644 175.5 116.364 176.44 117.684 176.88C117.804 176.92 117.924 176.96 118.024 177C118.224 177.08 118.444 177.14 118.704 177.22C120.664 177.86 122.444 178.6 122.484 180.42C122.504 181.1 122.264 181.7 121.724 182.16C120.984 182.82 119.784 183.18 118.504 183.12C116.844 183.04 114.844 182.22 114.244 180.14L113.064 180.42C113.704 182.62 115.804 184.1 118.444 184.22C118.544 184.22 118.664 184.24 118.784 184.24C120.284 184.24 121.664 183.78 122.584 182.96C123.344 182.28 123.744 181.38 123.704 180.4C123.624 177.64 120.684 176.7 119.104 176.18ZM142.41 174.2C142.05 173.34 141.51 172.58 140.81 171.96C140.13 171.34 139.27 170.86 138.29 170.52C137.33 170.18 136.23 170 135.03 170H130.25V184.02H135.03C136.23 184.02 137.33 183.84 138.29 183.5C139.27 183.16 140.13 182.68 140.81 182.06C141.51 181.46 142.05 180.7 142.41 179.84C142.79 178.98 142.97 178.04 142.97 177C142.97 176 142.79 175.06 142.41 174.2ZM141.27 179.44C140.97 180.16 140.53 180.76 139.97 181.28C139.39 181.78 138.69 182.18 137.87 182.46C137.03 182.76 136.09 182.9 135.03 182.9H131.47V171.12H135.03C136.09 171.12 137.03 171.26 137.87 171.56C138.69 171.84 139.39 172.24 139.95 172.76C140.53 173.26 140.97 173.88 141.27 174.6C141.59 175.32 141.75 176.14 141.75 177C141.75 177.9 141.59 178.72 141.27 179.44ZM150.42 170.02H148.4L142.88 184H144.16L145.7 180.14H153.14L154.66 184H155.96L150.42 170.02ZM146.14 179.02L149.42 170.74L152.7 179.02H146.14ZM163.6 169.78C159.32 169.78 155.84 173.02 155.84 177C155.84 181 159.32 184.24 163.6 184.24C167.9 184.24 171.38 181 171.38 177C171.38 173.02 167.9 169.78 163.6 169.78ZM163.6 183.12C160 183.12 157.06 180.38 157.06 177C157.06 173.64 160 170.9 163.6 170.9C167.22 170.9 170.16 173.64 170.16 177C170.16 180.38 167.22 183.12 163.6 183.12Z" fill="#1C1C1C"/>
<circle cx="53" cy="177" r="14" stroke="#08AEEA" stroke-width="2" stroke-dasharray="4 4"/>
<line x1="53" y1="158.014" x2="53" y2="148.014" stroke="#08AEEA" stroke-width="2" stroke-dasharray="5 5"/>
<path d="M79.38 136V122.02H78.16V136H79.38ZM90.4147 135.96V130.28C90.4347 129.26 90.1747 128.16 89.4347 127.26C89.0547 126.82 88.5547 126.44 87.9947 126.2C87.4147 125.96 86.7947 125.88 86.1947 125.88C85.6147 125.9 84.9947 126.02 84.4547 126.28C83.9147 126.54 83.4547 126.92 83.1347 127.36C83.0147 127.52 82.9147 127.7 82.8347 127.86V125.96H81.6147V135.96H82.8347V130.5C82.8347 130.42 82.8347 130.36 82.8347 130.28C82.8747 129.82 82.9547 129.38 83.1147 128.96C83.2747 128.54 83.5147 128.16 83.8347 127.86C84.4347 127.22 85.3147 126.96 86.1947 127C87.0947 127.02 87.9147 127.34 88.4347 127.96C88.6947 128.26 88.8947 128.64 89.0147 129.02C89.1347 129.42 89.1947 129.84 89.1947 130.28V135.96H90.4147ZM95.51 134.34C95.03 134.02 94.85 133.5 94.85 132.3V127.08H98.15V125.96H94.85V122.86L93.63 123.52V125.98H90.91V127.08H93.63V132.3C93.63 133.62 93.83 134.62 94.79 135.24C95.37 135.6 96.11 135.72 96.93 135.72C97.33 135.72 97.73 135.7 98.15 135.66V134.54C97.19 134.64 96.07 134.7 95.51 134.34ZM109.436 131.52C109.456 131.34 109.476 131.16 109.476 130.96C109.476 128.18 107.036 125.9 104.016 125.9C100.996 125.9 98.5556 128.18 98.5556 130.96C98.5556 133.76 101.176 136.04 104.436 136.04C106.396 136.04 108.196 135.2 109.276 133.84L108.156 133.36C107.276 134.34 105.916 134.94 104.436 134.94C102.076 134.94 100.136 133.44 99.8156 131.52H109.436ZM99.8156 130.42C100.116 128.5 101.876 127 104.016 127C106.156 127 107.916 128.5 108.216 130.42H99.8156ZM120.407 125.96V128.32C120.227 128.04 120.027 127.76 119.767 127.52C119.307 127.04 118.727 126.66 118.087 126.38C117.447 126.1 116.727 125.96 116.007 125.94C115.287 125.94 114.567 126.06 113.907 126.32C113.247 126.58 112.647 126.96 112.147 127.44C111.147 128.38 110.587 129.68 110.607 130.96C110.587 132.26 111.147 133.56 112.147 134.5C112.647 134.98 113.247 135.36 113.907 135.62C114.567 135.88 115.287 136 116.007 136C116.727 135.98 117.447 135.84 118.087 135.56C118.727 135.28 119.307 134.9 119.767 134.42C120.027 134.18 120.227 133.9 120.407 133.62V135.04C120.407 136.58 119.847 138.52 117.167 138.98C115.127 139.3 112.927 138.44 111.947 136.9L110.887 137.46C111.947 139.14 114.067 140.16 116.247 140.16C116.627 140.16 117.007 140.12 117.387 140.06C120.087 139.62 121.647 137.78 121.647 135.04V125.96H120.407ZM120.067 132.52C119.827 133 119.487 133.44 119.067 133.8C118.247 134.52 117.107 134.9 116.007 134.88C114.907 134.88 113.807 134.44 113.047 133.72C112.267 133 111.807 131.98 111.807 130.96C111.807 129.94 112.267 128.94 113.047 128.22C113.807 127.5 114.907 127.06 116.007 127.06C117.107 127.04 118.247 127.4 119.067 128.14C119.487 128.5 119.827 128.94 120.067 129.42C120.287 129.9 120.407 130.44 120.407 130.96C120.407 131.5 120.287 132.04 120.067 132.52ZM128.363 125.88C127.783 125.9 127.163 126.02 126.623 126.28C126.083 126.54 125.623 126.92 125.303 127.36C125.183 127.52 125.083 127.7 125.003 127.86V125.96H123.783V135.96H125.003V130.5C125.003 130.42 125.003 130.36 125.003 130.28C125.043 129.82 125.123 129.38 125.283 128.96C125.443 128.54 125.683 128.16 126.003 127.86C126.603 127.22 127.483 126.96 128.363 127C128.863 127 129.343 127.12 129.743 127.32L130.023 126.16C129.483 125.96 128.923 125.88 128.363 125.88ZM139.882 125.96V128.3C139.682 128.02 139.482 127.74 139.222 127.48C138.742 127 138.162 126.6 137.522 126.34C136.862 126.06 136.142 125.9 135.422 125.9C134.702 125.9 133.962 126.02 133.302 126.28C132.622 126.54 132.022 126.92 131.522 127.4C130.502 128.34 129.942 129.66 129.962 130.96C129.942 132.28 130.502 133.58 131.522 134.54C132.022 135.02 132.622 135.4 133.282 135.66C133.962 135.92 134.682 136.04 135.422 136.04C136.142 136.04 136.862 135.88 137.522 135.6C138.162 135.34 138.742 134.92 139.222 134.46C139.482 134.2 139.682 133.92 139.882 133.62V135.96H141.102V125.96H139.882ZM139.522 132.54C139.282 133.02 138.942 133.48 138.522 133.84C137.682 134.56 136.542 134.94 135.422 134.94C134.302 134.92 133.202 134.48 132.422 133.74C131.622 133.02 131.182 132 131.162 130.96C131.162 129.94 131.622 128.92 132.422 128.18C133.202 127.46 134.282 127.02 135.422 127C136.542 126.98 137.682 127.36 138.522 128.1C138.942 128.46 139.282 128.9 139.522 129.4C139.762 129.9 139.882 130.42 139.882 130.96C139.882 131.5 139.762 132.04 139.522 132.54ZM146.936 134.34C146.456 134.02 146.276 133.5 146.276 132.3V127.08H149.576V125.96H146.276V122.86L145.056 123.52V125.98H142.336V127.08H145.056V132.3C145.056 133.62 145.256 134.62 146.216 135.24C146.796 135.6 147.536 135.72 148.356 135.72C148.756 135.72 149.156 135.7 149.576 135.66V134.54C148.616 134.64 147.496 134.7 146.936 134.34ZM152.249 135.96V125.96H151.009V135.96H152.249ZM151.629 122.28C151.109 122.28 150.689 122.7 150.689 123.22C150.689 123.76 151.109 124.18 151.629 124.18C152.149 124.18 152.589 123.76 152.589 123.22C152.589 122.7 152.149 122.28 151.629 122.28ZM159.348 125.9C156.328 125.9 153.888 128.18 153.888 130.96C153.888 133.76 156.328 136.04 159.348 136.04C162.368 136.04 164.808 133.76 164.808 130.96C164.808 128.18 162.368 125.9 159.348 125.9ZM159.348 134.94C157.008 134.94 155.108 133.16 155.108 130.96C155.108 128.78 157.008 127 159.348 127C161.688 127 163.588 128.78 163.588 130.96C163.588 133.16 161.688 134.94 159.348 134.94ZM175.239 135.96V130.28C175.259 129.26 174.999 128.16 174.259 127.26C173.879 126.82 173.379 126.44 172.819 126.2C172.239 125.96 171.619 125.88 171.019 125.88C170.439 125.9 169.819 126.02 169.279 126.28C168.739 126.54 168.279 126.92 167.959 127.36C167.839 127.52 167.739 127.7 167.659 127.86V125.96H166.439V135.96H167.659V130.5C167.659 130.42 167.659 130.36 167.659 130.28C167.699 129.82 167.779 129.38 167.939 128.96C168.099 128.54 168.339 128.16 168.659 127.86C169.259 127.22 170.139 126.96 171.019 127C171.919 127.02 172.739 127.34 173.259 127.96C173.519 128.26 173.719 128.64 173.839 129.02C173.959 129.42 174.019 129.84 174.019 130.28V135.96H175.239ZM194.805 125.98L191.025 134.22L189.265 130.44L191.325 125.98H190.005L188.605 129.24L187.225 125.98H185.905L187.945 130.44L186.205 134.22L182.425 125.98H181.105L185.685 135.98H186.725L188.605 131.62L190.505 135.98H191.545L196.125 125.98H194.805ZM198.557 135.96V125.96H197.317V135.96H198.557ZM197.937 122.28C197.417 122.28 196.997 122.7 196.997 123.22C196.997 123.76 197.417 124.18 197.937 124.18C198.457 124.18 198.897 123.76 198.897 123.22C198.897 122.7 198.457 122.28 197.937 122.28ZM204.397 134.34C203.917 134.02 203.737 133.5 203.737 132.3V127.08H207.037V125.96H203.737V122.86L202.517 123.52V125.98H199.797V127.08H202.517V132.3C202.517 133.62 202.717 134.62 203.677 135.24C204.257 135.6 204.997 135.72 205.817 135.72C206.217 135.72 206.617 135.7 207.037 135.66V134.54C206.077 134.64 204.957 134.7 204.397 134.34ZM217.29 135.96V130.28C217.31 129.26 217.05 128.16 216.31 127.26C215.93 126.82 215.43 126.44 214.87 126.2C214.29 125.96 213.67 125.88 213.07 125.88C212.49 125.9 211.87 126.02 211.33 126.28C210.79 126.54 210.33 126.92 210.01 127.36C209.89 127.52 209.79 127.7 209.71 127.86V121.96H208.49V135.96H209.71V130.5C209.71 130.42 209.71 130.36 209.71 130.28C209.75 129.82 209.83 129.38 209.99 128.96C210.15 128.54 210.39 128.16 210.71 127.86C211.31 127.22 212.19 126.96 213.07 127C213.97 127.02 214.79 127.34 215.31 127.96C215.57 128.26 215.77 128.64 215.89 129.02C216.03 129.42 216.07 129.84 216.07 130.28V135.96H217.29ZM222.976 122V123.12H227.916V136H229.156V123.12H234.116V122H222.976ZM237.835 125.88C237.255 125.9 236.635 126.02 236.095 126.28C235.555 126.54 235.095 126.92 234.775 127.36C234.655 127.52 234.555 127.7 234.475 127.86V125.96H233.255V135.96H234.475V130.5C234.475 130.42 234.475 130.36 234.475 130.28C234.515 129.82 234.595 129.38 234.755 128.96C234.915 128.54 235.155 128.16 235.475 127.86C236.075 127.22 236.955 126.96 237.835 127C238.335 127 238.815 127.12 239.215 127.32L239.495 126.16C238.955 125.96 238.395 125.88 237.835 125.88ZM241.956 135.96V125.96H240.716V135.96H241.956ZM241.336 122.28C240.816 122.28 240.396 122.7 240.396 123.22C240.396 123.76 240.816 124.18 241.336 124.18C241.856 124.18 242.296 123.76 242.296 123.22C242.296 122.7 241.856 122.28 241.336 122.28ZM247.779 130.24C247.619 130.18 247.459 130.14 247.339 130.1C247.259 130.08 247.179 130.04 247.079 130C246.019 129.66 244.999 129.24 245.079 128.38C245.179 127.02 247.179 127 247.199 127C248.419 127 249.239 127.44 249.619 128.3L250.759 127.88C250.179 126.6 248.919 125.9 247.199 125.9C245.679 125.9 243.999 126.64 243.859 128.3C243.719 130.06 245.699 130.72 246.659 131.04C246.739 131.08 246.819 131.1 246.899 131.14C247.039 131.18 247.199 131.24 247.379 131.28C248.679 131.7 249.859 132.16 249.899 133.28C249.899 133.68 249.759 134.04 249.439 134.3C248.959 134.74 248.159 134.96 247.299 134.92C246.199 134.88 244.879 134.36 244.479 133.04L243.319 133.34C243.779 134.9 245.319 135.96 247.239 136.04C247.319 136.04 247.399 136.04 247.479 136.04C248.599 136.04 249.619 135.7 250.299 135.1C250.859 134.6 251.139 133.96 251.119 133.26C251.059 131.26 248.919 130.6 247.779 130.24ZM257.727 125.9C254.707 125.9 252.267 128.18 252.267 130.96C252.267 133.76 254.707 136.04 257.727 136.04C260.747 136.04 263.187 133.76 263.187 130.96C263.187 128.18 260.747 125.9 257.727 125.9ZM257.727 134.94C255.387 134.94 253.487 133.16 253.487 130.96C253.487 128.78 255.387 127 257.727 127C260.067 127 261.967 128.78 261.967 130.96C261.967 133.16 260.067 134.94 257.727 134.94ZM266.038 135.98V121.98H264.818V135.98H266.038ZM277.578 125.96V128.3C277.378 128.02 277.178 127.74 276.918 127.48C276.438 127 275.858 126.6 275.218 126.34C274.558 126.06 273.838 125.9 273.118 125.9C272.398 125.9 271.658 126.02 270.998 126.28C270.318 126.54 269.718 126.92 269.218 127.4C268.198 128.34 267.638 129.66 267.658 130.96C267.638 132.28 268.198 133.58 269.218 134.54C269.718 135.02 270.318 135.4 270.978 135.66C271.658 135.92 272.378 136.04 273.118 136.04C273.838 136.04 274.558 135.88 275.218 135.6C275.858 135.34 276.438 134.92 276.918 134.46C277.178 134.2 277.378 133.92 277.578 133.62V135.96H278.798V125.96H277.578ZM277.218 132.54C276.978 133.02 276.638 133.48 276.218 133.84C275.378 134.56 274.238 134.94 273.118 134.94C271.998 134.92 270.898 134.48 270.118 133.74C269.318 133.02 268.878 132 268.858 130.96C268.858 129.94 269.318 128.92 270.118 128.18C270.898 127.46 271.978 127.02 273.118 127C274.238 126.98 275.378 127.36 276.218 128.1C276.638 128.46 276.978 128.9 277.218 129.4C277.458 129.9 277.578 130.42 277.578 130.96C277.578 131.5 277.458 132.04 277.218 132.54ZM285.511 125.88C284.931 125.9 284.311 126.02 283.771 126.28C283.231 126.54 282.771 126.92 282.451 127.36C282.331 127.52 282.231 127.7 282.151 127.86V125.96H280.931V135.96H282.151V130.5C282.151 130.42 282.151 130.36 282.151 130.28C282.191 129.82 282.271 129.38 282.431 128.96C282.591 128.54 282.831 128.16 283.151 127.86C283.751 127.22 284.631 126.96 285.511 127C286.011 127 286.491 127.12 286.891 127.32L287.171 126.16C286.631 125.96 286.071 125.88 285.511 125.88ZM289.632 135.96V125.96H288.392V135.96H289.632ZM289.012 122.28C288.492 122.28 288.072 122.7 288.072 123.22C288.072 123.76 288.492 124.18 289.012 124.18C289.532 124.18 289.972 123.76 289.972 123.22C289.972 122.7 289.532 122.28 289.012 122.28ZM295.455 130.24C295.295 130.18 295.135 130.14 295.015 130.1C294.935 130.08 294.855 130.04 294.755 130C293.695 129.66 292.675 129.24 292.755 128.38C292.855 127.02 294.855 127 294.875 127C296.095 127 296.915 127.44 297.295 128.3L298.435 127.88C297.855 126.6 296.595 125.9 294.875 125.9C293.355 125.9 291.675 126.64 291.535 128.3C291.395 130.06 293.375 130.72 294.335 131.04C294.415 131.08 294.495 131.1 294.575 131.14C294.715 131.18 294.875 131.24 295.055 131.28C296.355 131.7 297.535 132.16 297.575 133.28C297.575 133.68 297.435 134.04 297.115 134.3C296.635 134.74 295.835 134.96 294.975 134.92C293.875 134.88 292.555 134.36 292.155 133.04L290.995 133.34C291.455 134.9 292.995 135.96 294.915 136.04C294.995 136.04 295.075 136.04 295.155 136.04C296.275 136.04 297.295 135.7 297.975 135.1C298.535 134.6 298.815 133.96 298.795 133.26C298.735 131.26 296.595 130.6 295.455 130.24Z" fill="#1C1C1C"/>
<circle cx="53" cy="129" r="14" stroke="#08AEEA" stroke-width="2" stroke-dasharray="4 4"/>
<path d="M53 110V100" stroke="#08AEEA" stroke-width="2" stroke-dasharray="5 5"/>
<path d="M90.34 78.2C89.98 77.34 89.44 76.58 88.74 75.96C88.06 75.34 87.2 74.86 86.22 74.52C85.26 74.18 84.16 74 82.96 74H78.18V88.02H82.96C84.16 88.02 85.26 87.84 86.22 87.5C87.2 87.16 88.06 86.68 88.74 86.06C89.44 85.46 89.98 84.7 90.34 83.84C90.72 82.98 90.9 82.04 90.9 81C90.9 80 90.72 79.06 90.34 78.2ZM89.2 83.44C88.9 84.16 88.46 84.76 87.9 85.28C87.32 85.78 86.62 86.18 85.8 86.46C84.96 86.76 84.02 86.9 82.96 86.9H79.4V75.12H82.96C84.02 75.12 84.96 75.26 85.8 75.56C86.62 75.84 87.32 76.24 87.88 76.76C88.46 77.26 88.9 77.88 89.2 78.6C89.52 79.32 89.68 80.14 89.68 81C89.68 81.9 89.52 82.72 89.2 83.44ZM102.893 83.52C102.913 83.34 102.933 83.16 102.933 82.96C102.933 80.18 100.493 77.9 97.4727 77.9C94.4527 77.9 92.0127 80.18 92.0127 82.96C92.0127 85.76 94.6327 88.04 97.8927 88.04C99.8527 88.04 101.653 87.2 102.733 85.84L101.613 85.36C100.733 86.34 99.3727 86.94 97.8927 86.94C95.5327 86.94 93.5927 85.44 93.2727 83.52H102.893ZM93.2727 82.42C93.5727 80.5 95.3327 79 97.4727 79C99.6127 79 101.373 80.5 101.673 82.42H93.2727ZM114.144 79.48C113.644 79 113.024 78.62 112.364 78.36C111.684 78.1 110.964 77.96 110.244 77.96C109.504 77.98 108.784 78.12 108.144 78.4C107.484 78.68 106.904 79.08 106.424 79.56C106.184 79.82 105.964 80.1 105.784 80.38V78.04H104.564V92.04H105.784V85.7C105.964 86 106.184 86.28 106.444 86.52C106.904 87 107.484 87.4 108.144 87.68C108.784 87.96 109.504 88.1 110.244 88.12C110.964 88.12 111.684 88 112.364 87.74C113.024 87.48 113.644 87.08 114.144 86.62C115.144 85.66 115.704 84.36 115.704 83.04C115.704 81.74 115.144 80.42 114.144 79.48ZM113.244 85.82C112.464 86.56 111.364 87 110.244 87C109.124 87.02 107.984 86.64 107.144 85.92C106.724 85.54 106.364 85.1 106.124 84.62C105.904 84.12 105.784 83.58 105.784 83.04C105.784 82.5 105.904 81.96 106.144 81.48C106.364 80.98 106.724 80.54 107.144 80.18C107.984 79.44 109.124 79.06 110.244 79.08C111.364 79.1 112.464 79.52 113.244 80.26C114.024 81 114.484 82.02 114.484 83.04C114.484 84.08 114.024 85.1 113.244 85.82ZM118.557 87.98V73.98H117.337V87.98H118.557ZM125.637 77.9C122.617 77.9 120.177 80.18 120.177 82.96C120.177 85.76 122.617 88.04 125.637 88.04C128.657 88.04 131.097 85.76 131.097 82.96C131.097 80.18 128.657 77.9 125.637 77.9ZM125.637 86.94C123.297 86.94 121.397 85.16 121.397 82.96C121.397 80.78 123.297 79 125.637 79C127.977 79 129.877 80.78 129.877 82.96C129.877 85.16 127.977 86.94 125.637 86.94ZM140.181 77.98L136.301 86.42L132.581 77.98H131.261L135.721 87.68L133.741 91.98H135.061L141.501 78V77.98H140.181ZM156.728 87.96V82.46V81.76C156.728 81.52 156.728 81.26 156.688 81C156.628 80.5 156.468 79.98 156.188 79.5C155.908 79 155.468 78.58 154.928 78.28C154.648 78.14 154.348 78.04 154.048 77.96C153.748 77.9 153.448 77.88 153.148 77.88C152.848 77.9 152.548 77.94 152.248 78.02C151.968 78.1 151.688 78.22 151.428 78.38C150.928 78.7 150.568 79.14 150.348 79.6C150.248 79.82 150.168 80.02 150.128 80.24C150.028 79.98 149.928 79.74 149.788 79.5C149.508 79 149.068 78.58 148.528 78.28C148.248 78.14 147.968 78.04 147.648 77.96C147.348 77.9 147.048 77.88 146.748 77.88C146.448 77.9 146.148 77.94 145.868 78.02C145.568 78.1 145.288 78.22 145.048 78.38C144.548 78.7 144.168 79.14 143.948 79.6C143.948 79.62 143.948 79.62 143.948 79.62V77.98H142.728V87.96H143.948V82.28L143.968 81.76C143.968 81.54 144.008 81.32 144.048 81.1C144.148 80.68 144.328 80.28 144.588 79.94C144.848 79.6 145.188 79.34 145.568 79.18C145.928 79.04 146.328 78.98 146.748 79C147.588 79.02 148.268 79.4 148.668 80.04C148.888 80.38 149.008 80.76 149.068 81.14C149.108 81.36 149.128 81.56 149.128 81.76V82.46V87.96H150.348V82.46V82.2V81.76C150.368 81.54 150.388 81.32 150.448 81.1C150.548 80.68 150.728 80.26 150.988 79.94C151.248 79.6 151.588 79.34 151.948 79.18C152.328 79.04 152.728 78.98 153.148 79C153.968 79.02 154.668 79.4 155.068 80.04C155.268 80.38 155.408 80.76 155.468 81.14C155.508 81.34 155.508 81.56 155.508 81.76V82.46V87.96H156.728ZM169.084 83.52C169.104 83.34 169.124 83.16 169.124 82.96C169.124 80.18 166.684 77.9 163.664 77.9C160.644 77.9 158.204 80.18 158.204 82.96C158.204 85.76 160.824 88.04 164.084 88.04C166.044 88.04 167.844 87.2 168.924 85.84L167.804 85.36C166.924 86.34 165.564 86.94 164.084 86.94C161.724 86.94 159.784 85.44 159.464 83.52H169.084ZM159.464 82.42C159.764 80.5 161.524 79 163.664 79C165.804 79 167.564 80.5 167.864 82.42H159.464ZM179.555 87.96V82.28C179.575 81.26 179.315 80.16 178.575 79.26C178.195 78.82 177.695 78.44 177.135 78.2C176.555 77.96 175.935 77.88 175.335 77.88C174.755 77.9 174.135 78.02 173.595 78.28C173.055 78.54 172.595 78.92 172.275 79.36C172.155 79.52 172.055 79.7 171.975 79.86V77.96H170.755V87.96H171.975V82.5C171.975 82.42 171.975 82.36 171.975 82.28C172.015 81.82 172.095 81.38 172.255 80.96C172.415 80.54 172.655 80.16 172.975 79.86C173.575 79.22 174.455 78.96 175.335 79C176.235 79.02 177.055 79.34 177.575 79.96C177.835 80.26 178.035 80.64 178.155 81.02C178.275 81.42 178.335 81.84 178.335 82.28V87.96H179.555ZM184.651 86.34C184.171 86.02 183.991 85.5 183.991 84.3V79.08H187.291V77.96H183.991V74.86L182.771 75.52V77.98H180.051V79.08H182.771V84.3C182.771 85.62 182.971 86.62 183.931 87.24C184.511 87.6 185.251 87.72 186.071 87.72C186.471 87.72 186.871 87.7 187.291 87.66V86.54C186.331 86.64 185.211 86.7 184.651 86.34ZM198.508 77.9C195.488 77.9 193.048 80.18 193.048 82.96C193.048 85.76 195.488 88.04 198.508 88.04C201.528 88.04 203.968 85.76 203.968 82.96C203.968 80.18 201.528 77.9 198.508 77.9ZM198.508 86.94C196.168 86.94 194.268 85.16 194.268 82.96C194.268 80.78 196.168 79 198.508 79C200.848 79 202.748 80.78 202.748 82.96C202.748 85.16 200.848 86.94 198.508 86.94ZM214.399 87.96V82.28C214.419 81.26 214.159 80.16 213.419 79.26C213.039 78.82 212.539 78.44 211.979 78.2C211.399 77.96 210.779 77.88 210.179 77.88C209.599 77.9 208.979 78.02 208.439 78.28C207.899 78.54 207.439 78.92 207.119 79.36C206.999 79.52 206.899 79.7 206.819 79.86V77.96H205.599V87.96H206.819V82.5C206.819 82.42 206.819 82.36 206.819 82.28C206.859 81.82 206.939 81.38 207.099 80.96C207.259 80.54 207.499 80.16 207.819 79.86C208.419 79.22 209.299 78.96 210.179 79C211.079 79.02 211.899 79.34 212.419 79.96C212.679 80.26 212.879 80.64 212.999 81.02C213.119 81.42 213.179 81.84 213.179 82.28V87.96H214.399ZM227.705 74.02H225.685L220.165 88H221.445L222.985 84.14H230.425L231.945 88H233.245L227.705 74.02ZM223.425 83.02L226.705 74.74L229.985 83.02H223.425ZM241.573 77.96V83.44C241.573 83.52 241.573 83.58 241.573 83.66C241.533 84.12 241.453 84.56 241.293 84.98C241.133 85.4 240.893 85.78 240.573 86.08C239.973 86.72 239.093 86.98 238.193 86.94C237.313 86.92 236.493 86.58 235.973 85.98C235.713 85.68 235.513 85.3 235.393 84.9C235.253 84.52 235.213 84.08 235.193 83.66L235.213 77.96H233.993V83.66C233.973 84.68 234.233 85.78 234.973 86.68C235.353 87.12 235.853 87.5 236.413 87.74C236.973 87.96 237.613 88.06 238.193 88.04C238.793 88.04 239.413 87.92 239.953 87.66C240.493 87.4 240.953 87.02 241.273 86.58C241.393 86.4 241.493 86.24 241.573 86.08V87.96H242.793V77.96H241.573ZM249.515 77.88C248.935 77.9 248.315 78.02 247.775 78.28C247.235 78.54 246.775 78.92 246.455 79.36C246.335 79.52 246.235 79.7 246.155 79.86V77.96H244.935V87.96H246.155V82.5C246.155 82.42 246.155 82.36 246.155 82.28C246.195 81.82 246.275 81.38 246.435 80.96C246.595 80.54 246.835 80.16 247.155 79.86C247.755 79.22 248.635 78.96 249.515 79C250.015 79 250.495 79.12 250.895 79.32L251.175 78.16C250.635 77.96 250.075 77.88 249.515 77.88ZM256.575 77.9C253.555 77.9 251.115 80.18 251.115 82.96C251.115 85.76 253.555 88.04 256.575 88.04C259.595 88.04 262.035 85.76 262.035 82.96C262.035 80.18 259.595 77.9 256.575 77.9ZM256.575 86.94C254.235 86.94 252.335 85.16 252.335 82.96C252.335 80.78 254.235 79 256.575 79C258.915 79 260.815 80.78 260.815 82.96C260.815 85.16 258.915 86.94 256.575 86.94ZM268.245 77.88C267.665 77.9 267.045 78.02 266.505 78.28C265.965 78.54 265.505 78.92 265.185 79.36C265.065 79.52 264.965 79.7 264.885 79.86V77.96H263.665V87.96H264.885V82.5C264.885 82.42 264.885 82.36 264.885 82.28C264.925 81.82 265.005 81.38 265.165 80.96C265.325 80.54 265.565 80.16 265.885 79.86C266.485 79.22 267.365 78.96 268.245 79C268.745 79 269.225 79.12 269.625 79.32L269.905 78.16C269.365 77.96 268.805 77.88 268.245 77.88ZM279.765 77.96V80.3C279.565 80.02 279.365 79.74 279.105 79.48C278.625 79 278.045 78.6 277.405 78.34C276.745 78.06 276.025 77.9 275.305 77.9C274.585 77.9 273.845 78.02 273.185 78.28C272.505 78.54 271.905 78.92 271.405 79.4C270.385 80.34 269.825 81.66 269.845 82.96C269.825 84.28 270.385 85.58 271.405 86.54C271.905 87.02 272.505 87.4 273.165 87.66C273.845 87.92 274.565 88.04 275.305 88.04C276.025 88.04 276.745 87.88 277.405 87.6C278.045 87.34 278.625 86.92 279.105 86.46C279.365 86.2 279.565 85.92 279.765 85.62V87.96H280.985V77.96H279.765ZM279.405 84.54C279.165 85.02 278.825 85.48 278.405 85.84C277.565 86.56 276.425 86.94 275.305 86.94C274.185 86.92 273.085 86.48 272.305 85.74C271.505 85.02 271.065 84 271.045 82.96C271.045 81.94 271.505 80.92 272.305 80.18C273.085 79.46 274.165 79.02 275.305 79C276.425 78.98 277.565 79.36 278.405 80.1C278.825 80.46 279.165 80.9 279.405 81.4C279.645 81.9 279.765 82.42 279.765 82.96C279.765 83.5 279.645 84.04 279.405 84.54Z" fill="#1C1C1C"/>
<circle cx="53" cy="81" r="14" stroke="#08AEEA" stroke-width="2" stroke-dasharray="4 4"/>
<defs>
<filter id="filter0_d_1433_5206" x="-71" y="-61" width="502" height="356" filterUnits="userSpaceOnUse" color-interpolation-filters="sRGB">
<feFlood flood-opacity="0" result="BackgroundImageFix"/>
<feColorMatrix in="SourceAlpha" type="matrix" values="0 0 0 0 0 0 0 0 0 0 0 0 0 0 0 0 0 0 127 0" result="hardAlpha"/>
<feOffset dy="10"/>
<feGaussianBlur stdDeviation="35.5"/>
<feComposite in2="hardAlpha" operator="out"/>
<feColorMatrix type="matrix" values="0 0 0 0 0 0 0 0 0 0 0 0 0 0 0 0 0 0 0.05 0"/>
<feBlend mode="normal" in2="BackgroundImageFix" result="effect1_dropShadow_1433_5206"/>
<feBlend mode="normal" in="SourceGraphic" in2="effect1_dropShadow_1433_5206" result="shape"/>
</filter>
</defs>
</svg>
