<svg width="118" height="30" viewBox="0 0 118 30" fill="none" xmlns="http://www.w3.org/2000/svg">
    <path d="M29.2564 15C29.2564 22.724 22.939 29 15.1282 29C7.31737 29 1 22.724 1 15C1 7.27602 7.31737 1 15.1282 1C22.939 1 29.2564 7.27602 29.2564 15Z"
          stroke="#CCCCCC" stroke-opacity="0.4" stroke-width="2"/>
    <path d="M47.7696 14.18C47.5496 14.1 47.3296 14.04 47.1496 13.98C47.0496 13.94 46.9096 13.88 46.7696 13.84C45.1696 13.28 43.6096 12.62 43.7296 11.16C43.8696 9.38 45.9496 8.9 47.0296 8.9C48.8896 8.9 50.1496 9.6 50.7496 10.98L51.8896 10.56C51.0896 8.74 49.4096 7.78 47.0296 7.78C45.5696 7.78 42.7296 8.48 42.5096 11.08C42.3096 13.5 45.0296 14.44 46.3496 14.88C46.4696 14.92 46.5896 14.96 46.6896 15C46.8896 15.08 47.1096 15.14 47.3696 15.22C49.3296 15.86 51.1096 16.6 51.1496 18.42C51.1696 19.1 50.9296 19.7 50.3896 20.16C49.6496 20.82 48.4496 21.18 47.1696 21.12C45.5096 21.04 43.5096 20.22 42.9096 18.14L41.7296 18.42C42.3696 20.62 44.4696 22.1 47.1096 22.22C47.2096 22.22 47.3296 22.24 47.4496 22.24C48.9496 22.24 50.3296 21.78 51.2496 20.96C52.0096 20.28 52.4096 19.38 52.3696 18.4C52.2896 15.64 49.3496 14.7 47.7696 14.18ZM56.5516 16.4L61.3116 11.98H59.6116L55.2116 16.06V7.98H53.9916V21.98H55.2116V16.76L60.8116 21.98H62.5316L56.5516 16.4ZM64.8991 21.96V11.96H63.6591V21.96H64.8991ZM64.2791 8.28C63.7591 8.28 63.3391 8.7 63.3391 9.22C63.3391 9.76 63.7591 10.18 64.2791 10.18C64.7991 10.18 65.2391 9.76 65.2391 9.22C65.2391 8.7 64.7991 8.28 64.2791 8.28ZM76.6185 13.48C76.1185 13 75.4985 12.62 74.8385 12.36C74.1585 12.1 73.4385 11.96 72.7185 11.96C71.9785 11.98 71.2585 12.12 70.6185 12.4C69.9585 12.68 69.3785 13.08 68.8985 13.56C68.6585 13.82 68.4385 14.1 68.2585 14.38V12.04H67.0385V26.04H68.2585V19.7C68.4385 20 68.6585 20.28 68.9185 20.52C69.3785 21 69.9585 21.4 70.6185 21.68C71.2585 21.96 71.9785 22.1 72.7185 22.12C73.4385 22.12 74.1585 22 74.8385 21.74C75.4985 21.48 76.1185 21.08 76.6185 20.62C77.6185 19.66 78.1785 18.36 78.1785 17.04C78.1785 15.74 77.6185 14.42 76.6185 13.48ZM75.7185 19.82C74.9385 20.56 73.8385 21 72.7185 21C71.5985 21.02 70.4585 20.64 69.6185 19.92C69.1985 19.54 68.8385 19.1 68.5985 18.62C68.3785 18.12 68.2585 17.58 68.2585 17.04C68.2585 16.5 68.3785 15.96 68.6185 15.48C68.8385 14.98 69.1985 14.54 69.6185 14.18C70.4585 13.44 71.5985 13.06 72.7185 13.08C73.8385 13.1 74.9385 13.52 75.7185 14.26C76.4985 15 76.9585 16.02 76.9585 17.04C76.9585 18.08 76.4985 19.1 75.7185 19.82ZM89.392 13.48C88.892 13 88.272 12.62 87.612 12.36C86.932 12.1 86.212 11.96 85.492 11.96C84.752 11.98 84.032 12.12 83.392 12.4C82.732 12.68 82.152 13.08 81.672 13.56C81.432 13.82 81.212 14.1 81.032 14.38V12.04H79.812V26.04H81.032V19.7C81.212 20 81.432 20.28 81.692 20.52C82.152 21 82.732 21.4 83.392 21.68C84.032 21.96 84.752 22.1 85.492 22.12C86.212 22.12 86.932 22 87.612 21.74C88.272 21.48 88.892 21.08 89.392 20.62C90.392 19.66 90.952 18.36 90.952 17.04C90.952 15.74 90.392 14.42 89.392 13.48ZM88.492 19.82C87.712 20.56 86.612 21 85.492 21C84.372 21.02 83.232 20.64 82.392 19.92C81.972 19.54 81.612 19.1 81.372 18.62C81.152 18.12 81.032 17.58 81.032 17.04C81.032 16.5 81.152 15.96 81.392 15.48C81.612 14.98 81.972 14.54 82.392 14.18C83.232 13.44 84.372 13.06 85.492 13.08C86.612 13.1 87.712 13.52 88.492 14.26C89.272 15 89.732 16.02 89.732 17.04C89.732 18.08 89.272 19.1 88.492 19.82ZM102.945 17.52C102.965 17.34 102.985 17.16 102.985 16.96C102.985 14.18 100.545 11.9 97.5254 11.9C94.5054 11.9 92.0654 14.18 92.0654 16.96C92.0654 19.76 94.6854 22.04 97.9454 22.04C99.9054 22.04 101.705 21.2 102.785 19.84L101.665 19.36C100.785 20.34 99.4254 20.94 97.9454 20.94C95.5854 20.94 93.6454 19.44 93.3254 17.52H102.945ZM93.3254 16.42C93.6254 14.5 95.3854 13 97.5254 13C99.6654 13 101.425 14.5 101.725 16.42H93.3254ZM114.037 7.96V14.3C113.837 14.02 113.637 13.74 113.377 13.48C112.897 13 112.317 12.6 111.677 12.34C111.017 12.06 110.297 11.9 109.577 11.9C108.857 11.9 108.117 12.02 107.457 12.28C106.777 12.54 106.177 12.92 105.677 13.4C104.657 14.34 104.097 15.66 104.117 16.96C104.097 18.28 104.657 19.58 105.677 20.54C106.177 21.02 106.777 21.4 107.437 21.66C108.117 21.92 108.837 22.04 109.577 22.04C110.297 22.04 111.017 21.88 111.677 21.6C112.317 21.34 112.897 20.92 113.377 20.46C113.617 20.2 113.837 19.92 114.037 19.62V21.96H115.257V7.96H114.037ZM113.677 18.54C113.437 19.02 113.097 19.48 112.677 19.84C111.837 20.56 110.697 20.94 109.577 20.94C108.457 20.92 107.357 20.48 106.577 19.74C105.777 19.02 105.337 18 105.317 16.96C105.317 15.94 105.777 14.92 106.577 14.18C107.357 13.46 108.437 13.02 109.577 13C110.697 12.98 111.837 13.36 112.677 14.1C113.097 14.46 113.437 14.9 113.677 15.4C113.917 15.9 114.037 16.42 114.037 16.96C114.037 17.5 113.917 18.04 113.677 18.54Z"
          fill="#1C1C1C" fill-opacity="0.4"/>
    <ellipse cx="15.1287" cy="15" rx="5.04274" ry="5" fill="#CCCCCC" fill-opacity="0.4"/>
</svg>
