<svg width="160" height="30" viewBox="0 0 160 30" fill="none" xmlns="http://www.w3.org/2000/svg">
    <path d="M51.3378 8.02V17.16C51.3378 17.8 51.2378 18.36 51.0578 18.86C50.8578 19.34 50.5978 19.76 50.2578 20.08C49.9178 20.42 49.4978 20.68 49.0378 20.86C48.5578 21.02 48.0178 21.12 47.4178 21.12C46.8378 21.12 46.2978 21.02 45.8178 20.86C45.3378 20.68 44.9178 20.42 44.5978 20.08C44.2378 19.76 43.9778 19.34 43.7778 18.86C43.5978 18.36 43.4978 17.8 43.4978 17.16V8.02H42.2778V17.16C42.2778 17.92 42.3978 18.62 42.6378 19.24C42.8778 19.86 43.2378 20.4 43.6978 20.84C44.1578 21.3 44.7178 21.64 45.3378 21.88C45.9778 22.12 46.6778 22.24 47.4178 22.24C48.1778 22.24 48.8778 22.12 49.4978 21.88C50.1378 21.64 50.6978 21.3 51.1378 20.84C51.5978 20.4 51.9578 19.86 52.1978 19.24C52.4378 18.62 52.5578 17.92 52.5578 17.18V8.02H51.3378ZM63.4616 21.96V16.28C63.4816 15.26 63.2216 14.16 62.4816 13.26C62.1016 12.82 61.6016 12.44 61.0416 12.2C60.4616 11.96 59.8416 11.88 59.2416 11.88C58.6616 11.9 58.0416 12.02 57.5016 12.28C56.9616 12.54 56.5016 12.92 56.1816 13.36C56.0616 13.52 55.9616 13.7 55.8816 13.86V11.96H54.6616V21.96H55.8816V16.5C55.8816 16.42 55.8816 16.36 55.8816 16.28C55.9216 15.82 56.0016 15.38 56.1616 14.96C56.3216 14.54 56.5616 14.16 56.8816 13.86C57.4816 13.22 58.3616 12.96 59.2416 13C60.1416 13.02 60.9616 13.34 61.4816 13.96C61.7416 14.26 61.9416 14.64 62.0616 15.02C62.1816 15.42 62.2416 15.84 62.2416 16.28V21.96H63.4616ZM69.3028 16.24C69.1428 16.18 68.9828 16.14 68.8628 16.1C68.7828 16.08 68.7028 16.04 68.6028 16C67.5428 15.66 66.5228 15.24 66.6028 14.38C66.7028 13.02 68.7028 13 68.7228 13C69.9428 13 70.7628 13.44 71.1428 14.3L72.2828 13.88C71.7028 12.6 70.4428 11.9 68.7228 11.9C67.2028 11.9 65.5228 12.64 65.3828 14.3C65.2428 16.06 67.2228 16.72 68.1828 17.04C68.2628 17.08 68.3428 17.1 68.4228 17.14C68.5628 17.18 68.7228 17.24 68.9028 17.28C70.2028 17.7 71.3828 18.16 71.4228 19.28C71.4228 19.68 71.2828 20.04 70.9628 20.3C70.4828 20.74 69.6828 20.96 68.8228 20.92C67.7228 20.88 66.4028 20.36 66.0028 19.04L64.8428 19.34C65.3028 20.9 66.8428 21.96 68.7628 22.04C68.8428 22.04 68.9228 22.04 69.0028 22.04C70.1228 22.04 71.1428 21.7 71.8228 21.1C72.3828 20.6 72.6628 19.96 72.6428 19.26C72.5828 17.26 70.4428 16.6 69.3028 16.24ZM79.2505 20.94H79.2305C76.8905 20.92 74.9905 19.14 75.0105 16.96C75.0105 14.78 76.9105 13 79.2505 13C80.6105 13 81.8705 13.6 82.6705 14.64L83.6705 14C82.6505 12.68 80.9905 11.9 79.2705 11.9C79.2505 11.9 79.2505 11.9 79.2505 11.9C76.2305 11.9 73.7905 14.16 73.7905 16.96C73.7705 19.76 76.2105 22.04 79.2305 22.04H79.2505C80.9705 22.04 82.6105 21.28 83.6305 19.98L82.6505 19.34C81.8305 20.34 80.5905 20.94 79.2505 20.94ZM93.9498 21.96V16.28C93.9698 15.26 93.7098 14.16 92.9698 13.26C92.5898 12.82 92.0898 12.44 91.5298 12.2C90.9498 11.96 90.3298 11.88 89.7298 11.88C89.1498 11.9 88.5298 12.02 87.9898 12.28C87.4498 12.54 86.9898 12.92 86.6698 13.36C86.5498 13.52 86.4498 13.7 86.3698 13.86V7.96H85.1498V21.96H86.3698V16.5C86.3698 16.42 86.3698 16.36 86.3698 16.28C86.4098 15.82 86.4898 15.38 86.6498 14.96C86.8098 14.54 87.0498 14.16 87.3698 13.86C87.9698 13.22 88.8498 12.96 89.7298 13C90.6298 13.02 91.4498 13.34 91.9698 13.96C92.2298 14.26 92.4298 14.64 92.5498 15.02C92.6898 15.42 92.7298 15.84 92.7298 16.28V21.96H93.9498ZM106.291 17.52C106.311 17.34 106.331 17.16 106.331 16.96C106.331 14.18 103.891 11.9 100.871 11.9C97.8511 11.9 95.4111 14.18 95.4111 16.96C95.4111 19.76 98.0311 22.04 101.291 22.04C103.251 22.04 105.051 21.2 106.131 19.84L105.011 19.36C104.131 20.34 102.771 20.94 101.291 20.94C98.9311 20.94 96.9911 19.44 96.6711 17.52H106.291ZM96.6711 16.42C96.9711 14.5 98.7311 13 100.871 13C103.011 13 104.771 14.5 105.071 16.42H96.6711ZM117.382 7.96V14.3C117.182 14.02 116.982 13.74 116.722 13.48C116.242 13 115.662 12.6 115.022 12.34C114.362 12.06 113.642 11.9 112.922 11.9C112.202 11.9 111.462 12.02 110.802 12.28C110.122 12.54 109.522 12.92 109.022 13.4C108.002 14.34 107.442 15.66 107.462 16.96C107.442 18.28 108.002 19.58 109.022 20.54C109.522 21.02 110.122 21.4 110.782 21.66C111.462 21.92 112.182 22.04 112.922 22.04C113.642 22.04 114.362 21.88 115.022 21.6C115.662 21.34 116.242 20.92 116.722 20.46C116.962 20.2 117.182 19.92 117.382 19.62V21.96H118.602V7.96H117.382ZM117.022 18.54C116.782 19.02 116.442 19.48 116.022 19.84C115.182 20.56 114.042 20.94 112.922 20.94C111.802 20.92 110.702 20.48 109.922 19.74C109.122 19.02 108.682 18 108.662 16.96C108.662 15.94 109.122 14.92 109.922 14.18C110.702 13.46 111.782 13.02 112.922 13C114.042 12.98 115.182 13.36 116.022 14.1C116.442 14.46 116.782 14.9 117.022 15.4C117.262 15.9 117.382 16.42 117.382 16.96C117.382 17.5 117.262 18.04 117.022 18.54ZM128.136 11.96V17.44C128.136 17.52 128.136 17.58 128.136 17.66C128.096 18.12 128.016 18.56 127.856 18.98C127.696 19.4 127.456 19.78 127.136 20.08C126.536 20.72 125.656 20.98 124.756 20.94C123.876 20.92 123.056 20.58 122.536 19.98C122.276 19.68 122.076 19.3 121.956 18.9C121.816 18.52 121.776 18.08 121.756 17.66L121.776 11.96H120.556V17.66C120.536 18.68 120.796 19.78 121.536 20.68C121.916 21.12 122.416 21.5 122.976 21.74C123.536 21.96 124.176 22.06 124.756 22.04C125.356 22.04 125.976 21.92 126.516 21.66C127.056 21.4 127.516 21.02 127.836 20.58C127.956 20.4 128.056 20.24 128.136 20.08V21.96H129.356V11.96H128.136ZM132.718 21.98V7.98H131.498V21.98H132.718ZM145.197 17.52C145.217 17.34 145.237 17.16 145.237 16.96C145.237 14.18 142.797 11.9 139.777 11.9C136.757 11.9 134.317 14.18 134.317 16.96C134.317 19.76 136.937 22.04 140.197 22.04C142.157 22.04 143.957 21.2 145.037 19.84L143.917 19.36C143.037 20.34 141.677 20.94 140.197 20.94C137.837 20.94 135.897 19.44 135.577 17.52H145.197ZM135.577 16.42C135.877 14.5 137.637 13 139.777 13C141.917 13 143.677 14.5 143.977 16.42H135.577ZM156.289 7.96V14.3C156.089 14.02 155.889 13.74 155.629 13.48C155.149 13 154.569 12.6 153.929 12.34C153.269 12.06 152.549 11.9 151.829 11.9C151.109 11.9 150.369 12.02 149.709 12.28C149.029 12.54 148.429 12.92 147.929 13.4C146.909 14.34 146.349 15.66 146.369 16.96C146.349 18.28 146.909 19.58 147.929 20.54C148.429 21.02 149.029 21.4 149.689 21.66C150.369 21.92 151.089 22.04 151.829 22.04C152.549 22.04 153.269 21.88 153.929 21.6C154.569 21.34 155.149 20.92 155.629 20.46C155.869 20.2 156.089 19.92 156.289 19.62V21.96H157.509V7.96H156.289ZM155.929 18.54C155.689 19.02 155.349 19.48 154.929 19.84C154.089 20.56 152.949 20.94 151.829 20.94C150.709 20.92 149.609 20.48 148.829 19.74C148.029 19.02 147.589 18 147.569 16.96C147.569 15.94 148.029 14.92 148.829 14.18C149.609 13.46 150.689 13.02 151.829 13C152.949 12.98 154.089 13.36 154.929 14.1C155.349 14.46 155.689 14.9 155.929 15.4C156.169 15.9 156.289 16.42 156.289 16.96C156.289 17.5 156.169 18.04 155.929 18.54Z"
          fill="#1C1C1C"/>
    <path d="M29.1887 15C29.1887 22.7261 22.8843 29 15.0943 29C7.30433 29 1 22.7261 1 15C1 7.27392 7.30433 1 15.0943 1C22.8843 1 29.1887 7.27392 29.1887 15Z"
          stroke="#008000" stroke-width="2"/>
    <ellipse cx="15.0939" cy="15" rx="5.03145" ry="5" fill="#008000"/>
</svg>
